<svg width="2728" height="820" xmlns="http://www.w3.org/2000/svg" xmlns:xlink="http://www.w3.org/1999/xlink" overflow="hidden"><defs><clipPath id="clip0"><rect x="777" y="1451" width="2728" height="820"/></clipPath></defs><g clip-path="url(#clip0)" transform="translate(-777 -1451)"><rect x="779.5" y="1453.5" width="487" height="401" stroke="#000000" stroke-width="4.58333" stroke-miterlimit="8" fill="#FFFFFF"/><text font-family="Calibri,Calibri_MSFontService,sans-serif" font-weight="700" font-size="83" transform="matrix(1 0 0 1 837.067 1681)">PLAINTEXT</text><path d="M1266.5 1651.06 1874.41 1651.06 1874.41 1657.94 1266.5 1657.94ZM1869.82 1640.75 1897.32 1654.5 1869.82 1668.25Z"/><rect x="1897.5" y="1453.5" width="487" height="401" stroke="#000000" stroke-width="4.58333" stroke-miterlimit="8" fill="#00B0F0"/><text font-family="Calibri,Calibri_MSFontService,sans-serif" font-weight="700" font-size="83" transform="matrix(1 0 0 1 1933.82 1681)">CIPHERTEXT</text><path d="M2384.5 1651.06 2992.41 1651.06 2992.41 1657.94 2384.5 1657.94ZM2987.82 1640.75 3015.32 1654.5 2987.82 1668.25Z"/><rect x="3015.5" y="1453.5" width="487" height="401" stroke="#000000" stroke-width="4.58333" stroke-miterlimit="8" fill="#FFFFFF"/><text font-family="Calibri,Calibri_MSFontService,sans-serif" font-weight="700" font-size="83" transform="matrix(1 0 0 1 3072.74 1681)">PLAINTEXT</text><path d="M3.4375-1.19223e-05 3.43778 81.1376-3.43722 81.1376-3.4375 1.19223e-05ZM13.7503 76.5543 0.000360892 104.054-13.7497 76.5543Z" transform="matrix(1 0 0 -1 1582.5 1755.55)"/><text font-family="Calibri,Calibri_MSFontService,sans-serif" font-weight="700" font-size="83" transform="matrix(1 0 0 1 1459.58 1836)">PUBLIC<tspan font-size="83" x="58.1626" y="99">KEY</tspan></text><path d="M3.4375-1.19223e-05 3.43778 81.1376-3.43722 81.1376-3.4375 1.19223e-05ZM13.7503 76.5543 0.000360892 104.054-13.7497 76.5543Z" transform="matrix(1 0 0 -1 2700.5 1755.55)"/><text font-family="Calibri,Calibri_MSFontService,sans-serif" font-weight="700" font-size="83" transform="matrix(1 0 0 1 2559.35 1836)">PRIVATE<tspan font-size="83" x="76.221" y="99">KEY</tspan><tspan font-weight="400" font-size="83" x="-1170.67" y="363">For example: </tspan><tspan font-size="83" x="-718.48" y="363">RSA </tspan><tspan font-weight="400" font-size="83" x="-566.176" y="363">or</tspan><tspan font-size="83" x="-475.082" y="363">Elliptic Curve Cryptography</tspan><tspan fill="#00B050" font-size="83" x="-1287.39" y="242">THE PRIVATE KEY NEVER NEEDS TO BE EXCHANGED !!!</tspan></text></g></svg>