<svg width="3957" height="1780" xmlns="http://www.w3.org/2000/svg" xmlns:xlink="http://www.w3.org/1999/xlink" overflow="hidden"><defs><clipPath id="clip0"><rect x="123" y="526" width="3957" height="1780"/></clipPath></defs><g clip-path="url(#clip0)" transform="translate(-123 -526)"><path d="M1406.34 2006.47 1384 1022" stroke="#5B9BD5" stroke-width="2.29167" stroke-miterlimit="8" stroke-dasharray="9.16667 6.875" fill="none" fill-rule="evenodd"/><path d="M123 1484.12 1939.13 1484.13 1939.13 1497.88 123 1497.87ZM1932.26 1470.38 1973.51 1491 1932.26 1511.63Z" fill="#7F7F7F"/><path d="M6.875-1.72665e-06 6.87535 1402.59-6.87465 1402.59-6.875 1.72665e-06ZM20.6254 1395.71 0.000360892 1436.96-20.6246 1395.71Z" fill="#7F7F7F" transform="matrix(1 0 0 -1 773 2165.96)"/><path d="M1516.26 802.5C1400.69 997.693 1285.13 1192.89 1164.95 1244.62 1044.77 1296.36 910.714 1070.6 795.153 1112.93 679.591 1155.26 476.203 1368.48 471.581 1498.61 466.959 1628.74 661.101 1854.5 767.418 1893.7 873.734 1932.9 983.132 1688.32 1109.48 1733.78 1235.83 1779.25 1380.66 1972.87 1525.5 2166.5" stroke="#FFC000" stroke-width="20.625" stroke-miterlimit="8" fill="none" fill-rule="evenodd"/><text fill="#7F7F7F" font-family="Calibri,Calibri_MSFontService,sans-serif" font-weight="700" font-size="110" transform="matrix(1 0 0 1 2018.81 1520)">x<tspan font-size="110" x="-1272.67" y="-858">y</tspan></text><path d="M0 0 1265.69 614.306" stroke="#A9D18E" stroke-width="2.29167" stroke-miterlimit="8" fill="none" fill-rule="evenodd" transform="matrix(1 0 0 -1 259 1567.31)"/><path d="M437.5 1469.5C437.5 1452.93 450.932 1439.5 467.5 1439.5 484.068 1439.5 497.5 1452.93 497.5 1469.5 497.5 1486.07 484.068 1499.5 467.5 1499.5 450.932 1499.5 437.5 1486.07 437.5 1469.5Z" stroke="#7F7F7F" stroke-width="4.58333" stroke-miterlimit="8" fill="#9DC3E6" fill-rule="evenodd"/><path d="M981.5 1208C981.5 1191.16 994.931 1177.5 1011.5 1177.5 1028.07 1177.5 1041.5 1191.16 1041.5 1208 1041.5 1224.84 1028.07 1238.5 1011.5 1238.5 994.931 1238.5 981.5 1224.84 981.5 1208Z" stroke="#7F7F7F" stroke-width="4.58333" stroke-miterlimit="8" fill="#9DC3E6" fill-rule="evenodd"/><text fill="#7F7F7F" font-family="Calibri,Calibri_MSFontService,sans-serif" font-style="italic" font-weight="700" font-size="83" transform="matrix(1 0 0 1 188.383 1380)">P(x<tspan font-size="55" x="107.708" y="20">1</tspan><tspan font-size="83" x="135.781" y="0">,y</tspan><tspan font-size="55" x="195.938" y="20">1</tspan><tspan font-size="83" x="224.01" y="0">)</tspan><tspan font-size="83" x="727.128" y="-6">Q(x</tspan><tspan font-size="55" x="846.868" y="14">2</tspan><tspan font-size="83" x="874.941" y="-6">,y</tspan><tspan font-size="55" x="935.097" y="14">2</tspan><tspan font-size="83" x="963.17" y="-6">)</tspan></text><path d="M1378.5 2017.5C1378.5 2000.93 1391.93 1987.5 1408.5 1987.5 1425.07 1987.5 1438.5 2000.93 1438.5 2017.5 1438.5 2034.07 1425.07 2047.5 1408.5 2047.5 1391.93 2047.5 1378.5 2034.07 1378.5 2017.5Z" stroke="#7F7F7F" stroke-width="4.58333" stroke-miterlimit="8" fill="#9DC3E6" fill-rule="evenodd"/><text fill="#7F7F7F" font-family="Calibri,Calibri_MSFontService,sans-serif" font-style="italic" font-weight="700" font-size="83" transform="matrix(1 0 0 1 1447.17 1969)">R(x<tspan font-size="55" x="110" y="20">3</tspan><tspan font-size="83" x="138.073" y="0">,y</tspan><tspan font-size="55" x="198.229" y="20">3</tspan><tspan font-size="83" x="226.302" y="0">)</tspan></text><path d="M1353.5 1021C1353.5 1004.16 1366.93 990.5 1383.5 990.5 1400.07 990.5 1413.5 1004.16 1413.5 1021 1413.5 1037.84 1400.07 1051.5 1383.5 1051.5 1366.93 1051.5 1353.5 1037.84 1353.5 1021Z" stroke="#7F7F7F" stroke-width="4.58333" stroke-miterlimit="8" fill="#9DC3E6" fill-rule="evenodd"/><text fill="#7F7F7F" font-family="Calibri,Calibri_MSFontService,sans-serif" font-style="italic" font-weight="700" font-size="83" transform="matrix(1 0 0 1 1107.4 920)">-<tspan font-size="83" x="25.2083" y="0">R(x</tspan><tspan font-size="55" x="135.208" y="20">3</tspan><tspan font-size="83" x="163.281" y="0">,</tspan><tspan font-size="83" x="184.479" y="0">-</tspan><tspan font-size="83" x="209.688" y="0">y</tspan><tspan font-size="55" x="248.646" y="20">3</tspan><tspan font-size="83" x="276.719" y="0">)</tspan><tspan fill="#8FAADC" font-style="normal" font-size="110" x="1440.56" y="-228">FINDING x</tspan><tspan fill="#8FAADC" font-style="normal" font-size="73" x="1908.06" y="-201">3</tspan><tspan fill="#8FAADC" font-style="normal" font-size="110" x="1969.93" y="-228">AND y</tspan><tspan fill="#8FAADC" font-style="normal" font-size="73" x="2254.67" y="-201">3</tspan><tspan fill="#8FAADC" font-style="normal" font-size="110" x="2316.55" y="-228">VARIABLES</tspan></text><path d="M2547.67 703.888 2781.67 703.888 3015.67 703.888 3015.67 710.888 2781.67 710.888 2547.67 710.888Z" fill="#8FAADC" fill-rule="evenodd"/><path d="M3052.67 703.888 3361.67 703.888 3361.67 710.888 3052.67 710.888Z" fill="#8FAADC" fill-rule="evenodd"/><path d="M3399.67 703.888 3660.17 703.888 3920.67 703.888 3920.67 710.888 3660.17 710.888 3399.67 710.888Z" fill="#8FAADC" fill-rule="evenodd"/><text fill="#595959" font-family="Calibri,Calibri_MSFontService,sans-serif" font-style="italic" font-weight="400" font-size="110" transform="matrix(1 0 0 1 2455.46 929)">we can assume that a non-<tspan font-size="110" x="1199.57" y="0">singular</tspan><tspan font-size="110" x="46.1311" y="119">elliptic curve has </tspan><tspan font-weight="700" font-size="110" x="812.098" y="119">3</tspan><tspan font-size="110" x="892.306" y="119">roots because</tspan><tspan font-size="110" x="321.91" y="238">it is a cubic equation</tspan><tspan font-weight="700" font-size="110" x="87.3125" y="476">(x</tspan><tspan font-weight="700" font-size="110" x="172.104" y="476">-</tspan><tspan font-weight="700" font-size="110" x="205.906" y="476">a)(x</tspan><tspan font-weight="700" font-size="110" x="382.938" y="476">-</tspan><tspan font-weight="700" font-size="110" x="416.74" y="476">b)(x</tspan><tspan font-weight="700" font-size="110" x="593.771" y="476">-</tspan><tspan font-weight="700" font-size="110" x="627.573" y="476">c) = 0</tspan><tspan font-size="110" x="891.687" y="476">if we assume</tspan><tspan font-size="110" x="68.4749" y="594">the roots are </tspan><tspan font-weight="700" font-size="110" x="666.6" y="594">(a,b,c)</tspan><tspan font-size="110" x="978.267" y="594">accordingly</tspan><tspan font-weight="700" font-size="110" x="305.731" y="832">(x</tspan><tspan font-weight="700" font-size="73" x="390.523" y="799">2</tspan><tspan font-weight="700" font-size="110" x="427.763" y="832">-</tspan><tspan font-weight="700" font-size="110" x="461.565" y="832">bx</tspan><tspan font-weight="700" font-size="110" x="567.852" y="832">-</tspan><tspan font-weight="700" font-size="110" x="601.654" y="832">ax</tspan><tspan font-weight="700" font-size="110" x="709.935" y="832">-</tspan><tspan font-weight="700" font-size="110" x="743.737" y="832">ab)(x</tspan><tspan font-weight="700" font-size="110" x="978.633" y="832">-</tspan><tspan font-weight="700" font-size="110" x="1012.44" y="832">c) = 0</tspan></text><path d="M2600.5 2002.67C2600.5 1969.44 2627.44 1942.5 2660.67 1942.5L3808.33 1942.5C3841.56 1942.5 3868.5 1969.44 3868.5 2002.67L3868.5 2243.33C3868.5 2276.56 3841.56 2303.5 3808.33 2303.5L2660.67 2303.5C2627.44 2303.5 2600.5 2276.56 2600.5 2243.33Z" stroke="#7F7F7F" stroke-width="4.58333" stroke-miterlimit="8" fill="#FFF2CC" fill-rule="evenodd"/><text fill="#7F7F7F" font-family="Calibri,Calibri_MSFontService,sans-serif" font-weight="700" font-size="110" transform="matrix(1 0 0 1 2904.28 2153)">x<tspan font-size="73" x="50.4168" y="27">3</tspan><tspan font-size="110" x="112.292" y="0">= m</tspan><tspan font-size="73" x="281.302" y="-33">2</tspan><tspan font-size="110" x="343.177" y="0">-</tspan><tspan font-size="110" x="401.615" y="0">x</tspan><tspan font-size="73" x="452.031" y="27">1</tspan><tspan font-size="110" x="513.906" y="0">-</tspan><tspan font-size="110" x="572.344" y="0">x</tspan><tspan font-size="73" x="622.761" y="27">2</tspan></text></g></svg>