<svg width="4030" height="1915" xmlns="http://www.w3.org/2000/svg" xmlns:xlink="http://www.w3.org/1999/xlink" overflow="hidden"><defs><clipPath id="clip0"><rect x="335" y="485" width="4030" height="1915"/></clipPath></defs><g clip-path="url(#clip0)" transform="translate(-335 -485)"><text fill="#FFC000" font-family="Calibri,Calibri_MSFontService,sans-serif" font-weight="700" font-size="110" transform="matrix(1 0 0 1 401.898 622)">DOUBLE AND ADD ALGORITHM<tspan fill="#595959" font-weight="400" font-size="92" x="0" y="171">We can do bettern the naive approach </tspan><tspan fill="#595959" font-weight="400" font-size="92" x="1448.84" y="171">–</tspan><tspan fill="#595959" font-weight="400" font-size="92" x="1515.3" y="171">we need to transform </tspan><tspan fill="#595959" font-size="92" x="2342.54" y="171">n</tspan><tspan fill="#595959" font-weight="400" font-size="92" x="2412.44" y="171">into binary and we have </tspan><tspan fill="#595959" font-weight="400" font-size="92" x="0" y="281">to consider all the bits one by one (except for the first bit)</tspan><tspan fill="#595959" font-style="italic" font-weight="400" font-size="110" x="890.269" y="510">for example we want to calculate</tspan><tspan fill="#595959" font-style="italic" font-size="110" x="2389.48" y="510">26P</tspan><tspan fill="#595959" font-style="italic" font-size="110" x="1422.16" y="747">26</tspan><tspan fill="#595959" font-style="italic" font-size="73" x="1533.31" y="774">10</tspan><tspan fill="#595959" font-style="italic" font-size="110" x="1632.43" y="747">= 11010</tspan><tspan fill="#595959" font-style="italic" font-size="73" x="1989.93" y="774">2</tspan></text><path d="M368.898 1565.8 1346.68 1565.8 1346.68 1699.64 368.898 1699.64Z" fill="#5B9BD5" fill-rule="evenodd"/><path d="M1346.68 1565.8 2324.45 1565.8 2324.45 1699.64 1346.68 1699.64Z" fill="#5B9BD5" fill-rule="evenodd"/><path d="M2324.45 1565.8 3302.23 1565.8 3302.23 1699.64 2324.45 1699.64Z" fill="#5B9BD5" fill-rule="evenodd"/><path d="M368.898 1699.64 1346.68 1699.64 1346.68 1833.47 368.898 1833.47Z" fill="#D2DEEF" fill-rule="evenodd"/><path d="M1346.68 1699.64 2324.45 1699.64 2324.45 1833.47 1346.68 1833.47Z" fill="#D2DEEF" fill-rule="evenodd"/><path d="M2324.45 1699.64 3302.23 1699.64 3302.23 1833.47 2324.45 1833.47Z" fill="#D2DEEF" fill-rule="evenodd"/><path d="M368.898 1833.47 1346.68 1833.47 1346.68 1967.3 368.898 1967.3Z" fill="#EAEFF7" fill-rule="evenodd"/><path d="M1346.68 1833.47 2324.45 1833.47 2324.45 1967.3 1346.68 1967.3Z" fill="#EAEFF7" fill-rule="evenodd"/><path d="M2324.45 1833.47 3302.23 1833.47 3302.23 1967.3 2324.45 1967.3Z" fill="#EAEFF7" fill-rule="evenodd"/><path d="M368.898 1967.3 1346.68 1967.3 1346.68 2101.14 368.898 2101.14Z" fill="#D2DEEF" fill-rule="evenodd"/><path d="M1346.68 1967.3 2324.45 1967.3 2324.45 2101.14 1346.68 2101.14Z" fill="#D2DEEF" fill-rule="evenodd"/><path d="M2324.45 1967.3 3302.23 1967.3 3302.23 2101.14 2324.45 2101.14Z" fill="#D2DEEF" fill-rule="evenodd"/><path d="M368.898 2101.14 1346.68 2101.14 1346.68 2234.97 368.898 2234.97Z" fill="#EAEFF7" fill-rule="evenodd"/><path d="M1346.68 2101.14 2324.45 2101.14 2324.45 2234.97 1346.68 2234.97Z" fill="#EAEFF7" fill-rule="evenodd"/><path d="M2324.45 2101.14 3302.23 2101.14 3302.23 2234.97 2324.45 2234.97Z" fill="#EAEFF7" fill-rule="evenodd"/><path d="M368.898 2234.97 1346.68 2234.97 1346.68 2368.8 368.898 2368.8Z" fill="#D2DEEF" fill-rule="evenodd"/><path d="M1346.68 2234.97 2324.45 2234.97 2324.45 2368.8 1346.68 2368.8Z" fill="#D2DEEF" fill-rule="evenodd"/><path d="M2324.45 2234.97 3302.23 2234.97 3302.23 2368.8 2324.45 2368.8Z" fill="#D2DEEF" fill-rule="evenodd"/><path d="M1346.68 1563.51 1346.68 2371.1" stroke="#FFFFFF" stroke-width="4.58333" stroke-linejoin="round" stroke-miterlimit="10" fill="none" fill-rule="evenodd"/><path d="M2324.45 1563.51 2324.45 2371.1" stroke="#FFFFFF" stroke-width="4.58333" stroke-linejoin="round" stroke-miterlimit="10" fill="none" fill-rule="evenodd"/><path d="M366.606 1699.64 3304.52 1699.64" stroke="#FFFFFF" stroke-width="13.75" stroke-linejoin="round" stroke-miterlimit="10" fill="none" fill-rule="evenodd"/><path d="M366.606 1833.47 3304.52 1833.47" stroke="#FFFFFF" stroke-width="4.58333" stroke-linejoin="round" stroke-miterlimit="10" fill="none" fill-rule="evenodd"/><path d="M366.606 1967.3 3304.52 1967.3" stroke="#FFFFFF" stroke-width="4.58333" stroke-linejoin="round" stroke-miterlimit="10" fill="none" fill-rule="evenodd"/><path d="M366.606 2101.14 3304.52 2101.14" stroke="#FFFFFF" stroke-width="4.58333" stroke-linejoin="round" stroke-miterlimit="10" fill="none" fill-rule="evenodd"/><path d="M366.606 2234.97 3304.52 2234.97" stroke="#FFFFFF" stroke-width="4.58333" stroke-linejoin="round" stroke-miterlimit="10" fill="none" fill-rule="evenodd"/><path d="M368.898 1563.51 368.898 2371.1" stroke="#FFFFFF" stroke-width="4.58333" stroke-linejoin="round" stroke-miterlimit="10" fill="none" fill-rule="evenodd"/><path d="M3302.23 1563.51 3302.23 2371.1" stroke="#FFFFFF" stroke-width="4.58333" stroke-linejoin="round" stroke-miterlimit="10" fill="none" fill-rule="evenodd"/><path d="M366.606 1565.8 3304.52 1565.8" stroke="#FFFFFF" stroke-width="4.58333" stroke-linejoin="round" stroke-miterlimit="10" fill="none" fill-rule="evenodd"/><path d="M366.606 2368.8 3304.52 2368.8" stroke="#FFFFFF" stroke-width="4.58333" stroke-linejoin="round" stroke-miterlimit="10" fill="none" fill-rule="evenodd"/><text fill="#FFFFFF" font-family="Calibri,Calibri_MSFontService,sans-serif" font-weight="700" font-size="83" transform="matrix(1 0 0 1 658.939 1659)">ACTUAL BIT<tspan font-size="83" x="930.34" y="0">OPERATION(S)</tspan><tspan font-size="83" x="2030.36" y="0">RESULT</tspan><tspan fill="#7F7F7F" font-size="83" x="177.936" y="134">1</tspan><tspan fill="#7F7F7F" font-size="83" x="1101.57" y="134">SKIP</tspan><tspan fill="#7F7F7F" font-size="83" x="2132.35" y="134">P</tspan><tspan fill="#7F7F7F" font-size="83" x="177.936" y="268">1</tspan><tspan fill="#7F7F7F" font-size="83" x="909.933" y="268">double and add</tspan><tspan fill="#7F7F7F" font-size="83" x="2005.16" y="268">2P+P=3P</tspan><tspan fill="#7F7F7F" font-size="83" x="177.936" y="402">0</tspan><tspan fill="#7F7F7F" font-size="83" x="1057.75" y="402">double</tspan><tspan fill="#7F7F7F" font-size="83" x="2111.43" y="402">6P</tspan><tspan fill="#7F7F7F" font-size="83" x="177.936" y="536">1</tspan><tspan fill="#7F7F7F" font-size="83" x="909.933" y="536">double and add</tspan><tspan fill="#7F7F7F" font-size="83" x="1963.34" y="536">12P+P=13P</tspan><tspan fill="#7F7F7F" font-size="83" x="177.936" y="669">0</tspan><tspan fill="#7F7F7F" font-size="83" x="1057.75" y="669">double</tspan><tspan fill="#7F7F7F" font-size="83" x="2090.52" y="669">26P</tspan><tspan fill="#595959" font-style="italic" font-size="92" x="2596.09" y="-599">O(m) </tspan><tspan fill="#595959" font-style="italic" font-weight="400" font-size="92" x="2809.21" y="-599">where </tspan><tspan fill="#595959" font-style="italic" font-size="92" x="3060.72" y="-599">m = log</tspan><tspan fill="#595959" font-style="italic" font-size="61" x="3340.31" y="-577">2</tspan><tspan fill="#595959" font-style="italic" font-size="92" x="3371.24" y="-599">n</tspan><tspan fill="#A9D18E" font-style="italic" font-size="92" x="2441.03" y="-379">THIS ALGORITHM HAS LINEAR</tspan><tspan fill="#A9D18E" font-style="italic" font-size="92" x="2403.17" y="-269">RUNNING TIME COMPLEXITY !!!</tspan></text><path d="M2982 1234C2982 1028.55 3288.46 862 3666.5 862 4044.54 862 4351 1028.55 4351 1234 4351 1439.45 4044.54 1606 3666.5 1606 3288.46 1606 2982 1439.45 2982 1234Z" stroke="#FFC000" stroke-width="27.5" stroke-miterlimit="8" fill="none" fill-rule="evenodd"/></g></svg>