<svg width="2819" height="1294" xmlns="http://www.w3.org/2000/svg" overflow="hidden"><defs><clipPath id="clip0"><rect x="1157" y="1064" width="2819" height="1294"/></clipPath></defs><g clip-path="url(#clip0)" transform="translate(-1157 -1064)"><text font-family="Calibri,Calibri_MSFontService,sans-serif" font-weight="400" font-size="83" transform="matrix(1 0 0 1 1207.32 1167)">For example<tspan font-size="83" x="410.942" y="0">: </tspan><tspan font-weight="700" font-size="83" x="452.192" y="0">n=11</tspan><tspan font-size="83" x="640.108" y="0">and </tspan><tspan font-weight="700" font-size="83" x="785.629" y="0">g=8</tspan></text><path d="M1207.32 1175.74 1412.82 1175.74 1618.32 1175.74 1618.32 1180.74 1412.82 1180.74 1207.32 1180.74Z" fill-rule="evenodd"/><text font-family="Calibri,Calibri_MSFontService,sans-serif" font-weight="700" font-size="83" transform="matrix(1 0 0 1 1403.54 1314)">8  mod 11 = 8<tspan font-size="50" x="47.5678" y="-49">1</tspan><tspan font-size="83" x="0" y="114">8  mod 11 = 9</tspan><tspan font-size="50" x="47.5678" y="66">2</tspan><tspan font-size="83" x="0" y="210">8  mod 11 = 6</tspan><tspan font-size="83" x="0" y="325">8  mod 11 = 4</tspan><tspan font-size="50" x="47.5678" y="276">4</tspan><tspan font-size="83" x="0" y="438">8  mod 11 = 10</tspan><tspan font-size="50" x="47.5678" y="389">5</tspan><tspan font-size="83" x="0" y="552">8  mod 11 = 3</tspan><tspan font-size="50" x="47.5678" y="503">6</tspan><tspan font-size="83" x="0" y="648">8  mod 11 = 2</tspan><tspan font-size="83" x="0" y="762">8  mod 11 = 5</tspan><tspan font-size="50" x="47.5678" y="713">8</tspan><tspan font-size="50" x="47.5678" y="170">3</tspan><tspan font-size="50" x="47.5678" y="611">7</tspan><tspan font-size="83" x="0" y="858">8  mod 11 = 7</tspan><tspan font-size="83" x="0" y="972">8  mod 11 = 1</tspan><tspan font-size="50" x="41.6217" y="923">10</tspan><tspan font-size="50" x="47.5678" y="821">9</tspan><tspan font-weight="400" font-size="83" x="1084.45" y="361">we can come to the conclusion that </tspan><tspan font-size="83" x="2295.25" y="361">8</tspan><tspan font-weight="400" font-size="83" x="2355.98" y="361">is</tspan><tspan font-weight="400" font-size="83" x="968.768" y="460">a primitive root of </tspan><tspan font-size="83" x="1594.55" y="460">11</tspan><tspan font-weight="400" font-size="83" x="1697.11" y="460">so these are good values</tspan><tspan font-weight="400" font-size="83" x="1031.7" y="559">for </tspan><tspan font-size="83" x="1146.26" y="559">Diffie</tspan><tspan font-size="83" x="1332.46" y="559">-</tspan><tspan font-size="83" x="1357.66" y="559">Hellman key exchange </tspan><tspan font-weight="400" font-size="83" x="2134.91" y="559">algorithm</tspan></text><path d="M2.15836e-05-10.3125 120.87-10.3122 120.87 10.3128-2.15836e-05 10.3125ZM110.557-30.9373 172.432 0.000360892 110.557 30.9377Z" fill="#5B9BD5" transform="matrix(-1 0 0 1 2247.93 1754.5)"/></g></svg>