<?xml version="1.0" standalone="no"?>
<!DOCTYPE svg PUBLIC "-//W3C//DTD SVG 20010904//EN"
 "http://www.w3.org/TR/2001/REC-SVG-20010904/DTD/svg10.dtd">
<svg version="1.0" xmlns="http://www.w3.org/2000/svg"
 width="2755.000000pt" height="377.000000pt" viewBox="0 0 2755.000000 377.000000"
 preserveAspectRatio="xMidYMid meet">

<g transform="translate(0.000000,377.000000) scale(0.100000,-0.100000)"
fill="#000000" stroke="none">
<path d="M2799 3271 c-113 -35 -169 -123 -169 -268 0 -101 16 -149 66 -199 65
-65 179 -82 278 -40 34 14 36 18 36 60 0 26 -2 46 -5 46 -3 0 -23 -9 -45 -20
-81 -41 -168 -18 -201 53 -22 50 -25 153 -5 200 35 84 126 112 200 62 21 -14
42 -23 47 -20 17 11 10 74 -10 94 -35 35 -129 50 -192 32z"/>
<path d="M6829 3273 c-15 -2 -50 -18 -79 -36 -166 -101 -156 -393 17 -469 57
-25 147 -33 217 -18 88 18 96 31 96 149 0 55 -4 111 -10 125 -9 26 -11 26
-110 26 l-100 0 0 -40 0 -40 55 0 55 0 0 -65 0 -64 -36 -7 c-78 -14 -136 12
-174 79 -18 32 -21 50 -18 107 6 109 56 162 161 168 51 3 70 -1 112 -22 37
-19 51 -22 57 -13 12 18 0 70 -19 85 -44 32 -143 48 -224 35z"/>
<path d="M14932 3262 c-104 -38 -152 -119 -152 -261 0 -94 19 -154 63 -199 73
-76 239 -82 338 -12 96 69 118 312 38 414 -52 66 -187 93 -287 58z m159 -88
c92 -47 92 -272 0 -327 -65 -39 -151 -14 -186 53 -21 40 -20 181 0 221 33 62
121 87 186 53z"/>
<path d="M17062 3262 c-61 -22 -95 -51 -125 -107 -19 -34 -22 -56 -22 -155 0
-107 2 -118 27 -162 45 -76 160 -115 263 -89 46 12 47 11 87 -25 46 -41 122
-78 144 -70 8 3 14 19 14 40 0 30 -5 38 -32 52 -18 9 -44 26 -58 37 l-25 21
29 58 c52 104 45 266 -15 342 -52 66 -187 93 -287 58z m159 -88 c92 -47 92
-272 0 -327 -65 -39 -151 -14 -186 53 -20 39 -20 181 0 219 34 66 118 91 186
55z"/>
<path d="M19164 3261 c-60 -27 -84 -63 -84 -126 0 -75 27 -109 125 -160 60
-31 82 -48 90 -69 8 -25 6 -31 -18 -52 -35 -30 -94 -32 -156 -4 -24 11 -45 20
-48 20 -2 0 -3 -19 -1 -42 3 -36 8 -45 38 -63 52 -30 160 -28 216 3 76 44 101
126 62 202 -20 38 -34 50 -95 80 -113 55 -136 87 -93 130 26 26 85 26 129 -1
27 -16 36 -18 42 -7 24 36 3 75 -49 92 -60 21 -108 20 -158 -3z"/>
<path d="M683 3258 c-13 -17 -173 -473 -173 -492 0 -12 10 -16 38 -16 50 0 58
7 75 65 l14 50 103 0 103 0 20 -57 19 -58 48 0 c27 0 51 4 54 9 7 11 -164 494
-178 503 -18 13 -113 9 -123 -4z m98 -203 l37 -105 -78 0 -78 0 36 110 c20 60
38 107 41 104 3 -3 22 -52 42 -109z"/>
<path d="M1632 3257 c-9 -11 -12 -76 -10 -258 l3 -244 125 0 c110 1 130 4 168
24 45 23 81 80 82 129 0 44 -28 91 -64 108 l-35 17 29 27 c57 53 46 145 -23
185 -44 26 -256 36 -275 12z m206 -83 c15 -10 22 -25 22 -49 0 -44 -29 -65
-92 -65 l-48 0 0 65 0 65 48 0 c27 0 57 -7 70 -16z m27 -219 c31 -30 32 -71 3
-102 -18 -19 -32 -23 -85 -23 l-63 0 0 75 0 75 60 0 c51 0 65 -4 85 -25z"/>
<path d="M3661 3256 c-8 -9 -11 -86 -9 -257 l3 -244 125 0 c105 1 133 4 171
22 91 41 129 112 129 242 0 134 -57 215 -170 240 -69 16 -235 14 -249 -3z
m222 -77 c76 -39 108 -122 87 -222 -8 -40 -20 -63 -45 -87 -31 -30 -43 -35
-100 -38 l-65 -4 0 181 0 181 51 0 c28 0 60 -5 72 -11z"/>
<path d="M4751 3256 c-8 -9 -11 -86 -9 -257 l3 -244 150 0 150 0 0 35 0 35
-97 3 -98 3 0 74 0 74 83 3 82 3 0 35 0 35 -82 3 -83 3 0 64 0 65 95 0 c93 0
95 1 101 25 13 52 6 55 -144 55 -106 0 -142 -3 -151 -14z"/>
<path d="M5721 3256 c-8 -9 -11 -86 -9 -257 l3 -244 38 -3 c60 -5 67 7 67 114
l0 94 85 0 85 0 0 45 0 45 -85 0 -85 0 0 65 0 65 90 0 90 0 0 45 0 45 -134 0
c-101 0 -136 -3 -145 -14z"/>
<path d="M7762 3262 c-9 -7 -12 -65 -10 -258 l3 -249 38 -3 c61 -5 67 6 67
124 l0 104 95 0 94 0 3 -112 3 -113 29 -3 c15 -2 39 -1 52 2 l24 6 -2 253 -3
252 -38 3 c-59 5 -67 -7 -67 -109 l0 -89 -95 0 -94 0 -3 98 -3 97 -40 3 c-22
1 -46 -2 -53 -6z"/>
<path d="M8845 3257 c-3 -7 -4 -123 -3 -257 l3 -245 45 0 45 0 3 249 c2 193
-1 251 -10 258 -20 12 -78 9 -83 -5z"/>
<path d="M9687 3264 c-4 -4 -7 -96 -7 -204 0 -239 -5 -252 -92 -215 -16 6 -18
1 -18 -38 0 -42 2 -46 31 -56 43 -15 73 -14 115 4 59 24 65 53 62 298 l-3 212
-40 3 c-23 2 -44 0 -48 -4z"/>
<path d="M10475 3258 c-3 -7 -4 -124 -3 -258 l3 -245 45 0 45 0 5 128 5 127
80 -125 c83 -130 94 -139 156 -133 47 4 43 18 -52 160 l-80 119 56 72 c96 123
111 147 94 158 -8 5 -32 8 -54 7 -38 -3 -42 -7 -120 -117 l-80 -113 -5 113 -5
114 -43 3 c-28 2 -44 -1 -47 -10z"/>
<path d="M11495 3257 c-3 -7 -4 -123 -3 -257 l3 -245 138 -3 138 -3 -3 43 -3
43 -87 3 -88 3 0 208 c0 229 2 221 -61 221 -16 0 -32 -6 -34 -13z"/>
<path d="M12410 3250 c-7 -12 -9 -105 -8 -257 l3 -238 24 -3 c12 -2 34 -1 47
2 l24 6 1 208 c1 241 -6 244 93 -38 l61 -175 38 -3 c21 -2 44 2 51 7 7 6 46
104 87 219 l74 207 5 -215 5 -215 45 0 45 0 3 244 c2 171 -1 248 -9 257 -13
16 -111 19 -138 5 -11 -6 -43 -76 -81 -178 -35 -92 -65 -170 -67 -172 -6 -9
-15 10 -73 170 -33 90 -68 170 -77 177 -9 6 -45 12 -80 12 -52 0 -64 -3 -73
-20z"/>
<path d="M13701 3256 c-8 -9 -11 -86 -9 -257 l3 -244 33 -3 c64 -6 66 0 59
218 l-6 195 100 -195 c55 -107 107 -201 116 -207 23 -17 98 -16 112 1 8 9 11
86 9 257 l-3 244 -40 0 -40 0 -3 -179 -2 -180 -95 174 c-52 95 -100 177 -107
182 -22 13 -114 9 -127 -6z"/>
<path d="M15935 3258 c-3 -7 -4 -124 -3 -258 l3 -245 45 0 45 0 3 86 3 86 63
5 c123 10 178 59 184 163 7 126 -47 168 -225 173 -89 3 -114 1 -118 -10z m212
-90 c17 -16 23 -32 23 -65 0 -61 -32 -93 -95 -93 l-45 0 0 90 0 90 47 0 c34 0
53 -6 70 -22z"/>
<path d="M18075 3257 c-3 -7 -4 -123 -3 -257 l3 -245 45 0 45 0 3 103 3 102
33 0 c44 0 74 -34 111 -127 15 -37 32 -71 38 -75 20 -13 97 -9 97 5 0 27 -67
172 -92 199 l-26 28 29 15 c59 31 81 130 43 196 -28 49 -91 68 -222 69 -74 0
-104 -4 -107 -13z m222 -93 c20 -20 24 -31 19 -57 -9 -46 -39 -67 -97 -67
l-49 0 0 75 0 75 50 0 c41 0 56 -5 77 -26z"/>
<path d="M20010 3225 l0 -45 70 0 70 0 0 -210 0 -210 24 -6 c13 -3 37 -4 52
-2 l29 3 3 213 2 212 70 0 70 0 0 45 0 45 -195 0 -195 0 0 -45z"/>
<path d="M21043 3263 c-16 -6 -18 -339 -3 -395 16 -57 54 -96 113 -113 99 -29
204 -9 255 49 43 50 54 113 50 301 l-3 160 -38 3 c-66 6 -67 1 -67 -200 l0
-180 -29 -29 c-24 -24 -38 -29 -76 -29 -38 0 -52 5 -76 29 l-29 29 0 179 c0
126 -4 183 -12 191 -12 12 -62 15 -85 5z"/>
<path d="M22096 3261 c-6 -10 150 -478 167 -498 10 -14 105 -18 123 -5 15 10
177 490 169 502 -3 5 -24 10 -46 10 -48 0 -44 8 -120 -237 -30 -95 -56 -173
-59 -173 -3 0 -32 84 -64 188 -33 103 -63 195 -68 205 -6 12 -21 17 -53 17
-24 0 -46 -4 -49 -9z"/>
<path d="M23155 3261 c-5 -10 105 -444 125 -488 8 -20 17 -23 62 -23 29 0 59
4 66 8 6 5 31 84 54 177 47 193 40 194 94 -19 19 -77 40 -146 46 -153 13 -17
99 -17 121 0 16 12 149 485 140 500 -7 12 -80 8 -90 -5 -5 -7 -29 -100 -53
-205 -24 -106 -46 -190 -49 -187 -3 3 -28 94 -56 202 l-50 197 -46 3 c-29 2
-50 -2 -56 -10 -6 -7 -32 -100 -58 -206 -26 -106 -49 -191 -51 -189 -2 2 -24
90 -49 196 -25 106 -47 197 -50 202 -8 12 -92 12 -100 0z"/>
<path d="M24476 3262 c-3 -5 24 -61 60 -126 l64 -118 -69 -126 c-39 -69 -68
-129 -65 -134 3 -4 25 -8 49 -8 50 0 60 11 125 139 l32 64 28 -48 c15 -26 38
-70 51 -97 24 -52 42 -62 100 -56 25 2 33 7 31 19 -1 9 -31 68 -66 131 l-63
115 64 116 c36 64 62 121 58 127 -3 5 -26 10 -50 10 l-44 0 -48 -90 c-26 -49
-50 -90 -53 -90 -3 0 -25 37 -49 83 -24 45 -49 85 -55 89 -15 10 -94 10 -100
0z"/>
<path d="M25480 3260 c0 -6 34 -78 75 -160 l75 -150 0 -94 c0 -100 3 -106 55
-106 52 0 55 6 55 106 l0 94 75 151 c42 82 73 154 70 159 -9 14 -91 12 -102
-2 -10 -14 -63 -131 -83 -183 -12 -30 -12 -30 -61 75 -27 57 -55 108 -62 112
-18 11 -97 10 -97 -2z"/>
<path d="M26495 3250 c-3 -11 -4 -29 0 -40 5 -17 17 -20 111 -22 l104 -3 -85
-134 c-132 -206 -137 -215 -133 -258 l3 -38 173 -3 172 -2 0 44 0 45 -115 3
-114 3 105 165 c108 169 118 191 112 231 -3 24 -3 24 -165 27 -155 2 -162 2
-168 -18z"/>
<path d="M9700 2235 l0 -295 -60 0 c-33 0 -60 -2 -60 -5 0 -3 30 -65 66 -137
l67 -133 67 135 68 135 -64 3 -64 3 0 294 c0 190 -4 295 -10 295 -6 0 -10
-105 -10 -295z"/>
<path d="M21210 2235 l0 -295 -60 0 c-33 0 -60 -2 -60 -5 0 -3 30 -65 66 -137
l67 -133 67 135 68 135 -64 3 -64 3 0 294 c0 190 -4 295 -10 295 -6 0 -10
-105 -10 -295z"/>
<path d="M16010 2215 l0 -295 -60 0 c-33 0 -60 -2 -60 -5 0 -3 30 -65 66 -137
l67 -133 67 135 68 135 -64 3 -64 3 0 294 c0 190 -4 295 -10 295 -6 0 -10
-105 -10 -295z"/>
<path d="M17140 2215 l0 -295 -60 0 c-33 0 -60 -2 -60 -5 0 -3 30 -65 66 -137
l67 -133 67 135 68 135 -64 3 -64 3 0 294 c0 190 -4 295 -10 295 -6 0 -10
-105 -10 -295z"/>
<path d="M18250 2215 l0 -295 -60 0 c-33 0 -60 -2 -60 -5 0 -3 30 -65 66 -137
l67 -133 67 135 68 135 -64 3 -64 3 0 294 c0 190 -4 295 -10 295 -6 0 -10
-105 -10 -295z"/>
<path d="M19220 2215 l0 -295 -60 0 c-33 0 -60 -2 -60 -5 0 -3 30 -65 66 -137
l67 -133 67 135 68 135 -64 3 -64 3 0 294 c0 190 -4 295 -10 295 -6 0 -10
-105 -10 -295z"/>
<path d="M20230 2215 l0 -295 -60 0 c-33 0 -60 -2 -60 -5 0 -3 30 -65 66 -137
l67 -133 67 135 68 135 -64 3 -64 3 0 294 c0 190 -4 295 -10 295 -6 0 -10
-105 -10 -295z"/>
<path d="M6890 2205 l0 -295 -60 0 c-33 0 -60 -2 -60 -5 0 -3 30 -65 66 -137
l67 -133 67 135 68 135 -64 3 -64 3 0 294 c0 190 -4 295 -10 295 -6 0 -10
-105 -10 -295z"/>
<path d="M7940 2205 l0 -295 -60 0 c-33 0 -60 -2 -60 -5 0 -3 30 -65 66 -137
l67 -133 67 135 68 135 -64 3 -64 3 0 294 c0 190 -4 295 -10 295 -6 0 -10
-105 -10 -295z"/>
<path d="M10590 2205 l0 -295 -60 0 c-33 0 -60 -2 -60 -5 0 -3 30 -65 66 -137
l67 -133 67 135 68 135 -64 3 -64 3 0 294 c0 190 -4 295 -10 295 -6 0 -10
-105 -10 -295z"/>
<path d="M13870 2205 l0 -295 -60 0 c-33 0 -60 -2 -60 -5 0 -3 30 -65 66 -137
l67 -133 67 135 68 135 -64 3 -64 3 0 294 c0 190 -4 295 -10 295 -6 0 -10
-105 -10 -295z"/>
<path d="M14960 2205 l0 -295 -60 0 c-33 0 -60 -2 -60 -5 0 -3 30 -65 66 -137
l67 -133 67 135 68 135 -64 3 -64 3 0 294 c0 190 -4 295 -10 295 -6 0 -10
-105 -10 -295z"/>
<path d="M22290 2205 l0 -295 -60 0 c-33 0 -60 -2 -60 -5 0 -3 30 -65 66 -137
l67 -133 67 135 68 135 -64 3 -64 3 0 294 c0 190 -4 295 -10 295 -6 0 -10
-105 -10 -295z"/>
<path d="M23480 2205 l0 -295 -60 0 c-33 0 -60 -2 -60 -5 0 -3 30 -65 66 -137
l67 -133 67 135 68 135 -64 3 -64 3 0 294 c0 190 -4 295 -10 295 -6 0 -10
-105 -10 -295z"/>
<path d="M24610 2205 l0 -295 -60 0 c-33 0 -60 -2 -60 -5 0 -3 30 -65 66 -137
l67 -133 67 135 68 135 -64 3 -64 3 0 294 c0 190 -4 295 -10 295 -6 0 -10
-105 -10 -295z"/>
<path d="M25620 2205 l0 -295 -60 0 c-33 0 -60 -2 -60 -5 0 -3 30 -65 66 -137
l67 -133 67 135 68 135 -64 3 -64 3 0 294 c0 190 -4 295 -10 295 -6 0 -10
-105 -10 -295z"/>
<path d="M26630 2205 l0 -295 -60 0 c-33 0 -60 -2 -60 -5 0 -3 30 -65 66 -137
l67 -133 67 135 68 135 -64 3 -64 3 0 294 c0 190 -4 295 -10 295 -6 0 -10
-105 -10 -295z"/>
<path d="M700 2195 l0 -295 -60 0 c-33 0 -60 -2 -60 -5 0 -3 30 -65 66 -137
l67 -133 67 135 68 135 -64 3 -64 3 0 294 c0 190 -4 295 -10 295 -6 0 -10
-105 -10 -295z"/>
<path d="M1790 2195 l0 -295 -60 0 c-33 0 -60 -2 -60 -5 0 -3 30 -65 66 -137
l67 -133 67 135 68 135 -64 3 -64 3 0 294 c0 190 -4 295 -10 295 -6 0 -10
-105 -10 -295z"/>
<path d="M2810 2195 l0 -295 -60 0 c-33 0 -60 -2 -60 -5 0 -3 30 -65 66 -137
l67 -133 67 135 68 135 -64 3 -64 3 0 294 c0 190 -4 295 -10 295 -6 0 -10
-105 -10 -295z"/>
<path d="M4850 2195 l0 -295 -60 0 c-33 0 -60 -2 -60 -5 0 -3 30 -65 66 -137
l67 -133 67 135 68 135 -64 3 -64 3 0 294 c0 190 -4 295 -10 295 -6 0 -10
-105 -10 -295z"/>
<path d="M11590 2195 l0 -295 -60 0 c-33 0 -60 -2 -60 -5 0 -3 30 -65 66 -137
l67 -133 67 135 68 135 -64 3 -64 3 0 294 c0 190 -4 295 -10 295 -6 0 -10
-105 -10 -295z"/>
<path d="M3830 2185 l0 -295 -60 0 c-33 0 -60 -2 -60 -5 0 -3 30 -65 66 -137
l67 -133 67 135 68 135 -64 3 -64 3 0 294 c0 190 -4 295 -10 295 -6 0 -10
-105 -10 -295z"/>
<path d="M5780 2185 l0 -295 -60 0 c-33 0 -60 -2 -60 -5 0 -3 30 -65 66 -137
l67 -133 67 135 68 135 -64 3 -64 3 0 294 c0 190 -4 295 -10 295 -6 0 -10
-105 -10 -295z"/>
<path d="M8830 2185 l0 -295 -60 0 c-33 0 -60 -2 -60 -5 0 -3 30 -65 66 -137
l67 -133 67 135 68 135 -64 3 -64 3 0 294 c0 190 -4 295 -10 295 -6 0 -10
-105 -10 -295z"/>
<path d="M12690 2185 l0 -295 -60 0 c-33 0 -60 -2 -60 -5 0 -3 30 -65 66 -137
l67 -133 67 135 68 135 -64 3 -64 3 0 294 c0 190 -4 295 -10 295 -6 0 -10
-105 -10 -295z"/>
<path d="M20911 1371 c-60 -21 -71 -32 -71 -77 0 -43 7 -46 52 -23 53 27 105
22 130 -12 34 -45 12 -93 -92 -204 -91 -97 -107 -125 -96 -170 l7 -25 167 2
167 3 0 40 0 40 -108 5 -108 5 66 65 c86 85 124 145 131 207 16 131 -94 196
-245 144z"/>
<path d="M21354 1380 c-41 -13 -90 -69 -103 -117 -31 -111 -20 -282 23 -345
66 -99 236 -86 296 22 23 42 25 54 25 185 0 126 -2 144 -23 182 -12 24 -36 50
-53 59 -39 19 -123 27 -165 14z m120 -103 c19 -25 21 -42 21 -157 0 -115 -2
-131 -21 -157 -17 -22 -29 -28 -60 -28 -34 0 -41 4 -57 35 -15 29 -18 55 -15
162 3 119 5 128 28 153 32 34 75 31 104 -8z"/>
<path d="M21991 1371 c-60 -21 -71 -32 -71 -77 0 -43 7 -46 52 -23 53 27 105
22 130 -12 34 -45 12 -93 -92 -204 -91 -97 -107 -125 -96 -170 l7 -25 167 2
167 3 0 40 0 40 -108 5 -108 5 66 65 c86 85 124 145 131 207 16 131 -94 196
-245 144z"/>
<path d="M23182 1375 c-61 -19 -72 -31 -72 -81 0 -24 2 -44 5 -44 3 0 23 9 45
20 75 38 140 18 140 -44 0 -44 -36 -101 -121 -191 -77 -82 -80 -87 -77 -128
l3 -42 167 -3 c157 -2 167 -1 173 17 3 11 3 31 -1 45 -6 26 -7 26 -112 26
l-105 0 65 68 c98 101 128 153 128 221 0 73 -16 101 -70 129 -50 25 -104 27
-168 7z"/>
<path d="M23602 1375 c-61 -19 -72 -31 -72 -81 0 -24 2 -44 5 -44 3 0 23 9 45
20 75 38 140 18 140 -44 0 -44 -36 -101 -121 -191 -77 -82 -80 -87 -77 -128
l3 -42 167 -3 c157 -2 167 -1 173 17 3 11 3 31 -1 45 -6 26 -7 26 -112 26
l-105 0 65 68 c98 101 128 153 128 221 0 73 -16 101 -70 129 -50 25 -104 27
-168 7z"/>
<path d="M24311 1371 c-60 -21 -71 -32 -71 -77 0 -43 7 -46 52 -23 53 27 105
22 130 -12 34 -45 12 -93 -92 -204 -91 -97 -107 -125 -96 -170 l7 -25 167 2
167 3 0 40 0 40 -108 5 -108 5 66 65 c86 85 124 145 131 207 16 131 -94 196
-245 144z"/>
<path d="M24726 1379 c-22 -5 -45 -14 -53 -20 -12 -11 -19 -89 -8 -89 3 0 23
9 45 20 56 29 104 26 129 -6 28 -36 26 -50 -8 -85 -25 -24 -37 -29 -80 -29
l-51 0 0 -39 0 -39 64 -4 c77 -5 106 -25 106 -74 0 -65 -89 -95 -177 -59 -19
8 -37 15 -39 15 -2 0 -4 -20 -4 -44 0 -42 2 -45 38 -57 58 -21 170 -18 217 6
113 57 114 222 2 254 l-32 8 27 11 c63 26 87 121 46 182 -37 53 -123 72 -222
49z"/>
<path d="M25332 1375 c-61 -19 -72 -31 -72 -81 0 -24 2 -44 5 -44 3 0 23 9 45
20 75 38 140 18 140 -44 0 -44 -36 -101 -121 -191 -77 -82 -80 -87 -77 -128
l3 -42 167 -3 c157 -2 167 -1 173 17 3 11 3 31 -1 45 -6 26 -7 26 -112 26
l-105 0 65 68 c98 101 128 153 128 221 0 73 -16 101 -70 129 -50 25 -104 27
-168 7z"/>
<path d="M26331 1371 c-60 -21 -71 -32 -71 -77 0 -43 7 -46 52 -23 53 27 105
22 130 -12 34 -45 12 -93 -92 -204 -91 -97 -107 -125 -96 -170 l7 -25 167 2
167 3 0 40 0 40 -108 5 -108 5 66 65 c86 85 124 145 131 207 16 131 -94 196
-245 144z"/>
<path d="M22428 1338 c-61 -39 -68 -46 -68 -75 0 -40 10 -41 67 -8 l43 26 0
-171 0 -170 -55 0 -55 0 0 -40 0 -40 154 0 c146 0 155 1 161 20 13 41 -3 60
-50 60 l-45 0 -2 218 -3 217 -40 3 c-33 2 -52 -5 -107 -40z"/>
<path d="M25827 1368 c-9 -7 -55 -78 -102 -158 -78 -131 -85 -149 -83 -190 l3
-45 107 -3 107 -3 3 -52 3 -52 38 -3 c51 -4 67 11 67 64 0 40 2 44 25 44 18 0
26 7 31 24 9 38 -4 66 -32 66 l-24 0 0 148 c0 102 -4 152 -12 160 -16 16 -110
15 -131 0z m33 -198 l0 -110 -65 0 c-36 0 -65 3 -65 6 0 7 123 214 127 214 2
0 3 -49 3 -110z"/>
<path d="M26695 1358 c-3 -13 -4 -75 -3 -138 l3 -115 81 -5 c99 -6 124 -23
124 -81 0 -71 -86 -102 -177 -64 -42 18 -53 10 -53 -37 0 -42 47 -63 140 -62
133 1 200 59 200 175 0 95 -48 139 -161 147 l-69 5 0 53 0 53 98 3 97 3 3 43
3 42 -140 0 c-137 0 -141 -1 -146 -22z"/>
<path d="M12811 1351 c-60 -21 -71 -32 -71 -77 0 -43 7 -46 52 -23 53 27 105
22 130 -12 34 -45 12 -93 -92 -204 -91 -97 -107 -125 -96 -170 l7 -25 167 2
167 3 0 40 0 40 -108 5 -108 5 66 65 c86 85 124 145 131 207 16 131 -94 196
-245 144z"/>
<path d="M13986 1356 c-53 -15 -66 -28 -66 -67 0 -37 8 -40 51 -19 76 39 149
15 149 -48 0 -43 -32 -66 -99 -72 l-56 -5 0 -35 0 -35 64 -6 c54 -5 69 -11 88
-33 30 -35 29 -61 -2 -91 -29 -30 -95 -34 -151 -10 -45 18 -54 13 -54 -30 0
-49 41 -69 140 -69 103 -1 163 26 190 86 11 24 20 57 20 74 0 43 -38 97 -78
109 -38 11 -41 21 -7 29 13 3 31 20 40 36 19 38 19 114 -1 145 -32 50 -129 67
-228 41z"/>
<path d="M17340 1361 c-88 -29 -130 -81 -151 -189 -16 -86 -7 -207 21 -261 39
-78 140 -102 236 -57 59 27 85 70 92 151 11 126 -84 194 -208 151 -24 -8 -46
-14 -48 -12 -12 13 16 86 45 115 32 32 35 33 106 30 71 -4 72 -4 75 22 2 14
-4 31 -12 38 -19 16 -122 24 -156 12z m79 -297 c12 -15 21 -40 21 -56 0 -36
-24 -83 -45 -92 -57 -21 -98 13 -109 91 -6 42 -4 50 15 66 33 27 93 23 118 -9z"/>
<path d="M19385 1363 c-82 -22 -115 -61 -115 -139 0 -41 5 -51 39 -85 l38 -39
-34 -26 c-58 -44 -76 -108 -48 -168 25 -52 67 -70 160 -71 124 0 180 36 192
123 7 51 -17 100 -63 131 l-36 25 26 19 c74 54 75 176 2 214 -31 16 -127 26
-161 16z m99 -89 c30 -30 19 -79 -26 -113 -16 -12 -23 -10 -53 13 -28 22 -35
34 -35 61 0 22 6 38 18 44 26 16 79 13 96 -5z m2 -248 c40 -40 42 -54 13 -90
-28 -36 -89 -37 -124 -1 -33 32 -31 47 6 90 39 44 62 44 105 1z"/>
<path d="M20360 1348 c-66 -34 -90 -76 -90 -158 0 -53 5 -74 23 -101 36 -54
115 -71 205 -43 18 5 22 3 22 -16 0 -37 -31 -90 -63 -107 -30 -15 -111 -15
-149 2 -15 6 -18 1 -18 -33 0 -39 1 -40 44 -51 126 -31 224 15 266 125 23 61
28 220 10 286 -29 104 -146 148 -250 96z m137 -84 c9 -14 18 -49 21 -78 4 -48
2 -53 -22 -64 -44 -20 -93 -15 -110 10 -23 32 -20 100 5 132 28 36 82 36 106
0z"/>
<path d="M12408 1315 c-59 -39 -68 -50 -68 -75 0 -37 13 -38 74 -4 l46 26 0
-171 0 -171 -55 0 c-61 0 -72 -10 -61 -55 l6 -25 156 0 155 0 -3 38 c-3 37 -3
37 -50 40 l-48 3 -2 217 -3 217 -40 3 c-33 2 -51 -5 -107 -43z"/>
<path d="M13588 1318 c-61 -39 -68 -46 -68 -75 0 -40 10 -41 67 -8 l43 26 0
-171 0 -170 -55 0 -55 0 0 -40 0 -40 154 0 c146 0 155 1 161 20 13 41 -3 60
-50 60 l-45 0 -2 218 -3 217 -40 3 c-33 2 -52 -5 -107 -40z"/>
<path d="M14678 1318 c-61 -39 -68 -46 -68 -75 0 -40 10 -41 67 -8 l43 26 0
-171 0 -170 -55 0 -55 0 0 -40 0 -40 154 0 c146 0 155 1 161 20 13 41 -3 60
-50 60 l-45 0 -2 218 -3 217 -40 3 c-33 2 -52 -5 -107 -40z"/>
<path d="M15167 1348 c-9 -7 -55 -78 -102 -158 -78 -131 -85 -149 -83 -190 l3
-45 107 -3 107 -3 3 -52 3 -52 38 -3 c51 -4 67 11 67 64 0 40 2 44 25 44 18 0
26 7 31 24 9 38 -4 66 -32 66 l-24 0 0 148 c0 102 -4 152 -12 160 -16 16 -110
15 -131 0z m33 -198 l0 -110 -65 0 c-36 0 -65 3 -65 6 0 7 123 214 127 214 2
0 3 -49 3 -110z"/>
<path d="M15718 1315 c-59 -39 -68 -50 -68 -75 0 -37 13 -38 74 -4 l46 26 0
-171 0 -171 -55 0 c-61 0 -72 -10 -61 -55 l6 -25 156 0 155 0 -3 38 c-3 37 -3
37 -50 40 l-48 3 -2 217 -3 217 -40 3 c-33 2 -51 -5 -107 -43z"/>
<path d="M16077 1353 c-4 -3 -7 -66 -7 -140 l0 -133 80 0 c73 0 83 -3 105 -25
27 -26 31 -51 14 -88 -21 -47 -104 -62 -176 -32 -19 8 -37 15 -39 15 -2 0 -4
-20 -4 -45 l0 -44 57 -17 c136 -39 262 19 278 129 8 52 -8 117 -34 141 -29 27
-90 45 -148 46 l-53 0 0 55 0 55 99 0 c92 0 100 2 106 21 4 11 4 31 1 45 -6
24 -7 24 -140 24 -73 0 -136 -3 -139 -7z"/>
<path d="M16858 1315 c-59 -39 -68 -50 -68 -75 0 -37 13 -38 74 -4 l46 26 0
-171 0 -171 -55 0 c-61 0 -72 -10 -61 -55 l6 -25 156 0 155 0 -3 38 c-3 37 -3
37 -50 40 l-48 3 -2 217 -3 217 -40 3 c-33 2 -51 -5 -107 -43z"/>
<path d="M17958 1315 c-59 -39 -68 -50 -68 -75 0 -37 13 -38 74 -4 l46 26 0
-171 0 -171 -55 0 c-61 0 -72 -10 -61 -55 l6 -25 156 0 155 0 -3 38 c-3 37 -3
37 -50 40 l-48 3 -2 217 -3 217 -40 3 c-33 2 -51 -5 -107 -43z"/>
<path d="M18287 1354 c-9 -10 -9 -56 1 -71 5 -8 45 -13 118 -15 l111 -3 -94
-204 c-71 -155 -91 -206 -81 -213 7 -4 33 -7 58 -6 l44 3 93 210 c77 176 92
217 90 255 l-2 45 -166 3 c-91 1 -168 -1 -172 -4z"/>
<path d="M18938 1318 c-61 -39 -68 -46 -68 -75 0 -40 10 -41 67 -8 l43 26 0
-171 0 -170 -55 0 -55 0 0 -40 0 -40 154 0 c146 0 155 1 161 20 13 41 -3 60
-50 60 l-45 0 -2 218 -3 217 -40 3 c-33 2 -52 -5 -107 -40z"/>
<path d="M19948 1315 c-59 -39 -68 -50 -68 -75 0 -37 13 -38 74 -4 l46 26 0
-171 0 -171 -55 0 c-61 0 -72 -10 -61 -55 l6 -25 156 0 155 0 -3 38 c-3 37 -3
37 -50 40 l-48 3 -2 217 -3 217 -40 3 c-33 2 -51 -5 -107 -43z"/>
<path d="M10735 1316 c-86 -32 -120 -119 -113 -290 4 -89 9 -119 27 -154 36
-70 126 -99 212 -71 80 27 118 95 126 227 12 195 -37 287 -158 298 -34 3 -69
-1 -94 -10z m105 -76 c29 -15 40 -65 40 -180 0 -150 -18 -190 -83 -190 -49 0
-77 68 -76 190 0 156 43 221 119 180z"/>
<path d="M7767 1314 c-9 -10 -9 -56 1 -71 5 -8 45 -13 118 -15 l111 -3 -94
-204 c-71 -155 -91 -206 -81 -213 7 -4 33 -7 58 -6 l44 3 93 210 c77 176 92
217 90 255 l-2 45 -166 3 c-91 1 -168 -1 -172 -4z"/>
<path d="M10308 1275 c-59 -39 -68 -50 -68 -75 0 -37 13 -38 74 -4 l46 26 0
-171 0 -171 -55 0 c-61 0 -72 -10 -61 -55 l6 -25 156 0 155 0 -3 38 c-3 37 -3
37 -50 40 l-48 3 -2 217 -3 217 -40 3 c-33 2 -51 -5 -107 -43z"/>
<path d="M8767 1296 c-46 -17 -64 -32 -83 -67 -29 -56 -7 -131 49 -168 l29
-18 -36 -23 c-44 -27 -66 -66 -66 -117 0 -79 46 -119 146 -129 78 -8 139 9
181 51 28 28 33 40 33 81 0 57 -25 104 -67 129 l-29 17 37 37 c21 21 41 50 45
66 11 44 -15 105 -54 128 -42 25 -136 31 -185 13z m125 -83 c27 -24 22 -60
-12 -95 l-30 -30 -33 21 c-43 27 -55 62 -33 95 13 20 25 26 53 26 20 0 45 -7
55 -17z m-3 -242 c59 -55 32 -121 -49 -121 -80 0 -107 65 -51 121 37 37 61 37
100 0z"/>
<path d="M9610 1288 c-66 -34 -90 -76 -90 -158 0 -53 5 -74 23 -101 36 -54
115 -71 205 -43 18 5 22 3 22 -16 0 -37 -31 -90 -63 -107 -30 -15 -111 -15
-149 2 -15 6 -18 1 -18 -33 0 -39 1 -40 44 -51 126 -31 224 15 266 125 23 61
28 220 10 286 -29 104 -146 148 -250 96z m137 -84 c9 -14 18 -49 21 -78 4 -48
2 -53 -22 -64 -44 -20 -93 -15 -110 10 -23 32 -20 100 5 132 28 36 82 36 106
0z"/>
<path d="M11308 1265 c-59 -39 -68 -50 -68 -75 0 -37 13 -38 74 -4 l46 26 0
-171 0 -171 -55 0 c-61 0 -72 -10 -61 -55 l6 -25 156 0 155 0 -3 38 c-3 37 -3
37 -50 40 l-48 3 -2 217 -3 217 -40 3 c-33 2 -51 -5 -107 -43z"/>
<path d="M11728 1268 c-61 -39 -68 -46 -68 -75 0 -40 10 -41 67 -8 l43 26 0
-171 0 -170 -55 0 -55 0 0 -40 0 -40 154 0 c146 0 155 1 161 20 13 41 -3 60
-50 60 l-45 0 -2 218 -3 217 -40 3 c-33 2 -52 -5 -107 -40z"/>
<path d="M5635 1278 c-3 -13 -4 -75 -3 -138 l3 -115 81 -5 c99 -6 124 -23 124
-81 0 -71 -86 -102 -177 -64 -42 18 -53 10 -53 -37 0 -42 47 -63 140 -62 133
1 200 59 200 175 0 95 -48 139 -161 147 l-69 5 0 53 0 53 98 3 97 3 3 43 3 42
-140 0 c-137 0 -141 -1 -146 -22z"/>
<path d="M6880 1261 c-88 -29 -130 -81 -151 -189 -16 -86 -7 -207 21 -261 39
-78 140 -102 236 -57 59 27 85 70 92 151 11 126 -84 194 -208 151 -24 -8 -46
-14 -48 -12 -12 13 16 86 45 115 32 32 35 33 106 30 71 -4 72 -4 75 22 2 14
-4 31 -12 38 -19 16 -122 24 -156 12z m79 -297 c12 -15 21 -40 21 -56 0 -36
-24 -83 -45 -92 -57 -21 -98 13 -109 91 -6 42 -4 50 15 66 33 27 93 23 118 -9z"/>
<path d="M635 1246 c-86 -32 -120 -119 -113 -290 4 -89 9 -119 27 -154 36 -70
126 -99 212 -71 80 27 118 95 126 227 12 195 -37 287 -158 298 -34 3 -69 -1
-94 -10z m105 -76 c29 -15 40 -65 40 -180 0 -150 -18 -190 -83 -190 -49 0 -77
68 -76 190 0 156 43 221 119 180z"/>
<path d="M2721 1241 c-60 -21 -71 -32 -71 -77 0 -43 7 -46 52 -23 53 27 105
22 130 -12 34 -45 12 -93 -92 -204 -91 -97 -107 -125 -96 -170 l7 -25 167 2
167 3 0 40 0 40 -108 5 -108 5 66 65 c86 85 124 145 131 207 16 131 -94 196
-245 144z"/>
<path d="M1718 1208 c-61 -39 -68 -46 -68 -75 0 -40 10 -41 67 -8 l43 26 0
-171 0 -170 -55 0 -55 0 0 -40 0 -40 154 0 c146 0 155 1 161 20 13 41 -3 60
-50 60 l-45 0 -2 218 -3 217 -40 3 c-33 2 -52 -5 -107 -40z"/>
<path d="M3736 1236 c-53 -15 -66 -28 -66 -67 0 -37 8 -40 51 -19 76 39 149
15 149 -48 0 -43 -32 -66 -99 -72 l-56 -5 0 -35 0 -35 64 -6 c54 -5 69 -11 88
-33 30 -35 29 -61 -2 -91 -29 -30 -95 -34 -151 -10 -45 18 -54 13 -54 -30 0
-49 41 -69 140 -69 103 -1 163 26 190 86 11 24 20 57 20 74 0 43 -38 97 -78
109 -38 11 -41 21 -7 29 13 3 31 20 40 36 19 38 19 114 -1 145 -32 50 -129 67
-228 41z"/>
<path d="M4847 1238 c-9 -7 -55 -78 -102 -158 -78 -131 -85 -149 -83 -190 l3
-45 107 -3 107 -3 3 -52 3 -52 38 -3 c51 -4 67 11 67 64 0 40 2 44 25 44 18 0
26 7 31 24 9 38 -4 66 -32 66 l-24 0 0 148 c0 102 -4 152 -12 160 -16 16 -110
15 -131 0z m33 -198 l0 -110 -65 0 c-36 0 -65 3 -65 6 0 7 123 214 127 214 2
0 3 -49 3 -110z"/>
</g>
</svg>
