<svg width="2861" height="1563" xmlns="http://www.w3.org/2000/svg" xmlns:xlink="http://www.w3.org/1999/xlink" overflow="hidden"><defs><clipPath id="clip0"><rect x="673" y="485" width="2861" height="1563"/></clipPath></defs><g clip-path="url(#clip0)" transform="translate(-673 -485)"><text fill="#00B0F0" font-family="Calibri,Calibri_MSFontService,sans-serif" font-weight="700" font-size="83" transform="matrix(1 0 0 1 844.622 587)">EXAMPLE<tspan fill="#000000" font-weight="400" font-size="83" x="327.027" y="217">Plaintext</tspan><tspan fill="#000000" font-weight="400" font-size="83" x="619.444" y="217">: </tspan><tspan font-size="92" x="660.694" y="217">HELLO</tspan></text><path d="M1171.65 813.122 1463.65 813.122 1463.65 818.122 1171.65 818.122Z" fill-rule="evenodd"/><text font-family="Calibri,Calibri_MSFontService,sans-serif" font-weight="400" font-size="83" transform="matrix(1 0 0 1 1171.65 1005)">Key<tspan font-size="83" x="119.442" y="0">: </tspan><tspan font-family="Arial,Arial_MSFontService,sans-serif" font-weight="700" font-size="83" x="160.692" y="0">11001000001011101111011011000000 </tspan></text><path d="M1171.65 1014.12 1290.65 1014.12 1290.65 1019.12 1171.65 1019.12Z" fill-rule="evenodd"/><text font-family="Calibri,Calibri_MSFontService,sans-serif" font-weight="700" font-size="83" transform="matrix(1 0 0 1 886.243 1217)">1.) <tspan font-weight="400" font-size="83" x="108.281" y="0">let’s convert the </tspan><tspan font-size="83" x="668.846" y="0">ASCII</tspan><tspan font-weight="400" font-size="83" x="863.638" y="0">values of the letters into </tspan>binary<tspan fill="#00B0F0" font-size="110" x="120.883" y="237">H  </tspan><tspan fill="#00B0F0" font-size="110" x="239.476" y="237">E </tspan><tspan fill="#00B0F0" font-size="110" x="342.601" y="237">L </tspan><tspan fill="#00B0F0" font-size="110" x="438.279" y="237">L </tspan><tspan fill="#00B0F0" font-size="110" x="533.956" y="237">O  </tspan><tspan fill="#00B0F0" font-size="110" x="657.706" y="237">= 01001000010001010100110001001111</tspan><tspan font-size="64" x="120.883" y="139">72</tspan><tspan font-size="64" x="237.08" y="139">69</tspan><tspan font-size="64" x="325.095" y="139">76</tspan><tspan font-size="64" x="421.676" y="140">76</tspan><tspan font-size="64" x="537.874" y="139">79</tspan><tspan font-size="83" x="-163.514" y="378">72 = 01001000</tspan><tspan font-size="83" x="-163.514" y="511">69 = 01000101</tspan><tspan font-size="83" x="-163.514" y="638">76 = 01001100</tspan><tspan font-size="83" x="-163.514" y="759">79 = 01001111</tspan></text></g></svg>