<svg width="4199" height="1664" xmlns="http://www.w3.org/2000/svg" overflow="hidden"><defs><clipPath id="clip0"><rect x="123" y="526" width="4199" height="1664"/></clipPath></defs><g clip-path="url(#clip0)" transform="translate(-123 -526)"><path d="M123 1484.12 1939.13 1484.13 1939.13 1497.88 123 1497.87ZM1932.26 1470.38 1973.51 1491 1932.26 1511.63Z" fill="#7F7F7F"/><path d="M6.875-1.72665e-06 6.87535 1402.59-6.87465 1402.59-6.875 1.72665e-06ZM20.6254 1395.71 0.000360892 1436.96-20.6246 1395.71Z" fill="#7F7F7F" transform="matrix(1 0 0 -1 773 2165.96)"/><path d="M1516.26 802.5C1400.69 997.693 1285.13 1192.89 1164.95 1244.62 1044.77 1296.36 910.714 1070.6 795.153 1112.93 679.591 1155.26 476.203 1368.48 471.581 1498.61 466.959 1628.74 661.101 1854.5 767.418 1893.7 873.734 1932.9 983.132 1688.32 1109.48 1733.78 1235.83 1779.25 1380.66 1972.87 1525.5 2166.5" stroke="#FFC000" stroke-width="20.625" stroke-miterlimit="8" fill="none" fill-rule="evenodd"/><text fill="#595959" font-family="Calibri,Calibri_MSFontService,sans-serif" font-weight="400" font-size="110" transform="matrix(1 0 0 1 1808.58 805)">Let <tspan font-weight="700" font-size="110" x="162.113" y="0">a </tspan><tspan font-family="Cambria Math,Cambria Math_MSFontService,sans-serif" font-weight="700" font-size="110" x="241.175" y="0">∈</tspan><tspan font-family="Cambria Math,Cambria Math_MSFontService,sans-serif" font-weight="700" font-size="110" x="332.842" y="0">ℝ</tspan><tspan font-weight="700" font-size="110" x="413.05" y="0">, b </tspan><tspan font-family="Cambria Math,Cambria Math_MSFontService,sans-serif" font-weight="700" font-size="110" x="549.977" y="0">∈</tspan><tspan font-family="Cambria Math,Cambria Math_MSFontService,sans-serif" font-weight="700" font-size="110" x="641.644" y="0">ℝ</tspan><tspan font-size="110" x="721.852" y="0">, be constants such that</tspan><tspan font-weight="700" font-size="110" x="1800.81" y="0">4a³ + 27b² </tspan><tspan font-weight="700" font-size="110" x="2284.36" y="0">≠</tspan><tspan font-weight="700" font-size="110" x="2363.99" y="0">0</tspan><tspan font-size="110" x="2419.56" y="0">.</tspan><tspan font-size="110" x="65.0834" y="118">A </tspan><tspan font-weight="700" font-size="110" x="153.313" y="118">non</tspan><tspan font-weight="700" font-size="110" x="330.344" y="118">-</tspan><tspan font-weight="700" font-size="110" x="364.146" y="118">singular</tspan><tspan font-weight="700" font-size="110" x="750.292" y="118">elliptic curve </tspan><tspan font-size="110" x="1357.08" y="118">is the set </tspan><tspan font-weight="700" font-size="110" x="1782.73" y="118">E</tspan><tspan font-size="110" x="1861.22" y="118">of solutions</tspan><tspan font-weight="700" font-size="110" x="562.306" y="237">(x,y) </tspan><tspan font-family="Cambria Math,Cambria Math_MSFontService,sans-serif" font-weight="700" font-size="110" x="786.89" y="237">∈</tspan><tspan font-family="Cambria Math,Cambria Math_MSFontService,sans-serif" font-weight="700" font-size="110" x="878.556" y="237">ℝ</tspan><tspan font-weight="700" font-size="110" x="983.4" y="237">x </tspan><tspan font-family="Cambria Math,Cambria Math_MSFontService,sans-serif" font-weight="700" font-size="110" x="1058.45" y="237">ℝ</tspan><tspan font-size="110" x="1163.3" y="237">to the equation</tspan><tspan font-size="110" x="1855.56" y="237">:</tspan></text><path d="M2414.5 1356.33C2414.5 1323.29 2441.29 1296.5 2474.33 1296.5L3590.67 1296.5C3623.71 1296.5 3650.5 1323.29 3650.5 1356.33L3650.5 1595.67C3650.5 1628.71 3623.71 1655.5 3590.67 1655.5L2474.33 1655.5C2441.29 1655.5 2414.5 1628.71 2414.5 1595.67Z" stroke="#7F7F7F" stroke-width="4.58333" stroke-miterlimit="8" fill="#FFF2CC" fill-rule="evenodd"/><text fill="#7F7F7F" font-family="Calibri,Calibri_MSFontService,sans-serif" font-weight="700" font-size="147" transform="matrix(1 0 0 1 2595.65 1525)">y<tspan font-size="98" x="69.323" y="-44">2</tspan><tspan font-size="147" x="152.396" y="0">= x</tspan><tspan font-size="98" x="326.563" y="-44">3</tspan><tspan font-size="147" x="409.636" y="0">+ ax + b</tspan><tspan font-size="110" x="-576.839" y="-5">x</tspan><tspan font-size="110" x="-1849.51" y="-863">y</tspan><tspan fill="#595959" font-family="Wingdings,Wingdings_MSFontService,sans-serif" font-weight="400" font-size="110" x="-696.044" y="437"></tspan><tspan fill="#595959" font-weight="400" font-size="110" x="-563.701" y="437">if </tspan><tspan fill="#595959" font-size="110" x="-480.055" y="437">4a³ + 27b² </tspan><tspan fill="#595959" font-size="110" x="3.48706" y="437">=</tspan><tspan fill="#595959" font-size="110" x="83.1226" y="437">0</tspan><tspan fill="#595959" font-weight="400" font-size="110" x="163.331" y="437">then the elliptic curve is singular</tspan><tspan fill="#595959" font-weight="400" font-size="110" x="-523.596" y="569">which means it does not have </tspan><tspan fill="#595959" font-size="110" x="826.723" y="569">3</tspan><tspan fill="#595959" font-weight="400" font-size="110" x="906.931" y="569">distinct roots</tspan></text></g></svg>