<svg width="3944" height="1878" xmlns="http://www.w3.org/2000/svg" xmlns:xlink="http://www.w3.org/1999/xlink" overflow="hidden"><defs><clipPath id="clip0"><rect x="260" y="339" width="3944" height="1878"/></clipPath></defs><g clip-path="url(#clip0)" transform="translate(-260 -339)"><text font-family="Calibri,Calibri_MSFontService,sans-serif" font-weight="400" font-size="83" transform="matrix(1 0 0 1 615.703 441)">What are the <tspan font-weight="700" font-size="83" x="460.51" y="0">S</tspan><tspan font-weight="700" font-size="83" x="499.469" y="0">-</tspan><tspan font-weight="700" font-size="83" x="524.677" y="0">BOXES</tspan><tspan font-size="83" x="747.358" y="0">?</tspan></text><path d="M615.703 450.338 1008.7 450.338 1401.7 450.338 1401.7 455.338 1008.7 455.338 615.703 455.338Z" fill-rule="evenodd"/><text font-family="Calibri,Calibri_MSFontService,sans-serif" font-weight="400" font-size="83" transform="matrix(1 0 0 1 945.703 639)">There are <tspan font-weight="700" font-size="83" x="339.877" y="0">8</tspan><tspan font-size="83" x="400.606" y="0">s</tspan><tspan font-size="83" x="432.69" y="0">-</tspan><tspan font-size="83" x="457.898" y="0">boxes in the </tspan><tspan font-weight="700" font-size="83" x="881.513" y="0">DES</tspan><tspan font-size="83" x="1030.81" y="0">algorithm: these are substitution boxes</tspan><tspan font-size="83" x="462.344" y="99">~ the input for the boxes is </tspan><tspan font-weight="700" font-size="83" x="1376.35" y="99">6</tspan><tspan font-size="83" x="1437.08" y="99">bits and the output is </tspan><tspan font-weight="700" font-size="83" x="2172.71" y="99">4</tspan><tspan font-size="83" x="2233.44" y="99">bits</tspan><tspan font-size="83" x="697.812" y="198">(this is why we tranform </tspan><tspan font-weight="700" font-size="83" x="1526.94" y="198">48</tspan><tspan font-size="83" x="1629.49" y="198">bits into a </tspan><tspan font-weight="700" font-size="83" x="1979.7" y="198">32</tspan><tspan font-size="83" x="2082.25" y="198">bits output)</tspan><tspan font-weight="700" font-size="110" x="330" y="620">s</tspan><tspan font-weight="700" font-size="110" x="660" y="620">s</tspan><tspan font-weight="700" font-size="110" x="990" y="620">s</tspan><tspan font-weight="700" font-size="110" x="1320" y="620">s</tspan><tspan font-weight="700" font-size="110" x="1650" y="620">s</tspan><tspan font-weight="700" font-size="110" x="1980" y="620">s</tspan><tspan font-weight="700" font-size="110" x="2310" y="620">s</tspan><tspan font-weight="700" font-size="110" x="2640" y="620">s</tspan><tspan font-weight="700" font-size="64" x="368.649" y="659">1</tspan><tspan font-weight="700" font-size="64" x="703.108" y="656">2</tspan><tspan font-weight="700" font-size="64" x="1028.65" y="659">3</tspan><tspan font-weight="700" font-size="64" x="1363.11" y="656">4</tspan><tspan font-weight="700" font-size="64" x="1697.57" y="659">5</tspan><tspan font-weight="700" font-size="64" x="2032.03" y="656">6</tspan><tspan font-weight="700" font-size="64" x="2357.57" y="659">7</tspan><tspan font-weight="700" font-size="64" x="2692.03" y="656">8</tspan></text><path d="M1300.15 1091 1300.15 1157.27 1297.85 1157.27 1297.85 1091ZM1312.75 1152.69 1299 1180.19 1285.25 1152.69Z"/><path d="M1630.15 1091 1630.15 1157.27 1627.85 1157.27 1627.85 1091ZM1642.75 1152.69 1629 1180.19 1615.25 1152.69Z"/><path d="M1957.15 1091 1957.15 1157.27 1954.85 1157.27 1954.85 1091ZM1969.75 1152.69 1956 1180.19 1942.25 1152.69Z"/><path d="M2287.15 1091 2287.15 1157.27 2284.85 1157.27 2284.85 1091ZM2299.75 1152.69 2286 1180.19 2272.25 1152.69Z"/><path d="M2619.15 1091 2619.15 1157.27 2616.85 1157.27 2616.85 1091ZM2631.75 1152.69 2618 1180.19 2604.25 1152.69Z"/><path d="M2949.15 1091 2949.15 1157.27 2946.85 1157.27 2946.85 1091ZM2961.75 1152.69 2948 1180.19 2934.25 1152.69Z"/><path d="M3276.15 1091 3276.15 1157.27 3273.85 1157.27 3273.85 1091ZM3288.75 1152.69 3275 1180.19 3261.25 1152.69Z"/><path d="M3606.15 1091 3606.15 1157.27 3603.85 1157.27 3603.85 1091ZM3618.75 1152.69 3605 1180.19 3591.25 1152.69Z"/><path d="M1302.15 1333 1302.15 1399.27 1299.85 1399.27 1299.85 1333ZM1314.75 1394.69 1301 1422.19 1287.25 1394.69Z"/><path d="M1632.15 1333 1632.15 1399.27 1629.85 1399.27 1629.85 1333ZM1644.75 1394.69 1631 1422.19 1617.25 1394.69Z"/><path d="M1959.15 1333 1959.15 1399.27 1956.85 1399.27 1956.85 1333ZM1971.75 1394.69 1958 1422.19 1944.25 1394.69Z"/><path d="M2289.15 1333 2289.15 1399.27 2286.85 1399.27 2286.85 1333ZM2301.75 1394.69 2288 1422.19 2274.25 1394.69Z"/><path d="M2620.15 1333 2620.15 1399.27 2617.85 1399.27 2617.85 1333ZM2632.75 1394.69 2619 1422.19 2605.25 1394.69Z"/><path d="M2950.15 1333 2950.15 1399.27 2947.85 1399.27 2947.85 1333ZM2962.75 1394.69 2949 1422.19 2935.25 1394.69Z"/><path d="M3277.15 1333 3277.15 1399.27 3274.85 1399.27 3274.85 1333ZM3289.75 1394.69 3276 1422.19 3262.25 1394.69Z"/><path d="M3607.15 1333 3607.15 1399.27 3604.85 1399.27 3604.85 1333ZM3619.75 1394.69 3606 1422.19 3592.25 1394.69Z"/><text font-family="Calibri,Calibri_MSFontService,sans-serif" font-weight="700" font-size="83" transform="matrix(1 0 0 1 1206.35 1060)">6 <tspan font-weight="400" font-size="83" x="60.7291" y="0">bits</tspan><tspan font-size="83" x="328.513" y="-7">6 </tspan><tspan font-weight="400" font-size="83" x="389.242" y="-7">bits</tspan><tspan font-size="83" x="661.487" y="-1">6 </tspan><tspan font-weight="400" font-size="83" x="722.216" y="-1">bits</tspan><tspan font-size="83" x="990" y="-9">6 </tspan><tspan font-weight="400" font-size="83" x="1050.73" y="-9">bits</tspan><tspan font-size="83" x="1305.78" y="0">6 </tspan><tspan font-weight="400" font-size="83" x="1366.51" y="0">bits</tspan><tspan font-size="83" x="1634.29" y="-7">6 </tspan><tspan font-weight="400" font-size="83" x="1695.02" y="-7">bits</tspan><tspan font-size="83" x="1967.27" y="-1">6 </tspan><tspan font-weight="400" font-size="83" x="2028" y="-1">bits</tspan><tspan font-size="83" x="2295.78" y="-9">6 </tspan><tspan font-weight="400" font-size="83" x="2356.51" y="-9">bits</tspan><tspan font-size="83" x="0" y="457">4 </tspan><tspan font-weight="400" font-size="83" x="60.7291" y="457">bits</tspan><tspan font-size="83" x="328.513" y="450">4 </tspan><tspan font-weight="400" font-size="83" x="389.242" y="450">bits</tspan><tspan font-size="83" x="661.487" y="455">4 </tspan><tspan font-weight="400" font-size="83" x="722.216" y="455">bits</tspan><tspan font-size="83" x="990" y="448">4 </tspan><tspan font-weight="400" font-size="83" x="1050.73" y="448">bits</tspan><tspan font-size="83" x="1305.78" y="457">4 </tspan><tspan font-weight="400" font-size="83" x="1366.51" y="457">bits</tspan><tspan font-size="83" x="1634.29" y="450">4 </tspan><tspan font-weight="400" font-size="83" x="1695.02" y="450">bits</tspan><tspan font-size="83" x="1967.27" y="455">4 </tspan><tspan font-weight="400" font-size="83" x="2028" y="455">bits</tspan><tspan font-size="83" x="2295.78" y="448">4 </tspan><tspan font-weight="400" font-size="83" x="2356.51" y="448">bits</tspan><tspan font-family="Wingdings,Wingdings_MSFontService,sans-serif" font-weight="400" font-size="83" x="207.626" y="689"></tspan><tspan font-weight="400" font-size="83" x="310.751" y="689">each of these </tspan><tspan font-size="83" x="781.115" y="689">s</tspan>-<tspan font-size="83" x="838.98" y="689">boxes</tspan><tspan font-weight="400" font-size="83" x="1054.21" y="689">contains </tspan><tspan font-size="83" x="1354.26" y="689">64</tspan><tspan font-weight="400" font-size="83" x="1456.81" y="689">items</tspan><tspan font-family="Wingdings,Wingdings_MSFontService,sans-serif" font-weight="400" font-size="83" x="207.626" y="887"></tspan><tspan font-weight="400" font-size="83" x="310.751" y="887">these </tspan><tspan font-size="83" x="515.282" y="887">s</tspan>-<tspan font-size="83" x="573.147" y="887">boxes</tspan><tspan font-weight="400" font-size="83" x="788.38" y="887">are basically lookup</tspan><tspan font-weight="400" font-size="83" x="1446.71" y="887">-</tspan><tspan font-weight="400" font-size="83" x="1471.92" y="887">tables: the</tspan><tspan font-size="83" x="1846.17" y="887">6 </tspan><tspan font-weight="400" font-size="83" x="1906.9" y="887">bits input defines the row</tspan><tspan font-weight="400" font-size="83" x="537.626" y="986">and column index in the given </tspan><tspan font-size="83" x="1562.71" y="986">s</tspan>-<tspan font-size="83" x="1620.58" y="986">box</tspan><tspan font-weight="400" font-size="83" x="1763.87" y="986">and the value associated with that </tspan><tspan font-weight="400" font-size="83" x="867.626" y="1085">index yields the </tspan><tspan font-size="83" x="1410.09" y="1085">4</tspan><tspan font-weight="400" font-size="83" x="1470.82" y="1085">bits output</tspan><tspan fill="#00B0F0" font-weight="400" font-size="73" x="-901.865" y="798">computer scientists like </tspan><tspan fill="#00B0F0" font-weight="400" font-size="73" x="-874.641" y="886">lookup tables because</tspan><tspan fill="#00B0F0" font-weight="400" font-size="73" x="-878.72" y="974">of the </tspan><tspan fill="#00B0F0" font-size="73" x="-684.501" y="974">O(1)</tspan><tspan fill="#00B0F0" font-weight="400" font-size="73" x="-534.97" y="974">complexity</tspan></text></g></svg>