<svg width="4080" height="1647" xmlns="http://www.w3.org/2000/svg" overflow="hidden"><defs><clipPath id="clip0"><rect x="123" y="526" width="4080" height="1647"/></clipPath></defs><g clip-path="url(#clip0)" transform="translate(-123 -526)"><path d="M123 1484.12 1939.13 1484.13 1939.13 1497.88 123 1497.87ZM1932.26 1470.38 1973.51 1491 1932.26 1511.63Z" fill="#7F7F7F"/><path d="M6.875-1.72665e-06 6.87535 1402.59-6.87465 1402.59-6.875 1.72665e-06ZM20.6254 1395.71 0.000360892 1436.96-20.6246 1395.71Z" fill="#7F7F7F" transform="matrix(1 0 0 -1 773 2165.96)"/><path d="M1516.26 802.5C1400.69 997.693 1285.13 1192.89 1164.95 1244.62 1044.77 1296.36 910.714 1070.6 795.153 1112.93 679.591 1155.26 476.203 1368.48 471.581 1498.61 466.959 1628.74 661.101 1854.5 767.418 1893.7 873.734 1932.9 983.132 1688.32 1109.48 1733.78 1235.83 1779.25 1380.66 1972.87 1525.5 2166.5" stroke="#FFC000" stroke-width="20.625" stroke-miterlimit="8" fill="none" fill-rule="evenodd"/><text fill="#595959" font-family="Calibri,Calibri_MSFontService,sans-serif" font-weight="700" font-size="110" transform="matrix(1 0 0 1 2183.47 1154)">1.)<tspan font-weight="400" font-size="110" x="143.802" y="0">elliptic curves are symmetric along </tspan><tspan font-size="110" x="1710.75" y="0">x</tspan><tspan font-weight="400" font-size="110" x="1785.8" y="0">axis</tspan><tspan font-size="110" x="660" y="119">-</tspan><tspan font-size="110" x="693.802" y="119">P(x,y) = P(x,</tspan><tspan font-size="110" x="1228.33" y="119">-</tspan><tspan font-size="110" x="1262.14" y="119">y)</tspan><tspan font-size="110" x="0" y="356">2.) </tspan><tspan font-weight="400" font-size="110" x="143.802" y="356">a straight line meets the </tspan><tspan font-size="110" x="1246.71" y="356">x</tspan><tspan font-weight="400" font-size="110" x="1321.76" y="356">axis</tspan><tspan font-weight="400" font-size="110" x="330" y="475">either at </tspan><tspan font-size="110" x="735.74" y="475">1</tspan><tspan font-weight="400" font-size="110" x="815.948" y="475">or </tspan><tspan font-size="110" x="936.834" y="475">3</tspan><tspan font-weight="400" font-size="110" x="1017.04" y="475">points</tspan><tspan font-size="110" x="0" y="713">3.)</tspan><tspan font-weight="400" font-size="110" x="143.802" y="713">elliptic curves are non</tspan><tspan font-weight="400" font-size="110" x="1122.66" y="713">-</tspan><tspan font-weight="400" font-size="110" x="1156.47" y="713">singular</tspan><tspan font-weight="400" font-size="110" x="330" y="831">(if we assume </tspan><tspan font-weight="400" font-size="110" x="967.84" y="831">that</tspan><tspan font-size="110" x="1175.35" y="831">4a³ + 27b² </tspan>≠<tspan font-size="110" x="1738.53" y="831">0</tspan><tspan font-weight="400" font-size="110" x="1794.1" y="831">)</tspan><tspan fill="#7F7F7F" font-size="110" x="-164.66" y="366">x</tspan><tspan fill="#7F7F7F" font-size="110" x="-1437.33" y="-492">y</tspan></text></g></svg>