<svg width="3485" height="1750" xmlns="http://www.w3.org/2000/svg" xmlns:xlink="http://www.w3.org/1999/xlink" overflow="hidden"><defs><clipPath id="clip0"><rect x="685" y="487" width="3485" height="1750"/></clipPath></defs><g clip-path="url(#clip0)" transform="translate(-685 -487)"><rect x="690.5" y="727.5" width="933" height="142" stroke="#000000" stroke-width="4.58333" stroke-miterlimit="8" fill="#FFFFFF"/><text font-family="Calibri,Calibri_MSFontService,sans-serif" font-weight="700" font-size="83" transform="matrix(1 0 0 1 920.696 819)">add round key<tspan font-size="83" x="-185.533" y="-229">128 </tspan><tspan font-weight="400" font-size="83" x="-41.1583" y="-229">bits long </tspan><tspan fill="#00B0F0" font-size="83" x="263.633" y="-229">plaintext</tspan><tspan font-weight="400" font-size="83" x="584.856" y="-229">block</tspan></text><path d="M1178.16 618 1178.16 679.067 1167.84 679.067 1167.84 618ZM1188.47 673.911 1173 704.848 1157.53 673.911Z"/><text font-family="Calibri,Calibri_MSFontService,sans-serif" font-weight="700" font-size="83" transform="matrix(1 0 0 1 2486.53 590)">128 <tspan font-weight="400" font-size="83" x="144.375" y="0">bits long private key</tspan><tspan font-size="83" x="216.199" y="229">K   [w  ...w  ]</tspan><tspan font-size="64" x="264.602" y="255">0</tspan><tspan font-size="64" x="406.044" y="255">0</tspan><tspan font-size="64" x="567.154" y="255">3</tspan></text><path d="M0.0125347-2.29163 732.231 1.71343 732.206 6.2967-0.0125347 2.29163ZM727.711-9.7698 755.135 4.13041 727.56 17.7298Z" transform="matrix(-1 0 0 1 2524.64 788.5)"/><rect x="690.5" y="1036.5" width="933" height="142" stroke="#000000" stroke-width="4.58333" stroke-miterlimit="8" fill="#FFFFFF"/><text font-family="Calibri,Calibri_MSFontService,sans-serif" font-weight="700" font-size="83" transform="matrix(1 0 0 1 756.425 1130)">S<tspan font-size="83" x="38.9583" y="0">-</tspan><tspan font-size="83" x="64.1667" y="0">BOX (substitute bytes)</tspan></text><path d="M1178.16 909 1178.16 970.067 1167.84 970.067 1167.84 909ZM1188.47 964.91 1173 995.848 1157.53 964.91Z"/><text font-family="Calibri,Calibri_MSFontService,sans-serif" font-weight="700" font-size="64" transform="matrix(1 0 0 1 1247.4 973)">128 <tspan font-weight="400" font-size="64" x="112.292" y="0">bits</tspan></text><path d="M1178.16 1230 1178.16 1291.07 1167.84 1291.07 1167.84 1230ZM1188.47 1285.91 1173 1316.85 1157.53 1285.91Z"/><text font-family="Calibri,Calibri_MSFontService,sans-serif" font-weight="700" font-size="64" transform="matrix(1 0 0 1 1247.4 1295)">128 <tspan font-weight="400" font-size="64" x="112.292" y="0">bits</tspan></text><rect x="689.5" y="1369.5" width="934" height="142" stroke="#000000" stroke-width="4.58333" stroke-miterlimit="8" fill="#FFFFFF"/><text font-family="Calibri,Calibri_MSFontService,sans-serif" font-weight="700" font-size="83" transform="matrix(1 0 0 1 805.496 1467)">shift rows (left shift)</text><path d="M1178.16 1546 1178.16 1607.07 1167.84 1607.07 1167.84 1546ZM1188.47 1601.91 1173 1632.85 1157.53 1601.91Z"/><text font-family="Calibri,Calibri_MSFontService,sans-serif" font-weight="700" font-size="64" transform="matrix(1 0 0 1 1247.4 1610)">128 <tspan font-weight="400" font-size="64" x="112.292" y="0">bits</tspan></text><rect x="689.5" y="1674.5" width="934" height="142" stroke="#000000" stroke-width="4.58333" stroke-miterlimit="8" fill="#FFFFFF"/><text font-family="Calibri,Calibri_MSFontService,sans-serif" font-weight="700" font-size="83" transform="matrix(1 0 0 1 952.143 1771)">mix columns</text><path d="M1178.16 1841 1178.16 1902.07 1167.84 1902.07 1167.84 1841ZM1188.47 1896.91 1173 1927.85 1157.53 1896.91Z"/><text font-family="Calibri,Calibri_MSFontService,sans-serif" font-weight="700" font-size="64" transform="matrix(1 0 0 1 1247.4 1905)">128 <tspan font-weight="400" font-size="64" x="112.292" y="0">bits</tspan></text><rect x="689.5" y="1964.5" width="934" height="143" stroke="#000000" stroke-width="4.58333" stroke-miterlimit="8" fill="#FFFFFF"/><text font-family="Calibri,Calibri_MSFontService,sans-serif" font-weight="700" font-size="83" transform="matrix(1 0 0 1 920.028 2056)">add round key<tspan font-size="83" x="991.89" y="3">K   [w  ...w  ]</tspan><tspan font-size="64" x="1040.29" y="29">1</tspan><tspan font-size="64" x="1181.74" y="29">4</tspan><tspan font-size="64" x="1342.85" y="29">7</tspan></text><path d="M0.0125338-2.29163 208.172-1.15313 208.147 3.43014-0.0125338 2.29163ZM203.651-12.6364 231.076 1.26385 203.501 14.8632Z" transform="matrix(-1 0 0 1 1885.58 2039.5)"/><path d="M2488.5 1021.5C2525.78 1021.5 2556 1026.54 2556 1032.75L2556 1579.25C2556 1585.46 2586.22 1590.5 2623.5 1590.5 2586.22 1590.5 2556 1595.54 2556 1601.75L2556 2148.25C2556 2154.46 2525.78 2159.5 2488.5 2159.5" stroke="#00B0F0" stroke-width="6.875" stroke-miterlimit="8" fill="none" fill-rule="evenodd"/><text fill="#00B0F0" font-family="Calibri,Calibri_MSFontService,sans-serif" font-weight="700" font-size="83" transform="matrix(1 0 0 1 3053.68 1129)">ROUND <tspan font-size="83" x="280.5" y="0">FUNCTION</tspan><tspan fill="#000000" font-weight="400" font-size="83" x="-322.766" y="145">In every round we make a substitution</tspan><tspan fill="#000000" font-weight="400" font-size="83" x="-322.766" y="244">so the S</tspan><tspan fill="#000000" font-weight="400" font-size="83" x="-59.2241" y="244">-</tspan><tspan fill="#000000" font-weight="400" font-size="83" x="-34.0159" y="244">BOX, then mix rows and columns</tspan><tspan fill="#000000" font-weight="400" font-size="83" x="-322.766" y="343">and finally add round key operation</tspan><tspan fill="#000000" font-weight="400" font-size="83" x="-228.235" y="541">~ in every round we use a different</tspan><tspan fill="#000000" font-weight="400" font-size="83" x="-58.0784" y="640">subkey. We generate subkeys</tspan><tspan fill="#000000" font-weight="400" font-size="83" x="177.39" y="739">from the private key</tspan><tspan fill="#000000" font-size="83" x="-257.178" y="937">IN THE LAST ROUND WE DO NOT USE</tspan><tspan fill="#000000" font-size="83" x="-174.449" y="1036">THE MIX COLUMNS OPERATION !!!</tspan></text></g></svg>