<svg width="3120" height="1841" xmlns="http://www.w3.org/2000/svg" xmlns:xlink="http://www.w3.org/1999/xlink" overflow="hidden"><defs><clipPath id="clip0"><rect x="576" y="371" width="3120" height="1841"/></clipPath></defs><g clip-path="url(#clip0)" transform="translate(-576 -371)"><text fill="#00B0F0" font-family="Calibri,Calibri_MSFontService,sans-serif" font-weight="700" font-size="83" transform="matrix(1 0 0 1 687.545 473)">SUBSTITUTION BYTES OPERATION (S<tspan font-size="83" x="1235.8" y="0">-</tspan><tspan font-size="83" x="1261.01" y="0">BOX)</tspan></text><rect x="2456.5" y="858.5" width="714" height="304" stroke="#000000" stroke-width="4.58333" stroke-miterlimit="8" fill="#FFFFFF"/><text font-family="Calibri,Calibri_MSFontService,sans-serif" font-weight="700" font-size="83" transform="matrix(1 0 0 1 2708.53 1038)">S<tspan font-size="83" x="38.9583" y="0">-</tspan><tspan font-size="83" x="64.1665" y="0">BOX</tspan></text><path d="M2218 1008.85 2432.92 1008.85 2432.92 1011.15 2218 1011.15ZM2428.34 996.25 2455.84 1010 2428.34 1023.75Z"/><path d="M3162 1010.85 3376.92 1010.85 3376.92 1013.15 3162 1013.15ZM3372.34 998.25 3399.84 1012 3372.34 1025.75Z"/><text font-family="Calibri,Calibri_MSFontService,sans-serif" font-weight="700" font-size="83" transform="matrix(1 0 0 1 1977.36 1036)">8<tspan font-weight="400" font-size="83" x="60.7293" y="0">bits</tspan><tspan font-size="83" x="1485.73" y="0">8</tspan><tspan font-weight="400" font-size="83" x="1546.46" y="0">bits</tspan></text><rect x="594.5" y="613.5" width="199" height="200" stroke="#000000" stroke-width="4.58333" stroke-miterlimit="8" fill="#FFFFFF"/><rect x="793.5" y="613.5" width="200" height="200" stroke="#000000" stroke-width="4.58333" stroke-miterlimit="8" fill="#FFFFFF"/><rect x="993.5" y="613.5" width="200" height="200" stroke="#000000" stroke-width="4.58333" stroke-miterlimit="8" fill="#FFFFFF"/><rect x="1193.5" y="613.5" width="200" height="200" stroke="#000000" stroke-width="4.58333" stroke-miterlimit="8" fill="#FFFFFF"/><rect x="594.5" y="813.5" width="199" height="199" stroke="#000000" stroke-width="4.58333" stroke-miterlimit="8" fill="#FFFFFF"/><rect x="793.5" y="813.5" width="200" height="199" stroke="#000000" stroke-width="4.58333" stroke-miterlimit="8" fill="#FFFFFF"/><rect x="993.5" y="813.5" width="200" height="199" stroke="#000000" stroke-width="4.58333" stroke-miterlimit="8" fill="#FFFFFF"/><rect x="1193.5" y="813.5" width="200" height="199" stroke="#000000" stroke-width="4.58333" stroke-miterlimit="8" fill="#FFFFFF"/><rect x="594.5" y="1012.5" width="199" height="200" stroke="#000000" stroke-width="4.58333" stroke-miterlimit="8" fill="#FFFFFF"/><rect x="793.5" y="1012.5" width="200" height="200" stroke="#000000" stroke-width="4.58333" stroke-miterlimit="8" fill="#FFFFFF"/><rect x="993.5" y="1012.5" width="200" height="200" stroke="#000000" stroke-width="4.58333" stroke-miterlimit="8" fill="#FFFFFF"/><rect x="1193.5" y="1012.5" width="200" height="200" stroke="#000000" stroke-width="4.58333" stroke-miterlimit="8" fill="#FFFFFF"/><rect x="594.5" y="1212.5" width="199" height="200" stroke="#000000" stroke-width="4.58333" stroke-miterlimit="8" fill="#FFFFFF"/><rect x="793.5" y="1212.5" width="200" height="200" stroke="#000000" stroke-width="4.58333" stroke-miterlimit="8" fill="#FFFFFF"/><rect x="993.5" y="1212.5" width="200" height="200" stroke="#000000" stroke-width="4.58333" stroke-miterlimit="8" fill="#FFFFFF"/><rect x="1193.5" y="1212.5" width="200" height="200" stroke="#000000" stroke-width="4.58333" stroke-miterlimit="8" fill="#FFFFFF"/><text font-family="Calibri,Calibri_MSFontService,sans-serif" font-weight="700" font-size="128" transform="matrix(1 0 0 1 653.215 731)">p<tspan font-size="73" x="42.2507" y="58">0</tspan><tspan font-size="128" x="7.30011" y="203">p</tspan><tspan font-size="73" x="49.5508" y="261">1</tspan><tspan font-size="128" x="196.05" y="204">p</tspan><tspan font-size="73" x="238.301" y="262">5</tspan><tspan font-size="128" x="200.947" y="-3">p</tspan><tspan font-size="73" x="243.197" y="55">4</tspan><tspan font-size="128" x="0" y="394">p</tspan><tspan font-size="73" x="42.2507" y="452">2</tspan><tspan font-size="128" x="0.656067" y="586">p</tspan><tspan font-size="73" x="42.9069" y="644">3</tspan><tspan font-size="128" x="185.617" y="392">p</tspan><tspan font-size="73" x="229.894" y="447">6</tspan><tspan font-size="128" x="190.039" y="591">p</tspan><tspan font-size="73" x="232.29" y="649">7</tspan><tspan font-size="128" x="397.406" y="5">p</tspan><tspan font-size="73" x="439.657" y="63">8</tspan><tspan font-size="128" x="404.707" y="208">p</tspan><tspan font-size="73" x="446.957" y="266">9</tspan><tspan font-size="128" x="593.456" y="209">p</tspan><tspan font-size="73" x="635.707" y="267">13</tspan><tspan font-size="128" x="598.353" y="2">p</tspan><tspan font-size="128" x="397.406" y="399">p</tspan><tspan font-size="73" x="439.657" y="457">10</tspan><tspan font-size="128" x="398.063" y="591">p</tspan><tspan font-size="73" x="440.313" y="649">11</tspan><tspan font-size="128" x="583.023" y="397">p</tspan><tspan font-size="73" x="627.3" y="451">14</tspan><tspan font-size="128" x="587.446" y="596">p</tspan><tspan font-size="73" x="629.697" y="654">15</tspan><tspan font-size="73" x="635.96" y="68">12</tspan><tspan font-weight="400" font-size="83" x="284.414" y="823">We consider all the items (</tspan><tspan font-size="83" x="1175.85" y="823">16</tspan><tspan font-weight="400" font-size="83" x="1278.4" y="823">items) in the matrix </tspan><tspan font-weight="400" font-size="83" x="614.414" y="922">+ for every item we apply the </tspan><tspan font-size="83" x="1615.71" y="922">s</tspan><tspan font-size="83" x="1648.37" y="922">-</tspan><tspan font-size="83" x="1673.58" y="922">box</tspan><tspan font-weight="400" font-size="83" x="1797.97" y="922">: return </tspan><tspan font-size="83" x="2069.74" y="922">8</tspan><tspan font-weight="400" font-size="83" x="2130.47" y="922">bits as an output</tspan><tspan fill="#00B0F0" font-size="110" x="804.502" y="1112">0  1  0  1  1  1  0  0</tspan></text><path d="M1839.5 1851.5C1839.5 1884.36 1835.06 1911 1829.58 1911L1648.42 1911C1642.94 1911 1638.5 1937.64 1638.5 1970.5 1638.5 1937.64 1634.06 1911 1628.58 1911L1447.42 1911C1441.94 1911 1437.5 1884.36 1437.5 1851.5" stroke="#000000" stroke-width="4.58333" stroke-miterlimit="8" fill="none" fill-rule="evenodd"/><path d="M2264.5 1851.5C2264.5 1884.36 2260.06 1911 2254.58 1911L2073.42 1911C2067.94 1911 2063.5 1937.64 2063.5 1970.5 2063.5 1937.64 2059.06 1911 2053.58 1911L1872.42 1911C1866.94 1911 1862.5 1884.36 1862.5 1851.5" stroke="#000000" stroke-width="4.58333" stroke-miterlimit="8" fill="none" fill-rule="evenodd"/><text font-family="Calibri,Calibri_MSFontService,sans-serif" font-weight="700" font-size="64" transform="matrix(1 0 0 1 1569.64 2079)">ROW<tspan font-size="64" x="-15.3082" y="77">INDEX</tspan><tspan font-size="64" x="372.095" y="-1">COLUMN</tspan><tspan font-size="64" x="409.747" y="76">INDEX</tspan><tspan font-weight="400" font-size="73" x="1008.04" y="-225">because we have </tspan><tspan font-size="73" x="1531.94" y="-225">4</tspan><tspan font-weight="400" font-size="73" x="1585.79" y="-225">bits for the rows</tspan><tspan font-weight="400" font-size="73" x="1013.86" y="-137">and </tspan><tspan font-size="73" x="1142.2" y="-137">4</tspan><tspan font-weight="400" font-size="73" x="1196.05" y="-137">bits for the column thats why</tspan><tspan font-weight="400" font-size="73" x="1150.58" y="-49">this look</tspan><tspan font-weight="400" font-size="73" x="1403.24" y="-49">-</tspan><tspan font-weight="400" font-size="73" x="1425.58" y="-49">up table is </tspan><tspan font-size="73" x="1747.81" y="-49">16x16</tspan></text></g></svg>