<svg width="3132" height="1793" xmlns="http://www.w3.org/2000/svg" xmlns:xlink="http://www.w3.org/1999/xlink" overflow="hidden"><defs><clipPath id="clip0"><rect x="638" y="371" width="3132" height="1793"/></clipPath></defs><g clip-path="url(#clip0)" transform="translate(-638 -371)"><text fill="#00B0F0" font-family="Calibri,Calibri_MSFontService,sans-serif" font-weight="700" font-size="83" transform="matrix(1 0 0 1 687.545 473)">MIX COLUMNS OPERATION</text><rect x="1017.5" y="611.5" width="200" height="200" stroke="#000000" stroke-width="4.58333" stroke-miterlimit="8" fill="#FFFFFF"/><rect x="1217.5" y="611.5" width="200" height="200" stroke="#000000" stroke-width="4.58333" stroke-miterlimit="8" fill="#FFFFFF"/><rect x="1417.5" y="611.5" width="200" height="200" stroke="#000000" stroke-width="4.58333" stroke-miterlimit="8" fill="#FFFFFF"/><rect x="1617.5" y="611.5" width="199" height="200" stroke="#000000" stroke-width="4.58333" stroke-miterlimit="8" fill="#FFFFFF"/><rect x="1017.5" y="811.5" width="200" height="200" stroke="#000000" stroke-width="4.58333" stroke-miterlimit="8" fill="#FFFFFF"/><rect x="1217.5" y="811.5" width="200" height="200" stroke="#000000" stroke-width="4.58333" stroke-miterlimit="8" fill="#FFFFFF"/><rect x="1417.5" y="811.5" width="200" height="200" stroke="#000000" stroke-width="4.58333" stroke-miterlimit="8" fill="#FFFFFF"/><rect x="1617.5" y="811.5" width="199" height="200" stroke="#000000" stroke-width="4.58333" stroke-miterlimit="8" fill="#FFFFFF"/><rect x="1017.5" y="1011.5" width="200" height="200" stroke="#000000" stroke-width="4.58333" stroke-miterlimit="8" fill="#FFFFFF"/><rect x="1217.5" y="1011.5" width="200" height="200" stroke="#000000" stroke-width="4.58333" stroke-miterlimit="8" fill="#FFFFFF"/><rect x="1417.5" y="1011.5" width="200" height="200" stroke="#000000" stroke-width="4.58333" stroke-miterlimit="8" fill="#FFFFFF"/><rect x="1617.5" y="1011.5" width="199" height="200" stroke="#000000" stroke-width="4.58333" stroke-miterlimit="8" fill="#FFFFFF"/><rect x="1017.5" y="1211.5" width="200" height="199" stroke="#000000" stroke-width="4.58333" stroke-miterlimit="8" fill="#FFFFFF"/><rect x="1217.5" y="1211.5" width="200" height="199" stroke="#000000" stroke-width="4.58333" stroke-miterlimit="8" fill="#FFFFFF"/><rect x="1417.5" y="1211.5" width="200" height="199" stroke="#000000" stroke-width="4.58333" stroke-miterlimit="8" fill="#FFFFFF"/><rect x="1617.5" y="1211.5" width="199" height="199" stroke="#000000" stroke-width="4.58333" stroke-miterlimit="8" fill="#FFFFFF"/><text font-family="Calibri,Calibri_MSFontService,sans-serif" font-weight="700" font-size="128" transform="matrix(1 0 0 1 1076.72 729)">s<tspan font-size="73" x="42.2507" y="58">0</tspan><tspan font-size="128" x="10.2732" y="206">s</tspan><tspan font-size="73" x="58.47" y="261">1</tspan><tspan font-size="128" x="201.996" y="210">s</tspan><tspan font-size="73" x="256.139" y="259">5</tspan><tspan font-size="128" x="200.947" y="-3">s</tspan><tspan font-size="73" x="243.197" y="55">4</tspan><tspan font-size="128" x="0" y="394">s</tspan><tspan font-size="73" x="42.2507" y="452">2</tspan><tspan font-size="128" x="3.62915" y="599">s</tspan><tspan font-size="73" x="48.8529" y="648">3</tspan><tspan font-size="128" x="197.509" y="398">s</tspan><tspan font-size="73" x="241.786" y="447">6</tspan><tspan font-size="128" x="198.959" y="607">s</tspan><tspan font-size="73" x="247.155" y="650">7</tspan><tspan font-size="128" x="397.406" y="5">s</tspan><tspan font-size="73" x="439.657" y="63">8</tspan><tspan font-size="128" x="407.68" y="211">s</tspan><tspan font-size="73" x="458.849" y="257">9</tspan><tspan font-size="128" x="593.456" y="209">s</tspan><tspan font-size="73" x="635.707" y="267">13</tspan><tspan font-size="128" x="598.353" y="2">s</tspan><tspan font-size="128" x="397.406" y="399">s</tspan><tspan font-size="73" x="439.657" y="457">10</tspan><tspan font-size="128" x="406.982" y="604">s</tspan><tspan font-size="73" x="440.313" y="650">11</tspan><tspan font-size="128" x="583.023" y="397">s</tspan><tspan font-size="73" x="627.3" y="452">14</tspan><tspan font-size="128" x="590.419" y="600">s</tspan><tspan font-size="73" x="629.697" y="655">15</tspan><tspan font-size="73" x="635.96" y="69">12</tspan></text><rect x="2138.5" y="613.5" width="200" height="200" stroke="#000000" stroke-width="4.58333" stroke-miterlimit="8" fill="#FFFFFF"/><text font-family="Calibri,Calibri_MSFontService,sans-serif" font-weight="700" font-size="83" transform="matrix(1 0 0 1 2216.84 740)">2</text><rect x="2338.5" y="613.5" width="199" height="200" stroke="#000000" stroke-width="4.58333" stroke-miterlimit="8" fill="#FFFFFF"/><text font-family="Calibri,Calibri_MSFontService,sans-serif" font-weight="700" font-size="83" transform="matrix(1 0 0 1 2416.66 740)">3</text><rect x="2537.5" y="613.5" width="200" height="200" stroke="#000000" stroke-width="4.58333" stroke-miterlimit="8" fill="#FFFFFF"/><text font-family="Calibri,Calibri_MSFontService,sans-serif" font-weight="700" font-size="83" transform="matrix(1 0 0 1 2616.48 740)">1</text><rect x="2737.5" y="613.5" width="200" height="200" stroke="#000000" stroke-width="4.58333" stroke-miterlimit="8" fill="#FFFFFF"/><text font-family="Calibri,Calibri_MSFontService,sans-serif" font-weight="700" font-size="83" transform="matrix(1 0 0 1 2816.29 740)">1</text><rect x="2138.5" y="813.5" width="200" height="200" stroke="#000000" stroke-width="4.58333" stroke-miterlimit="8" fill="#FFFFFF"/><text font-family="Calibri,Calibri_MSFontService,sans-serif" font-weight="700" font-size="83" transform="matrix(1 0 0 1 2216.84 940)">1</text><rect x="2338.5" y="813.5" width="199" height="200" stroke="#000000" stroke-width="4.58333" stroke-miterlimit="8" fill="#FFFFFF"/><text font-family="Calibri,Calibri_MSFontService,sans-serif" font-weight="700" font-size="83" transform="matrix(1 0 0 1 2416.66 940)">2</text><rect x="2537.5" y="813.5" width="200" height="200" stroke="#000000" stroke-width="4.58333" stroke-miterlimit="8" fill="#FFFFFF"/><text font-family="Calibri,Calibri_MSFontService,sans-serif" font-weight="700" font-size="83" transform="matrix(1 0 0 1 2616.48 940)">3</text><rect x="2737.5" y="813.5" width="200" height="200" stroke="#000000" stroke-width="4.58333" stroke-miterlimit="8" fill="#FFFFFF"/><text font-family="Calibri,Calibri_MSFontService,sans-serif" font-weight="700" font-size="83" transform="matrix(1 0 0 1 2816.29 940)">1</text><rect x="2138.5" y="1013.5" width="200" height="199" stroke="#000000" stroke-width="4.58333" stroke-miterlimit="8" fill="#FFFFFF"/><text font-family="Calibri,Calibri_MSFontService,sans-serif" font-weight="700" font-size="83" transform="matrix(1 0 0 1 2216.84 1140)">1</text><rect x="2338.5" y="1013.5" width="199" height="199" stroke="#000000" stroke-width="4.58333" stroke-miterlimit="8" fill="#FFFFFF"/><text font-family="Calibri,Calibri_MSFontService,sans-serif" font-weight="700" font-size="83" transform="matrix(1 0 0 1 2416.66 1140)">1</text><rect x="2537.5" y="1013.5" width="200" height="199" stroke="#000000" stroke-width="4.58333" stroke-miterlimit="8" fill="#FFFFFF"/><text font-family="Calibri,Calibri_MSFontService,sans-serif" font-weight="700" font-size="83" transform="matrix(1 0 0 1 2616.48 1140)">2</text><rect x="2737.5" y="1013.5" width="200" height="199" stroke="#000000" stroke-width="4.58333" stroke-miterlimit="8" fill="#FFFFFF"/><text font-family="Calibri,Calibri_MSFontService,sans-serif" font-weight="700" font-size="83" transform="matrix(1 0 0 1 2816.29 1140)">3</text><rect x="2138.5" y="1212.5" width="200" height="200" stroke="#000000" stroke-width="4.58333" stroke-miterlimit="8" fill="#FFFFFF"/><text font-family="Calibri,Calibri_MSFontService,sans-serif" font-weight="700" font-size="83" transform="matrix(1 0 0 1 2216.84 1340)">3</text><rect x="2338.5" y="1212.5" width="199" height="200" stroke="#000000" stroke-width="4.58333" stroke-miterlimit="8" fill="#FFFFFF"/><text font-family="Calibri,Calibri_MSFontService,sans-serif" font-weight="700" font-size="83" transform="matrix(1 0 0 1 2416.66 1340)">1</text><rect x="2537.5" y="1212.5" width="200" height="200" stroke="#000000" stroke-width="4.58333" stroke-miterlimit="8" fill="#FFFFFF"/><text font-family="Calibri,Calibri_MSFontService,sans-serif" font-weight="700" font-size="83" transform="matrix(1 0 0 1 2616.48 1340)">1</text><rect x="2737.5" y="1212.5" width="200" height="200" stroke="#000000" stroke-width="4.58333" stroke-miterlimit="8" fill="#FFFFFF"/><text font-family="Calibri,Calibri_MSFontService,sans-serif" font-weight="700" font-size="83" transform="matrix(1 0 0 1 2816.29 1340)">2<tspan font-family="Wingdings,Wingdings_MSFontService,sans-serif" font-weight="400" font-size="83" x="-1593.07" y="284"></tspan><tspan font-weight="400" font-size="83" x="-1489.95" y="284">this step in </tspan><tspan font-size="83" x="-1106.18" y="284">AES</tspan><tspan font-weight="400" font-size="83" x="-959.174" y="284">is a matrix</tspan><tspan font-weight="400" font-size="83" x="-615.607" y="284">-</tspan><tspan font-weight="400" font-size="83" x="-590.398" y="284">vector multiplication</tspan><tspan font-family="Wingdings,Wingdings_MSFontService,sans-serif" font-weight="400" font-size="83" x="-1593.07" y="482"></tspan><tspan font-weight="400" font-size="83" x="-1489.95" y="482">we take the columns from the state</tspan><tspan font-weight="400" font-size="83" x="-302.542" y="482">-</tspan><tspan font-weight="400" font-size="83" x="-277.334" y="482">matrix and multiply the predefined</tspan><tspan font-weight="400" font-size="83" x="-1263.07" y="581">matrix with these vectors</tspan></text></g></svg>