<svg width="3903" height="1647" xmlns="http://www.w3.org/2000/svg" overflow="hidden"><defs><clipPath id="clip0"><rect x="123" y="526" width="3903" height="1647"/></clipPath></defs><g clip-path="url(#clip0)" transform="translate(-123 -526)"><path d="M1420.34 2003.47 1398 1019" stroke="#5B9BD5" stroke-width="2.29167" stroke-miterlimit="8" stroke-dasharray="9.16667 6.875" fill="none" fill-rule="evenodd"/><path d="M123 1484.12 1939.13 1484.13 1939.13 1497.88 123 1497.87ZM1932.26 1470.38 1973.51 1491 1932.26 1511.63Z" fill="#7F7F7F"/><path d="M6.875-1.72665e-06 6.87535 1402.59-6.87465 1402.59-6.875 1.72665e-06ZM20.6254 1395.71 0.000360892 1436.96-20.6246 1395.71Z" fill="#7F7F7F" transform="matrix(1 0 0 -1 773 2165.96)"/><path d="M1516.26 802.5C1400.69 997.693 1285.13 1192.89 1164.95 1244.62 1044.77 1296.36 910.714 1070.6 795.153 1112.93 679.591 1155.26 476.203 1368.48 471.581 1498.61 466.959 1628.74 661.101 1854.5 767.418 1893.7 873.734 1932.9 983.132 1688.32 1109.48 1733.78 1235.83 1779.25 1380.66 1972.87 1525.5 2166.5" stroke="#FFC000" stroke-width="20.625" stroke-miterlimit="8" fill="none" fill-rule="evenodd"/><text fill="#8FAADC" font-family="Calibri,Calibri_MSFontService,sans-serif" font-weight="700" font-size="110" transform="matrix(1 0 0 1 2830.09 965)">POINT DOUBLING</text><path d="M2830.38 976.643 3099.71 976.643 3369.05 976.643 3638.38 976.643 3638.38 983.643 3369.05 983.643 3099.71 983.643 2830.38 983.643Z" fill="#8FAADC" fill-rule="evenodd"/><text fill="#595959" font-family="Calibri,Calibri_MSFontService,sans-serif" font-style="italic" font-weight="400" font-size="110" transform="matrix(1 0 0 1 2627.66 1202)">we can define the <tspan font-weight="700" font-size="110" x="812.167" y="0">doubling</tspan><tspan font-weight="700" font-size="110" x="-0.0915527" y="119">operation </tspan><tspan font-size="110" x="471.992" y="119">on elliptic curves</tspan><tspan font-size="110" x="-118.158" y="238">(we have to draw a tangent line)</tspan><tspan fill="#7F7F7F" font-style="normal" font-weight="700" font-size="110" x="-608.855" y="318">x</tspan><tspan fill="#7F7F7F" font-style="normal" font-weight="700" font-size="110" x="-1881.53" y="-540">y</tspan></text><path d="M2484.5 1762.67C2484.5 1729.44 2511.44 1702.5 2544.67 1702.5L3924.33 1702.5C3957.56 1702.5 3984.5 1729.44 3984.5 1762.67L3984.5 2003.33C3984.5 2036.56 3957.56 2063.5 3924.33 2063.5L2544.67 2063.5C2511.44 2063.5 2484.5 2036.56 2484.5 2003.33Z" stroke="#7F7F7F" stroke-width="4.58333" stroke-miterlimit="8" fill="#FFF2CC" fill-rule="evenodd"/><text fill="#7F7F7F" font-family="Calibri,Calibri_MSFontService,sans-serif" font-style="italic" font-weight="700" font-size="110" transform="matrix(1 0 0 1 2603.78 1913)">P(x<tspan font-size="73" x="143.229" y="27">1</tspan><tspan font-size="110" x="180.469" y="0">,y</tspan><tspan font-size="73" x="260.677" y="27">1</tspan><tspan font-size="110" x="297.917" y="0">) + P(x</tspan><tspan font-size="73" x="579.792" y="27">1</tspan><tspan font-size="110" x="617.031" y="0">,y</tspan><tspan font-size="73" x="697.24" y="27">1</tspan><tspan font-size="110" x="734.479" y="0">) = 2P(x</tspan><tspan font-size="73" x="1071.93" y="27">3</tspan><tspan font-size="110" x="1109.17" y="0">,y</tspan><tspan font-size="73" x="1189.38" y="27">3</tspan><tspan font-size="110" x="1226.61" y="0">)</tspan></text><path d="M0 0 1053.51 213.126" stroke="#A9D18E" stroke-width="2.29167" stroke-miterlimit="8" fill="none" fill-rule="evenodd" transform="matrix(1 0 0 -1 471 1177.13)"/><path d="M790.5 1107.5C790.5 1090.93 803.932 1077.5 820.5 1077.5 837.068 1077.5 850.5 1090.93 850.5 1107.5 850.5 1124.07 837.068 1137.5 820.5 1137.5 803.932 1137.5 790.5 1124.07 790.5 1107.5Z" stroke="#7F7F7F" stroke-width="4.58333" stroke-miterlimit="8" fill="#9DC3E6" fill-rule="evenodd"/><path d="M1388.5 2020.5C1388.5 2003.93 1401.93 1990.5 1418.5 1990.5 1435.07 1990.5 1448.5 2003.93 1448.5 2020.5 1448.5 2037.07 1435.07 2050.5 1418.5 2050.5 1401.93 2050.5 1388.5 2037.07 1388.5 2020.5Z" stroke="#7F7F7F" stroke-width="4.58333" stroke-miterlimit="8" fill="#9DC3E6" fill-rule="evenodd"/><text fill="#7F7F7F" font-family="Calibri,Calibri_MSFontService,sans-serif" font-style="italic" font-weight="700" font-size="83" transform="matrix(1 0 0 1 1481.5 1964)">2P(x<tspan font-size="55" x="149.531" y="20">3</tspan><tspan font-size="83" x="177.604" y="0">,y</tspan><tspan font-size="55" x="237.76" y="20">3</tspan><tspan font-size="83" x="265.833" y="0">)</tspan></text><path d="M1365.5 991C1365.5 974.155 1379.16 960.5 1396 960.5 1412.84 960.5 1426.5 974.155 1426.5 991 1426.5 1007.84 1412.84 1021.5 1396 1021.5 1379.16 1021.5 1365.5 1007.84 1365.5 991Z" stroke="#7F7F7F" stroke-width="4.58333" stroke-miterlimit="8" fill="#9DC3E6" fill-rule="evenodd"/><text fill="#7F7F7F" font-family="Calibri,Calibri_MSFontService,sans-serif" font-style="italic" font-weight="700" font-size="83" transform="matrix(1 0 0 1 820.886 995)">P(x<tspan font-size="55" x="107.708" y="20">1</tspan><tspan font-size="83" x="135.781" y="0">,y</tspan><tspan font-size="55" x="195.938" y="20">1</tspan><tspan font-size="83" x="224.01" y="0">)</tspan></text></g></svg>