<svg width="3948" height="1647" xmlns="http://www.w3.org/2000/svg" xmlns:xlink="http://www.w3.org/1999/xlink" overflow="hidden"><defs><clipPath id="clip0"><rect x="123" y="526" width="3948" height="1647"/></clipPath></defs><g clip-path="url(#clip0)" transform="translate(-123 -526)"><path d="M1406.34 2006.47 1384 1022" stroke="#5B9BD5" stroke-width="2.29167" stroke-miterlimit="8" stroke-dasharray="9.16667 6.875" fill="none" fill-rule="evenodd"/><path d="M123 1484.12 1939.13 1484.13 1939.13 1497.88 123 1497.87ZM1932.26 1470.38 1973.51 1491 1932.26 1511.63Z" fill="#7F7F7F"/><path d="M6.875-1.72665e-06 6.87535 1402.59-6.87465 1402.59-6.875 1.72665e-06ZM20.6254 1395.71 0.000360892 1436.96-20.6246 1395.71Z" fill="#7F7F7F" transform="matrix(1 0 0 -1 773 2165.96)"/><path d="M1516.26 802.5C1400.69 997.693 1285.13 1192.89 1164.95 1244.62 1044.77 1296.36 910.714 1070.6 795.153 1112.93 679.591 1155.26 476.203 1368.48 471.581 1498.61 466.959 1628.74 661.101 1854.5 767.418 1893.7 873.734 1932.9 983.132 1688.32 1109.48 1733.78 1235.83 1779.25 1380.66 1972.87 1525.5 2166.5" stroke="#FFC000" stroke-width="20.625" stroke-miterlimit="8" fill="none" fill-rule="evenodd"/><text fill="#7F7F7F" font-family="Calibri,Calibri_MSFontService,sans-serif" font-weight="700" font-size="110" transform="matrix(1 0 0 1 2018.81 1520)">x<tspan font-size="110" x="-1272.67" y="-858">y</tspan></text><path d="M0 0 1265.69 614.306" stroke="#A9D18E" stroke-width="2.29167" stroke-miterlimit="8" fill="none" fill-rule="evenodd" transform="matrix(1 0 0 -1 259 1567.31)"/><path d="M437.5 1469.5C437.5 1452.93 450.932 1439.5 467.5 1439.5 484.068 1439.5 497.5 1452.93 497.5 1469.5 497.5 1486.07 484.068 1499.5 467.5 1499.5 450.932 1499.5 437.5 1486.07 437.5 1469.5Z" stroke="#7F7F7F" stroke-width="4.58333" stroke-miterlimit="8" fill="#9DC3E6" fill-rule="evenodd"/><path d="M981.5 1208C981.5 1191.16 994.931 1177.5 1011.5 1177.5 1028.07 1177.5 1041.5 1191.16 1041.5 1208 1041.5 1224.84 1028.07 1238.5 1011.5 1238.5 994.931 1238.5 981.5 1224.84 981.5 1208Z" stroke="#7F7F7F" stroke-width="4.58333" stroke-miterlimit="8" fill="#9DC3E6" fill-rule="evenodd"/><text fill="#7F7F7F" font-family="Calibri,Calibri_MSFontService,sans-serif" font-style="italic" font-weight="700" font-size="83" transform="matrix(1 0 0 1 188.383 1380)">P(x<tspan font-size="55" x="107.708" y="20">1</tspan><tspan font-size="83" x="135.781" y="0">,y</tspan><tspan font-size="55" x="195.938" y="20">1</tspan><tspan font-size="83" x="224.01" y="0">)</tspan><tspan font-size="83" x="727.128" y="-6">Q(x</tspan><tspan font-size="55" x="846.868" y="14">2</tspan><tspan font-size="83" x="874.941" y="-6">,y</tspan><tspan font-size="55" x="935.097" y="14">2</tspan><tspan font-size="83" x="963.17" y="-6">)</tspan></text><path d="M1378.5 2017.5C1378.5 2000.93 1391.93 1987.5 1408.5 1987.5 1425.07 1987.5 1438.5 2000.93 1438.5 2017.5 1438.5 2034.07 1425.07 2047.5 1408.5 2047.5 1391.93 2047.5 1378.5 2034.07 1378.5 2017.5Z" stroke="#7F7F7F" stroke-width="4.58333" stroke-miterlimit="8" fill="#9DC3E6" fill-rule="evenodd"/><text fill="#7F7F7F" font-family="Calibri,Calibri_MSFontService,sans-serif" font-style="italic" font-weight="700" font-size="83" transform="matrix(1 0 0 1 1447.17 1969)">R(x<tspan font-size="55" x="110" y="20">3</tspan><tspan font-size="83" x="138.073" y="0">,y</tspan><tspan font-size="55" x="198.229" y="20">3</tspan><tspan font-size="83" x="226.302" y="0">)</tspan></text><path d="M1353.5 1021C1353.5 1004.16 1366.93 990.5 1383.5 990.5 1400.07 990.5 1413.5 1004.16 1413.5 1021 1413.5 1037.84 1400.07 1051.5 1383.5 1051.5 1366.93 1051.5 1353.5 1037.84 1353.5 1021Z" stroke="#7F7F7F" stroke-width="4.58333" stroke-miterlimit="8" fill="#9DC3E6" fill-rule="evenodd"/><text fill="#7F7F7F" font-family="Calibri,Calibri_MSFontService,sans-serif" font-style="italic" font-weight="700" font-size="83" transform="matrix(1 0 0 1 1107.4 920)">-<tspan font-size="83" x="25.2083" y="0">R(x</tspan><tspan font-size="55" x="135.208" y="20">3</tspan><tspan font-size="83" x="163.281" y="0">,</tspan><tspan font-size="83" x="184.479" y="0">-</tspan><tspan font-size="83" x="209.688" y="0">y</tspan><tspan font-size="55" x="248.646" y="20">3</tspan><tspan font-size="83" x="276.719" y="0">)</tspan><tspan fill="#8FAADC" font-style="normal" font-size="110" x="1440.55" y="45">FINDING x</tspan><tspan fill="#8FAADC" font-style="normal" font-size="73" x="1908.05" y="72">3</tspan><tspan fill="#8FAADC" font-style="normal" font-size="110" x="1969.92" y="45">AND y</tspan><tspan fill="#8FAADC" font-style="normal" font-size="73" x="2254.66" y="72">3</tspan><tspan fill="#8FAADC" font-style="normal" font-size="110" x="2316.53" y="45">VARIABLES</tspan></text><path d="M2547.55 976.643 2781.55 976.643 3015.55 976.643 3015.55 983.643 2781.55 983.643 2547.55 983.643Z" fill="#8FAADC" fill-rule="evenodd"/><path d="M3052.55 976.643 3362.55 976.643 3362.55 983.643 3052.55 983.643Z" fill="#8FAADC" fill-rule="evenodd"/><path d="M3399.55 976.643 3660.05 976.643 3920.55 976.643 3920.55 983.643 3660.05 983.643 3399.55 983.643Z" fill="#8FAADC" fill-rule="evenodd"/><text fill="#595959" font-family="Calibri,Calibri_MSFontService,sans-serif" font-style="italic" font-weight="400" font-size="110" transform="matrix(1 0 0 1 2600.63 1202)">if we assume that <tspan font-weight="700" font-size="110" x="814.688" y="0">P(x,y)</tspan><tspan font-size="110" x="1097.14" y="0">and</tspan><tspan font-weight="700" font-size="110" x="-136.377" y="119">-</tspan><tspan font-weight="700" font-size="110" x="-102.575" y="119">R(x,y)</tspan><tspan font-size="110" x="183.31" y="119">points are on the green line</tspan><tspan font-size="110" x="45.0542" y="238">then they must satisfy the </tspan><tspan font-weight="700" font-size="110" x="144.673" y="357">y = m    x + b </tspan><tspan font-size="110" x="724.465" y="357">equation</tspan><tspan font-style="normal" font-weight="700" font-size="83" x="419.753" y="373">*</tspan></text></g></svg>