<svg width="3184" height="1611" xmlns="http://www.w3.org/2000/svg" xmlns:xlink="http://www.w3.org/1999/xlink" overflow="hidden"><defs><clipPath id="clip0"><rect x="946" y="298" width="3184" height="1611"/></clipPath></defs><g clip-path="url(#clip0)" transform="translate(-946 -298)"><text fill="#7F7F7F" font-family="Calibri,Calibri_MSFontService,sans-serif" font-style="italic" font-weight="400" font-size="92" transform="matrix(1 0 0 1 1191.38 1720)">data of <tspan font-weight="700" font-size="92" x="286.917" y="0">arbitrary size </tspan><tspan font-size="92" x="-127.462" y="110">(string with arbitrary length)</tspan><tspan fill="#A9D18E" font-weight="700" font-size="92" x="1910.33" y="-516">ASSOCIATIVE ARRAYS </tspan><tspan fill="#A9D18E" font-weight="700" font-size="92" x="1852.19" y="-406">NEED O(1) RUNING TIME</tspan><tspan fill="#A9D18E" font-weight="700" font-size="92" x="1764.69" y="-296">BUT HERE IT IS NOT THE CASE</tspan><tspan font-weight="700" font-size="92" x="888.97" y="-1308">fixed length</tspan><tspan font-size="92" x="877.97" y="-1198">string (</tspan><tspan font-weight="700" font-size="92" x="1138.76" y="-1198">d</tspan><tspan font-size="92" x="1207.51" y="-1198">bits)</tspan><tspan font-weight="700" font-size="92" x="768.016" y="-978">MD5</tspan><tspan font-size="92" x="973.12" y="-978">–</tspan><tspan font-weight="700" font-size="92" x="1039.58" y="-978">d</tspan><tspan font-size="92" x="1108.33" y="-978">is </tspan><tspan font-weight="700" font-size="92" x="1185.67" y="-978">128</tspan><tspan font-size="92" x="1345.52" y="-978">bits</tspan><tspan font-weight="700" font-size="92" x="759.147" y="-868">SHA1</tspan><tspan font-size="92" x="982.011" y="-868">–</tspan><tspan font-weight="700" font-size="92" x="1048.47" y="-868">d</tspan><tspan font-size="92" x="1117.22" y="-868">is </tspan><tspan font-weight="700" font-size="92" x="1194.56" y="-868">160</tspan><tspan font-size="92" x="1354.41" y="-868">bits</tspan><tspan font-weight="700" font-size="92" x="759.147" y="-758">SHA2</tspan><tspan font-size="92" x="982.011" y="-758">–</tspan><tspan font-weight="700" font-size="92" x="1048.47" y="-758">d </tspan>is <tspan font-weight="700" font-size="92" x="1194.56" y="-758">256</tspan><tspan font-size="92" x="1354.41" y="-758">bits</tspan></text><path d="M948.5 1149.34C948.5 1108.56 981.557 1075.5 1022.34 1075.5L2688.66 1075.5C2729.44 1075.5 2762.5 1108.56 2762.5 1149.34L2762.5 1444.66C2762.5 1485.44 2729.44 1518.5 2688.66 1518.5L1022.34 1518.5C981.557 1518.5 948.5 1485.44 948.5 1444.66Z" stroke="#000000" stroke-width="4.58333" stroke-miterlimit="8" fill="#EDE0B1" fill-rule="evenodd"/><text fill="#595959" font-family="Calibri,Calibri_MSFontService,sans-serif" font-weight="700" font-size="156" transform="matrix(1 0 0 1 1249.76 1349)">H : {0, 1}<tspan font-size="104" x="552.292" y="-62">*</tspan><tspan font-size="156" x="638.802" y="0">→ {0, 1}</tspan><tspan font-size="104" x="1155.57" y="-62">d</tspan></text></g></svg>