<svg width="4047" height="1852" xmlns="http://www.w3.org/2000/svg" overflow="hidden"><defs><clipPath id="clip0"><rect x="123" y="526" width="4047" height="1852"/></clipPath></defs><g clip-path="url(#clip0)" transform="translate(-123 -526)"><path d="M1406.34 2006.47 1384 1022" stroke="#5B9BD5" stroke-width="2.29167" stroke-miterlimit="8" stroke-dasharray="9.16667 6.875" fill="none" fill-rule="evenodd"/><path d="M123 1484.12 1939.13 1484.13 1939.13 1497.88 123 1497.87ZM1932.26 1470.38 1973.51 1491 1932.26 1511.63Z" fill="#7F7F7F"/><path d="M6.875-1.72665e-06 6.87535 1402.59-6.87465 1402.59-6.875 1.72665e-06ZM20.6254 1395.71 0.000360892 1436.96-20.6246 1395.71Z" fill="#7F7F7F" transform="matrix(1 0 0 -1 773 2165.96)"/><path d="M1516.26 802.5C1400.69 997.693 1285.13 1192.89 1164.95 1244.62 1044.77 1296.36 910.714 1070.6 795.153 1112.93 679.591 1155.26 476.203 1368.48 471.581 1498.61 466.959 1628.74 661.101 1854.5 767.418 1893.7 873.734 1932.9 983.132 1688.32 1109.48 1733.78 1235.83 1779.25 1380.66 1972.87 1525.5 2166.5" stroke="#FFC000" stroke-width="20.625" stroke-miterlimit="8" fill="none" fill-rule="evenodd"/><text fill="#7F7F7F" font-family="Calibri,Calibri_MSFontService,sans-serif" font-weight="700" font-size="110" transform="matrix(1 0 0 1 2018.81 1520)">x<tspan font-size="110" x="-1272.67" y="-858">y</tspan></text><path d="M0 0 1265.69 614.306" stroke="#A9D18E" stroke-width="2.29167" stroke-miterlimit="8" fill="none" fill-rule="evenodd" transform="matrix(1 0 0 -1 259 1567.31)"/><path d="M437.5 1469.5C437.5 1452.93 450.932 1439.5 467.5 1439.5 484.068 1439.5 497.5 1452.93 497.5 1469.5 497.5 1486.07 484.068 1499.5 467.5 1499.5 450.932 1499.5 437.5 1486.07 437.5 1469.5Z" stroke="#7F7F7F" stroke-width="4.58333" stroke-miterlimit="8" fill="#9DC3E6" fill-rule="evenodd"/><path d="M981.5 1208C981.5 1191.16 994.931 1177.5 1011.5 1177.5 1028.07 1177.5 1041.5 1191.16 1041.5 1208 1041.5 1224.84 1028.07 1238.5 1011.5 1238.5 994.931 1238.5 981.5 1224.84 981.5 1208Z" stroke="#7F7F7F" stroke-width="4.58333" stroke-miterlimit="8" fill="#9DC3E6" fill-rule="evenodd"/><text fill="#7F7F7F" font-family="Calibri,Calibri_MSFontService,sans-serif" font-style="italic" font-weight="700" font-size="83" transform="matrix(1 0 0 1 188.383 1380)">P(x<tspan font-size="55" x="107.708" y="20">1</tspan><tspan font-size="83" x="135.781" y="0">,y</tspan><tspan font-size="55" x="195.938" y="20">1</tspan><tspan font-size="83" x="224.01" y="0">)</tspan><tspan font-size="83" x="727.128" y="-6">Q(x</tspan><tspan font-size="55" x="846.868" y="14">2</tspan><tspan font-size="83" x="874.941" y="-6">,y</tspan><tspan font-size="55" x="935.097" y="14">2</tspan><tspan font-size="83" x="963.17" y="-6">)</tspan></text><path d="M1378.5 2017.5C1378.5 2000.93 1391.93 1987.5 1408.5 1987.5 1425.07 1987.5 1438.5 2000.93 1438.5 2017.5 1438.5 2034.07 1425.07 2047.5 1408.5 2047.5 1391.93 2047.5 1378.5 2034.07 1378.5 2017.5Z" stroke="#7F7F7F" stroke-width="4.58333" stroke-miterlimit="8" fill="#9DC3E6" fill-rule="evenodd"/><text fill="#7F7F7F" font-family="Calibri,Calibri_MSFontService,sans-serif" font-style="italic" font-weight="700" font-size="83" transform="matrix(1 0 0 1 1447.17 1969)">R(x<tspan font-size="55" x="110" y="20">3</tspan><tspan font-size="83" x="138.073" y="0">,y</tspan><tspan font-size="55" x="198.229" y="20">3</tspan><tspan font-size="83" x="226.302" y="0">)</tspan></text><path d="M1353.5 1021C1353.5 1004.16 1366.93 990.5 1383.5 990.5 1400.07 990.5 1413.5 1004.16 1413.5 1021 1413.5 1037.84 1400.07 1051.5 1383.5 1051.5 1366.93 1051.5 1353.5 1037.84 1353.5 1021Z" stroke="#7F7F7F" stroke-width="4.58333" stroke-miterlimit="8" fill="#9DC3E6" fill-rule="evenodd"/><text fill="#7F7F7F" font-family="Calibri,Calibri_MSFontService,sans-serif" font-style="italic" font-weight="700" font-size="83" transform="matrix(1 0 0 1 1107.4 920)">-<tspan font-size="83" x="25.2083" y="0">R(x</tspan><tspan font-size="55" x="135.208" y="20">3</tspan><tspan font-size="83" x="163.281" y="0">,</tspan><tspan font-size="83" x="184.479" y="0">-</tspan><tspan font-size="83" x="209.688" y="0">y</tspan><tspan font-size="55" x="248.646" y="20">3</tspan><tspan font-size="83" x="276.719" y="0">)</tspan><tspan fill="#8FAADC" font-style="normal" font-size="110" x="1440.55" y="-228">FINDING x</tspan><tspan fill="#8FAADC" font-style="normal" font-size="73" x="1908.05" y="-201">3</tspan><tspan fill="#8FAADC" font-style="normal" font-size="110" x="1969.92" y="-228">AND y</tspan><tspan fill="#8FAADC" font-style="normal" font-size="73" x="2254.66" y="-201">3</tspan><tspan fill="#8FAADC" font-style="normal" font-size="110" x="2316.53" y="-228">VARIABLES</tspan></text><path d="M2547.86 703.888 2781.86 703.888 3015.86 703.888 3015.86 710.888 2781.86 710.888 2547.86 710.888Z" fill="#8FAADC" fill-rule="evenodd"/><path d="M3052.86 703.888 3361.86 703.888 3361.86 710.888 3052.86 710.888Z" fill="#8FAADC" fill-rule="evenodd"/><path d="M3398.86 703.888 3659.86 703.888 3920.86 703.888 3920.86 710.888 3659.86 710.888 3398.86 710.888Z" fill="#8FAADC" fill-rule="evenodd"/><text fill="#595959" font-family="Calibri,Calibri_MSFontService,sans-serif" font-style="italic" font-weight="400" font-size="110" transform="matrix(1 0 0 1 2365.55 929)">we know that we can define a line with<tspan font-weight="700" font-size="110" x="273.19" y="119">y = m    x + </tspan><tspan font-style="normal" font-weight="700" font-size="110" x="770.481" y="119">β</tspan><tspan font-size="110" x="879.909" y="119">this</tspan><tspan font-size="110" x="1066.11" y="119">equation</tspan><tspan font-size="110" x="87.2898" y="357">and we have the elliptic curve itself</tspan><tspan font-style="normal" font-weight="700" font-size="110" x="542.392" y="476">y</tspan><tspan font-style="normal" font-weight="700" font-size="73" x="594.527" y="443">2</tspan><tspan font-style="normal" font-weight="700" font-size="110" x="656.402" y="476">= x</tspan><tspan font-style="normal" font-weight="700" font-size="73" x="786.454" y="443">3</tspan><tspan font-style="normal" font-weight="700" font-size="110" x="848.329" y="476">+ ax + b</tspan><tspan font-style="normal" font-weight="700" font-size="110" x="357.34" y="713">(m  x + </tspan><tspan font-style="normal" font-weight="700" font-size="110" x="685.048" y="713">β</tspan><tspan font-style="normal" font-weight="700" font-size="110" x="745.204" y="713">)</tspan><tspan font-style="normal" font-weight="700" font-size="73" x="779.579" y="680">2</tspan><tspan font-style="normal" font-weight="700" font-size="110" x="841.454" y="713">= x</tspan><tspan font-style="normal" font-weight="700" font-size="73" x="971.506" y="680">3</tspan><tspan font-style="normal" font-weight="700" font-size="110" x="1033.38" y="713">+ ax + b</tspan><tspan font-style="normal" font-weight="700" font-size="110" x="166.788" y="951">m</tspan><tspan font-style="normal" font-weight="700" font-size="73" x="256.163" y="918">2 </tspan><tspan font-style="normal" font-weight="700" font-size="110" x="310.017" y="951">x</tspan><tspan font-style="normal" font-weight="700" font-size="73" x="360.433" y="918">2</tspan><tspan font-style="normal" font-weight="700" font-size="110" x="422.308" y="951">+ 2mx</tspan><tspan font-style="normal" font-weight="700" font-size="110" x="720.913" y="951">β</tspan><tspan font-style="normal" font-weight="700" font-size="110" x="805.704" y="951">+ </tspan><tspan font-style="normal" font-weight="700" font-size="110" x="885.34" y="951">β </tspan><tspan font-style="normal" font-weight="700" font-size="73" x="970.131" y="918">2</tspan><tspan font-style="normal" font-weight="700" font-size="110" x="1032.01" y="951">= </tspan><tspan font-style="normal" font-weight="700" font-size="110" x="1111.64" y="951">x</tspan><tspan font-style="normal" font-weight="700" font-size="73" x="1162.06" y="918">3</tspan><tspan font-style="normal" font-weight="700" font-size="110" x="1223.93" y="951">+ ax + b</tspan><tspan font-style="normal" font-weight="700" font-size="83" x="551.937" y="135">*</tspan><tspan font-style="normal" font-weight="700" font-size="83" x="486.256" y="733">*</tspan></text><path d="M2468.5 2074.67C2468.5 2041.44 2495.44 2014.5 2528.67 2014.5L4092.33 2014.5C4125.56 2014.5 4152.5 2041.44 4152.5 2074.67L4152.5 2315.33C4152.5 2348.56 4125.56 2375.5 4092.33 2375.5L2528.67 2375.5C2495.44 2375.5 2468.5 2348.56 2468.5 2315.33Z" stroke="#7F7F7F" stroke-width="4.58333" stroke-miterlimit="8" fill="#FFF2CC" fill-rule="evenodd"/><text fill="#7F7F7F" font-family="Calibri,Calibri_MSFontService,sans-serif" font-weight="700" font-size="110" transform="matrix(1 0 0 1 2562.13 2225)">x<tspan font-size="73" x="50.4168" y="-33">3</tspan><tspan font-size="110" x="112.292" y="0">–</tspan><tspan font-size="110" x="191.927" y="0">m</tspan><tspan font-size="73" x="281.302" y="-33">2</tspan><tspan font-size="110" x="318.542" y="0">x</tspan><tspan font-size="73" x="368.958" y="-33">2</tspan><tspan font-size="110" x="430.833" y="0">+ (a</tspan>-<tspan font-size="110" x="633.073" y="0">2m</tspan><tspan font-size="110" x="778.021" y="0">β</tspan>)x + (b -<tspan font-size="110" x="1203.7" y="0">β</tspan><tspan font-size="73" x="1263.85" y="-33">2</tspan><tspan font-size="110" x="1301.09" y="0">) = 0</tspan></text></g></svg>