<svg width="3800" height="1702" xmlns="http://www.w3.org/2000/svg" xmlns:xlink="http://www.w3.org/1999/xlink" overflow="hidden"><defs><clipPath id="clip0"><rect x="301" y="608" width="3800" height="1702"/></clipPath></defs><g clip-path="url(#clip0)" transform="translate(-301 -608)"><path d="M303.5 695.834C303.5 648.705 341.705 610.5 388.834 610.5L2922.17 610.5C2969.29 610.5 3007.5 648.705 3007.5 695.834L3007.5 1037.17C3007.5 1084.29 2969.29 1122.5 2922.17 1122.5L388.834 1122.5C341.705 1122.5 303.5 1084.29 303.5 1037.17Z" stroke="#7F7F7F" stroke-width="4.58333" stroke-miterlimit="8" fill="#9DC3E6" fill-rule="evenodd"/><text fill="#595959" font-family="Calibri,Calibri_MSFontService,sans-serif" font-weight="700" font-size="92" transform="matrix(1 0 0 1 1133.36 787)">–<tspan font-size="92" x="66.4584" y="0">PRE</tspan>-<tspan font-size="92" x="239.479" y="0">IMAGE RESISTANCE </tspan><tspan font-size="92" x="996.509" y="0">–</tspan><tspan font-weight="400" font-size="92" x="-685.117" y="110">it is exponentially hard (computationally infeasible) to determine</tspan><tspan font-weight="400" font-size="92" x="-328.946" y="220">the </tspan>m<tspan font-weight="400" font-size="92" x="-88.3208" y="220">message from the </tspan><tspan font-size="92" x="602.113" y="220">h(m)</tspan><tspan font-weight="400" font-size="92" x="803.779" y="220">message digest</tspan></text><path d="M848.5 1279.83C848.5 1232.71 886.705 1194.5 933.834 1194.5L3467.17 1194.5C3514.29 1194.5 3552.5 1232.71 3552.5 1279.83L3552.5 1621.17C3552.5 1668.29 3514.29 1706.5 3467.17 1706.5L933.834 1706.5C886.705 1706.5 848.5 1668.29 848.5 1621.17Z" stroke="#7F7F7F" stroke-width="4.58333" stroke-miterlimit="8" fill="#FFE699" fill-rule="evenodd"/><text fill="#595959" font-family="Calibri,Calibri_MSFontService,sans-serif" font-weight="700" font-size="92" transform="matrix(1 0 0 1 1511.11 1371)">–<tspan font-size="92" x="66.4584" y="0">SECOND PRE</tspan><tspan font-size="92" x="546.838" y="0">-</tspan><tspan font-size="92" x="574.911" y="0">IMAGE RESISTANCE </tspan>–<tspan font-weight="400" font-size="92" x="-286.642" y="110">if </tspan><tspan font-size="92" x="-216.746" y="110">m</tspan><tspan font-size="61" x="-142.267" y="132">1</tspan><tspan font-weight="400" font-size="92" x="-90.7041" y="110">is given then it is infeasible to find </tspan><tspan font-size="92" x="1193.18" y="110">m</tspan><tspan font-size="61" x="1267.66" y="132">2</tspan><tspan font-weight="400" font-size="92" x="1319.22" y="110">such that</tspan><tspan font-size="92" x="-84.8146" y="220">h(m</tspan><tspan font-size="61" x="67.5813" y="242">1</tspan><tspan font-size="92" x="98.5188" y="220">) = h(m</tspan><tspan font-size="61" x="366.644" y="242">2</tspan><tspan font-size="92" x="397.581" y="220">)</tspan><tspan font-weight="400" font-size="92" x="446.852" y="220">so the hashes are the same</tspan></text><path d="M1393.5 1864.84C1393.5 1817.71 1431.71 1779.5 1478.84 1779.5L4013.16 1779.5C4060.29 1779.5 4098.5 1817.71 4098.5 1864.84L4098.5 2206.16C4098.5 2253.29 4060.29 2291.5 4013.16 2291.5L1478.84 2291.5C1431.71 2291.5 1393.5 2253.29 1393.5 2206.16Z" stroke="#7F7F7F" stroke-width="4.58333" stroke-miterlimit="8" fill="#C5E0B4" fill-rule="evenodd"/><text fill="#595959" font-family="Calibri,Calibri_MSFontService,sans-serif" font-weight="700" font-size="92" transform="matrix(1 0 0 1 2240.66 1901)">–<tspan font-size="92" x="66.4585" y="0">COLLISION RESISTANCE </tspan>–<tspan font-weight="400" font-size="92" x="-354.36" y="110">it is infeasible to find any </tspan><tspan font-size="92" x="591.273" y="110">m</tspan><tspan font-size="61" x="665.752" y="132">1</tspan><tspan font-weight="400" font-size="92" x="717.315" y="110">and </tspan>m<tspan font-size="61" x="952.784" y="132">2</tspan><tspan font-weight="400" font-size="92" x="1004.35" y="110">messages </tspan><tspan font-weight="400" font-size="92" x="-669.579" y="220">such that </tspan><tspan font-size="92" x="-303.76" y="220">h(m</tspan><tspan font-size="61" x="-151.365" y="242">1</tspan><tspan font-size="92" x="-120.427" y="220">) = h(m</tspan><tspan font-size="61" x="147.698" y="242">2</tspan><tspan font-size="92" x="178.636" y="220">)</tspan><tspan font-weight="400" font-size="92" x="207.281" y="220">. It is easier to break collision resistance</tspan><tspan font-weight="400" font-size="92" x="-206.021" y="330">than the second pre</tspan><tspan font-weight="400" font-size="92" x="541.383" y="330">-</tspan><tspan font-weight="400" font-size="92" x="569.456" y="330">image resistance.</tspan></text></g></svg>