<svg width="3954" height="2249" xmlns="http://www.w3.org/2000/svg" xmlns:xlink="http://www.w3.org/1999/xlink" overflow="hidden"><defs><clipPath id="clip0"><rect x="214" y="132" width="3954" height="2249"/></clipPath></defs><g clip-path="url(#clip0)" transform="translate(-214 -132)"><text fill="#2E75B6" font-family="Calibri Light,Calibri Light_MSFontService,sans-serif" font-weight="700" font-size="202" transform="matrix(1 0 0 1 335.5 427)">3<tspan font-size="202" x="100.26" y="0">.</tspan>) Blockchains and Cryptocurrencies</text><path d="M335.5 453.064 1064.5 453.064 1793.5 453.064 2522.5 453.064 3251.5 453.064 3251.5 463.064 2522.5 463.064 1793.5 463.064 1064.5 463.064 335.5 463.064Z" fill="#2E75B6" fill-rule="evenodd"/><rect x="612.5" y="609.5" width="443" height="443" stroke="#7F7F7F" stroke-width="4.58333" stroke-miterlimit="8" fill="#FFF2CC"/><text fill="#7F7F7F" font-family="Calibri,Calibri_MSFontService,sans-serif" font-style="italic" font-weight="700" font-size="83" transform="matrix(1 0 0 1 691.377 809)">GENESIS<tspan font-size="83" x="31.4646" y="99">BLOCK</tspan></text><rect x="1366.5" y="609.5" width="443" height="443" stroke="#7F7F7F" stroke-width="4.58333" stroke-miterlimit="8" fill="#FFF2CC"/><text fill="#7F7F7F" font-family="Calibri,Calibri_MSFontService,sans-serif" font-style="italic" font-weight="700" font-size="83" transform="matrix(1 0 0 1 1425.49 858)">BLOCK #1</text><rect x="2120.5" y="609.5" width="443" height="443" stroke="#7F7F7F" stroke-width="4.58333" stroke-miterlimit="8" fill="#FFF2CC"/><text fill="#7F7F7F" font-family="Calibri,Calibri_MSFontService,sans-serif" font-style="italic" font-weight="700" font-size="83" transform="matrix(1 0 0 1 2179.14 858)">BLOCK #2</text><rect x="2873.5" y="609.5" width="443" height="443" stroke="#7F7F7F" stroke-width="4.58333" stroke-miterlimit="8" fill="#FFF2CC"/><text fill="#7F7F7F" font-family="Calibri,Calibri_MSFontService,sans-serif" font-style="italic" font-weight="700" font-size="83" transform="matrix(1 0 0 1 2932.79 858)">BLOCK #3</text><path d="M1834.78 825.844 2093.89 825.844 2093.89 836.156 1834.78 836.156ZM1839.94 846.469 1809 831 1839.94 815.531ZM2088.74 815.531 2119.68 831 2088.74 846.469Z" fill="#7F7F7F"/><path d="M2588.78 825.844 2847.89 825.844 2847.89 836.156 2588.78 836.156ZM2593.94 846.469 2563 831 2593.94 815.531ZM2842.74 815.531 2873.68 831 2842.74 846.469Z" fill="#7F7F7F"/><path d="M1080.78 825.844 1339.89 825.844 1339.89 836.156 1080.78 836.156ZM1085.94 846.469 1055 831 1085.94 815.531ZM1334.74 815.531 1365.68 831 1334.74 846.469Z" fill="#7F7F7F"/><path d="M3341.78 825.844 3600.89 825.844 3600.89 836.156 3341.78 836.156ZM3346.94 846.469 3316 831 3346.94 815.531ZM3595.74 815.531 3626.68 831 3595.74 846.469Z" fill="#7F7F7F"/><rect x="3640.5" y="746.5" width="132" height="134" stroke="#7F7F7F" stroke-width="3.4375" stroke-linejoin="round" stroke-miterlimit="10" fill="#FFF2CC"/><text fill="#7F7F7F" font-family="Calibri,Calibri_MSFontService,sans-serif" font-style="italic" font-weight="700" font-size="83" transform="matrix(1 0 0 1 3672.66 840)">...<tspan fill="#595959" font-style="normal" font-weight="400" font-size="92" x="-2982.42" y="339">Data: ...</tspan><tspan fill="#595959" font-style="normal" font-weight="400" font-size="92" x="-3147.53" y="449">Prev. Hash: </tspan><tspan fill="#595959" font-style="normal" font-size="92" x="-2715.58" y="449">0000</tspan><tspan fill="#595959" font-style="normal" font-weight="400" font-size="92" x="-3073.65" y="559">Hash: </tspan><tspan fill="#595959" font-style="normal" font-size="92" x="-2842.77" y="559">056FH</tspan><tspan fill="#595959" font-style="normal" font-weight="400" font-size="92" x="-2228.76" y="339">Data: ...</tspan><tspan fill="#595959" font-style="normal" font-weight="400" font-size="92" x="-2420.53" y="449">Prev. Hash: </tspan><tspan fill="#595959" font-style="normal" font-size="92" x="-1988.57" y="449">056FH</tspan><tspan fill="#595959" font-style="normal" font-weight="400" font-size="92" x="-2303.38" y="559">Hash: </tspan><tspan fill="#595959" font-style="normal" font-size="92" x="-2072.49" y="559">HJI66</tspan><tspan fill="#595959" font-style="normal" font-weight="400" font-size="92" x="-1475.13" y="339">Data: ...</tspan><tspan fill="#595959" font-style="normal" font-weight="400" font-size="92" x="-1650.26" y="449">Prev. Hash: </tspan><tspan fill="#595959" font-style="normal" font-size="92" x="-1218.31" y="449">HJI66</tspan><tspan fill="#595959" font-style="normal" font-weight="400" font-size="92" x="-1565.77" y="559">Hash: </tspan><tspan fill="#595959" font-style="normal" font-size="92" x="-1334.88" y="559">ZU77F</tspan><tspan fill="#595959" font-style="normal" font-weight="400" font-size="92" x="-721.462" y="339">Data: ...</tspan><tspan fill="#595959" font-style="normal" font-weight="400" font-size="92" x="-912.656" y="449">Prev. Hash: </tspan><tspan fill="#595959" font-style="normal" font-size="92" x="-480.699" y="449">ZU77F</tspan><tspan fill="#595959" font-style="normal" font-weight="400" font-size="92" x="-815.054" y="559">Hash: </tspan><tspan fill="#595959" font-style="normal" font-size="92" x="-584.168" y="559">789BV</tspan></text><path d="M1659 1259.5C1659 1226.64 1721.46 1200 1798.5 1200 1875.54 1200 1938 1226.64 1938 1259.5 1938 1292.36 1875.54 1319 1798.5 1319 1721.46 1319 1659 1292.36 1659 1259.5Z" stroke="#FFC000" stroke-width="10.3125" stroke-miterlimit="8" fill="none" fill-rule="evenodd"/><path d="M2436 1255C2436 1224.62 2489.95 1200 2556.5 1200 2623.05 1200 2677 1224.62 2677 1255 2677 1285.38 2623.05 1310 2556.5 1310 2489.95 1310 2436 1285.38 2436 1255Z" stroke="#FFC000" stroke-width="10.3125" stroke-miterlimit="8" fill="none" fill-rule="evenodd"/><path d="M3183 1255.5C3183 1222.64 3236.95 1196 3303.5 1196 3370.05 1196 3424 1222.64 3424 1255.5 3424 1288.36 3370.05 1315 3303.5 1315 3236.95 1315 3183 1288.36 3183 1255.5Z" stroke="#FFC000" stroke-width="10.3125" stroke-miterlimit="8" fill="none" fill-rule="evenodd"/><path d="M2335 1372C2335 1338.31 2388.95 1311 2455.5 1311 2522.05 1311 2576 1338.31 2576 1372 2576 1405.69 2522.05 1433 2455.5 1433 2388.95 1433 2335 1405.69 2335 1372Z" stroke="#FFC000" stroke-width="10.3125" stroke-miterlimit="8" fill="none" fill-rule="evenodd"/><path d="M1593 1365.5C1593 1332.64 1646.95 1306 1713.5 1306 1780.05 1306 1834 1332.64 1834 1365.5 1834 1398.36 1780.05 1425 1713.5 1425 1646.95 1425 1593 1398.36 1593 1365.5Z" stroke="#FFC000" stroke-width="10.3125" stroke-miterlimit="8" fill="none" fill-rule="evenodd"/><path d="M823 1367.5C823 1334.64 876.95 1308 943.5 1308 1010.05 1308 1064 1334.64 1064 1367.5 1064 1400.36 1010.05 1427 943.5 1427 876.95 1427 823 1400.36 823 1367.5Z" stroke="#FFC000" stroke-width="10.3125" stroke-miterlimit="8" fill="none" fill-rule="evenodd"/><path d="M1.00868-6.8006 557.885 75.7962 555.867 89.3974-1.00868 6.8006ZM553.101 61.1863 590.879 87.6402 547.049 101.99Z" fill="#FFC000" transform="matrix(-1 0 0 1 1658.88 1260)"/><path d="M1.07607-6.79027 568.237 83.0891 566.084 96.6696-1.07607 6.79027ZM563.598 68.4325 601.112 95.2597 557.142 109.174Z" fill="#FFC000" transform="matrix(-1 0 0 1 2423.11 1247)"/><path d="M1.12001-6.78316 570.066 87.1593 567.826 100.726-1.12001 6.78316ZM565.523 72.4729 602.862 99.5424 558.803 113.172Z" fill="#FFC000" transform="matrix(-1 0 0 1 3178.86 1272)"/><text fill="#595959" font-family="Wingdings,Wingdings_MSFontService,sans-serif" font-weight="400" font-size="110" transform="matrix(1 0 0 1 1045.32 1685)"><tspan font-family="Calibri,Calibri_MSFontService,sans-serif" font-size="110" x="132.344" y="0">so the blockchain itself is </tspan><tspan font-family="Calibri,Calibri_MSFontService,sans-serif" font-weight="700" font-size="110" x="1267.57" y="0">a linked list </tspan><tspan font-family="Calibri,Calibri_MSFontService,sans-serif" font-size="110" x="1808.17" y="0">with hash</tspan><tspan font-family="Calibri,Calibri_MSFontService,sans-serif" font-size="110" x="2242.44" y="0">-</tspan><tspan font-family="Calibri,Calibri_MSFontService,sans-serif" font-size="110" x="2276.24" y="0">pointers</tspan><tspan font-size="110" x="0" y="212"></tspan><tspan font-family="Calibri,Calibri_MSFontService,sans-serif" font-size="110" x="132.344" y="212">every node in the blockchain has </tspan><tspan font-family="Calibri,Calibri_MSFontService,sans-serif" font-weight="700" font-size="110" x="1616.54" y="212">2</tspan><tspan font-family="Calibri,Calibri_MSFontService,sans-serif" font-size="110" x="1696.75" y="212">hash values </tspan><tspan font-family="Calibri,Calibri_MSFontService,sans-serif" font-size="110" x="2239.42" y="212">–</tspan><tspan font-family="Calibri,Calibri_MSFontService,sans-serif" font-size="110" x="2343.69" y="212">own hash and </tspan><tspan font-family="Calibri,Calibri_MSFontService,sans-serif" font-size="110" x="238.906" y="344">the hash value of the previous block (</tspan><tspan font-family="Calibri,Calibri_MSFontService,sans-serif" font-weight="700" font-size="110" x="1905.96" y="344">SHA256</tspan><tspan font-family="Calibri,Calibri_MSFontService,sans-serif" font-size="110" x="2285.23" y="344">hashes)</tspan><tspan fill="#A9D18E" font-family="Calibri,Calibri_MSFontService,sans-serif" font-style="italic" font-weight="700" font-size="110" x="-752.518" y="600">BLOCKS FORM A LINKED LIST WHERE THE NODES ARE CRYPTOGRAPHICALLY LINKED</tspan></text></g></svg>