<svg width="2728" height="815" xmlns="http://www.w3.org/2000/svg" xmlns:xlink="http://www.w3.org/1999/xlink" overflow="hidden"><defs><clipPath id="clip0"><rect x="777" y="1451" width="2728" height="815"/></clipPath></defs><g clip-path="url(#clip0)" transform="translate(-777 -1451)"><text fill="#00B050" font-family="Calibri,Calibri_MSFontService,sans-serif" font-weight="700" font-size="83" transform="matrix(1 0 0 1 1271.95 2078)">LA CLÉ PRIVÉE N’A JAMAIS BESOIN D’ÊTRE ÉCHANGÉE !!!</text><rect x="779.5" y="1453.5" width="487" height="401" stroke="#000000" stroke-width="4.58333" stroke-miterlimit="8" fill="#FFFFFF"/><text font-family="Calibri,Calibri_MSFontService,sans-serif" font-weight="700" font-size="83" transform="matrix(1 0 0 1 857.956 1632)">MESSAGE <tspan font-size="83" x="66.7562" y="99">CLAIR</tspan></text><path d="M1266.5 1651.06 1874.41 1651.06 1874.41 1657.94 1266.5 1657.94ZM1869.82 1640.75 1897.32 1654.5 1869.82 1668.25Z"/><rect x="1897.5" y="1453.5" width="487" height="401" stroke="#000000" stroke-width="4.58333" stroke-miterlimit="8" fill="#00B0F0"/><text font-family="Calibri,Calibri_MSFontService,sans-serif" font-weight="700" font-size="83" transform="matrix(1 0 0 1 1975.79 1632)">MESSAGE <tspan font-size="83" x="25.2313" y="99">CHIFFR</tspan>É</text><path d="M2384.5 1651.06 2992.41 1651.06 2992.41 1657.94 2384.5 1657.94ZM2987.82 1640.75 3015.32 1654.5 2987.82 1668.25Z"/><rect x="3015.5" y="1453.5" width="487" height="401" stroke="#000000" stroke-width="4.58333" stroke-miterlimit="8" fill="#FFFFFF"/><text font-family="Calibri,Calibri_MSFontService,sans-serif" font-weight="700" font-size="83" transform="matrix(1 0 0 1 3093.63 1632)">MESSAGE <tspan font-size="83" x="66.7561" y="99">CLAIR</tspan></text><path d="M3.4375-1.19223e-05 3.43778 81.1376-3.43722 81.1376-3.4375 1.19223e-05ZM13.7503 76.5543 0.000360892 104.054-13.7497 76.5543Z" transform="matrix(1 0 0 -1 1582.5 1755.55)"/><text font-family="Calibri,Calibri_MSFontService,sans-serif" font-weight="700" font-size="83" transform="matrix(1 0 0 1 1337.26 1836)">CLÉ<tspan font-size="83" x="137.5" y="0">PUBLIQUE</tspan></text><path d="M3.4375-1.19223e-05 3.43778 81.1376-3.43722 81.1376-3.4375 1.19223e-05ZM13.7503 76.5543 0.000360892 104.054-13.7497 76.5543Z" transform="matrix(1 0 0 -1 2700.5 1755.55)"/><text font-family="Calibri,Calibri_MSFontService,sans-serif" font-weight="700" font-size="83" transform="matrix(1 0 0 1 2540.77 1828)">CLÉ<tspan font-size="83" x="137.5" y="0">PRIV</tspan><tspan font-size="83" x="298.49" y="0">É</tspan><tspan font-size="83" x="338.594" y="0">E</tspan><tspan font-weight="400" font-size="83" x="-1241.29" y="366">Par</tspan><tspan font-weight="400" font-size="83" x="-1113.57" y="366">exemple</tspan><tspan font-weight="400" font-size="83" x="-829.381" y="366">: </tspan>RSA <tspan font-weight="400" font-size="83" x="-635.827" y="366">ou </tspan><tspan font-size="83" x="-529.838" y="366">Cryptographie à Courbe Elliptique</tspan></text></g></svg>