<svg width="3372" height="1500" xmlns="http://www.w3.org/2000/svg" xmlns:xlink="http://www.w3.org/1999/xlink" overflow="hidden"><defs><clipPath id="clip0"><rect x="461" y="696" width="3372" height="1500"/></clipPath></defs><g clip-path="url(#clip0)" transform="translate(-461 -696)"><path d="M0 0 1027.52 949.591" stroke="#A9D18E" stroke-width="20.625" stroke-miterlimit="8" fill="none" fill-rule="evenodd" transform="matrix(1 0 0 -1 622.5 1956.09)"/><text fill="#7F7F7F" font-family="Calibri,Calibri_MSFontService,sans-serif" font-style="italic" font-weight="700" font-size="83" transform="matrix(1 0 0 1 511.465 1679)">P(x<tspan font-size="55" x="107.708" y="20">1</tspan><tspan font-size="83" x="135.781" y="0">,y</tspan><tspan font-size="55" x="195.938" y="20">1</tspan><tspan font-size="83" x="224.01" y="0">)</tspan><tspan font-size="83" x="612.006" y="-593">R(x</tspan><tspan font-size="55" x="722.006" y="-573">2</tspan><tspan font-size="83" x="750.079" y="-593">,y</tspan><tspan font-size="55" x="810.236" y="-573">2</tspan><tspan font-size="83" x="838.308" y="-593">)</tspan></text><path d="M2297.5 1891.83C2297.5 1858.51 2324.51 1831.5 2357.83 1831.5L3620.17 1831.5C3653.49 1831.5 3680.5 1858.51 3680.5 1891.83L3680.5 2133.17C3680.5 2166.49 3653.49 2193.5 3620.17 2193.5L2357.83 2193.5C2324.51 2193.5 2297.5 2166.49 2297.5 2133.17Z" stroke="#7F7F7F" stroke-width="4.58333" stroke-miterlimit="8" fill="#FFF2CC" fill-rule="evenodd"/><text fill="#7F7F7F" font-family="Calibri,Calibri_MSFontService,sans-serif" font-weight="700" font-size="110" transform="matrix(1 0 0 1 2493.05 2043)">m = (y<tspan font-size="73" x="280.156" y="27">2</tspan><tspan font-size="110" x="342.031" y="0">–</tspan><tspan font-size="110" x="421.667" y="0">y</tspan><tspan font-size="73" x="473.802" y="27">1</tspan><tspan font-size="110" x="511.042" y="0">) / (x</tspan><tspan font-size="73" x="727.031" y="27">2</tspan><tspan font-size="110" x="788.906" y="0">–</tspan><tspan font-size="110" x="868.542" y="0">x</tspan><tspan font-size="73" x="918.958" y="27">1</tspan><tspan font-size="110" x="956.198" y="0">)</tspan></text><path d="M0 0 0.000360892 576.193" stroke="#7F7F7F" stroke-width="2.29167" stroke-miterlimit="8" stroke-dasharray="9.16667 6.875" fill="none" fill-rule="evenodd" transform="matrix(1 0 0 -1 1412 1802.19)"/><path d="M1411.32 1804.11 797 1803" stroke="#7F7F7F" stroke-width="2.29167" stroke-miterlimit="8" stroke-dasharray="9.16667 6.875" fill="none" fill-rule="evenodd"/><path d="M723.5 1804C723.5 1771.69 749.691 1745.5 782 1745.5 814.309 1745.5 840.5 1771.69 840.5 1804 840.5 1836.31 814.309 1862.5 782 1862.5 749.691 1862.5 723.5 1836.31 723.5 1804Z" stroke="#7F7F7F" stroke-width="4.58333" stroke-miterlimit="8" fill="#9DC3E6" fill-rule="evenodd"/><path d="M1353.5 1221.5C1353.5 1189.47 1379.69 1163.5 1412 1163.5 1444.31 1163.5 1470.5 1189.47 1470.5 1221.5 1470.5 1253.53 1444.31 1279.5 1412 1279.5 1379.69 1279.5 1353.5 1253.53 1353.5 1221.5Z" stroke="#7F7F7F" stroke-width="4.58333" stroke-miterlimit="8" fill="#9DC3E6" fill-rule="evenodd"/><text fill="#595959" font-family="Calibri,Calibri_MSFontService,sans-serif" font-style="italic" font-weight="700" font-size="83" transform="matrix(1 0 0 1 1456.24 1541)">y<tspan font-size="55" x="38.9584" y="20">2</tspan><tspan font-size="83" x="67.0313" y="0">-</tspan><tspan font-size="83" x="92.2396" y="0">y</tspan><tspan font-size="55" x="131.198" y="20">1</tspan><tspan font-size="83" x="-411.231" y="384">x</tspan><tspan font-size="55" x="-373.419" y="404">2</tspan><tspan font-size="83" x="-345.346" y="384">-</tspan><tspan font-size="83" x="-320.137" y="384">x</tspan><tspan font-size="55" x="-282.325" y="404">1</tspan><tspan font-style="normal" font-weight="400" font-size="110" x="-498.727" y="210">α</tspan><tspan fill="#8FAADC" font-style="normal" font-size="110" x="1095.22" y="-709">TROUVER m PENTE</tspan></text><path d="M2551.6 844.159 2842.93 844.159 3134.26 844.159 3425.6 844.159 3425.6 851.159 3134.26 851.159 2842.93 851.159 2551.6 851.159Z" fill="#8FAADC" fill-rule="evenodd"/><text fill="#595959" font-family="Calibri,Calibri_MSFontService,sans-serif" font-style="italic" font-weight="400" font-size="110" transform="matrix(1 0 0 1 2267.2 1069)">Si nous voulons calculer la <tspan font-weight="700" font-size="110" x="1182.48" y="0">pente</tspan><tspan font-weight="700" font-size="110" x="-56.9248" y="119">d'une ligne donnée, </tspan>nous pouvons <tspan font-size="110" x="123.406" y="238">U</tspan><tspan font-size="110" x="193.875" y="238">tiliser la formule suivante</tspan><tspan font-size="110" x="3.323" y="476">(on suppose ici que </tspan><tspan font-weight="700" font-size="110" x="876.448" y="476">P </tspan><tspan font-size="110" x="959.521" y="476">n'est pas </tspan><tspan font-weight="700" font-size="110" x="1377.09" y="476">R</tspan><tspan font-size="110" x="-37.6521" y="594">ce sont donc deux points distincts)</tspan></text></g></svg>