<svg width="4030" height="1927" xmlns="http://www.w3.org/2000/svg" xmlns:xlink="http://www.w3.org/1999/xlink" overflow="hidden"><defs><clipPath id="clip0"><rect x="335" y="485" width="4030" height="1927"/></clipPath></defs><g clip-path="url(#clip0)" transform="translate(-335 -485)"><text fill="#595959" font-family="Calibri,Calibri_MSFontService,sans-serif" font-style="italic" font-weight="400" font-size="110" transform="matrix(1 0 0 1 1395.45 1132)">Par exemple on veut calculer <tspan font-weight="700" font-size="110" x="1296.79" y="0">26P</tspan><tspan font-weight="700" font-size="110" x="426.388" y="237">26</tspan><tspan font-weight="700" font-size="73" x="537.533" y="264">10  </tspan><tspan font-weight="700" font-size="110" x="645.242" y="237">= 11010</tspan><tspan font-weight="700" font-size="73" x="1002.74" y="264">2</tspan><tspan fill="#FFC000" font-style="normal" font-weight="700" font-size="110" x="-993.557" y="-510">ALGORITHME DOUBLE ET ADD</tspan><tspan font-style="normal" font-size="92" x="-993.557" y="-339">Nous pouvons faire mieux que l'approche naïve </tspan><tspan font-style="normal" font-size="92" x="790.597" y="-339">-</tspan><tspan font-style="normal" font-size="92" x="839.295" y="-339">nous devons transformer </tspan><tspan font-style="normal" font-weight="700" font-size="92" x="1794.12" y="-339">n </tspan><tspan font-style="normal" font-size="92" x="1864.01" y="-339">en binaire et nous avons</tspan><tspan font-style="normal" font-size="92" x="-993.557" y="-229">considérer tous les bits un par un (sauf le premier bit)</tspan></text><path d="M368.898 1577.68 1346.68 1577.68 1346.68 1711.51 368.898 1711.51Z" fill="#5B9BD5" fill-rule="evenodd"/><path d="M1346.68 1577.68 2324.45 1577.68 2324.45 1711.51 1346.68 1711.51Z" fill="#5B9BD5" fill-rule="evenodd"/><path d="M2324.45 1577.68 3302.23 1577.68 3302.23 1711.51 2324.45 1711.51Z" fill="#5B9BD5" fill-rule="evenodd"/><path d="M368.898 1711.51 1346.68 1711.51 1346.68 1845.35 368.898 1845.35Z" fill="#D2DEEF" fill-rule="evenodd"/><path d="M1346.68 1711.51 2324.45 1711.51 2324.45 1845.35 1346.68 1845.35Z" fill="#D2DEEF" fill-rule="evenodd"/><path d="M2324.45 1711.51 3302.23 1711.51 3302.23 1845.35 2324.45 1845.35Z" fill="#D2DEEF" fill-rule="evenodd"/><path d="M368.898 1845.35 1346.68 1845.35 1346.68 1979.18 368.898 1979.18Z" fill="#EAEFF7" fill-rule="evenodd"/><path d="M1346.68 1845.35 2324.45 1845.35 2324.45 1979.18 1346.68 1979.18Z" fill="#EAEFF7" fill-rule="evenodd"/><path d="M2324.45 1845.35 3302.23 1845.35 3302.23 1979.18 2324.45 1979.18Z" fill="#EAEFF7" fill-rule="evenodd"/><path d="M368.898 1979.18 1346.68 1979.18 1346.68 2113.01 368.898 2113.01Z" fill="#D2DEEF" fill-rule="evenodd"/><path d="M1346.68 1979.18 2324.45 1979.18 2324.45 2113.01 1346.68 2113.01Z" fill="#D2DEEF" fill-rule="evenodd"/><path d="M2324.45 1979.18 3302.23 1979.18 3302.23 2113.01 2324.45 2113.01Z" fill="#D2DEEF" fill-rule="evenodd"/><path d="M368.898 2113.01 1346.68 2113.01 1346.68 2246.85 368.898 2246.85Z" fill="#EAEFF7" fill-rule="evenodd"/><path d="M1346.68 2113.01 2324.45 2113.01 2324.45 2246.85 1346.68 2246.85Z" fill="#EAEFF7" fill-rule="evenodd"/><path d="M2324.45 2113.01 3302.23 2113.01 3302.23 2246.85 2324.45 2246.85Z" fill="#EAEFF7" fill-rule="evenodd"/><path d="M368.898 2246.85 1346.68 2246.85 1346.68 2380.68 368.898 2380.68Z" fill="#D2DEEF" fill-rule="evenodd"/><path d="M1346.68 2246.85 2324.45 2246.85 2324.45 2380.68 1346.68 2380.68Z" fill="#D2DEEF" fill-rule="evenodd"/><path d="M2324.45 2246.85 3302.23 2246.85 3302.23 2380.68 2324.45 2380.68Z" fill="#D2DEEF" fill-rule="evenodd"/><path d="M1346.68 1575.39 1346.68 2382.97" stroke="#FFFFFF" stroke-width="4.58333" stroke-linejoin="round" stroke-miterlimit="10" fill="none" fill-rule="evenodd"/><path d="M2324.45 1575.39 2324.45 2382.97" stroke="#FFFFFF" stroke-width="4.58333" stroke-linejoin="round" stroke-miterlimit="10" fill="none" fill-rule="evenodd"/><path d="M366.606 1711.51 3304.52 1711.51" stroke="#FFFFFF" stroke-width="13.75" stroke-linejoin="round" stroke-miterlimit="10" fill="none" fill-rule="evenodd"/><path d="M366.606 1845.35 3304.52 1845.35" stroke="#FFFFFF" stroke-width="4.58333" stroke-linejoin="round" stroke-miterlimit="10" fill="none" fill-rule="evenodd"/><path d="M366.606 1979.18 3304.52 1979.18" stroke="#FFFFFF" stroke-width="4.58333" stroke-linejoin="round" stroke-miterlimit="10" fill="none" fill-rule="evenodd"/><path d="M366.606 2113.01 3304.52 2113.01" stroke="#FFFFFF" stroke-width="4.58333" stroke-linejoin="round" stroke-miterlimit="10" fill="none" fill-rule="evenodd"/><path d="M366.606 2246.85 3304.52 2246.85" stroke="#FFFFFF" stroke-width="4.58333" stroke-linejoin="round" stroke-miterlimit="10" fill="none" fill-rule="evenodd"/><path d="M368.898 1575.39 368.898 2382.97" stroke="#FFFFFF" stroke-width="4.58333" stroke-linejoin="round" stroke-miterlimit="10" fill="none" fill-rule="evenodd"/><path d="M3302.23 1575.39 3302.23 2382.97" stroke="#FFFFFF" stroke-width="4.58333" stroke-linejoin="round" stroke-miterlimit="10" fill="none" fill-rule="evenodd"/><path d="M366.606 1577.68 3304.52 1577.68" stroke="#FFFFFF" stroke-width="4.58333" stroke-linejoin="round" stroke-miterlimit="10" fill="none" fill-rule="evenodd"/><path d="M366.606 2380.68 3304.52 2380.68" stroke="#FFFFFF" stroke-width="4.58333" stroke-linejoin="round" stroke-miterlimit="10" fill="none" fill-rule="evenodd"/><text fill="#FFFFFF" font-family="Calibri,Calibri_MSFontService,sans-serif" font-weight="700" font-size="83" transform="matrix(1 0 0 1 803.359 1671)">BIT<tspan font-size="83" x="785.919" y="0">OPÉRATION(S)</tspan><tspan font-size="83" x="1847.14" y="0">RÉSULTAT</tspan><tspan fill="#7F7F7F" font-size="83" x="33.5155" y="134">1</tspan><tspan fill="#7F7F7F" font-size="83" x="898.497" y="134">SAUTER</tspan><tspan fill="#7F7F7F" font-size="83" x="1987.93" y="134">P</tspan><tspan fill="#7F7F7F" font-size="83" x="33.5155" y="268">1</tspan><tspan fill="#7F7F7F" font-size="83" x="795.304" y="268">double </tspan><tspan fill="#7F7F7F" font-size="83" x="1051.97" y="268">et</tspan><tspan fill="#7F7F7F" font-size="83" x="1140.2" y="268">add</tspan><tspan fill="#7F7F7F" font-size="83" x="1860.74" y="268">2P+P=3P</tspan><tspan fill="#7F7F7F" font-size="83" x="33.5155" y="402">0</tspan><tspan fill="#7F7F7F" font-size="83" x="913.325" y="402">double</tspan><tspan fill="#7F7F7F" font-size="83" x="1967.01" y="402">6P</tspan><tspan fill="#7F7F7F" font-size="83" x="33.5155" y="536">1</tspan><tspan fill="#7F7F7F" font-size="83" x="795.304" y="536">double </tspan><tspan fill="#7F7F7F" font-size="83" x="1051.97" y="536">et</tspan><tspan fill="#7F7F7F" font-size="83" x="1140.2" y="536">add</tspan><tspan fill="#7F7F7F" font-size="83" x="1818.91" y="536">12P+P=13P</tspan><tspan fill="#7F7F7F" font-size="83" x="33.5155" y="669">0</tspan><tspan fill="#7F7F7F" font-size="83" x="913.325" y="669">double</tspan><tspan fill="#7F7F7F" font-size="83" x="1946.1" y="669">26P</tspan><tspan fill="#595959" font-style="italic" font-size="92" x="2502.94" y="-653">O(m) </tspan><tspan fill="#595959" font-style="italic" font-weight="400" font-size="92" x="2716.07" y="-653">où </tspan><tspan fill="#595959" font-style="italic" font-size="92" x="2830.65" y="-653">m = log </tspan><tspan fill="#595959" font-style="italic" font-size="61" x="3130.86" y="-631">2 </tspan><tspan fill="#595959" font-style="italic" font-size="92" x="3175.55" y="-653">n</tspan><tspan fill="#A9D18E" font-style="italic" font-size="92" x="2477.96" y="-433">CET ALGORITHME A </tspan><tspan fill="#A9D18E" font-style="italic" font-size="92" x="2315.19" y="-323">UNE COMPLEXITE DE TEMPS </tspan><tspan fill="#A9D18E" font-style="italic" font-size="92" x="2368.21" y="-213">D'EXECUTION LINEAIRE !!!</tspan></text><path d="M2982 1234C2982 1028.55 3288.46 862 3666.5 862 4044.54 862 4351 1028.55 4351 1234 4351 1439.45 4044.54 1606 3666.5 1606 3288.46 1606 2982 1439.45 2982 1234Z" stroke="#FFC000" stroke-width="27.5" stroke-miterlimit="8" fill="none" fill-rule="evenodd"/></g></svg>