<svg width="2692" height="1294" xmlns="http://www.w3.org/2000/svg" xmlns:xlink="http://www.w3.org/1999/xlink" overflow="hidden"><defs><clipPath id="clip0"><rect x="1157" y="1064" width="2692" height="1294"/></clipPath></defs><g clip-path="url(#clip0)" transform="translate(-1157 -1064)"><text font-family="Calibri,Calibri_MSFontService,sans-serif" font-weight="400" font-size="83" transform="matrix(1 0 0 1 1207.32 1167)">Par<tspan font-size="83" x="127.715" y="0">ex</tspan><tspan font-size="83" x="201.071" y="0">e</tspan>mple<tspan font-size="83" x="411.904" y="0">: </tspan><tspan font-weight="700" font-size="83" x="453.154" y="0">n=11</tspan><tspan font-size="83" x="641.071" y="0">et</tspan><tspan font-weight="700" font-size="83" x="728.292" y="0">g=8</tspan></text><path d="M1207.32 1175.74 1413.32 1175.74 1619.32 1175.74 1619.32 1180.74 1413.32 1180.74 1207.32 1180.74Z" fill-rule="evenodd"/><text font-family="Calibri,Calibri_MSFontService,sans-serif" font-weight="700" font-size="83" transform="matrix(1 0 0 1 1403.54 1314)">8  mod 11 = 8<tspan font-size="50" x="47.5678" y="-49">1</tspan><tspan font-size="83" x="0" y="114">8  mod 11 = 9</tspan><tspan font-size="50" x="47.5678" y="66">2</tspan><tspan font-size="83" x="0" y="210">8  mod 11 = 6</tspan><tspan font-size="83" x="0" y="325">8  mod 11 = 4</tspan><tspan font-size="50" x="47.5678" y="276">4</tspan><tspan font-size="83" x="0" y="438">8  mod 11 = 10</tspan><tspan font-size="50" x="47.5678" y="389">5</tspan><tspan font-size="83" x="0" y="552">8  mod 11 = 3</tspan><tspan font-size="50" x="47.5678" y="503">6</tspan><tspan font-size="83" x="0" y="648">8  mod 11 = 2</tspan><tspan font-size="83" x="0" y="762">8  mod 11 = 5</tspan><tspan font-size="50" x="47.5678" y="713">8</tspan><tspan font-size="50" x="47.5678" y="170">3</tspan><tspan font-size="50" x="47.5678" y="611">7</tspan><tspan font-size="83" x="0" y="858">8  mod 11 = 7</tspan><tspan font-size="83" x="0" y="972">8  mod 11 = 1</tspan><tspan font-size="50" x="41.6217" y="923">10</tspan><tspan font-size="50" x="47.5678" y="821">9</tspan><tspan font-weight="400" font-size="83" x="925.404" y="302">Nous </tspan><tspan font-weight="400" font-size="83" x="1116.76" y="302">pouvons arriver à la conclusion que </tspan><tspan font-size="83" x="2321.65" y="302">8</tspan><tspan font-weight="400" font-size="83" x="924.075" y="401">est une </tspan><tspan font-weight="400" font-size="83" x="1190.14" y="401">racine primitive de </tspan><tspan font-size="83" x="1836.75" y="401">11</tspan><tspan font-weight="400" font-size="83" x="1939.31" y="401">donc ce sont </tspan><tspan font-weight="400" font-size="83" x="1041.75" y="500">de bonnes </tspan><tspan font-weight="400" font-size="83" x="1411.86" y="500">valeurs pour </tspan><tspan font-weight="400" font-size="83" x="1847.5" y="500">l’algorithme </tspan><tspan font-size="83" x="1089.03" y="599">d’échange de clés </tspan><tspan font-size="83" x="1703.13" y="599">Diffie</tspan><tspan font-size="83" x="1889.33" y="599">-</tspan><tspan font-size="83" x="1914.53" y="599">Hellman</tspan></text><path d="M2.15836e-05-10.3125 120.87-10.3122 120.87 10.3128-2.15836e-05 10.3125ZM110.557-30.9373 172.432 0.000360892 110.557 30.9377Z" fill="#5B9BD5" transform="matrix(-1 0 0 1 2247.93 1754.5)"/></g></svg>