<svg width="3723" height="462" xmlns="http://www.w3.org/2000/svg" xmlns:xlink="http://www.w3.org/1999/xlink" overflow="hidden"><defs><clipPath id="clip0"><rect x="239" y="1041" width="3723" height="462"/></clipPath></defs><g clip-path="url(#clip0)" transform="translate(-239 -1041)"><rect x="241.5" y="1043.5" width="487" height="401" stroke="#000000" stroke-width="4.58333" stroke-miterlimit="8" fill="#FFFFFF"/><text font-family="Calibri,Calibri_MSFontService,sans-serif" font-weight="700" font-size="83" transform="matrix(1 0 0 1 381.459 1222)">TEXTE <tspan font-size="83" x="5.15625" y="99">CLAIR</tspan></text><path d="M728.5 1241.06 1336.41 1241.06 1336.41 1247.94 728.5 1247.94ZM1331.82 1230.75 1359.32 1244.5 1331.82 1258.25Z"/><path d="M3.4375-1.19223e-05 3.43778 81.1376-3.43722 81.1376-3.4375 1.19223e-05ZM13.7503 76.5543 0.000360892 104.054-13.7497 76.5543Z" transform="matrix(1 0 0 -1 1044.5 1351.55)"/><text font-family="Calibri,Calibri_MSFontService,sans-serif" font-weight="700" font-size="83" transform="matrix(1 0 0 1 978.674 1431)">CLÉ</text><rect x="1359.5" y="1043.5" width="487" height="401" stroke="#000000" stroke-width="4.58333" stroke-miterlimit="8" fill="#00B0F0"/><text font-family="Calibri,Calibri_MSFontService,sans-serif" font-weight="700" font-size="83" transform="matrix(1 0 0 1 1499.29 1222)">TEXTE <tspan font-size="83" x="-36.3688" y="99">CHIFFR</tspan>É</text><rect x="2354.5" y="1043.5" width="487" height="401" stroke="#000000" stroke-width="4.58333" stroke-miterlimit="8" fill="#FFFFFF"/><text font-family="Calibri,Calibri_MSFontService,sans-serif" font-weight="700" font-size="83" transform="matrix(1 0 0 1 2493.74 1222)">TEXTE <tspan font-size="83" x="-36.3687" y="99">CHIFFR</tspan><tspan font-size="83" x="203.11" y="99">É</tspan></text><path d="M2841.5 1241.06 3449.41 1241.06 3449.41 1247.94 2841.5 1247.94ZM3444.82 1230.75 3472.32 1244.5 3444.82 1258.25Z"/><path d="M3.4375-1.19223e-05 3.43778 81.1376-3.43722 81.1376-3.4375 1.19223e-05ZM13.7503 76.5543 0.000360892 104.054-13.7497 76.5543Z" transform="matrix(1 0 0 -1 3156.5 1351.55)"/><text font-family="Calibri,Calibri_MSFontService,sans-serif" font-weight="700" font-size="83" transform="matrix(1 0 0 1 3090.97 1431)">CLÉ</text><rect x="3471.5" y="1043.5" width="488" height="401" stroke="#000000" stroke-width="4.58333" stroke-miterlimit="8" fill="#00B0F0"/><text font-family="Calibri,Calibri_MSFontService,sans-serif" font-weight="700" font-size="83" transform="matrix(1 0 0 1 3611.59 1222)">TEXTE <tspan font-size="83" x="5.15625" y="99">CLAIR</tspan></text></g></svg>