<svg width="2675" height="1563" xmlns="http://www.w3.org/2000/svg" xmlns:xlink="http://www.w3.org/1999/xlink" overflow="hidden"><defs><clipPath id="clip0"><rect x="673" y="485" width="2675" height="1563"/></clipPath></defs><g clip-path="url(#clip0)" transform="translate(-673 -485)"><text fill="#00B0F0" font-family="Calibri,Calibri_MSFontService,sans-serif" font-weight="700" font-size="110" transform="matrix(1 0 0 1 1007.13 1454)">H E L O = <tspan font-size="110" x="422.24" y="0">01001000 01000101 01001100 01001111</tspan><tspan font-size="83" x="-162.504" y="-867">EXEMPLE</tspan><tspan fill="#000000" font-weight="400" font-size="83" x="164.523" y="-650">Texte en clair</tspan><tspan fill="#000000" font-weight="400" font-size="83" x="623.383" y="-650">: </tspan><tspan font-size="92" x="664.633" y="-650">HELO</tspan></text><path d="M1171.65 813.122 1391.65 813.122 1611.65 813.122 1611.65 818.122 1391.65 818.122 1171.65 818.122Z" fill-rule="evenodd"/><text font-family="Calibri,Calibri_MSFontService,sans-serif" font-weight="400" font-size="83" transform="matrix(1 0 0 1 1171.65 1005)">Clé <tspan font-size="83" x="123.177" y="0">: </tspan><tspan font-family="Arial,Arial_MSFontService,sans-serif" font-weight="700" font-size="83" x="164.427" y="0">11001000 00101110 11110110 11000000</tspan></text><path d="M1171.65 1014.12 1294.65 1014.12 1294.65 1019.12 1171.65 1019.12Z" fill-rule="evenodd"/><text font-family="Calibri,Calibri_MSFontService,sans-serif" font-weight="700" font-size="83" transform="matrix(1 0 0 1 886.243 1217)">1.) <tspan font-weight="400" font-size="83" x="108.281" y="0">Convertissons </tspan><tspan font-weight="400" font-size="83" x="593.083" y="0">les valeurs </tspan><tspan font-size="83" x="961.698" y="0">ASCII des lettres en binaire</tspan><tspan font-size="64" x="120.883" y="143">72</tspan><tspan font-size="64" x="208.275" y="139">69</tspan><tspan font-size="64" x="286.424" y="139">76</tspan><tspan font-size="64" x="373.817" y="139">79</tspan><tspan font-size="83" x="-163.514" y="378">72 = 01001000</tspan><tspan font-size="83" x="-163.514" y="511">69 = 01000101</tspan><tspan font-size="83" x="-163.514" y="638">76 = 01001100</tspan><tspan font-size="83" x="-163.514" y="759">79 = 01001111</tspan></text></g></svg>