<svg width="2502" height="1612" xmlns="http://www.w3.org/2000/svg" xmlns:xlink="http://www.w3.org/1999/xlink" overflow="hidden"><defs><clipPath id="clip0"><rect x="795" y="485" width="2502" height="1612"/></clipPath></defs><g clip-path="url(#clip0)" transform="translate(-795 -485)"><text font-family="Calibri,Calibri_MSFontService,sans-serif" font-weight="700" font-size="110" transform="matrix(1 0 0 1 1377.78 1598)">11001000 00101110 11110110 11000000<tspan fill="#00B0F0" font-size="83" x="-533.156" y="-1011">EXEMPLE</tspan><tspan font-weight="400" font-size="83" x="-206.129" y="-794">Texte en clair</tspan><tspan font-weight="400" font-size="83" x="252.732" y="-794">: </tspan><tspan fill="#00B0F0" font-size="92" x="293.982" y="-794">HELO</tspan></text><path d="M1171.65 813.122 1391.65 813.122 1611.65 813.122 1611.65 818.122 1391.65 818.122 1171.65 818.122Z" fill-rule="evenodd"/><text font-family="Calibri,Calibri_MSFontService,sans-serif" font-weight="400" font-size="83" transform="matrix(1 0 0 1 1171.65 1005)">Clé <tspan font-size="83" x="123.177" y="0">: </tspan><tspan font-family="Arial,Arial_MSFontService,sans-serif" font-weight="700" font-size="83" x="164.427" y="0">11001000 00101110 11110110 11000000</tspan></text><path d="M1171.65 1014.12 1294.65 1014.12 1294.65 1019.12 1171.65 1019.12Z" fill-rule="evenodd"/><text font-family="Calibri,Calibri_MSFontService,sans-serif" font-weight="700" font-size="83" transform="matrix(1 0 0 1 886.243 1217)">2.) <tspan font-weight="400" font-size="83" x="108.281" y="0">Faisons l'opération </tspan><tspan font-size="83" x="756.158" y="0">XOR</tspan><tspan fill="#00B0F0" font-size="110" x="491.535" y="253">01001000 01000101 01001100 01001111</tspan></text><path d="M0 0 2111.97 1.85102" stroke="#000000" stroke-width="2.29167" stroke-miterlimit="8" fill="none" fill-rule="evenodd" transform="matrix(1 0 0 -1 1118 1644.85)"/><text font-family="Calibri,Calibri_MSFontService,sans-serif" font-weight="700" font-size="64" transform="matrix(1 0 0 1 1150.84 1609)">XOR<tspan fill="#00B050" font-size="110" x="226.94" y="166">10000000 01101011 10111010 10001111</tspan><tspan font-weight="400" font-size="83" x="416.216" y="317">C'est le résultat de l' opération </tspan><tspan font-size="83" x="1457.87" y="317">XOR </tspan><tspan font-weight="400" font-size="83" x="1621.2" y="317">qui signifie</tspan><tspan font-weight="400" font-size="83" x="746.216" y="416">c'est </tspan><tspan font-weight="400" font-size="83" x="918.321" y="416">le </tspan><tspan font-size="83" x="997.383" y="416">texte chiffré </tspan><tspan font-weight="400" font-size="83" x="1430.3" y="416">!!!</tspan></text></g></svg>