<svg width="3409" height="1612" xmlns="http://www.w3.org/2000/svg" xmlns:xlink="http://www.w3.org/1999/xlink" overflow="hidden"><defs><clipPath id="clip0"><rect x="795" y="485" width="3409" height="1612"/></clipPath></defs><g clip-path="url(#clip0)" transform="translate(-795 -485)"><text fill="#00B0F0" font-family="Calibri,Calibri_MSFontService,sans-serif" font-weight="700" font-size="83" transform="matrix(1 0 0 1 844.622 587)">EXEMPLE<tspan fill="#000000" font-weight="400" font-size="83" x="327.027" y="217">Texte en clair</tspan><tspan fill="#000000" font-weight="400" font-size="83" x="785.888" y="217">: </tspan><tspan font-size="92" x="827.138" y="217">HELO</tspan></text><path d="M1171.65 813.122 1391.65 813.122 1611.65 813.122 1611.65 818.122 1391.65 818.122 1171.65 818.122Z" fill-rule="evenodd"/><text font-family="Calibri,Calibri_MSFontService,sans-serif" font-weight="400" font-size="83" transform="matrix(1 0 0 1 1171.65 1005)">Clé <tspan font-size="83" x="123.177" y="0">: </tspan><tspan font-family="Arial,Arial_MSFontService,sans-serif" font-weight="700" font-size="83" x="164.427" y="0">11001000 00101110 11110110 11000000</tspan></text><path d="M1171.65 1014.12 1294.65 1014.12 1294.65 1019.12 1171.65 1019.12Z" fill-rule="evenodd"/><text font-family="Calibri,Calibri_MSFontService,sans-serif" font-weight="700" font-size="83" transform="matrix(1 0 0 1 886.243 1217)">3.) <tspan font-weight="400" font-size="83" x="108.281" y="0">Parce </tspan><tspan font-weight="400" font-size="83" x="310.979" y="0">que l'inverse de l'opération XOR est l' </tspan><tspan font-size="83" x="1574.74" y="0">opération XOR </tspan><tspan font-weight="400" font-size="83" x="2090.71" y="0">elle</tspan><tspan font-weight="400" font-size="83" x="2211.02" y="0">-</tspan><tspan font-weight="400" font-size="83" x="2236.23" y="0">même, nous devons </tspan><tspan font-weight="400" font-size="83" x="2930.58" y="0">appliquer</tspan><tspan font-weight="400" font-size="83" x="660" y="99">la même chose transformation </tspan><tspan font-weight="400" font-size="83" x="1706.35" y="99">pour obtenir à nouveau le texte en clair</tspan><tspan fill="#00B050" font-size="110" x="491.535" y="253">10000000 01101011 10111010 10001111</tspan><tspan font-size="110" x="491.534" y="381">11001000 00101110 11110110 11000000</tspan></text><path d="M0 0 2123.17 1.85102" stroke="#000000" stroke-width="2.29167" stroke-miterlimit="8" fill="none" fill-rule="evenodd" transform="matrix(1 0 0 -1 1118 1644.85)"/><text font-family="Calibri,Calibri_MSFontService,sans-serif" font-weight="700" font-size="64" transform="matrix(1 0 0 1 1150.84 1609)">XOR<tspan fill="#00B0F0" font-size="110" x="226.94" y="166">01001000 01000101 01001100 01001111</tspan><tspan font-weight="400" font-size="83" x="87.9347" y="317">Voici comment nous obtenons le </tspan><tspan font-weight="400" font-size="83" x="1203.54" y="317">texte clair </tspan><tspan font-weight="400" font-size="83" x="1552.54" y="317">à partir du texte </tspan><tspan font-weight="400" font-size="83" x="417.935" y="416">c</tspan><tspan font-weight="400" font-size="83" x="452.883" y="416">hiffré avec </tspan><tspan font-weight="400" font-size="83" x="822.368" y="416">la même opération </tspan><tspan font-size="83" x="1479.34" y="416">XOR</tspan></text></g></svg>