<svg width="4178" height="1664" xmlns="http://www.w3.org/2000/svg" xmlns:xlink="http://www.w3.org/1999/xlink" overflow="hidden"><defs><clipPath id="clip0"><rect x="197" y="385" width="4178" height="1664"/></clipPath></defs><g clip-path="url(#clip0)" transform="translate(-197 -385)"><text fill="#00B0F0" font-family="Calibri,Calibri_MSFontService,sans-serif" font-weight="700" font-size="83" transform="matrix(1 0 0 1 559.216 487)">DIAGRAM<tspan font-size="83" x="343.888" y="0">ME</tspan><tspan font-size="83" x="475.086" y="0">DE</tspan><tspan font-size="83" x="586.231" y="0">DES</tspan></text><rect x="928.5" y="752.5" width="2577" height="1231" stroke="#000000" stroke-width="4.58333" stroke-miterlimit="8" fill="#FFFFFF"/><text font-family="Calibri,Calibri_MSFontService,sans-serif" font-weight="700" font-size="83" transform="matrix(1 0 0 1 1694.54 712)">DATA ENCRYPTION STANDARD</text><path d="M0-5.15625 335.155-5.15625 335.155 298.272 324.843 298.272 324.843 0 329.999 5.15625 0 5.15625ZM345.468 293.115 329.999 324.053 314.53 293.115Z" transform="matrix(1.83697e-16 1 1 -1.83697e-16 604 1038)"/><text font-family="Calibri,Calibri_MSFontService,sans-serif" font-weight="400" font-size="83" transform="matrix(1 0 0 1 266.476 898)">block <tspan font-size="83" x="197.083" y="0">du</tspan><tspan font-size="83" x="303.073" y="0">message</tspan><tspan font-size="83" x="88.7333" y="99">c</tspan><tspan font-size="83" x="123.681" y="99">lair</tspan><tspan font-size="83" x="248.577" y="99">(</tspan><tspan font-weight="700" font-size="83" x="273.785" y="99">64</tspan><tspan font-size="83" x="376.337" y="99">bits)</tspan></text><path d="M1.00955e-05-5.15625 158.543-5.15594 158.543 5.15656-1.00955e-05 5.15625ZM153.387-15.4684 184.325 0.000360892 153.387 15.4691Z" transform="matrix(1 0 0 -1 3505 1368)"/><text font-family="Calibri,Calibri_MSFontService,sans-serif" font-weight="400" font-size="83" transform="matrix(1 0 0 1 3731.98 1344)">block <tspan font-size="83" x="197.083" y="0">du</tspan><tspan font-size="83" x="303.073" y="0">message</tspan><tspan font-size="83" x="41.8457" y="99">c</tspan><tspan font-size="83" x="76.7937" y="99">hiffr</tspan><tspan font-size="83" x="216.425" y="99">é</tspan><tspan font-size="83" x="276.581" y="99">(</tspan><tspan font-weight="700" font-size="83" x="301.79" y="99">64</tspan><tspan font-size="83" x="404.341" y="99">bits)</tspan></text><rect x="1112.5" y="893.5" width="235" height="949" stroke="#000000" stroke-width="4.58333" stroke-miterlimit="8" fill="#FFFFFF"/><text font-family="Calibri,Calibri_MSFontService,sans-serif" font-weight="700" font-size="55" transform="matrix(1 0 0 1 1215.69 985)">T<tspan font-size="55" x="-1.71875" y="66">R</tspan><tspan font-size="55" x="-2.8645" y="132">A</tspan><tspan font-size="55" x="-4.30835" y="198">N</tspan><tspan font-size="55" x="0.847901" y="264">S</tspan><tspan font-size="55" x="-0.87085" y="330">P</tspan><tspan font-size="55" x="-4.88123" y="396">O</tspan><tspan font-size="55" x="0.847901" y="462">S</tspan><tspan font-size="55" x="6.30212" y="528">I</tspan><tspan font-size="55" x="0" y="594">T</tspan><tspan font-size="55" x="6.30212" y="660">I</tspan><tspan font-size="55" x="-4.88123" y="726">O</tspan><tspan font-size="55" x="-4.30835" y="792">N</tspan></text><rect x="3025.5" y="893.5" width="235" height="949" stroke="#000000" stroke-width="4.58333" stroke-miterlimit="8" fill="#FFFFFF"/><text font-family="Calibri,Calibri_MSFontService,sans-serif" font-weight="700" font-size="55" transform="matrix(1 0 0 1 3128.69 985)">T<tspan font-size="55" x="-1.71875" y="66">R</tspan><tspan font-size="55" x="-2.86475" y="132">A</tspan><tspan font-size="55" x="-4.30835" y="198">N</tspan><tspan font-size="55" x="0.847901" y="264">S</tspan><tspan font-size="55" x="-0.87085" y="330">P</tspan><tspan font-size="55" x="-4.88135" y="396">O</tspan><tspan font-size="55" x="0.847901" y="462">S</tspan><tspan font-size="55" x="6.302" y="528">I</tspan><tspan font-size="55" x="0" y="594">T</tspan><tspan font-size="55" x="6.302" y="660">I</tspan><tspan font-size="55" x="-4.88135" y="726">O</tspan><tspan font-size="55" x="-4.30835" y="792">N</tspan></text><rect x="1400.5" y="953.5" width="1572" height="829" stroke="#000000" stroke-width="4.58333" stroke-miterlimit="8" fill="#FFFFFF"/><rect x="1485.5" y="1024.5" width="92.0001" height="687" stroke="#000000" stroke-width="4.58333" stroke-miterlimit="8" fill="#FFFFFF"/><text font-family="Calibri,Calibri_MSFontService,sans-serif" font-weight="700" font-size="83" transform="matrix(1 0 0 1 1503.5 1148)">R<tspan font-size="83" x="0" y="99">O</tspan><tspan font-size="83" x="0" y="198">U</tspan><tspan font-size="83" x="0" y="297">N</tspan><tspan font-size="83" x="0" y="396">D</tspan><tspan font-size="83" x="0" y="495">1</tspan></text><rect x="1630.5" y="1024.5" width="92.0001" height="687" stroke="#000000" stroke-width="4.58333" stroke-miterlimit="8" fill="#FFFFFF"/><text font-family="Calibri,Calibri_MSFontService,sans-serif" font-weight="700" font-size="83" transform="matrix(1 0 0 1 1648.38 1148)">R<tspan font-size="83" x="0" y="99">O</tspan><tspan font-size="83" x="0" y="198">U</tspan><tspan font-size="83" x="0" y="297">N</tspan><tspan font-size="83" x="0" y="396">D</tspan><tspan font-size="83" x="0" y="495">2</tspan></text><rect x="1777.5" y="1024.5" width="92.0001" height="687" stroke="#000000" stroke-width="4.58333" stroke-miterlimit="8" fill="#FFFFFF"/><text font-family="Calibri,Calibri_MSFontService,sans-serif" font-weight="700" font-size="83" transform="matrix(1 0 0 1 1795.44 1148)">R<tspan font-size="83" x="0" y="99">O</tspan><tspan font-size="83" x="0" y="198">U</tspan><tspan font-size="83" x="0" y="297">N</tspan><tspan font-size="83" x="0" y="396">D</tspan><tspan font-size="83" x="0" y="495">3</tspan><tspan font-size="92" x="517.081" y="250">...</tspan></text><rect x="2745.5" y="1024.5" width="92.0002" height="687" stroke="#000000" stroke-width="4.58333" stroke-miterlimit="8" fill="#FFFFFF"/><text font-family="Calibri,Calibri_MSFontService,sans-serif" font-weight="700" font-size="83" transform="matrix(1 0 0 1 2763.14 1098)">R<tspan font-size="83" x="0" y="99">O</tspan><tspan font-size="83" x="0" y="198">U</tspan><tspan font-size="83" x="0" y="297">N</tspan><tspan font-size="83" x="0" y="396">D</tspan><tspan font-size="83" x="0" y="495">1</tspan><tspan font-size="83" x="0" y="594">6</tspan></text><path d="M573 1895.84 902.145 1895.84 902.145 1906.16 573 1906.16ZM896.989 1885.53 927.926 1901 896.989 1916.47Z"/><text font-family="Calibri,Calibri_MSFontService,sans-serif" font-weight="400" font-size="83" transform="matrix(1 0 0 1 337.413 1878)">clé<tspan font-size="83" x="-89.9479" y="99">(</tspan><tspan font-weight="700" font-size="83" x="-64.7396" y="99">64</tspan><tspan font-size="83" x="37.8125" y="99">bits)</tspan></text><path d="M0-1.14583 604.861-1.14583 604.861 167.354 602.57 167.354 602.57 0 603.716 1.14583 0 1.14583ZM617.466 162.771 603.716 190.271 589.966 162.771Z" transform="matrix(1 0 0 -1 928 1901.27)"/><path d="M0-1.14583 763.86-1.14583 763.86 167.354 761.568 167.354 761.568 0 762.714 1.14583 0 1.14583ZM776.464 162.771 762.714 190.271 748.964 162.771Z" transform="matrix(1 0 0 -1 913 1901.27)"/><path d="M0-1.14583 896.804-1.14583 896.804 166.145 894.512 166.145 894.512 0 895.658 1.14583 0 1.14583ZM909.408 161.561 895.658 189.061 881.908 161.561Z" transform="matrix(1 0 0 -1 928 1900.06)"/><path d="M0-1.14583 1866.68-1.14583 1866.68 160.714 1864.39 160.714 1864.39 0 1865.54 1.14583 0 1.14583ZM1879.29 156.131 1865.54 183.631 1851.79 156.131Z" transform="matrix(1 0 0 -1 925 1894.63)"/></g></svg>