<svg width="4184" height="2064" xmlns="http://www.w3.org/2000/svg" xmlns:xlink="http://www.w3.org/1999/xlink" overflow="hidden"><defs><clipPath id="clip0"><rect x="109" y="306" width="4184" height="2064"/></clipPath></defs><g clip-path="url(#clip0)" transform="translate(-109 -306)"><rect x="128.5" y="556.5" width="933" height="143" stroke="#000000" stroke-width="4.58333" stroke-miterlimit="8" fill="#FFFFFF"/><text font-family="Calibri,Calibri_MSFontService,sans-serif" font-weight="700" font-size="83" transform="matrix(1 0 0 1 216.983 654)">initial permutation (IP)<tspan font-weight="400" font-size="83" x="-58.1362" y="-220">Bloc de texte </tspan><tspan fill="#00B0F0" font-size="83" x="395.706" y="-220">clair de </tspan>64<tspan font-weight="400" font-size="83" x="765.81" y="-220">bits de long</tspan></text><path d="M616.156 453 616.156 514.067 605.844 514.067 605.844 453ZM626.469 508.911 611 539.848 595.531 508.911Z"/><text font-family="Calibri,Calibri_MSFontService,sans-serif" font-weight="400" font-size="73" transform="matrix(1 0 0 1 1278.43 607)">N<tspan font-size="73" x="47.552" y="0">ous allons mélanger l’ordre</tspan><tspan font-size="73" x="-73.5855" y="88">des bits du bloc contenant </tspan><tspan font-weight="700" font-size="73" x="726.298" y="88">64 </tspan><tspan font-size="73" x="817.392" y="88">bits</tspan><tspan font-weight="700" font-size="83" x="1311.39" y="-199">64</tspan><tspan font-size="83" x="1413.94" y="-199">bits long </tspan><tspan font-size="83" x="1718.73" y="-199">cl</tspan><tspan font-size="83" x="1772.59" y="-199">é</tspan><tspan font-size="83" x="1832.74" y="-199">priv</tspan><tspan font-size="83" x="1960.27" y="-199">é</tspan><tspan font-size="83" x="2001.52" y="-199">e</tspan></text><rect x="2492.5" y="549.5" width="934" height="143" stroke="#000000" stroke-width="4.58333" stroke-miterlimit="8" fill="#FFFFFF"/><text font-family="Calibri,Calibri_MSFontService,sans-serif" font-weight="700" font-size="83" transform="matrix(1 0 0 1 2526.31 643)">permuted choice 1 (PC<tspan font-size="83" x="768.992" y="0">-</tspan><tspan font-size="83" x="794.2" y="0">1)</tspan></text><path d="M2967.16 443 2967.16 504.067 2956.84 504.067 2956.84 443ZM2977.47 498.911 2962 529.848 2946.53 498.911Z"/><text font-family="Calibri,Calibri_MSFontService,sans-serif" font-weight="400" font-size="64" transform="matrix(1 0 0 1 3506.55 563)">M<tspan font-size="64" x="55" y="0">élanger l'ordre des bits et </tspan><tspan font-size="64" x="53.3272" y="77">omettre </tspan><tspan font-weight="700" font-size="64" x="280.386" y="77">8 </tspan><tspan font-size="64" x="327.365" y="77">bits (la sortie </tspan><tspan font-size="64" x="-13.0396" y="154">contient </tspan><tspan font-weight="700" font-size="64" x="218.419" y="154">56 </tspan><tspan font-size="64" x="298.054" y="154">bits uniquement)</tspan></text><path d="M2964.16 720 2964.16 781.067 2953.84 781.067 2953.84 720ZM2974.47 775.911 2959 806.848 2943.53 775.911Z"/><rect x="2492.5" y="839.5" width="934" height="143" stroke="#000000" stroke-width="4.58333" stroke-miterlimit="8" fill="#FFFFFF"/><text font-family="Calibri,Calibri_MSFontService,sans-serif" font-weight="700" font-size="83" transform="matrix(1 0 0 1 2673.06 937)">left circular shift</text><rect x="128.5" y="840.5" width="933" height="142" stroke="#000000" stroke-width="4.58333" stroke-miterlimit="8" fill="#FFFFFF"/><text font-family="Calibri,Calibri_MSFontService,sans-serif" font-weight="700" font-size="83" transform="matrix(1 0 0 1 455.63 937)">round #1</text><path d="M616.156 725 616.156 786.067 605.844 786.067 605.844 725ZM626.469 780.91 611 811.848 595.531 780.911Z"/><rect x="1308.5" y="841.5" width="933" height="142" stroke="#000000" stroke-width="4.58333" stroke-miterlimit="8" fill="#FFFFFF"/><text font-family="Calibri,Calibri_MSFontService,sans-serif" font-weight="700" font-size="83" transform="matrix(1 0 0 1 1341.9 934)">permuted choice 2 (PC-<tspan font-size="83" x="794.2" y="0">2)</tspan><tspan font-size="64" x="1649.87" y="-148">56 </tspan><tspan font-weight="400" font-size="64" x="1729.51" y="-148">bits</tspan><tspan font-size="64" x="941.122" y="-65">56 </tspan><tspan font-weight="400" font-size="64" x="1020.76" y="-65">bits</tspan><tspan font-size="64" x="-243.471" y="-55">48 </tspan><tspan font-weight="400" font-size="64" x="-163.835" y="-55">bits</tspan></text><path d="M1.05613e-05-5.15625 150.415-5.15594 150.415 5.15656-1.05613e-05 5.15625ZM145.258-15.4685 176.196 0.000360892 145.258 15.469Z" transform="matrix(-1 0 0 1 1270.2 911)"/><path d="M1.05613e-05-5.15625 150.415-5.15594 150.415 5.15656-1.05613e-05 5.15625ZM145.258-15.4685 176.196 0.000360892 145.258 15.469Z" transform="matrix(-1 0 0 1 2454.2 913)"/><path d="M2962.16 1015 2962.16 1076.07 2951.84 1076.07 2951.84 1015ZM2972.47 1070.91 2957 1101.85 2941.53 1070.91Z"/><rect x="2491.5" y="1134.5" width="933" height="143" stroke="#000000" stroke-width="4.58333" stroke-miterlimit="8" fill="#FFFFFF"/><text font-family="Calibri,Calibri_MSFontService,sans-serif" font-weight="700" font-size="83" transform="matrix(1 0 0 1 2671.76 1233)">left circular shift</text><rect x="127.5" y="1135.5" width="933" height="143" stroke="#000000" stroke-width="4.58333" stroke-miterlimit="8" fill="#FFFFFF"/><text font-family="Calibri,Calibri_MSFontService,sans-serif" font-weight="700" font-size="83" transform="matrix(1 0 0 1 454.333 1233)">round #2</text><path d="M614.156 1020 614.157 1081.07 603.844 1081.07 603.844 1020ZM624.469 1075.91 609 1106.85 593.532 1075.91Z"/><rect x="1306.5" y="1136.5" width="934" height="143" stroke="#000000" stroke-width="4.58333" stroke-miterlimit="8" fill="#FFFFFF"/><text font-family="Calibri,Calibri_MSFontService,sans-serif" font-weight="700" font-size="83" transform="matrix(1 0 0 1 1340.6 1229)">permuted choice 2 (PC<tspan font-size="83" x="768.992" y="0">-</tspan><tspan font-size="83" x="794.2" y="0">2)</tspan><tspan font-size="64" x="1649.87" y="-148">56 </tspan><tspan font-weight="400" font-size="64" x="1729.51" y="-148">bits</tspan><tspan font-size="64" x="941.122" y="-65">56 </tspan><tspan font-weight="400" font-size="64" x="1020.76" y="-65">bits</tspan><tspan font-size="64" x="-243.471" y="-55">48 </tspan><tspan font-weight="400" font-size="64" x="-163.835" y="-55">bits</tspan></text><path d="M1.05613e-05-5.15625 150.415-5.15594 150.415 5.15656-1.05613e-05 5.15625ZM145.258-15.4685 176.196 0.000360892 145.258 15.469Z" transform="matrix(-1 0 0 1 1269.2 1206)"/><path d="M1.05613e-05-5.15625 150.415-5.15594 150.415 5.15656-1.05613e-05 5.15625ZM145.258-15.4685 176.196 0.000360892 145.258 15.469Z" transform="matrix(-1 0 0 1 2453.2 1209)"/><text font-family="Calibri,Calibri_MSFontService,sans-serif" font-weight="700" font-size="83" transform="matrix(1 0 0 1 598.162 1370)">.<tspan font-size="83" x="0" y="99">.</tspan><tspan font-size="83" x="0" y="198">.</tspan><tspan font-size="83" x="1163.58" y="0">.</tspan><tspan font-size="83" x="1163.58" y="99">.</tspan><tspan font-size="83" x="1163.58" y="198">.</tspan><tspan font-size="83" x="2348" y="0">.</tspan><tspan font-size="83" x="2348" y="99">.</tspan><tspan font-size="83" x="2348" y="198">.</tspan></text><rect x="2491.5" y="1668.5" width="933" height="143" stroke="#000000" stroke-width="4.58333" stroke-miterlimit="8" fill="#FFFFFF"/><text font-family="Calibri,Calibri_MSFontService,sans-serif" font-weight="700" font-size="83" transform="matrix(1 0 0 1 2671.76 1767)">left circular shift</text><rect x="127.5" y="1669.5" width="933" height="143" stroke="#000000" stroke-width="4.58333" stroke-miterlimit="8" fill="#FFFFFF"/><text font-family="Calibri,Calibri_MSFontService,sans-serif" font-weight="700" font-size="83" transform="matrix(1 0 0 1 433.217 1763)">round #16</text><rect x="1306.5" y="1670.5" width="934" height="143" stroke="#000000" stroke-width="4.58333" stroke-miterlimit="8" fill="#FFFFFF"/><text font-family="Calibri,Calibri_MSFontService,sans-serif" font-weight="700" font-size="83" transform="matrix(1 0 0 1 1340.6 1763)">permuted choice 2 (PC<tspan font-size="83" x="768.992" y="0">-</tspan><tspan font-size="83" x="794.2" y="0">2)</tspan><tspan font-size="64" x="941.122" y="-65">56 </tspan><tspan font-weight="400" font-size="64" x="1020.76" y="-65">bits</tspan><tspan font-size="64" x="-243.471" y="-55">48 </tspan><tspan font-weight="400" font-size="64" x="-163.835" y="-55">bits</tspan></text><path d="M1.05613e-05-5.15625 150.415-5.15594 150.415 5.15656-1.05613e-05 5.15625ZM145.258-15.4685 176.196 0.000360892 145.258 15.469Z" transform="matrix(-1 0 0 1 1269.2 1740)"/><path d="M1.05613e-05-5.15625 150.415-5.15594 150.415 5.15656-1.05613e-05 5.15625ZM145.258-15.4685 176.196 0.000360892 145.258 15.469Z" transform="matrix(-1 0 0 1 2453.2 1743)"/><rect x="127.5" y="1933.5" width="934" height="143" stroke="#000000" stroke-width="4.58333" stroke-miterlimit="8" fill="#FFFFFF"/><text font-family="Calibri,Calibri_MSFontService,sans-serif" font-weight="700" font-size="83" transform="matrix(1 0 0 1 455.056 2031)">32 bit swap</text><path d="M615.156 1824 615.157 1885.07 604.844 1885.07 604.844 1824ZM625.469 1879.91 610.001 1910.85 594.532 1879.91Z"/><text font-family="Calibri,Calibri_MSFontService,sans-serif" font-weight="400" font-size="64" transform="matrix(1 0 0 1 1153.26 1986)">M<tspan font-size="64" x="55" y="0">oitié gauche ( </tspan><tspan font-weight="700" font-size="64" x="421.621" y="0">32 </tspan><tspan font-size="64" x="501.256" y="0">bits) et moiti</tspan>é<tspan font-size="64" x="43.702" y="77">droite ( </tspan><tspan font-weight="700" font-size="64" x="248.806" y="77">32 </tspan><tspan font-size="64" x="328.442" y="77">bits) sont permutés</tspan></text><rect x="132.5" y="2190.5" width="934" height="142" stroke="#000000" stroke-width="4.58333" stroke-miterlimit="8" fill="#FFFFFF"/><text font-family="Calibri,Calibri_MSFontService,sans-serif" font-weight="700" font-size="83" transform="matrix(1 0 0 1 158.847 2288)">inverse permutation (IP   )</text><path d="M614.156 2084 614.157 2145.07 603.844 2145.07 603.844 2084ZM624.469 2139.91 609 2170.85 593.532 2139.91Z"/><text font-family="Calibri,Calibri_MSFontService,sans-serif" font-weight="700" font-size="55" transform="matrix(1 0 0 1 969.868 2251)">-<tspan font-size="55" x="16.6146" y="0">1</tspan><tspan font-size="64" x="161.626" y="-16">64 </tspan><tspan font-weight="400" font-size="64" x="241.261" y="-16">bits</tspan></text><path d="M1135 2264.84 1275.39 2264.84 1275.39 2275.16 1135 2275.16ZM1270.23 2254.53 1301.17 2270 1270.23 2285.47Z"/><text fill="#00B050" font-family="Calibri,Calibri_MSFontService,sans-serif" font-weight="700" font-size="83" transform="matrix(1 0 0 1 1341.9 2298)">MESSAGE CHIFFRÉ<tspan fill="#000000" font-weight="400" font-size="64" x="1220.32" y="-387">D</tspan><tspan fill="#000000" font-weight="400" font-size="64" x="1259.85" y="-387">écaler tous les bits vers la gauche</tspan><tspan fill="#000000" font-weight="400" font-size="64" x="1105.62" y="-310">(un tableau définit le nombre de d</tspan><tspan fill="#000000" font-weight="400" font-size="64" x="1998.89" y="-310">é</tspan><tspan fill="#000000" font-weight="400" font-size="64" x="2030.97" y="-310">calages</tspan><tspan fill="#000000" font-weight="400" font-size="64" x="2221.27" y="-310">)</tspan></text></g></svg>