<svg width="4328" height="1664" xmlns="http://www.w3.org/2000/svg" xmlns:xlink="http://www.w3.org/1999/xlink" overflow="hidden"><defs><clipPath id="clip0"><rect x="123" y="526" width="4328" height="1664"/></clipPath></defs><g clip-path="url(#clip0)" transform="translate(-123 -526)"><path d="M123 1484.12 1939.13 1484.13 1939.13 1497.88 123 1497.87ZM1932.26 1470.38 1973.51 1491 1932.26 1511.63Z" fill="#7F7F7F"/><path d="M6.875-1.72665e-06 6.87535 1402.59-6.87465 1402.59-6.875 1.72665e-06ZM20.6254 1395.71 0.000360892 1436.96-20.6246 1395.71Z" fill="#7F7F7F" transform="matrix(1 0 0 -1 773 2165.96)"/><path d="M1516.26 802.5C1400.69 997.693 1285.13 1192.89 1164.95 1244.62 1044.77 1296.36 910.714 1070.6 795.153 1112.93 679.591 1155.26 476.203 1368.48 471.581 1498.61 466.959 1628.74 661.101 1854.5 767.418 1893.7 873.734 1932.9 983.132 1688.32 1109.48 1733.78 1235.83 1779.25 1380.66 1972.87 1525.5 2166.5" stroke="#FFC000" stroke-width="20.625" stroke-miterlimit="8" fill="none" fill-rule="evenodd"/><text fill="#595959" font-family="Calibri,Calibri_MSFontService,sans-serif" font-weight="400" font-size="110" transform="matrix(1 0 0 1 1770.65 800)">Soit <tspan font-weight="700" font-size="110" x="194.792" y="0">a </tspan><tspan font-family="Cambria Math,Cambria Math_MSFontService,sans-serif" font-weight="700" font-size="110" x="273.854" y="0">∈</tspan><tspan font-family="Cambria Math,Cambria Math_MSFontService,sans-serif" font-weight="700" font-size="110" x="365.521" y="0">ℝ</tspan><tspan font-weight="700" font-size="110" x="445.729" y="0">, b </tspan><tspan font-family="Cambria Math,Cambria Math_MSFontService,sans-serif" font-weight="700" font-size="110" x="582.656" y="0">∈</tspan><tspan font-family="Cambria Math,Cambria Math_MSFontService,sans-serif" font-weight="700" font-size="110" x="674.323" y="0">ℝ</tspan><tspan font-size="110" x="754.531" y="0">, des constantes telles que </tspan><tspan font-weight="700" font-size="110" x="1951.88" y="0">4a³ + 27b² ≠ 0.</tspan><tspan font-weight="700" font-size="110" x="10.175" y="118">Une courbe elliptique non singulière </tspan><tspan font-size="110" x="1691.2" y="118">est l’ensemble </tspan><tspan font-weight="700" font-size="110" x="2355.35" y="118">E</tspan><tspan font-size="110" x="2433.84" y="118">des </tspan><tspan font-size="110" x="497.383" y="237">solutions </tspan><tspan font-weight="700" font-size="110" x="926.498" y="237">(x,y)</tspan><tspan font-family="Cambria Math,Cambria Math_MSFontService,sans-serif" font-size="110" x="1151.08" y="237">∈</tspan><tspan font-family="Cambria Math,Cambria Math_MSFontService,sans-serif" font-weight="700" font-size="110" x="1244.47" y="237">ℝ</tspan><tspan font-size="110" x="1349.31" y="237">x </tspan><tspan font-family="Cambria Math,Cambria Math_MSFontService,sans-serif" font-weight="700" font-size="110" x="1421.5" y="237">ℝ</tspan><tspan font-size="110" x="1526.34" y="237">à l’équation :</tspan></text><path d="M2414.5 1356.33C2414.5 1323.29 2441.29 1296.5 2474.33 1296.5L3590.67 1296.5C3623.71 1296.5 3650.5 1323.29 3650.5 1356.33L3650.5 1595.67C3650.5 1628.71 3623.71 1655.5 3590.67 1655.5L2474.33 1655.5C2441.29 1655.5 2414.5 1628.71 2414.5 1595.67Z" stroke="#7F7F7F" stroke-width="4.58333" stroke-miterlimit="8" fill="#FFF2CC" fill-rule="evenodd"/><text fill="#7F7F7F" font-family="Calibri,Calibri_MSFontService,sans-serif" font-weight="700" font-size="147" transform="matrix(1 0 0 1 2595.65 1525)">y<tspan font-size="98" x="69.323" y="-44">2</tspan><tspan font-size="147" x="152.396" y="0">= x</tspan><tspan font-size="98" x="326.563" y="-44">3</tspan><tspan font-size="147" x="409.636" y="0">+ ax + b</tspan><tspan font-size="110" x="-576.839" y="-5">x</tspan><tspan font-size="110" x="-1849.51" y="-863">y</tspan><tspan fill="#595959" font-family="Wingdings,Wingdings_MSFontService,sans-serif" font-weight="400" font-size="110" x="-851.726" y="437"></tspan><tspan fill="#595959" font-weight="400" font-size="110" x="-719.383" y="437">Si </tspan><tspan fill="#595959" font-size="110" x="-619.122" y="437">4a³ + 27b² = 0 </tspan><tspan fill="#595959" font-weight="400" font-size="110" x="24.2632" y="437">alors la courbe elliptique est singulière</tspan><tspan fill="#595959" font-weight="400" font-size="110" x="-703.914" y="569">ce qui signifie qu’il n’a pas </tspan><tspan fill="#595959" font-size="110" x="480.763" y="569">3</tspan><tspan fill="#595959" font-weight="400" font-size="110" x="560.972" y="569">racines distinctes</tspan></text></g></svg>