<svg width="3757" height="2125" xmlns="http://www.w3.org/2000/svg" xmlns:xlink="http://www.w3.org/1999/xlink" overflow="hidden"><defs><clipPath id="clip0"><rect x="167" y="283" width="3757" height="2125"/></clipPath></defs><g clip-path="url(#clip0)" transform="translate(-167 -283)"><text font-family="Calibri,Calibri_MSFontService,sans-serif" font-weight="400" font-size="83" transform="matrix(1 0 0 1 675.162 385)">Qu'est<tspan font-size="83" x="217.365" y="0">-</tspan><tspan font-size="83" x="242.573" y="0">ce que la </tspan><tspan font-weight="700" font-size="83" x="562.26" y="0">fonction round </tspan>?</text><path d="M675.162 393.85 957.162 393.85 1239.16 393.85 1521.16 393.85 1803.16 393.85 1803.16 398.85 1521.16 398.85 1239.16 398.85 957.162 398.85 675.162 398.85Z" fill-rule="evenodd"/><rect x="351.5" y="544.5" width="562" height="122" stroke="#000000" stroke-width="4.58333" stroke-miterlimit="8" fill="#FFFFFF"/><text font-family="Calibri,Calibri_MSFontService,sans-serif" font-weight="700" font-size="83" transform="matrix(1 0 0 1 614.282 632)">L</text><rect x="971.5" y="544.5" width="562" height="122" stroke="#000000" stroke-width="4.58333" stroke-miterlimit="8" fill="#FFFFFF"/><text font-family="Calibri,Calibri_MSFontService,sans-serif" font-weight="700" font-size="83" transform="matrix(1 0 0 1 1229.1 632)">R</text><rect x="2728.5" y="544.5" width="562" height="122" stroke="#000000" stroke-width="4.58333" stroke-miterlimit="8" fill="#FFFFFF"/><text font-family="Calibri,Calibri_MSFontService,sans-serif" font-weight="700" font-size="83" transform="matrix(1 0 0 1 2986.02 632)">K</text><rect x="3348.5" y="544.5" width="562" height="122" stroke="#000000" stroke-width="4.58333" stroke-miterlimit="8" fill="#FFFFFF"/><text font-family="Calibri,Calibri_MSFontService,sans-serif" font-weight="700" font-size="83" transform="matrix(1 0 0 1 3606.56 632)">K<tspan font-size="64" x="-3063.64" y="-123">32 </tspan><tspan font-weight="400" font-size="64" x="-2984.01" y="-123">bits</tspan><tspan font-size="64" x="-2441.55" y="-123">32 </tspan><tspan font-weight="400" font-size="64" x="-2361.92" y="-123">bits</tspan><tspan font-size="64" x="-570.659" y="19">l</tspan><tspan font-size="64" x="49.6841" y="17">r</tspan><tspan font-size="64" x="-688.327" y="-124">28 </tspan><tspan font-weight="400" font-size="64" x="-608.692" y="-124">bits</tspan><tspan font-size="64" x="-66.2398" y="-124">28 </tspan><tspan font-weight="400" font-size="64" x="13.3958" y="-124">bits</tspan></text><rect x="2746.5" y="814.5" width="523" height="143" stroke="#000000" stroke-width="4.58333" stroke-miterlimit="8" fill="#FFFFFF"/><text font-family="Calibri,Calibri_MSFontService,sans-serif" font-weight="700" font-size="73" transform="matrix(1 0 0 1 2757.73 910)">circular left shift</text><rect x="3373.5" y="814.5" width="522" height="143" stroke="#000000" stroke-width="4.58333" stroke-miterlimit="8" fill="#FFFFFF"/><text font-family="Calibri,Calibri_MSFontService,sans-serif" font-weight="700" font-size="73" transform="matrix(1 0 0 1 3384.22 910)">circular left shift</text><path d="M3012.16 693 3012.16 754.067 3001.84 754.067 3001.84 693ZM3022.47 748.91 3007 779.848 2991.53 748.911Z"/><path d="M3634.16 694 3634.16 755.067 3623.84 755.067 3623.84 694ZM3644.47 749.911 3629 780.848 3613.53 749.911Z"/><rect x="1748.5" y="1117.5" width="800" height="143" stroke="#000000" stroke-width="4.58333" stroke-miterlimit="8" fill="#FFFFFF"/><text font-family="Calibri,Calibri_MSFontService,sans-serif" font-weight="700" font-size="73" transform="matrix(1 0 0 1 1767.15 1213)">permuted choice 2 (PC<tspan font-size="73" x="685.461" y="0">-</tspan>2)</text><path d="M3011.01 1013.5 3011.01 1192.34 2599.42 1192.34 2599.42 1185.47 3007.57 1185.47 3004.14 1188.91 3004.14 1013.5ZM2604 1202.66 2576.5 1188.91 2604 1175.16Z"/><path d="M3637.5 1013.5 3637.5 1192.34 2599.42 1192.34 2599.42 1185.47 3634.06 1185.47 3630.63 1188.91 3630.63 1013.5ZM2604 1202.66 2576.5 1188.91 2604 1175.16Z"/><path d="M3014.2 957.5 3014.2 1179.8 3010.5 1179.8 3013.94 1176.36 3013.94 1372.31 3007.06 1372.31 3007.06 1172.92 3010.76 1172.92 3007.32 1176.36 3007.32 957.5ZM3024.25 1367.72 3010.5 1395.22 2996.75 1367.72Z"/><path d="M3641.2 957.5 3641.2 1179.8 3637.5 1179.8 3640.94 1176.36 3640.94 1372.31 3634.06 1372.31 3634.06 1172.92 3637.76 1172.92 3634.32 1176.36 3634.32 957.5ZM3651.25 1367.72 3637.5 1395.22 3623.75 1367.72Z"/><text font-family="Calibri,Calibri_MSFontService,sans-serif" font-weight="700" font-size="83" transform="matrix(1 0 0 1 2977.96 1487)">K<tspan font-weight="400" font-size="83" x="-175.794" y="99">au prochain </tspan><tspan font-weight="400" font-size="83" x="-68.6582" y="198">round</tspan><tspan font-size="55" x="49.429" y="23">l</tspan><tspan font-size="83" x="638.664" y="0">K</tspan><tspan font-weight="400" font-size="83" x="462.87" y="99">au prochain </tspan><tspan font-weight="400" font-size="83" x="570.005" y="198">round</tspan><tspan font-size="55" x="690.673" y="17">r</tspan></text><rect x="971.5" y="794.5" width="562" height="197" stroke="#000000" stroke-width="4.58333" stroke-miterlimit="8" fill="#FFFFFF"/><text font-family="Calibri,Calibri_MSFontService,sans-serif" font-weight="700" font-size="73" transform="matrix(1 0 0 1 1097.04 874)">expansion <tspan font-size="73" x="27.5" y="88">function</tspan></text><path d="M1257.16 683 1257.16 744.067 1246.84 744.067 1246.84 683ZM1267.47 738.911 1252 769.848 1236.53 738.911Z"/><rect x="1095.5" y="1117.5" width="313" height="146" stroke="#000000" stroke-width="4.58333" stroke-miterlimit="8" fill="#FFFFFF"/><text font-family="Calibri,Calibri_MSFontService,sans-serif" font-weight="700" font-size="83" transform="matrix(1 0 0 1 1179.21 1217)">XOR</text><path d="M1254.16 1011 1254.16 1072.07 1243.84 1072.07 1243.84 1011ZM1264.47 1066.91 1249 1097.85 1233.53 1066.91Z"/><path d="M3.2233e-06-2.29167 233.667-2.29134 233.667 2.292-3.2233e-06 2.29167ZM229.083-13.7497 256.583 0.000360892 229.083 13.7503Z" transform="matrix(-1 0 0 1 1708.08 1191.5)"/><text font-family="Calibri,Calibri_MSFontService,sans-serif" font-weight="700" font-size="64" transform="matrix(1 0 0 1 1490.27 1155)">48 <tspan font-weight="400" font-size="64" x="79.6355" y="0">bits</tspan><tspan font-size="64" x="-455.302" y="-82">48 </tspan><tspan font-weight="400" font-size="64" x="-375.667" y="-82">bits</tspan></text><path d="M1256.16 1285 1256.16 1346.07 1245.84 1346.07 1245.84 1285ZM1266.47 1340.91 1251 1371.85 1235.53 1340.91Z"/><rect x="1090.5" y="1394.5" width="312" height="145" stroke="#000000" stroke-width="4.58333" stroke-miterlimit="8" fill="#FFFFFF"/><text font-family="Calibri,Calibri_MSFontService,sans-serif" font-weight="700" font-size="83" transform="matrix(1 0 0 1 1141.34 1494)">S<tspan font-size="83" x="38.9583" y="0">-</tspan><tspan font-size="83" x="64.1666" y="0">BOX</tspan><tspan font-size="64" x="-112.15" y="-149">48 </tspan><tspan font-weight="400" font-size="64" x="-32.5144" y="-149">bits</tspan></text><path d="M1255.16 1556 1255.16 1617.07 1244.84 1617.07 1244.84 1556ZM1265.47 1611.91 1250 1642.85 1234.53 1611.91Z"/><rect x="993.5" y="1667.5" width="505" height="146" stroke="#000000" stroke-width="4.58333" stroke-miterlimit="8" fill="#FFFFFF"/><text font-family="Calibri,Calibri_MSFontService,sans-serif" font-weight="700" font-size="83" transform="matrix(1 0 0 1 1030.42 1767)">permutation<tspan font-size="64" x="-1.23315" y="-153">32 </tspan><tspan font-weight="400" font-size="64" x="78.4024" y="-153">bits</tspan></text><path d="M1256.16 1833 1256.16 1894.07 1245.84 1894.07 1245.84 1833ZM1266.47 1888.91 1251 1919.85 1235.53 1888.91Z"/><text font-family="Calibri,Calibri_MSFontService,sans-serif" font-weight="700" font-size="64" transform="matrix(1 0 0 1 1025.47 1898)">32 <tspan font-weight="400" font-size="64" x="79.6354" y="0">bits</tspan></text><rect x="1090.5" y="1938.5" width="312" height="145" stroke="#000000" stroke-width="4.58333" stroke-miterlimit="8" fill="#FFFFFF"/><text font-family="Calibri,Calibri_MSFontService,sans-serif" font-weight="700" font-size="83" transform="matrix(1 0 0 1 1173.42 2038)">XOR</text><path d="M0-2.29167 1346.73-2.29167 1346.73 434.88 1342.15 434.88 1342.15 0 1344.44 2.29167 0 2.29167ZM1358.19 430.296 1344.44 457.796 1330.69 430.296Z" transform="matrix(1.83697e-16 1 1 -1.83697e-16 632.5 666.5)"/><path d="M1248.16 2095 1248.16 2147.7 1237.84 2147.7 1237.84 2095ZM1258.47 2142.54 1243 2173.48 1227.53 2142.54Z"/><text font-family="Calibri,Calibri_MSFontService,sans-serif" font-weight="700" font-size="83" transform="matrix(1 0 0 1 467.109 2253)">L<tspan font-weight="400" font-size="73" x="-255.75" y="91">au prochain </tspan><tspan font-weight="400" font-size="73" x="112.017" y="91">round</tspan><tspan font-size="83" x="758.454" y="0">R</tspan><tspan font-weight="400" font-size="73" x="508.434" y="91">au prochain </tspan><tspan font-weight="400" font-size="73" x="876.2" y="91">round</tspan></text><path d="M0 0 761.039 0.000360892" stroke="#000000" stroke-width="4.58333" stroke-miterlimit="8" fill="none" fill-rule="evenodd" transform="matrix(-1 0 0 1 1246.54 717.5)"/><path d="M487.792 717.5 487.792 2111.2 483.209 2111.2 483.208 717.5ZM499.25 2106.61 485.5 2134.11 471.75 2106.61Z"/><text fill="#00B0F0" font-family="Calibri,Calibri_MSFontService,sans-serif" font-weight="700" font-size="128" transform="matrix(1 0 0 1 2014.23 1886)">FONCTION ROUND</text></g></svg>