<svg width="4345" height="1870" xmlns="http://www.w3.org/2000/svg" xmlns:xlink="http://www.w3.org/1999/xlink" overflow="hidden"><defs><clipPath id="clip0"><rect x="96" y="339" width="4345" height="1870"/></clipPath></defs><g clip-path="url(#clip0)" transform="translate(-96 -339)"><text font-family="Calibri,Calibri_MSFontService,sans-serif" font-weight="400" font-size="83" transform="matrix(1 0 0 1 615.703 441)">Que sont les <tspan font-weight="700" font-size="83" x="435.233" y="0">S</tspan><tspan font-weight="700" font-size="83" x="474.192" y="0">-</tspan><tspan font-weight="700" font-size="83" x="499.4" y="0">BOX </tspan><tspan font-size="83" x="662.727" y="0">?</tspan></text><path d="M615.703 450.338 1316.7 450.338 1316.7 455.338 615.703 455.338Z" fill-rule="evenodd"/><text font-family="Calibri,Calibri_MSFontService,sans-serif" font-weight="400" font-size="83" transform="matrix(1 0 0 1 615.703 639)">Il y a <tspan font-weight="700" font-size="83" x="173.021" y="0">8 </tspan><tspan font-size="83" x="233.75" y="0">s</tspan><tspan font-size="83" x="265.833" y="0">-</tspan><tspan font-size="83" x="291.042" y="0">boxes dans l' algorithme </tspan><tspan font-weight="700" font-size="83" x="1120.85" y="0">DES : ce sont des boîtes de substitution</tspan><tspan font-size="83" x="330" y="99">~ l'entrée pour les boîtes est de </tspan><tspan font-weight="700" font-size="83" x="1404.59" y="99">6 </tspan><tspan font-size="83" x="1465.31" y="99">bits et la sortie est de </tspan><tspan font-weight="700" font-size="83" x="2204.17" y="99">4 </tspan>bits<tspan font-size="83" x="330" y="198">(c'est pourquoi nous transformons </tspan><tspan font-weight="700" font-size="83" x="1503.97" y="198">48 </tspan><tspan font-size="83" x="1606.53" y="198">bits en une sortie </tspan><tspan font-weight="700" font-size="83" x="2209.24" y="198">32 bits)</tspan><tspan font-weight="700" font-size="110" x="660" y="620">s</tspan><tspan font-weight="700" font-size="110" x="990" y="620">s</tspan><tspan font-weight="700" font-size="110" x="1320" y="620">s</tspan><tspan font-weight="700" font-size="110" x="1650" y="620">s</tspan><tspan font-weight="700" font-size="110" x="1980" y="620">s</tspan><tspan font-weight="700" font-size="110" x="2310" y="620">s</tspan><tspan font-weight="700" font-size="110" x="2640" y="620">s</tspan><tspan font-weight="700" font-size="110" x="2970" y="620">s</tspan><tspan font-weight="700" font-size="64" x="698.649" y="659">1</tspan><tspan font-weight="700" font-size="64" x="1033.11" y="656">2</tspan><tspan font-weight="700" font-size="64" x="1358.65" y="659">3</tspan><tspan font-weight="700" font-size="64" x="1693.11" y="656">4</tspan><tspan font-weight="700" font-size="64" x="2027.57" y="659">5</tspan><tspan font-weight="700" font-size="64" x="2362.03" y="656">6</tspan><tspan font-weight="700" font-size="64" x="2687.57" y="659">7</tspan><tspan font-weight="700" font-size="64" x="3022.03" y="656">8</tspan></text><path d="M1300.15 1091 1300.15 1157.27 1297.85 1157.27 1297.85 1091ZM1312.75 1152.69 1299 1180.19 1285.25 1152.69Z"/><path d="M1630.15 1091 1630.15 1157.27 1627.85 1157.27 1627.85 1091ZM1642.75 1152.69 1629 1180.19 1615.25 1152.69Z"/><path d="M1957.15 1091 1957.15 1157.27 1954.85 1157.27 1954.85 1091ZM1969.75 1152.69 1956 1180.19 1942.25 1152.69Z"/><path d="M2287.15 1091 2287.15 1157.27 2284.85 1157.27 2284.85 1091ZM2299.75 1152.69 2286 1180.19 2272.25 1152.69Z"/><path d="M2619.15 1091 2619.15 1157.27 2616.85 1157.27 2616.85 1091ZM2631.75 1152.69 2618 1180.19 2604.25 1152.69Z"/><path d="M2949.15 1091 2949.15 1157.27 2946.85 1157.27 2946.85 1091ZM2961.75 1152.69 2948 1180.19 2934.25 1152.69Z"/><path d="M3276.15 1091 3276.15 1157.27 3273.85 1157.27 3273.85 1091ZM3288.75 1152.69 3275 1180.19 3261.25 1152.69Z"/><path d="M3606.15 1091 3606.15 1157.27 3603.85 1157.27 3603.85 1091ZM3618.75 1152.69 3605 1180.19 3591.25 1152.69Z"/><path d="M1302.15 1333 1302.15 1399.27 1299.85 1399.27 1299.85 1333ZM1314.75 1394.69 1301 1422.19 1287.25 1394.69Z"/><path d="M1632.15 1333 1632.15 1399.27 1629.85 1399.27 1629.85 1333ZM1644.75 1394.69 1631 1422.19 1617.25 1394.69Z"/><path d="M1959.15 1333 1959.15 1399.27 1956.85 1399.27 1956.85 1333ZM1971.75 1394.69 1958 1422.19 1944.25 1394.69Z"/><path d="M2289.15 1333 2289.15 1399.27 2286.85 1399.27 2286.85 1333ZM2301.75 1394.69 2288 1422.19 2274.25 1394.69Z"/><path d="M2620.15 1333 2620.15 1399.27 2617.85 1399.27 2617.85 1333ZM2632.75 1394.69 2619 1422.19 2605.25 1394.69Z"/><path d="M2950.15 1333 2950.15 1399.27 2947.85 1399.27 2947.85 1333ZM2962.75 1394.69 2949 1422.19 2935.25 1394.69Z"/><path d="M3277.15 1333 3277.15 1399.27 3274.85 1399.27 3274.85 1333ZM3289.75 1394.69 3276 1422.19 3262.25 1394.69Z"/><path d="M3607.15 1333 3607.15 1399.27 3604.85 1399.27 3604.85 1333ZM3619.75 1394.69 3606 1422.19 3592.25 1394.69Z"/><text font-family="Calibri,Calibri_MSFontService,sans-serif" font-weight="700" font-size="83" transform="matrix(1 0 0 1 1206.35 1060)">6 <tspan font-weight="400" font-size="83" x="60.7291" y="0">bits</tspan><tspan font-size="83" x="328.513" y="-7">6 </tspan><tspan font-weight="400" font-size="83" x="389.242" y="-7">bits</tspan><tspan font-size="83" x="661.487" y="-1">6 </tspan><tspan font-weight="400" font-size="83" x="722.216" y="-1">bits</tspan><tspan font-size="83" x="990" y="-9">6 </tspan><tspan font-weight="400" font-size="83" x="1050.73" y="-9">bits</tspan><tspan font-size="83" x="1305.78" y="0">6 </tspan><tspan font-weight="400" font-size="83" x="1366.51" y="0">bits</tspan><tspan font-size="83" x="1634.29" y="-7">6 </tspan><tspan font-weight="400" font-size="83" x="1695.02" y="-7">bits</tspan><tspan font-size="83" x="1967.27" y="-1">6 </tspan><tspan font-weight="400" font-size="83" x="2028" y="-1">bits</tspan><tspan font-size="83" x="2295.78" y="-9">6 </tspan><tspan font-weight="400" font-size="83" x="2356.51" y="-9">bits</tspan><tspan font-size="83" x="0" y="457">4 </tspan><tspan font-weight="400" font-size="83" x="60.7291" y="457">bits</tspan><tspan font-size="83" x="328.513" y="450">4 </tspan><tspan font-weight="400" font-size="83" x="389.242" y="450">bits</tspan><tspan font-size="83" x="661.487" y="455">4 </tspan><tspan font-weight="400" font-size="83" x="722.216" y="455">bits</tspan><tspan font-size="83" x="990" y="448">4 </tspan><tspan font-weight="400" font-size="83" x="1050.73" y="448">bits</tspan><tspan font-size="83" x="1305.78" y="457">4 </tspan><tspan font-weight="400" font-size="83" x="1366.51" y="457">bits</tspan><tspan font-size="83" x="1634.29" y="450">4 </tspan><tspan font-weight="400" font-size="83" x="1695.02" y="450">bits</tspan><tspan font-size="83" x="1967.27" y="455">4 </tspan><tspan font-weight="400" font-size="83" x="2028" y="455">bits</tspan><tspan font-size="83" x="2295.78" y="448">4 </tspan><tspan font-weight="400" font-size="83" x="2356.51" y="448">bits</tspan><tspan font-family="Wingdings,Wingdings_MSFontService,sans-serif" font-weight="400" font-size="83" x="-101.504" y="681"></tspan><tspan font-weight="400" font-size="83" x="1.62073" y="681">C</tspan><tspan font-weight="400" font-size="83" x="45.7354" y="681">hacune </tspan><tspan font-weight="400" font-size="83" x="310.996" y="681">de ces </tspan><tspan font-size="83" x="541.881" y="681">s</tspan>-<tspan font-size="83" x="599.746" y="681">box </tspan><tspan font-weight="400" font-size="83" x="743.044" y="681">contient </tspan><tspan font-size="83" x="1040.48" y="681">64 </tspan><tspan font-weight="400" font-size="83" x="1143.03" y="681">articles</tspan><tspan font-family="Wingdings,Wingdings_MSFontService,sans-serif" font-weight="400" font-size="83" x="-101.504" y="879"></tspan><tspan font-weight="400" font-size="83" x="1.62073" y="879">C</tspan><tspan font-weight="400" font-size="83" x="45.7354" y="879">es </tspan><tspan font-size="83" x="137.975" y="879">s</tspan>-<tspan font-size="83" x="195.84" y="879">boxes </tspan><tspan font-weight="400" font-size="83" x="411.073" y="879">sont essentiellement des tables de correspondance : l' entrée </tspan><tspan font-size="83" x="2486.18" y="879">6 bits définit la ligne</tspan><tspan font-weight="400" font-size="83" x="228.496" y="978">et l'index de colonne dans la </tspan>s-<tspan font-size="83" x="1257.39" y="978">box donnée </tspan><tspan font-weight="400" font-size="83" x="1678.55" y="978">et la valeur associée à celle</tspan><tspan font-weight="400" font-size="83" x="2586.12" y="978">-</tspan><tspan font-weight="400" font-size="83" x="2611.32" y="978">ci</tspan><tspan font-weight="400" font-size="83" x="228.496" y="1077">e</tspan><tspan font-weight="400" font-size="83" x="269.31" y="1077">t l’index </tspan><tspan font-weight="400" font-size="83" x="555.998" y="1077">donne la sortie </tspan>4 <tspan font-weight="400" font-size="83" x="1139.23" y="1077">bits</tspan><tspan fill="#00B0F0" font-weight="400" font-size="73" x="-1054.81" y="787">Les informaticiens aiment les</tspan><tspan fill="#00B0F0" font-weight="400" font-size="73" x="-988.855" y="875">tables de recherche </tspan><tspan fill="#00B0F0" font-weight="400" font-size="73" x="-386.788" y="875">du</tspan><tspan fill="#00B0F0" font-weight="400" font-size="73" x="-293.402" y="875">à</tspan><tspan fill="#00B0F0" font-weight="400" font-size="73" x="-887.655" y="963">la complexité </tspan><tspan fill="#00B0F0" font-size="73" x="-475.934" y="963">O(1)</tspan></text></g></svg>