<svg width="3602" height="2002" xmlns="http://www.w3.org/2000/svg" xmlns:xlink="http://www.w3.org/1999/xlink" overflow="hidden"><defs><clipPath id="clip0"><rect x="418" y="339" width="3602" height="2002"/></clipPath></defs><g clip-path="url(#clip0)" transform="translate(-418 -339)"><text font-family="Calibri,Calibri_MSFontService,sans-serif" font-weight="400" font-size="83" transform="matrix(1 0 0 1 615.703 441)">Que sont les <tspan font-weight="700" font-size="83" x="435.233" y="0">S</tspan><tspan font-weight="700" font-size="83" x="474.192" y="0">-</tspan><tspan font-weight="700" font-size="83" x="499.4" y="0">BOX </tspan><tspan font-size="83" x="662.727" y="0">?</tspan></text><path d="M615.703 450.338 790.953 450.338 966.203 450.338 1141.45 450.338 1316.7 450.338 1316.7 455.338 1141.45 455.338 966.203 455.338 790.953 455.338 615.703 455.338Z" fill-rule="evenodd"/><text fill="#00B0F0" font-family="Calibri,Calibri_MSFontService,sans-serif" font-weight="700" font-size="110" transform="matrix(1 0 0 1 1475.76 638)">0  1  1  0  1  1</text><path d="M421.171 1640.41 632.31 1640.41 632.31 1774.25 421.171 1774.25Z" fill="#5B9BD5" fill-rule="evenodd"/><path d="M632.31 1640.41 843.45 1640.41 843.45 1774.25 632.31 1774.25Z" fill="#5B9BD5" fill-rule="evenodd"/><path d="M843.45 1640.41 1054.59 1640.41 1054.59 1774.25 843.45 1774.25Z" fill="#5B9BD5" fill-rule="evenodd"/><path d="M1054.59 1640.41 1265.73 1640.41 1265.73 1774.25 1054.59 1774.25Z" fill="#5B9BD5" fill-rule="evenodd"/><path d="M1265.73 1640.41 1476.87 1640.41 1476.87 1774.25 1265.73 1774.25Z" fill="#5B9BD5" fill-rule="evenodd"/><path d="M1476.87 1640.41 1688.01 1640.41 1688.01 1774.25 1476.87 1774.25Z" fill="#5B9BD5" fill-rule="evenodd"/><path d="M1688.01 1640.41 1899.15 1640.41 1899.15 1774.25 1688.01 1774.25Z" fill="#5B9BD5" fill-rule="evenodd"/><path d="M1899.15 1640.41 2110.29 1640.41 2110.29 1774.25 1899.15 1774.25Z" fill="#5B9BD5" fill-rule="evenodd"/><path d="M2110.29 1640.41 2321.43 1640.41 2321.43 1774.25 2110.29 1774.25Z" fill="#5B9BD5" fill-rule="evenodd"/><path d="M2321.43 1640.41 2532.56 1640.41 2532.56 1774.25 2321.43 1774.25Z" fill="#5B9BD5" fill-rule="evenodd"/><path d="M2532.56 1640.41 2743.7 1640.41 2743.7 1774.25 2532.56 1774.25Z" fill="#5B9BD5" fill-rule="evenodd"/><path d="M2743.7 1640.41 2954.84 1640.41 2954.84 1774.25 2743.7 1774.25Z" fill="#5B9BD5" fill-rule="evenodd"/><path d="M2954.84 1640.41 3165.98 1640.41 3165.98 1774.25 2954.84 1774.25Z" fill="#5B9BD5" fill-rule="evenodd"/><path d="M3165.98 1640.41 3377.12 1640.41 3377.12 1774.25 3165.98 1774.25Z" fill="#5B9BD5" fill-rule="evenodd"/><path d="M3377.12 1640.41 3588.26 1640.41 3588.26 1774.25 3377.12 1774.25Z" fill="#FFFF00" fill-rule="evenodd"/><path d="M3588.26 1640.41 3799.4 1640.41 3799.4 1774.25 3588.26 1774.25Z" fill="#5B9BD5" fill-rule="evenodd"/><path d="M3799.4 1640.41 4010.54 1640.41 4010.54 1774.25 3799.4 1774.25Z" fill="#5B9BD5" fill-rule="evenodd"/><path d="M421.171 1774.25 632.31 1774.25 632.31 1908.08 421.171 1908.08Z" fill="#D2DEEF" fill-rule="evenodd"/><path d="M632.31 1774.25 843.45 1774.25 843.45 1908.08 632.31 1908.08Z" fill="#D2DEEF" fill-rule="evenodd"/><path d="M843.45 1774.25 1054.59 1774.25 1054.59 1908.08 843.45 1908.08Z" fill="#D2DEEF" fill-rule="evenodd"/><path d="M1054.59 1774.25 1265.73 1774.25 1265.73 1908.08 1054.59 1908.08Z" fill="#D2DEEF" fill-rule="evenodd"/><path d="M1265.73 1774.25 1476.87 1774.25 1476.87 1908.08 1265.73 1908.08Z" fill="#D2DEEF" fill-rule="evenodd"/><path d="M1476.87 1774.25 1688.01 1774.25 1688.01 1908.08 1476.87 1908.08Z" fill="#D2DEEF" fill-rule="evenodd"/><path d="M1688.01 1774.25 1899.15 1774.25 1899.15 1908.08 1688.01 1908.08Z" fill="#D2DEEF" fill-rule="evenodd"/><path d="M1899.15 1774.25 2110.29 1774.25 2110.29 1908.08 1899.15 1908.08Z" fill="#D2DEEF" fill-rule="evenodd"/><path d="M2110.29 1774.25 2321.43 1774.25 2321.43 1908.08 2110.29 1908.08Z" fill="#D2DEEF" fill-rule="evenodd"/><path d="M2321.43 1774.25 2532.56 1774.25 2532.56 1908.08 2321.43 1908.08Z" fill="#D2DEEF" fill-rule="evenodd"/><path d="M2532.56 1774.25 2743.7 1774.25 2743.7 1908.08 2532.56 1908.08Z" fill="#D2DEEF" fill-rule="evenodd"/><path d="M2743.7 1774.25 2954.84 1774.25 2954.84 1908.08 2743.7 1908.08Z" fill="#D2DEEF" fill-rule="evenodd"/><path d="M2954.84 1774.25 3165.98 1774.25 3165.98 1908.08 2954.84 1908.08Z" fill="#D2DEEF" fill-rule="evenodd"/><path d="M3165.98 1774.25 3377.12 1774.25 3377.12 1908.08 3165.98 1908.08Z" fill="#D2DEEF" fill-rule="evenodd"/><path d="M3377.12 1774.25 3588.26 1774.25 3588.26 1908.08 3377.12 1908.08Z" fill="#FFFF00" fill-rule="evenodd"/><path d="M3588.26 1774.25 3799.4 1774.25 3799.4 1908.08 3588.26 1908.08Z" fill="#D2DEEF" fill-rule="evenodd"/><path d="M3799.4 1774.25 4010.54 1774.25 4010.54 1908.08 3799.4 1908.08Z" fill="#D2DEEF" fill-rule="evenodd"/><path d="M421.171 1908.08 632.31 1908.08 632.31 2041.91 421.171 2041.91Z" fill="#FFFF00" fill-rule="evenodd"/><path d="M632.31 1908.08 843.45 1908.08 843.45 2041.91 632.31 2041.91Z" fill="#FFFF00" fill-rule="evenodd"/><path d="M843.45 1908.08 1054.59 1908.08 1054.59 2041.91 843.45 2041.91Z" fill="#FFFF00" fill-rule="evenodd"/><path d="M1054.59 1908.08 1265.73 1908.08 1265.73 2041.91 1054.59 2041.91Z" fill="#FFFF00" fill-rule="evenodd"/><path d="M1265.73 1908.08 1476.87 1908.08 1476.87 2041.91 1265.73 2041.91Z" fill="#FFFF00" fill-rule="evenodd"/><path d="M1476.87 1908.08 1688.01 1908.08 1688.01 2041.91 1476.87 2041.91Z" fill="#FFFF00" fill-rule="evenodd"/><path d="M1688.01 1908.08 1899.15 1908.08 1899.15 2041.91 1688.01 2041.91Z" fill="#FFFF00" fill-rule="evenodd"/><path d="M1899.15 1908.08 2110.29 1908.08 2110.29 2041.91 1899.15 2041.91Z" fill="#FFFF00" fill-rule="evenodd"/><path d="M2110.29 1908.08 2321.43 1908.08 2321.43 2041.91 2110.29 2041.91Z" fill="#FFFF00" fill-rule="evenodd"/><path d="M2321.43 1908.08 2532.56 1908.08 2532.56 2041.91 2321.43 2041.91Z" fill="#FFFF00" fill-rule="evenodd"/><path d="M2532.56 1908.08 2743.7 1908.08 2743.7 2041.91 2532.56 2041.91Z" fill="#FFFF00" fill-rule="evenodd"/><path d="M2743.7 1908.08 2954.84 1908.08 2954.84 2041.91 2743.7 2041.91Z" fill="#FFFF00" fill-rule="evenodd"/><path d="M2954.84 1908.08 3165.98 1908.08 3165.98 2041.91 2954.84 2041.91Z" fill="#FFFF00" fill-rule="evenodd"/><path d="M3165.98 1908.08 3377.12 1908.08 3377.12 2041.91 3165.98 2041.91Z" fill="#FFFF00" fill-rule="evenodd"/><path d="M3377.12 1908.08 3588.26 1908.08 3588.26 2041.91 3377.12 2041.91Z" fill="#FFFF00" fill-rule="evenodd"/><path d="M3588.26 1908.08 3799.4 1908.08 3799.4 2041.91 3588.26 2041.91Z" fill="#FFFF00" fill-rule="evenodd"/><path d="M3799.4 1908.08 4010.54 1908.08 4010.54 2041.91 3799.4 2041.91Z" fill="#FFFF00" fill-rule="evenodd"/><path d="M421.171 2041.91 632.31 2041.91 632.31 2175.75 421.171 2175.75Z" fill="#D2DEEF" fill-rule="evenodd"/><path d="M632.31 2041.91 843.45 2041.91 843.45 2175.75 632.31 2175.75Z" fill="#D2DEEF" fill-rule="evenodd"/><path d="M843.45 2041.91 1054.59 2041.91 1054.59 2175.75 843.45 2175.75Z" fill="#D2DEEF" fill-rule="evenodd"/><path d="M1054.59 2041.91 1265.73 2041.91 1265.73 2175.75 1054.59 2175.75Z" fill="#D2DEEF" fill-rule="evenodd"/><path d="M1265.73 2041.91 1476.87 2041.91 1476.87 2175.75 1265.73 2175.75Z" fill="#D2DEEF" fill-rule="evenodd"/><path d="M1476.87 2041.91 1688.01 2041.91 1688.01 2175.75 1476.87 2175.75Z" fill="#D2DEEF" fill-rule="evenodd"/><path d="M1688.01 2041.91 1899.15 2041.91 1899.15 2175.75 1688.01 2175.75Z" fill="#D2DEEF" fill-rule="evenodd"/><path d="M1899.15 2041.91 2110.29 2041.91 2110.29 2175.75 1899.15 2175.75Z" fill="#D2DEEF" fill-rule="evenodd"/><path d="M2110.29 2041.91 2321.43 2041.91 2321.43 2175.75 2110.29 2175.75Z" fill="#D2DEEF" fill-rule="evenodd"/><path d="M2321.43 2041.91 2532.56 2041.91 2532.56 2175.75 2321.43 2175.75Z" fill="#D2DEEF" fill-rule="evenodd"/><path d="M2532.56 2041.91 2743.7 2041.91 2743.7 2175.75 2532.56 2175.75Z" fill="#D2DEEF" fill-rule="evenodd"/><path d="M2743.7 2041.91 2954.84 2041.91 2954.84 2175.75 2743.7 2175.75Z" fill="#D2DEEF" fill-rule="evenodd"/><path d="M2954.84 2041.91 3165.98 2041.91 3165.98 2175.75 2954.84 2175.75Z" fill="#D2DEEF" fill-rule="evenodd"/><path d="M3165.98 2041.91 3377.12 2041.91 3377.12 2175.75 3165.98 2175.75Z" fill="#D2DEEF" fill-rule="evenodd"/><path d="M3377.12 2041.91 3588.26 2041.91 3588.26 2175.75 3377.12 2175.75Z" fill="#FFFF00" fill-rule="evenodd"/><path d="M3588.26 2041.91 3799.4 2041.91 3799.4 2175.75 3588.26 2175.75Z" fill="#D2DEEF" fill-rule="evenodd"/><path d="M3799.4 2041.91 4010.54 2041.91 4010.54 2175.75 3799.4 2175.75Z" fill="#D2DEEF" fill-rule="evenodd"/><path d="M421.171 2175.75 632.31 2175.75 632.31 2309.58 421.171 2309.58Z" fill="#EAEFF7" fill-rule="evenodd"/><path d="M632.31 2175.75 843.45 2175.75 843.45 2309.58 632.31 2309.58Z" fill="#EAEFF7" fill-rule="evenodd"/><path d="M843.45 2175.75 1054.59 2175.75 1054.59 2309.58 843.45 2309.58Z" fill="#EAEFF7" fill-rule="evenodd"/><path d="M1054.59 2175.75 1265.73 2175.75 1265.73 2309.58 1054.59 2309.58Z" fill="#EAEFF7" fill-rule="evenodd"/><path d="M1265.73 2175.75 1476.87 2175.75 1476.87 2309.58 1265.73 2309.58Z" fill="#EAEFF7" fill-rule="evenodd"/><path d="M1476.87 2175.75 1688.01 2175.75 1688.01 2309.58 1476.87 2309.58Z" fill="#EAEFF7" fill-rule="evenodd"/><path d="M1688.01 2175.75 1899.15 2175.75 1899.15 2309.58 1688.01 2309.58Z" fill="#EAEFF7" fill-rule="evenodd"/><path d="M1899.15 2175.75 2110.29 2175.75 2110.29 2309.58 1899.15 2309.58Z" fill="#EAEFF7" fill-rule="evenodd"/><path d="M2110.29 2175.75 2321.43 2175.75 2321.43 2309.58 2110.29 2309.58Z" fill="#EAEFF7" fill-rule="evenodd"/><path d="M2321.43 2175.75 2532.56 2175.75 2532.56 2309.58 2321.43 2309.58Z" fill="#EAEFF7" fill-rule="evenodd"/><path d="M2532.56 2175.75 2743.7 2175.75 2743.7 2309.58 2532.56 2309.58Z" fill="#EAEFF7" fill-rule="evenodd"/><path d="M2743.7 2175.75 2954.84 2175.75 2954.84 2309.58 2743.7 2309.58Z" fill="#EAEFF7" fill-rule="evenodd"/><path d="M2954.84 2175.75 3165.98 2175.75 3165.98 2309.58 2954.84 2309.58Z" fill="#EAEFF7" fill-rule="evenodd"/><path d="M3165.98 2175.75 3377.12 2175.75 3377.12 2309.58 3165.98 2309.58Z" fill="#EAEFF7" fill-rule="evenodd"/><path d="M3377.12 2175.75 3588.26 2175.75 3588.26 2309.58 3377.12 2309.58Z" fill="#FFFF00" fill-rule="evenodd"/><path d="M3588.26 2175.75 3799.4 2175.75 3799.4 2309.58 3588.26 2309.58Z" fill="#EAEFF7" fill-rule="evenodd"/><path d="M3799.4 2175.75 4010.54 2175.75 4010.54 2309.58 3799.4 2309.58Z" fill="#EAEFF7" fill-rule="evenodd"/><path d="M632.31 1638.12 632.31 2311.87" stroke="#FFFFFF" stroke-width="4.58333" stroke-linejoin="round" stroke-miterlimit="10" fill="none" fill-rule="evenodd"/><path d="M843.45 1638.12 843.45 2311.87" stroke="#FFFFFF" stroke-width="4.58333" stroke-linejoin="round" stroke-miterlimit="10" fill="none" fill-rule="evenodd"/><path d="M1054.59 1638.12 1054.59 2311.87" stroke="#FFFFFF" stroke-width="4.58333" stroke-linejoin="round" stroke-miterlimit="10" fill="none" fill-rule="evenodd"/><path d="M1265.73 1638.12 1265.73 2311.87" stroke="#FFFFFF" stroke-width="4.58333" stroke-linejoin="round" stroke-miterlimit="10" fill="none" fill-rule="evenodd"/><path d="M1476.87 1638.12 1476.87 2311.87" stroke="#FFFFFF" stroke-width="4.58333" stroke-linejoin="round" stroke-miterlimit="10" fill="none" fill-rule="evenodd"/><path d="M1688.01 1638.12 1688.01 2311.87" stroke="#FFFFFF" stroke-width="4.58333" stroke-linejoin="round" stroke-miterlimit="10" fill="none" fill-rule="evenodd"/><path d="M1899.15 1638.12 1899.15 2311.87" stroke="#FFFFFF" stroke-width="4.58333" stroke-linejoin="round" stroke-miterlimit="10" fill="none" fill-rule="evenodd"/><path d="M2110.29 1638.12 2110.29 2311.87" stroke="#FFFFFF" stroke-width="4.58333" stroke-linejoin="round" stroke-miterlimit="10" fill="none" fill-rule="evenodd"/><path d="M2321.43 1638.12 2321.43 2311.87" stroke="#FFFFFF" stroke-width="4.58333" stroke-linejoin="round" stroke-miterlimit="10" fill="none" fill-rule="evenodd"/><path d="M2532.56 1638.12 2532.56 2311.87" stroke="#FFFFFF" stroke-width="4.58333" stroke-linejoin="round" stroke-miterlimit="10" fill="none" fill-rule="evenodd"/><path d="M2743.7 1638.12 2743.7 2311.87" stroke="#FFFFFF" stroke-width="4.58333" stroke-linejoin="round" stroke-miterlimit="10" fill="none" fill-rule="evenodd"/><path d="M2954.84 1638.12 2954.84 2311.87" stroke="#FFFFFF" stroke-width="4.58333" stroke-linejoin="round" stroke-miterlimit="10" fill="none" fill-rule="evenodd"/><path d="M3165.98 1638.12 3165.98 2311.87" stroke="#FFFFFF" stroke-width="4.58333" stroke-linejoin="round" stroke-miterlimit="10" fill="none" fill-rule="evenodd"/><path d="M3377.12 1638.12 3377.12 2311.87" stroke="#FFFFFF" stroke-width="4.58333" stroke-linejoin="round" stroke-miterlimit="10" fill="none" fill-rule="evenodd"/><path d="M3588.26 1638.12 3588.26 2311.87" stroke="#FFFFFF" stroke-width="4.58333" stroke-linejoin="round" stroke-miterlimit="10" fill="none" fill-rule="evenodd"/><path d="M3799.4 1638.12 3799.4 2311.87" stroke="#FFFFFF" stroke-width="4.58333" stroke-linejoin="round" stroke-miterlimit="10" fill="none" fill-rule="evenodd"/><path d="M418.879 1774.25 4012.83 1774.25" stroke="#FFFFFF" stroke-width="13.75" stroke-linejoin="round" stroke-miterlimit="10" fill="none" fill-rule="evenodd"/><path d="M418.879 1908.08 4012.83 1908.08" stroke="#FFFFFF" stroke-width="4.58333" stroke-linejoin="round" stroke-miterlimit="10" fill="none" fill-rule="evenodd"/><path d="M418.879 2041.91 4012.83 2041.91" stroke="#FFFFFF" stroke-width="4.58333" stroke-linejoin="round" stroke-miterlimit="10" fill="none" fill-rule="evenodd"/><path d="M418.879 2175.75 4012.83 2175.75" stroke="#FFFFFF" stroke-width="4.58333" stroke-linejoin="round" stroke-miterlimit="10" fill="none" fill-rule="evenodd"/><path d="M421.171 1638.12 421.171 2311.87" stroke="#FFFFFF" stroke-width="4.58333" stroke-linejoin="round" stroke-miterlimit="10" fill="none" fill-rule="evenodd"/><path d="M4010.54 1638.12 4010.54 2311.87" stroke="#FFFFFF" stroke-width="4.58333" stroke-linejoin="round" stroke-miterlimit="10" fill="none" fill-rule="evenodd"/><path d="M418.879 1640.41 4012.83 1640.41" stroke="#FFFFFF" stroke-width="4.58333" stroke-linejoin="round" stroke-miterlimit="10" fill="none" fill-rule="evenodd"/><path d="M418.879 2309.58 4012.83 2309.58" stroke="#FFFFFF" stroke-width="4.58333" stroke-linejoin="round" stroke-miterlimit="10" fill="none" fill-rule="evenodd"/><text fill="#FFFFFF" font-family="Calibri,Calibri_MSFontService,sans-serif" font-weight="700" font-size="55" transform="matrix(1 0 0 1 457.211 1708)">S<tspan font-size="55" x="25.7813" y="0">-</tspan><tspan font-size="55" x="42.3958" y="0">BOX</tspan><tspan font-size="64" x="215.356" y="9">0000</tspan><tspan font-size="64" x="426.495" y="9">0001</tspan><tspan font-size="64" x="637.635" y="9">0010</tspan><tspan font-size="64" x="848.774" y="9">0011</tspan><tspan font-size="64" x="1059.91" y="9">0100</tspan><tspan font-size="64" x="1271.05" y="9">0101</tspan><tspan font-size="64" x="1482.19" y="9">0110</tspan><tspan font-size="64" x="1693.33" y="9">0111</tspan><tspan font-size="64" x="1904.47" y="9">1000</tspan><tspan font-size="64" x="2115.61" y="9">1001</tspan><tspan font-size="64" x="2326.75" y="9">1010</tspan><tspan font-size="64" x="2537.89" y="9">1011</tspan><tspan font-size="64" x="2749.03" y="9">1100</tspan><tspan fill="#000000" font-size="64" x="2960.17" y="9">1101</tspan><tspan font-size="64" x="3171.31" y="9">1110</tspan><tspan font-size="64" x="3382.45" y="9">1111</tspan><tspan fill="#000000" font-size="83" x="27.7061" y="160">00</tspan><tspan fill="#000000" font-size="64" x="215.356" y="143">0010</tspan><tspan fill="#000000" font-size="64" x="426.495" y="143">0100</tspan><tspan fill="#000000" font-size="64" x="637.635" y="143">1001</tspan><tspan fill="#000000" font-size="64" x="848.774" y="143">1011</tspan><tspan fill="#000000" font-size="64" x="1059.91" y="143">1111</tspan><tspan fill="#000000" font-size="64" x="1271.05" y="143">1011</tspan><tspan fill="#000000" font-size="64" x="1482.19" y="143">0010</tspan><tspan fill="#000000" font-size="64" x="1693.33" y="143">1011</tspan><tspan fill="#000000" font-size="64" x="1904.47" y="143">1110</tspan><tspan fill="#000000" font-size="64" x="2115.61" y="143">1111</tspan><tspan fill="#000000" font-size="64" x="2326.75" y="143">1111</tspan><tspan fill="#000000" font-size="64" x="2537.89" y="143">1011</tspan><tspan fill="#000000" font-size="64" x="2749.03" y="143">1010</tspan><tspan fill="#000000" font-size="64" x="2960.17" y="143">0100</tspan><tspan fill="#000000" font-size="64" x="3171.31" y="143">0110</tspan><tspan fill="#000000" font-size="64" x="3382.45" y="143">0001</tspan><tspan fill="#000000" font-size="83" x="27.7061" y="294">01</tspan><tspan fill="#000000" font-size="64" x="215.356" y="277">0010</tspan><tspan fill="#000000" font-size="64" x="426.495" y="277">0100</tspan><tspan fill="#000000" font-size="64" x="637.635" y="277">1001</tspan><tspan fill="#000000" font-size="64" x="848.774" y="277">1011</tspan><tspan fill="#000000" font-size="64" x="1059.91" y="277">1111</tspan><tspan fill="#000000" font-size="64" x="1271.05" y="277">1011</tspan><tspan fill="#000000" font-size="64" x="1482.19" y="277">0010</tspan><tspan fill="#000000" font-size="64" x="1693.33" y="277">1011</tspan><tspan fill="#000000" font-size="64" x="1904.47" y="277">1110</tspan><tspan fill="#000000" font-size="64" x="2115.61" y="277">1111</tspan><tspan fill="#000000" font-size="64" x="2326.75" y="277">1111</tspan><tspan fill="#000000" font-size="64" x="2537.89" y="277">1011</tspan><tspan fill="#000000" font-size="64" x="2749.03" y="277">1010</tspan><tspan fill="#00B050" font-size="64" x="2960.17" y="277">0100</tspan><tspan fill="#000000" font-size="64" x="3171.31" y="277">0110</tspan><tspan fill="#000000" font-size="64" x="3382.45" y="277">0001</tspan><tspan fill="#000000" font-size="83" x="27.7061" y="427">10</tspan><tspan fill="#000000" font-size="64" x="215.356" y="410">0010</tspan><tspan fill="#000000" font-size="64" x="426.495" y="410">0100</tspan><tspan fill="#000000" font-size="64" x="637.635" y="410">1001</tspan><tspan fill="#000000" font-size="64" x="848.774" y="410">1011</tspan><tspan fill="#000000" font-size="64" x="1059.91" y="410">1111</tspan><tspan fill="#000000" font-size="64" x="1271.05" y="410">1011</tspan><tspan fill="#000000" font-size="64" x="1482.19" y="410">0010</tspan><tspan fill="#000000" font-size="64" x="1693.33" y="410">1011</tspan><tspan fill="#000000" font-size="64" x="1904.47" y="410">1110</tspan><tspan fill="#000000" font-size="64" x="2115.61" y="410">1111</tspan><tspan fill="#000000" font-size="64" x="2326.75" y="410">1111</tspan><tspan fill="#000000" font-size="64" x="2537.89" y="410">1011</tspan><tspan fill="#000000" font-size="64" x="2749.03" y="410">1010</tspan><tspan fill="#000000" font-size="64" x="2960.17" y="410">0100</tspan><tspan fill="#000000" font-size="64" x="3171.31" y="410">0110</tspan><tspan fill="#000000" font-size="64" x="3382.45" y="410">0001</tspan><tspan fill="#000000" font-size="83" x="27.7061" y="561">11</tspan><tspan fill="#000000" font-size="64" x="215.356" y="544">0010</tspan><tspan fill="#000000" font-size="64" x="426.495" y="544">0100</tspan><tspan fill="#000000" font-size="64" x="637.635" y="544">1001</tspan><tspan fill="#000000" font-size="64" x="848.774" y="544">1011</tspan><tspan fill="#000000" font-size="64" x="1059.91" y="544">1111</tspan><tspan fill="#000000" font-size="64" x="1271.05" y="544">1011</tspan><tspan fill="#000000" font-size="64" x="1482.19" y="544">0010</tspan><tspan fill="#000000" font-size="64" x="1693.33" y="544">1011</tspan><tspan fill="#000000" font-size="64" x="1904.47" y="544">1110</tspan><tspan fill="#000000" font-size="64" x="2115.61" y="544">1111</tspan><tspan fill="#000000" font-size="64" x="2326.75" y="544">1111</tspan><tspan fill="#000000" font-size="64" x="2537.89" y="544">1011</tspan><tspan fill="#000000" font-size="64" x="2749.03" y="544">1010</tspan><tspan fill="#000000" font-size="64" x="2960.17" y="544">0100</tspan><tspan fill="#000000" font-size="64" x="3171.31" y="544">0110</tspan><tspan fill="#000000" font-size="64" x="3382.45" y="544">0001</tspan><tspan fill="#000000" font-weight="400" font-size="83" x="524.167" y="-908">Le bit le moins significatif ( </tspan><tspan fill="#000000" font-size="83" x="1434.23" y="-908">LSB </tspan><tspan fill="#000000" font-weight="400" font-size="83" x="1573.45" y="-908">) et le bit le plus significatif ( </tspan><tspan fill="#000000" font-size="83" x="2532.93" y="-908">MSB </tspan><tspan fill="#000000" font-weight="400" font-size="83" x="2709.39" y="-908">)</tspan><tspan fill="#000000" font-weight="400" font-size="83" x="524.167" y="-809">définit l'index de ligne dans la </tspan><tspan fill="#000000" font-size="83" x="1537.98" y="-809">s</tspan><tspan fill="#000000" font-size="83" x="1570.63" y="-809">-</tspan><tspan fill="#000000" font-size="83" x="1595.84" y="-809">box </tspan><tspan fill="#000000" font-weight="400" font-size="83" x="1739.14" y="-809">(qui est une table de recherche)</tspan><tspan fill="#000000" font-size="92" x="561.979" y="-601">01 </tspan><tspan fill="#000000" font-family="Wingdings,Wingdings_MSFontService,sans-serif" font-size="92" x="675.417" y="-601"></tspan><tspan fill="#000000" font-weight="400" font-size="92" x="785.99" y="-601">il identifie la ligne dans la </tspan><tspan fill="#000000" font-size="92" x="1748.21" y="-601">s</tspan><tspan fill="#000000" font-size="92" x="1784.88" y="-601">-</tspan><tspan fill="#000000" font-size="92" x="1812.95" y="-601">box</tspan><tspan fill="#000000" font-weight="400" font-size="92" x="524.167" y="-382">Les </tspan><tspan fill="#000000" font-size="92" x="665.104" y="-382">4 </tspan><tspan fill="#000000" font-weight="400" font-size="92" x="732.136" y="-382">bits du milieu définissent l'index de colonne dans la </tspan><tspan fill="#000000" font-size="92" x="2665.36" y="-382">s</tspan><tspan fill="#000000" font-size="92" x="2702.03" y="-382">-</tspan><tspan fill="#000000" font-size="92" x="2730.1" y="-382">box</tspan><tspan fill="#000000" font-size="92" x="524.167" y="-161">1101 </tspan><tspan fill="#000000" font-family="Wingdings,Wingdings_MSFontService,sans-serif" font-size="92" x="730.417" y="-161"></tspan><tspan fill="#000000" font-weight="400" font-size="92" x="840.99" y="-161">il définit la colonne dans la </tspan><tspan fill="#000000" font-size="92" x="1854.64" y="-161">s</tspan><tspan fill="#000000" font-size="92" x="1891.31" y="-161">-</tspan><tspan fill="#000000" font-size="92" x="1919.38" y="-161">box</tspan></text></g></svg>