<svg width="4437" height="1647" xmlns="http://www.w3.org/2000/svg" xmlns:xlink="http://www.w3.org/1999/xlink" overflow="hidden"><defs><clipPath id="clip0"><rect x="123" y="526" width="4437" height="1647"/></clipPath></defs><g clip-path="url(#clip0)" transform="translate(-123 -526)"><path d="M123 1484.12 1939.13 1484.13 1939.13 1497.88 123 1497.87ZM1932.26 1470.38 1973.51 1491 1932.26 1511.63Z" fill="#7F7F7F"/><path d="M6.875-1.72665e-06 6.87535 1402.59-6.87465 1402.59-6.875 1.72665e-06ZM20.6254 1395.71 0.000360892 1436.96-20.6246 1395.71Z" fill="#7F7F7F" transform="matrix(1 0 0 -1 773 2165.96)"/><path d="M1516.26 802.5C1400.69 997.693 1285.13 1192.89 1164.95 1244.62 1044.77 1296.36 910.714 1070.6 795.153 1112.93 679.591 1155.26 476.203 1368.48 471.581 1498.61 466.959 1628.74 661.101 1854.5 767.418 1893.7 873.734 1932.9 983.132 1688.32 1109.48 1733.78 1235.83 1779.25 1380.66 1972.87 1525.5 2166.5" stroke="#FFC000" stroke-width="20.625" stroke-miterlimit="8" fill="none" fill-rule="evenodd"/><text fill="#595959" font-family="Calibri,Calibri_MSFontService,sans-serif" font-weight="700" font-size="110" transform="matrix(1 0 0 1 2148.89 1041)">1<tspan font-weight="400" font-size="110" x="55.573" y="0">.) Les courbes elliptiques sont symétriques le            </tspan><tspan font-weight="400" font-size="110" x="330" y="119">long de l’axe des </tspan><tspan font-size="110" x="1085.77" y="119">x</tspan><tspan font-weight="400" font-size="110" x="1160.82" y="119">: </tspan><tspan font-size="110" x="1214.68" y="119">-</tspan><tspan font-size="110" x="1248.48" y="119">P(x,y) = P(x,</tspan><tspan font-size="110" x="1783.01" y="119">-</tspan><tspan font-size="110" x="1816.81" y="119">y)</tspan><tspan font-size="110" x="0" y="356">2.) </tspan><tspan font-weight="400" font-size="110" x="143.802" y="356">Une ligne droite rencontre l’axe des x</tspan><tspan font-weight="400" font-size="110" x="502.448" y="475">soit à </tspan>1<tspan font-weight="400" font-size="110" x="847.344" y="475">ou </tspan><tspan font-size="110" x="987.709" y="475">3</tspan><tspan font-weight="400" font-size="110" x="1067.92" y="475">points</tspan><tspan font-size="110" x="0" y="713">3.) </tspan><tspan font-weight="400" font-size="110" x="143.802" y="713">Les courbes elliptiques ne sont pas singulières    </tspan><tspan font-weight="400" font-size="110" x="330" y="831">(si l’on suppose que </tspan><tspan font-size="110" x="1233.56" y="831">4a³ + 27b² ≠ 0</tspan><tspan font-weight="400" font-size="110" x="1852.31" y="831">)</tspan><tspan fill="#7F7F7F" font-size="110" x="-130.085" y="479">x</tspan><tspan fill="#7F7F7F" font-size="110" x="-1402.76" y="-379">y</tspan></text></g></svg>