<svg width="3699" height="1757" xmlns="http://www.w3.org/2000/svg" xmlns:xlink="http://www.w3.org/1999/xlink" overflow="hidden"><defs><clipPath id="clip0"><rect x="455" y="414" width="3699" height="1757"/></clipPath></defs><g clip-path="url(#clip0)" transform="translate(-455 -414)"><rect x="602.5" y="717.5" width="200" height="200" stroke="#000000" stroke-width="4.58333" stroke-miterlimit="8" fill="#FFFFFF"/><rect x="802.5" y="717.5" width="200" height="200" stroke="#000000" stroke-width="4.58333" stroke-miterlimit="8" fill="#FFFFFF"/><rect x="1002.5" y="717.5" width="200" height="200" stroke="#000000" stroke-width="4.58333" stroke-miterlimit="8" fill="#FFFFFF"/><rect x="1202.5" y="717.5" width="200" height="200" stroke="#000000" stroke-width="4.58333" stroke-miterlimit="8" fill="#FFFFFF"/><rect x="602.5" y="917.5" width="200" height="200" stroke="#000000" stroke-width="4.58333" stroke-miterlimit="8" fill="#FFFFFF"/><rect x="802.5" y="917.5" width="200" height="200" stroke="#000000" stroke-width="4.58333" stroke-miterlimit="8" fill="#FFFFFF"/><rect x="1002.5" y="917.5" width="200" height="200" stroke="#000000" stroke-width="4.58333" stroke-miterlimit="8" fill="#FFFFFF"/><rect x="1202.5" y="917.5" width="200" height="200" stroke="#000000" stroke-width="4.58333" stroke-miterlimit="8" fill="#FFFFFF"/><rect x="602.5" y="1117.5" width="200" height="200" stroke="#000000" stroke-width="4.58333" stroke-miterlimit="8" fill="#FFFFFF"/><rect x="802.5" y="1117.5" width="200" height="200" stroke="#000000" stroke-width="4.58333" stroke-miterlimit="8" fill="#FFFFFF"/><rect x="1002.5" y="1117.5" width="200" height="200" stroke="#000000" stroke-width="4.58333" stroke-miterlimit="8" fill="#FFFFFF"/><rect x="1202.5" y="1117.5" width="200" height="200" stroke="#000000" stroke-width="4.58333" stroke-miterlimit="8" fill="#FFFFFF"/><rect x="602.5" y="1317.5" width="200" height="199" stroke="#000000" stroke-width="4.58333" stroke-miterlimit="8" fill="#FFFFFF"/><rect x="802.5" y="1317.5" width="200" height="199" stroke="#000000" stroke-width="4.58333" stroke-miterlimit="8" fill="#FFFFFF"/><rect x="1002.5" y="1317.5" width="200" height="199" stroke="#000000" stroke-width="4.58333" stroke-miterlimit="8" fill="#FFFFFF"/><rect x="1202.5" y="1317.5" width="200" height="199" stroke="#000000" stroke-width="4.58333" stroke-miterlimit="8" fill="#FFFFFF"/><text font-family="Calibri,Calibri_MSFontService,sans-serif" font-weight="700" font-size="128" transform="matrix(1 0 0 1 662.134 835)">p<tspan font-size="73" x="42.2507" y="58">0</tspan><tspan font-size="128" x="7.30011" y="203">p</tspan><tspan font-size="73" x="49.5509" y="261">1</tspan><tspan font-size="128" x="196.05" y="204">p</tspan><tspan font-size="73" x="238.301" y="262">5</tspan><tspan font-size="128" x="200.947" y="-3">p</tspan><tspan font-size="73" x="243.197" y="55">4</tspan><tspan font-size="128" x="0" y="394">p</tspan><tspan font-size="73" x="42.2507" y="452">2</tspan><tspan font-size="128" x="0.656128" y="587">p</tspan><tspan font-size="73" x="42.9069" y="645">3</tspan><tspan font-size="128" x="185.617" y="392">p</tspan><tspan font-size="73" x="229.894" y="447">6</tspan><tspan font-size="128" x="190.039" y="592">p</tspan><tspan font-size="73" x="232.29" y="650">7</tspan><tspan font-size="128" x="397.406" y="5">p</tspan><tspan font-size="73" x="439.657" y="63">8</tspan><tspan font-size="128" x="404.707" y="208">p</tspan><tspan font-size="73" x="446.957" y="266">9</tspan><tspan font-size="128" x="593.456" y="209">p</tspan><tspan font-size="73" x="635.707" y="267">13</tspan><tspan font-size="128" x="598.353" y="2">p</tspan><tspan font-size="128" x="397.406" y="399">p</tspan><tspan font-size="73" x="439.657" y="457">10</tspan><tspan font-size="128" x="398.063" y="592">p</tspan><tspan font-size="73" x="440.313" y="650">11</tspan><tspan font-size="128" x="583.023" y="397">p</tspan><tspan font-size="73" x="627.3" y="452">14</tspan><tspan font-size="128" x="587.446" y="597">p</tspan><tspan font-size="73" x="629.697" y="655">15</tspan><tspan font-size="73" x="635.96" y="69">12</tspan></text><rect x="1567.5" y="717.5" width="200" height="200" stroke="#000000" stroke-width="4.58333" stroke-miterlimit="8" fill="#FFFFFF"/><rect x="1767.5" y="717.5" width="199" height="200" stroke="#000000" stroke-width="4.58333" stroke-miterlimit="8" fill="#FFFFFF"/><rect x="1966.5" y="717.5" width="200" height="200" stroke="#000000" stroke-width="4.58333" stroke-miterlimit="8" fill="#FFFFFF"/><rect x="2166.5" y="717.5" width="200" height="200" stroke="#000000" stroke-width="4.58333" stroke-miterlimit="8" fill="#FFFFFF"/><rect x="1567.5" y="917.5" width="200" height="200" stroke="#000000" stroke-width="4.58333" stroke-miterlimit="8" fill="#FFFFFF"/><rect x="1767.5" y="917.5" width="199" height="200" stroke="#000000" stroke-width="4.58333" stroke-miterlimit="8" fill="#FFFFFF"/><rect x="1966.5" y="917.5" width="200" height="200" stroke="#000000" stroke-width="4.58333" stroke-miterlimit="8" fill="#FFFFFF"/><rect x="2166.5" y="917.5" width="200" height="200" stroke="#000000" stroke-width="4.58333" stroke-miterlimit="8" fill="#FFFFFF"/><rect x="1567.5" y="1117.5" width="200" height="200" stroke="#000000" stroke-width="4.58333" stroke-miterlimit="8" fill="#FFFFFF"/><rect x="1767.5" y="1117.5" width="199" height="200" stroke="#000000" stroke-width="4.58333" stroke-miterlimit="8" fill="#FFFFFF"/><rect x="1966.5" y="1117.5" width="200" height="200" stroke="#000000" stroke-width="4.58333" stroke-miterlimit="8" fill="#FFFFFF"/><rect x="2166.5" y="1117.5" width="200" height="200" stroke="#000000" stroke-width="4.58333" stroke-miterlimit="8" fill="#FFFFFF"/><rect x="1567.5" y="1317.5" width="200" height="199" stroke="#000000" stroke-width="4.58333" stroke-miterlimit="8" fill="#FFFFFF"/><rect x="1767.5" y="1317.5" width="199" height="199" stroke="#000000" stroke-width="4.58333" stroke-miterlimit="8" fill="#FFFFFF"/><rect x="1966.5" y="1317.5" width="200" height="199" stroke="#000000" stroke-width="4.58333" stroke-miterlimit="8" fill="#FFFFFF"/><rect x="2166.5" y="1317.5" width="200" height="199" stroke="#000000" stroke-width="4.58333" stroke-miterlimit="8" fill="#FFFFFF"/><text font-family="Calibri,Calibri_MSFontService,sans-serif" font-weight="700" font-size="128" transform="matrix(1 0 0 1 1626.4 844)">k<tspan font-size="73" x="63.4435" y="49">0</tspan><tspan font-size="128" x="7.30017" y="203">k</tspan><tspan font-size="73" x="70.7437" y="252">1</tspan><tspan font-size="128" x="196.05" y="204">k</tspan><tspan font-size="73" x="259.493" y="253">5</tspan><tspan font-size="128" x="200.947" y="-3">k</tspan><tspan font-size="73" x="264.39" y="46">4</tspan><tspan font-size="128" x="0" y="394">k</tspan><tspan font-size="73" x="63.4435" y="443">2</tspan><tspan font-size="128" x="0.656128" y="587">k</tspan><tspan font-size="73" x="64.0996" y="636">3</tspan><tspan font-size="128" x="185.617" y="392">k</tspan><tspan font-size="73" x="251.086" y="438">6</tspan><tspan font-size="128" x="190.039" y="592">k</tspan><tspan font-size="73" x="253.483" y="641">7</tspan><tspan font-size="128" x="397.406" y="5">k</tspan><tspan font-size="73" x="460.85" y="54">8</tspan><tspan font-size="128" x="404.707" y="208">k</tspan><tspan font-size="73" x="468.15" y="257">9</tspan><tspan font-size="128" x="593.456" y="209">k</tspan><tspan font-size="73" x="647.817" y="255">13</tspan><tspan font-size="128" x="598.353" y="2">k</tspan><tspan font-size="128" x="397.406" y="399">k</tspan><tspan font-size="73" x="457.822" y="445">10</tspan><tspan font-size="128" x="398.063" y="592">k</tspan><tspan font-size="73" x="458.479" y="638">11</tspan><tspan font-size="128" x="583.023" y="397">k</tspan><tspan font-size="73" x="639.41" y="440">14</tspan><tspan font-size="128" x="587.446" y="597">k</tspan><tspan font-size="73" x="647.862" y="643">15</tspan><tspan font-size="73" x="648.07" y="54">12</tspan><tspan font-weight="400" font-size="83" x="984.711" y="250">O</tspan><tspan font-weight="400" font-size="83" x="1039.14" y="250">n </tspan><tspan font-weight="400" font-size="83" x="1101.59" y="250">stocke la sortie, le résultat intermédiaire</tspan><tspan font-weight="400" font-size="83" x="984.711" y="349">et la clé comme une matrice comme celle</tspan><tspan font-weight="400" font-size="83" x="2380.06" y="349">-</tspan><tspan font-weight="400" font-size="83" x="2405.27" y="349">ci</tspan><tspan font-weight="400" font-size="83" x="-1121.43" y="-328">Nous représentons les données (texte clair, texte chiffré et clé) sous forme de matrices</tspan><tspan font-family="Wingdings,Wingdings_MSFontService,sans-serif" font-weight="400" font-size="83" x="-924.343" y="859"></tspan><tspan font-weight="400" font-size="83" x="-821.218" y="859">C</tspan><tspan font-weight="400" font-size="83" x="-777.104" y="859">haque </tspan><tspan font-weight="400" font-size="83" x="-546.791" y="859">entrée dans cette matrice est un octet ( </tspan><tspan font-size="83" x="796.24" y="859">8 </tspan><tspan font-weight="400" font-size="83" x="856.969" y="859">bits) c'est pourquoi </tspan><tspan font-size="83" x="1521.8" y="859">16x8=128 </tspan><tspan font-weight="400" font-size="83" x="1870.71" y="859">bits</tspan><tspan font-family="Wingdings,Wingdings_MSFontService,sans-serif" font-weight="400" font-size="83" x="-924.343" y="1057"></tspan><tspan font-weight="400" font-size="83" x="-821.218" y="1057">C</tspan><tspan font-weight="400" font-size="83" x="-777.104" y="1057">haque </tspan><tspan font-weight="400" font-size="83" x="-546.791" y="1057">colonne représente un mot ( </tspan><tspan font-size="83" x="430.697" y="1057">1 </tspan><tspan font-weight="400" font-size="83" x="491.426" y="1057">mot fait </tspan><tspan font-size="83" x="775.707" y="1057">32 </tspan><tspan font-weight="400" font-size="83" x="878.259" y="1057">bits)</tspan><tspan font-family="Wingdings,Wingdings_MSFontService,sans-serif" font-weight="400" font-size="83" x="-924.343" y="1255"></tspan><tspan font-weight="400" font-size="83" x="-821.218" y="1255">N</tspan><tspan font-weight="400" font-size="83" x="-767.937" y="1255">ote </tspan><tspan font-weight="400" font-size="83" x="-637.633" y="1255">: il s'agit d'une représentation colonne par colonne</tspan></text><path d="M805.057 2107.81 989.057 2107.81 989.057 2112.81 805.057 2112.81Z" fill-rule="evenodd"/></g></svg>