<svg width="3949" height="1847" xmlns="http://www.w3.org/2000/svg" xmlns:xlink="http://www.w3.org/1999/xlink" overflow="hidden"><defs><clipPath id="clip0"><rect x="564" y="487" width="3949" height="1847"/></clipPath></defs><g clip-path="url(#clip0)" transform="translate(-564 -487)"><rect x="690.5" y="727.5" width="933" height="142" stroke="#000000" stroke-width="4.58333" stroke-miterlimit="8" fill="#FFFFFF"/><text font-family="Calibri,Calibri_MSFontService,sans-serif" font-weight="700" font-size="83" transform="matrix(1 0 0 1 920.696 819)">add round key<tspan font-size="83" x="-306.538" y="-229">128 </tspan><tspan font-weight="400" font-size="83" x="-162.163" y="-229">bits long </tspan><tspan fill="#00B0F0" font-size="83" x="142.629" y="-229">message </tspan><tspan fill="#00B0F0" font-size="83" x="455.12" y="-229">clair</tspan><tspan font-weight="400" font-size="83" x="618.402" y="-229">block</tspan></text><path d="M1178.16 618 1178.16 679.067 1167.84 679.067 1167.84 618ZM1188.47 673.911 1173 704.848 1157.53 673.911Z"/><text font-family="Calibri,Calibri_MSFontService,sans-serif" font-weight="700" font-size="83" transform="matrix(1 0 0 1 2486.53 590)">128 <tspan font-weight="400" font-size="83" x="144.375" y="0">bits long private key</tspan><tspan font-size="83" x="216.199" y="229">K</tspan><tspan font-size="55" x="261.459" y="261">0</tspan><tspan font-size="83" x="308.438" y="229">[w</tspan><tspan font-size="55" x="396.667" y="261">0</tspan><tspan font-size="83" x="443.646" y="229">...</tspan><tspan font-size="83" x="527.865" y="229">w</tspan><tspan font-size="55" x="589.167" y="261">3</tspan><tspan font-size="83" x="617.24" y="229">]</tspan></text><path d="M0.0125347-2.29163 732.231 1.71343 732.206 6.2967-0.0125347 2.29163ZM727.711-9.7698 755.135 4.13041 727.56 17.7298Z" transform="matrix(-1 0 0 1 2524.64 788.5)"/><rect x="690.5" y="1036.5" width="933" height="142" stroke="#000000" stroke-width="4.58333" stroke-miterlimit="8" fill="#FFFFFF"/><text font-family="Calibri,Calibri_MSFontService,sans-serif" font-weight="700" font-size="83" transform="matrix(1 0 0 1 756.425 1130)">S<tspan font-size="83" x="38.9583" y="0">-</tspan><tspan font-size="83" x="64.1667" y="0">BOX (substitute bytes)</tspan></text><path d="M1178.16 909 1178.16 970.067 1167.84 970.067 1167.84 909ZM1188.47 964.91 1173 995.848 1157.53 964.91Z"/><text font-family="Calibri,Calibri_MSFontService,sans-serif" font-weight="700" font-size="64" transform="matrix(1 0 0 1 1247.4 973)">128 <tspan font-weight="400" font-size="64" x="112.292" y="0">bits</tspan></text><path d="M1178.16 1230 1178.16 1291.07 1167.84 1291.07 1167.84 1230ZM1188.47 1285.91 1173 1316.85 1157.53 1285.91Z"/><text font-family="Calibri,Calibri_MSFontService,sans-serif" font-weight="700" font-size="64" transform="matrix(1 0 0 1 1247.4 1295)">128 <tspan font-weight="400" font-size="64" x="112.292" y="0">bits</tspan></text><rect x="689.5" y="1369.5" width="934" height="142" stroke="#000000" stroke-width="4.58333" stroke-miterlimit="8" fill="#FFFFFF"/><text font-family="Calibri,Calibri_MSFontService,sans-serif" font-weight="700" font-size="83" transform="matrix(1 0 0 1 805.496 1467)">shift rows (left shift)</text><path d="M1178.16 1546 1178.16 1607.07 1167.84 1607.07 1167.84 1546ZM1188.47 1601.91 1173 1632.85 1157.53 1601.91Z"/><text font-family="Calibri,Calibri_MSFontService,sans-serif" font-weight="700" font-size="64" transform="matrix(1 0 0 1 1247.4 1610)">128 <tspan font-weight="400" font-size="64" x="112.292" y="0">bits</tspan></text><rect x="689.5" y="1674.5" width="934" height="142" stroke="#000000" stroke-width="4.58333" stroke-miterlimit="8" fill="#FFFFFF"/><text font-family="Calibri,Calibri_MSFontService,sans-serif" font-weight="700" font-size="83" transform="matrix(1 0 0 1 952.143 1771)">mix columns</text><path d="M1178.16 1841 1178.16 1902.07 1167.84 1902.07 1167.84 1841ZM1188.47 1896.91 1173 1927.85 1157.53 1896.91Z"/><text font-family="Calibri,Calibri_MSFontService,sans-serif" font-weight="700" font-size="64" transform="matrix(1 0 0 1 1247.4 1905)">128 <tspan font-weight="400" font-size="64" x="112.292" y="0">bits</tspan></text><rect x="689.5" y="1964.5" width="934" height="143" stroke="#000000" stroke-width="4.58333" stroke-miterlimit="8" fill="#FFFFFF"/><text font-family="Calibri,Calibri_MSFontService,sans-serif" font-weight="700" font-size="83" transform="matrix(1 0 0 1 920.028 2056)">add round key<tspan font-size="83" x="991.89" y="3">K</tspan><tspan font-size="55" x="1037.15" y="35">1</tspan><tspan font-size="83" x="1084.13" y="3">[w</tspan><tspan font-size="55" x="1172.36" y="35">4</tspan><tspan font-size="83" x="1219.34" y="3">...</tspan><tspan font-size="83" x="1303.56" y="3">w</tspan><tspan font-size="55" x="1364.86" y="35">7</tspan><tspan font-size="83" x="1392.93" y="3">]</tspan></text><path d="M0.0125338-2.29163 208.172-1.15313 208.147 3.43014-0.0125338 2.29163ZM203.651-12.6364 231.076 1.26385 203.501 14.8632Z" transform="matrix(-1 0 0 1 1885.58 2039.5)"/><path d="M2488.5 1045.5C2532.96 1045.5 2569 1051.51 2569 1058.92L2569 1589.08C2569 1596.49 2605.04 1602.5 2649.5 1602.5 2605.04 1602.5 2569 1608.51 2569 1615.92L2569 2146.08C2569 2153.49 2532.96 2159.5 2488.5 2159.5" stroke="#00B0F0" stroke-width="6.875" stroke-miterlimit="8" fill="none" fill-rule="evenodd"/><text fill="#00B0F0" font-family="Calibri,Calibri_MSFontService,sans-serif" font-weight="700" font-size="83" transform="matrix(1 0 0 1 3110.33 1129)">FONCTION <tspan font-size="83" x="382.525" y="0">ROUND</tspan><tspan fill="#000000" font-weight="400" font-size="83" x="-428.718" y="143">À chaque tour, nous faisons un remplacement</tspan><tspan fill="#000000" font-weight="400" font-size="83" x="-428.718" y="242">donc la S</tspan><tspan fill="#000000" font-weight="400" font-size="83" x="-129.083" y="242">-</tspan><tspan fill="#000000" font-weight="400" font-size="83" x="-103.874" y="242">BOX, puis mélanger les lignes et </tspan><tspan fill="#000000" font-weight="400" font-size="83" x="-428.718" y="341">les colonnes et </tspan><tspan fill="#000000" font-weight="400" font-size="83" x="89.2217" y="341">enfin ajouter une </tspan><tspan fill="#000000" font-weight="400" font-size="83" x="688.836" y="341">opération</tspan><tspan fill="#000000" font-weight="400" font-size="83" x="-409.812" y="440">de clé ronde</tspan><tspan fill="#000000" font-weight="400" font-size="83" x="-428.718" y="638">~ à chaque tour, nous utilisons un</tspan><tspan fill="#000000" font-weight="400" font-size="83" x="-428.718" y="737">sous</tspan><tspan fill="#000000" font-weight="400" font-size="83" x="-277.468" y="737">-</tspan><tspan fill="#000000" font-weight="400" font-size="83" x="-252.26" y="737">clé. Nous générons des sous</tspan><tspan fill="#000000" font-weight="400" font-size="83" x="690.463" y="737">-</tspan><tspan fill="#000000" font-weight="400" font-size="83" x="715.672" y="737">clés</tspan><tspan fill="#000000" font-weight="400" font-size="83" x="-428.718" y="836">de la clé privée</tspan><tspan fill="#000000" font-size="83" x="-360.266" y="1034">DANS LE DERNIER TOUR NOUS N'UTILISONS PAS </tspan><tspan fill="#000000" font-size="83" x="-83.4783" y="1133">L'OPÉRATION MIX COLONNES !!!</tspan></text></g></svg>