<svg width="3912" height="1571" xmlns="http://www.w3.org/2000/svg" xmlns:xlink="http://www.w3.org/1999/xlink" overflow="hidden"><defs><clipPath id="clip0"><rect x="218" y="371" width="3912" height="1571"/></clipPath></defs><g clip-path="url(#clip0)" transform="translate(-218 -371)"><text fill="#00B0F0" font-family="Calibri,Calibri_MSFontService,sans-serif" font-weight="700" font-size="83" transform="matrix(1 0 0 1 687.545 473)">ADD ROUND <tspan font-size="83" x="453.521" y="0">OPERATION</tspan></text><path d="M218 1207 1329.89 1207" stroke="#000000" stroke-width="10.3125" stroke-miterlimit="8" fill="none" fill-rule="evenodd"/><path d="M540 1002 540 1933.72" stroke="#000000" stroke-width="10.3125" stroke-miterlimit="8" fill="none" fill-rule="evenodd"/><text font-family="Calibri,Calibri_MSFontService,sans-serif" font-weight="700" font-size="110" transform="matrix(1 0 0 1 380.812 1122)">x<tspan font-size="110" x="276.512" y="0">y</tspan></text><path d="M810 1002 810 1936.69" stroke="#000000" stroke-width="10.3125" stroke-miterlimit="8" fill="none" fill-rule="evenodd"/><text font-family="Calibri,Calibri_MSFontService,sans-serif" font-weight="400" font-size="110" transform="matrix(1 0 0 1 875.098 1128)">x <tspan font-weight="700" font-size="110" x="72.1875" y="0">XOR </tspan>y<tspan font-weight="700" font-size="110" x="-494.287" y="235">0</tspan><tspan font-weight="700" font-size="110" x="-237.89" y="226">0</tspan><tspan font-weight="700" font-size="110" x="117.483" y="229">0</tspan><tspan font-weight="700" font-size="110" x="-494.287" y="391">0</tspan><tspan font-weight="700" font-size="110" x="-237.89" y="381">1</tspan><tspan font-weight="700" font-size="110" x="117.483" y="390">1</tspan><tspan font-weight="700" font-size="110" x="-494.287" y="559">1</tspan><tspan font-weight="700" font-size="110" x="-237.89" y="549">0</tspan><tspan font-weight="700" font-size="110" x="117.483" y="564">1</tspan><tspan font-weight="700" font-size="110" x="-494.287" y="709">1</tspan><tspan font-weight="700" font-size="110" x="-237.89" y="700">1</tspan><tspan font-weight="700" font-size="110" x="117.483" y="712">0</tspan><tspan font-size="83" x="-516.363" y="-293">L</tspan><tspan font-size="83" x="-481.415" y="-293">a sortie est </tspan><tspan font-weight="700" font-size="83" x="-93.3212" y="-293">0 </tspan><tspan font-size="83" x="-32.592" y="-293">ou </tspan><tspan font-weight="700" font-size="83" x="73.3976" y="-293">1</tspan><tspan font-size="83" x="-592.263" y="-194">avec </tspan><tspan font-weight="700" font-size="83" x="-422.565" y="-194">50% de </tspan><tspan font-size="83" x="-155.586" y="-194">probabilité</tspan><tspan font-size="83" x="204.978" y="-534">Comme nous l'avons vu avec le cryptosystème </tspan><tspan font-weight="700" font-size="83" x="1771.38" y="-534">DES , les opérations sont</tspan><tspan font-size="83" x="204.978" y="-435">substitutions, permutations </tspan><tspan font-size="83" x="1150.06" y="-435">et </tspan><tspan font-size="83" x="1237.28" y="-435">opérations </tspan><tspan font-size="83" x="1615.82" y="-435">XOR</tspan><tspan font-weight="700" font-size="83" x="864.978" y="-237">ajouter </tspan><tspan font-weight="700" font-size="83" x="1132.09" y="-237">une opération </tspan><tspan font-weight="700" font-size="83" x="1633.12" y="-237">avec ADD ROUN</tspan><tspan font-weight="700" font-size="83" x="2187.84" y="-237">D</tspan><tspan font-weight="700" font-size="83" x="2258.88" y="-237">= XOR</tspan><tspan font-family="Wingdings,Wingdings_MSFontService,sans-serif" font-size="83" x="597.959" y="5"></tspan><tspan font-size="83" x="701.084" y="5">L</tspan><tspan font-size="83" x="736.032" y="5">e </tspan><tspan font-size="83" x="796.188" y="5">bloc de texte en clair d'entrée est une séquence longue de </tspan><tspan font-weight="700" font-size="83" x="2773.53" y="5">128 </tspan><tspan font-size="83" x="2917.9" y="5">bits</tspan><tspan font-family="Wingdings,Wingdings_MSFontService,sans-serif" font-size="83" x="597.959" y="203"></tspan><tspan font-size="83" x="701.084" y="203">L</tspan><tspan font-size="83" x="736.032" y="203">a </tspan><tspan font-size="83" x="794.469" y="203">clé privée est une séquence binaire longue de </tspan><tspan font-weight="700" font-size="83" x="2348.29" y="203">128 </tspan><tspan font-size="83" x="2492.66" y="203">bits</tspan><tspan font-family="Wingdings,Wingdings_MSFontService,sans-serif" font-size="83" x="597.959" y="401"></tspan><tspan font-size="83" x="701.084" y="401">N</tspan><tspan font-size="83" x="754.365" y="401">ous </tspan><tspan font-size="83" x="892.438" y="401">devons juste utiliser l'opération </tspan><tspan font-weight="700" font-size="83" x="1964.66" y="401">XOR au niveau </tspan><tspan font-weight="700" font-size="83" x="2479" y="401">des bits </tspan><tspan font-size="83" x="2779.21" y="401">et bit </tspan><tspan font-size="83" x="2975.29" y="401">par bit</tspan></text></g></svg>