<svg width="3185" height="1841" xmlns="http://www.w3.org/2000/svg" xmlns:xlink="http://www.w3.org/1999/xlink" overflow="hidden"><defs><clipPath id="clip0"><rect x="576" y="371" width="3185" height="1841"/></clipPath></defs><g clip-path="url(#clip0)" transform="translate(-576 -371)"><rect x="2456.5" y="858.5" width="714" height="304" stroke="#000000" stroke-width="4.58333" stroke-miterlimit="8" fill="#FFFFFF"/><text font-family="Calibri,Calibri_MSFontService,sans-serif" font-weight="700" font-size="83" transform="matrix(1 0 0 1 2708.53 1038)">S<tspan font-size="83" x="38.9583" y="0">-</tspan><tspan font-size="83" x="64.1665" y="0">BOX</tspan></text><path d="M2218 1008.85 2432.92 1008.85 2432.92 1011.15 2218 1011.15ZM2428.34 996.25 2455.84 1010 2428.34 1023.75Z"/><path d="M3162 1010.85 3376.92 1010.85 3376.92 1013.15 3162 1013.15ZM3372.34 998.25 3399.84 1012 3372.34 1025.75Z"/><text font-family="Calibri,Calibri_MSFontService,sans-serif" font-weight="700" font-size="83" transform="matrix(1 0 0 1 1977.36 1036)">8<tspan font-weight="400" font-size="83" x="60.7293" y="0">bits</tspan><tspan font-size="83" x="1485.73" y="0">8</tspan><tspan font-weight="400" font-size="83" x="1546.46" y="0">bits</tspan></text><rect x="594.5" y="613.5" width="199" height="200" stroke="#000000" stroke-width="4.58333" stroke-miterlimit="8" fill="#FFFFFF"/><rect x="793.5" y="613.5" width="200" height="200" stroke="#000000" stroke-width="4.58333" stroke-miterlimit="8" fill="#FFFFFF"/><rect x="993.5" y="613.5" width="200" height="200" stroke="#000000" stroke-width="4.58333" stroke-miterlimit="8" fill="#FFFFFF"/><rect x="1193.5" y="613.5" width="200" height="200" stroke="#000000" stroke-width="4.58333" stroke-miterlimit="8" fill="#FFFFFF"/><rect x="594.5" y="813.5" width="199" height="199" stroke="#000000" stroke-width="4.58333" stroke-miterlimit="8" fill="#FFFFFF"/><rect x="793.5" y="813.5" width="200" height="199" stroke="#000000" stroke-width="4.58333" stroke-miterlimit="8" fill="#FFFFFF"/><rect x="993.5" y="813.5" width="200" height="199" stroke="#000000" stroke-width="4.58333" stroke-miterlimit="8" fill="#FFFFFF"/><rect x="1193.5" y="813.5" width="200" height="199" stroke="#000000" stroke-width="4.58333" stroke-miterlimit="8" fill="#FFFFFF"/><rect x="594.5" y="1012.5" width="199" height="200" stroke="#000000" stroke-width="4.58333" stroke-miterlimit="8" fill="#FFFFFF"/><rect x="793.5" y="1012.5" width="200" height="200" stroke="#000000" stroke-width="4.58333" stroke-miterlimit="8" fill="#FFFFFF"/><rect x="993.5" y="1012.5" width="200" height="200" stroke="#000000" stroke-width="4.58333" stroke-miterlimit="8" fill="#FFFFFF"/><rect x="1193.5" y="1012.5" width="200" height="200" stroke="#000000" stroke-width="4.58333" stroke-miterlimit="8" fill="#FFFFFF"/><rect x="594.5" y="1212.5" width="199" height="200" stroke="#000000" stroke-width="4.58333" stroke-miterlimit="8" fill="#FFFFFF"/><rect x="793.5" y="1212.5" width="200" height="200" stroke="#000000" stroke-width="4.58333" stroke-miterlimit="8" fill="#FFFFFF"/><rect x="993.5" y="1212.5" width="200" height="200" stroke="#000000" stroke-width="4.58333" stroke-miterlimit="8" fill="#FFFFFF"/><rect x="1193.5" y="1212.5" width="200" height="200" stroke="#000000" stroke-width="4.58333" stroke-miterlimit="8" fill="#FFFFFF"/><text font-family="Calibri,Calibri_MSFontService,sans-serif" font-weight="700" font-size="128" transform="matrix(1 0 0 1 653.215 731)">p<tspan font-size="73" x="42.2507" y="58">0</tspan><tspan font-size="128" x="7.30011" y="203">p</tspan><tspan font-size="73" x="49.5508" y="261">1</tspan><tspan font-size="128" x="196.05" y="204">p</tspan><tspan font-size="73" x="238.301" y="262">5</tspan><tspan font-size="128" x="200.947" y="-3">p</tspan><tspan font-size="73" x="243.197" y="55">4</tspan><tspan font-size="128" x="0" y="394">p</tspan><tspan font-size="73" x="42.2507" y="452">2</tspan><tspan font-size="128" x="0.656067" y="586">p</tspan><tspan font-size="73" x="42.9069" y="644">3</tspan><tspan font-size="128" x="185.617" y="392">p</tspan><tspan font-size="73" x="229.894" y="447">6</tspan><tspan font-size="128" x="190.039" y="591">p</tspan><tspan font-size="73" x="232.29" y="649">7</tspan><tspan font-size="128" x="397.406" y="5">p</tspan><tspan font-size="73" x="439.657" y="63">8</tspan><tspan font-size="128" x="404.707" y="208">p</tspan><tspan font-size="73" x="446.957" y="266">9</tspan><tspan font-size="128" x="593.456" y="209">p</tspan><tspan font-size="73" x="635.707" y="267">13</tspan><tspan font-size="128" x="598.353" y="2">p</tspan><tspan font-size="128" x="397.406" y="399">p</tspan><tspan font-size="73" x="439.657" y="457">10</tspan><tspan font-size="128" x="398.063" y="591">p</tspan><tspan font-size="73" x="440.313" y="649">11</tspan><tspan font-size="128" x="583.023" y="397">p</tspan><tspan font-size="73" x="627.3" y="451">14</tspan><tspan font-size="128" x="587.446" y="596">p</tspan><tspan font-size="73" x="629.697" y="654">15</tspan><tspan font-size="73" x="635.96" y="68">12</tspan><tspan fill="#00B0F0" font-size="110" x="804.502" y="1112">0  1  0  1 </tspan><tspan fill="#00B0F0" font-size="110" x="1223.88" y="1112">1  1  0  0</tspan></text><path d="M1839.5 1851.5C1839.5 1884.36 1835.06 1911 1829.58 1911L1648.42 1911C1642.94 1911 1638.5 1937.64 1638.5 1970.5 1638.5 1937.64 1634.06 1911 1628.58 1911L1447.42 1911C1441.94 1911 1437.5 1884.36 1437.5 1851.5" stroke="#000000" stroke-width="4.58333" stroke-miterlimit="8" fill="none" fill-rule="evenodd"/><path d="M2264.5 1851.5C2264.5 1884.36 2260.06 1911 2254.58 1911L2073.42 1911C2067.94 1911 2063.5 1937.64 2063.5 1970.5 2063.5 1937.64 2059.06 1911 2053.58 1911L1872.42 1911C1866.94 1911 1862.5 1884.36 1862.5 1851.5" stroke="#000000" stroke-width="4.58333" stroke-miterlimit="8" fill="none" fill-rule="evenodd"/><text font-family="Calibri,Calibri_MSFontService,sans-serif" font-weight="700" font-size="64" transform="matrix(1 0 0 1 1554.34 2079)">INDEX<tspan font-size="64" x="4.30823" y="77">LIGN</tspan><tspan font-size="64" x="131.496" y="77">E</tspan><tspan font-size="64" x="425.044" y="-1">INDEX</tspan><tspan font-size="64" x="377.446" y="76">COLONN</tspan><tspan font-size="64" x="608.446" y="76">E</tspan><tspan fill="#00B0F0" font-size="83" x="-866.791" y="-1606">OPÉRATION </tspan><tspan fill="#00B0F0" font-size="83" x="-445.834" y="-1606">DE SUBSTITUTION DES OCTETS </tspan><tspan fill="#00B0F0" font-size="83" x="618.759" y="-1606">(S</tspan><tspan fill="#00B0F0" font-size="83" x="683.499" y="-1606">-</tspan><tspan fill="#00B0F0" font-size="83" x="708.707" y="-1606">BOX)</tspan><tspan font-weight="400" font-size="83" x="-616.706" y="-525">On considère tous les items ( </tspan><tspan font-size="83" x="368.687" y="-525">16 </tspan><tspan font-weight="400" font-size="83" x="471.24" y="-525">items) dans la </tspan><tspan font-weight="400" font-size="83" x="955.033" y="-525">matrice + </tspan><tspan font-weight="400" font-size="83" x="1290.01" y="-525">pour chaque élément </tspan><tspan font-weight="400" font-size="83" x="43.2937" y="-426">on </tspan><tspan font-weight="400" font-size="83" x="149.283" y="-426">applique la </tspan><tspan font-size="83" x="538.294" y="-426">s</tspan><tspan font-size="83" x="570.95" y="-426">-</tspan><tspan font-size="83" x="596.158" y="-426">box </tspan><tspan font-weight="400" font-size="83" x="739.456" y="-426">: renvoie </tspan><tspan font-size="83" x="1050.78" y="-426">8 </tspan><tspan font-weight="400" font-size="83" x="1111.51" y="-426">bits en sortie</tspan><tspan font-weight="400" font-size="73" x="1019.44" y="-225">C</tspan><tspan font-weight="400" font-size="73" x="1058.4" y="-225">ar </tspan><tspan font-weight="400" font-size="73" x="1135.74" y="-225">nous avons </tspan><tspan font-size="73" x="1485.61" y="-225">4 </tspan><tspan font-weight="400" font-size="73" x="1539.47" y="-225">bits pour les lignes</tspan><tspan font-weight="400" font-size="73" x="974.365" y="-137">et </tspan><tspan font-size="73" x="1051.89" y="-137">4 </tspan><tspan font-weight="400" font-size="73" x="1105.75" y="-137">bits pour la colonne c'est pourquoi</tspan><tspan font-weight="400" font-size="73" x="949.913" y="-49">cette table de correspondance est </tspan><tspan font-size="73" x="1979.1" y="-49">16x16</tspan></text></g></svg>