<svg width="3177" height="1088" xmlns="http://www.w3.org/2000/svg" xmlns:xlink="http://www.w3.org/1999/xlink" overflow="hidden"><defs><clipPath id="clip0"><rect x="638" y="371" width="3177" height="1088"/></clipPath></defs><g clip-path="url(#clip0)" transform="translate(-638 -371)"><text fill="#00B0F0" font-family="Calibri,Calibri_MSFontService,sans-serif" font-weight="700" font-size="83" transform="matrix(1 0 0 1 687.545 473)">OPÉRATION DE DÉCALAGE DES LIGNES (DÉCALAGE CIRCULAIRE À GAUCHE)</text><rect x="1078.5" y="623.5" width="200" height="200" stroke="#000000" stroke-width="4.58333" stroke-miterlimit="8" fill="#FFFFFF"/><rect x="1278.5" y="623.5" width="200" height="200" stroke="#000000" stroke-width="4.58333" stroke-miterlimit="8" fill="#FFFFFF"/><rect x="1478.5" y="623.5" width="200" height="200" stroke="#000000" stroke-width="4.58333" stroke-miterlimit="8" fill="#FFFFFF"/><rect x="1678.5" y="623.5" width="199" height="200" stroke="#000000" stroke-width="4.58333" stroke-miterlimit="8" fill="#FFFFFF"/><rect x="1078.5" y="823.5" width="200" height="200" stroke="#000000" stroke-width="4.58333" stroke-miterlimit="8" fill="#FFFFFF"/><rect x="1278.5" y="823.5" width="200" height="200" stroke="#000000" stroke-width="4.58333" stroke-miterlimit="8" fill="#FFFFFF"/><rect x="1478.5" y="823.5" width="200" height="200" stroke="#000000" stroke-width="4.58333" stroke-miterlimit="8" fill="#FFFFFF"/><rect x="1678.5" y="823.5" width="199" height="200" stroke="#000000" stroke-width="4.58333" stroke-miterlimit="8" fill="#FFFFFF"/><rect x="1078.5" y="1023.5" width="200" height="199" stroke="#000000" stroke-width="4.58333" stroke-miterlimit="8" fill="#FFFFFF"/><rect x="1278.5" y="1023.5" width="200" height="199" stroke="#000000" stroke-width="4.58333" stroke-miterlimit="8" fill="#FFFFFF"/><rect x="1478.5" y="1023.5" width="200" height="199" stroke="#000000" stroke-width="4.58333" stroke-miterlimit="8" fill="#FFFFFF"/><rect x="1678.5" y="1023.5" width="199" height="199" stroke="#000000" stroke-width="4.58333" stroke-miterlimit="8" fill="#FFFFFF"/><rect x="1078.5" y="1222.5" width="200" height="200" stroke="#000000" stroke-width="4.58333" stroke-miterlimit="8" fill="#FFFFFF"/><rect x="1278.5" y="1222.5" width="200" height="200" stroke="#000000" stroke-width="4.58333" stroke-miterlimit="8" fill="#FFFFFF"/><rect x="1478.5" y="1222.5" width="200" height="200" stroke="#000000" stroke-width="4.58333" stroke-miterlimit="8" fill="#FFFFFF"/><rect x="1678.5" y="1222.5" width="199" height="200" stroke="#000000" stroke-width="4.58333" stroke-miterlimit="8" fill="#FFFFFF"/><text font-family="Calibri,Calibri_MSFontService,sans-serif" font-weight="700" font-size="128" transform="matrix(1 0 0 1 1137.81 741)">s<tspan font-size="73" x="42.2507" y="58">0</tspan><tspan font-size="128" x="10.2732" y="206">s</tspan><tspan font-size="73" x="58.47" y="261">1</tspan><tspan font-size="128" x="201.996" y="210">s</tspan><tspan font-size="73" x="256.139" y="259">5</tspan><tspan font-size="128" x="200.947" y="-3">s</tspan><tspan font-size="73" x="243.197" y="55">4</tspan><tspan font-size="128" x="0" y="394">s</tspan><tspan font-size="73" x="42.2507" y="452">2</tspan><tspan font-size="128" x="3.62915" y="598">s</tspan><tspan font-size="73" x="48.8529" y="647">3</tspan><tspan font-size="128" x="197.509" y="398">s</tspan><tspan font-size="73" x="241.786" y="447">6</tspan><tspan font-size="128" x="198.959" y="606">s</tspan><tspan font-size="73" x="247.155" y="650">7</tspan><tspan font-size="128" x="397.406" y="5">s</tspan><tspan font-size="73" x="439.657" y="63">8</tspan><tspan font-size="128" x="407.68" y="211">s</tspan><tspan font-size="73" x="458.849" y="257">9</tspan><tspan font-size="128" x="593.456" y="209">s</tspan><tspan font-size="73" x="635.707" y="267">13</tspan><tspan font-size="128" x="598.353" y="2">s</tspan><tspan font-size="128" x="397.406" y="399">s</tspan><tspan font-size="73" x="439.657" y="457">1</tspan><tspan font-size="73" x="476.897" y="457">0</tspan><tspan font-size="128" x="406.982" y="603">s</tspan><tspan font-size="73" x="440.313" y="649">11</tspan><tspan font-size="128" x="583.023" y="397">s</tspan><tspan font-size="73" x="627.3" y="452">14</tspan><tspan font-size="128" x="590.419" y="599">s</tspan><tspan font-size="73" x="629.697" y="654">15</tspan><tspan font-size="73" x="635.96" y="69">12</tspan></text><path d="M4.63646e-06-3.4375 244.651-3.43717 244.651 3.43783-4.63646e-06 3.4375ZM240.068-13.7497 267.568 0.000360892 240.068 13.7503Z" transform="matrix(-1 0 0 1 2263.07 722.5)"/><path d="M4.63646e-06-3.4375 244.651-3.43717 244.651 3.43783-4.63646e-06 3.4375ZM240.068-13.7497 267.568 0.000360892 240.068 13.7503Z" transform="matrix(-1 0 0 1 2263.07 925.5)"/><path d="M4.63646e-06-3.4375 244.651-3.43717 244.651 3.43783-4.63646e-06 3.4375ZM240.068-13.7497 267.568 0.000360892 240.068 13.7503Z" transform="matrix(-1 0 0 1 2263.07 1128.5)"/><path d="M4.63646e-06-3.4375 244.651-3.43717 244.651 3.43783-4.63646e-06 3.4375ZM240.068-13.7497 267.568 0.000360892 240.068 13.7503Z" transform="matrix(-1 0 0 1 2263.07 1331.5)"/><text font-family="Calibri,Calibri_MSFontService,sans-serif" font-weight="400" font-size="83" transform="matrix(1 0 0 1 2345.97 747)">D<tspan font-size="83" x="50.9895" y="0">écalage </tspan><tspan font-size="83" x="322.896" y="0">circulaire à gauche avec pas de </tspan><tspan font-weight="700" font-size="83" x="1372.78" y="0">0</tspan><tspan font-size="83" x="0" y="203">D</tspan><tspan font-size="83" x="50.9895" y="203">écalage </tspan><tspan font-size="83" x="322.896" y="203">circulaire à gauche avec </tspan><tspan font-weight="700" font-size="83" x="1135.02" y="203">1 </tspan><tspan font-size="83" x="1195.75" y="203">étape</tspan><tspan font-size="83" x="0" y="406">D</tspan><tspan font-size="83" x="50.9895" y="406">écalage </tspan><tspan font-size="83" x="322.896" y="406">circulaire à gauche avec </tspan><tspan font-weight="700" font-size="83" x="1135.02" y="406">2 </tspan><tspan font-size="83" x="1195.75" y="406">étapes</tspan><tspan font-size="83" x="0" y="607">D</tspan><tspan font-size="83" x="50.9895" y="607">écalage </tspan><tspan font-size="83" x="322.896" y="607">circulaire à gauche avec </tspan><tspan font-weight="700" font-size="83" x="1135.02" y="607">3 </tspan><tspan font-size="83" x="1195.75" y="607">étapes</tspan></text></g></svg>