<svg width="2771" height="1197" xmlns="http://www.w3.org/2000/svg" xmlns:xlink="http://www.w3.org/1999/xlink" overflow="hidden"><defs><clipPath id="clip0"><rect x="638" y="371" width="2771" height="1197"/></clipPath></defs><g clip-path="url(#clip0)" transform="translate(-638 -371)"><rect x="1115.5" y="727.5" width="200" height="200" stroke="#000000" stroke-width="4.58333" stroke-miterlimit="8" fill="#FFFFFF"/><rect x="1315.5" y="727.5" width="200" height="200" stroke="#000000" stroke-width="4.58333" stroke-miterlimit="8" fill="#FFFFFF"/><rect x="1515.5" y="727.5" width="200" height="200" stroke="#000000" stroke-width="4.58333" stroke-miterlimit="8" fill="#FFFFFF"/><rect x="1715.5" y="727.5" width="199" height="200" stroke="#000000" stroke-width="4.58333" stroke-miterlimit="8" fill="#FFFFFF"/><rect x="1115.5" y="927.5" width="200" height="200" stroke="#000000" stroke-width="4.58333" stroke-miterlimit="8" fill="#FFFFFF"/><rect x="1315.5" y="927.5" width="200" height="200" stroke="#000000" stroke-width="4.58333" stroke-miterlimit="8" fill="#FFFFFF"/><rect x="1515.5" y="927.5" width="200" height="200" stroke="#000000" stroke-width="4.58333" stroke-miterlimit="8" fill="#FFFFFF"/><rect x="1715.5" y="927.5" width="199" height="200" stroke="#000000" stroke-width="4.58333" stroke-miterlimit="8" fill="#FFFFFF"/><rect x="1115.5" y="1127.5" width="200" height="200" stroke="#000000" stroke-width="4.58333" stroke-miterlimit="8" fill="#FFFFFF"/><rect x="1315.5" y="1127.5" width="200" height="200" stroke="#000000" stroke-width="4.58333" stroke-miterlimit="8" fill="#FFFFFF"/><rect x="1515.5" y="1127.5" width="200" height="200" stroke="#000000" stroke-width="4.58333" stroke-miterlimit="8" fill="#FFFFFF"/><rect x="1715.5" y="1127.5" width="199" height="200" stroke="#000000" stroke-width="4.58333" stroke-miterlimit="8" fill="#FFFFFF"/><rect x="1115.5" y="1327.5" width="200" height="199" stroke="#000000" stroke-width="4.58333" stroke-miterlimit="8" fill="#FFFFFF"/><rect x="1315.5" y="1327.5" width="200" height="199" stroke="#000000" stroke-width="4.58333" stroke-miterlimit="8" fill="#FFFFFF"/><rect x="1515.5" y="1327.5" width="200" height="199" stroke="#000000" stroke-width="4.58333" stroke-miterlimit="8" fill="#FFFFFF"/><rect x="1715.5" y="1327.5" width="199" height="199" stroke="#000000" stroke-width="4.58333" stroke-miterlimit="8" fill="#FFFFFF"/><text font-family="Calibri,Calibri_MSFontService,sans-serif" font-weight="700" font-size="128" transform="matrix(1 0 0 1 1174.83 845)">s<tspan font-size="73" x="42.2507" y="58">0</tspan><tspan font-size="128" x="10.2731" y="206">s</tspan><tspan font-size="73" x="58.47" y="261">1</tspan><tspan font-size="128" x="201.996" y="210">s</tspan><tspan font-size="73" x="256.139" y="259">5</tspan><tspan font-size="128" x="200.947" y="-3">s</tspan><tspan font-size="73" x="243.197" y="55">4</tspan><tspan font-size="128" x="0" y="394">s</tspan><tspan font-size="73" x="42.2507" y="452">2</tspan><tspan font-size="128" x="3.62903" y="599">s</tspan><tspan font-size="73" x="48.8529" y="648">3</tspan><tspan font-size="128" x="197.509" y="398">s</tspan><tspan font-size="73" x="241.786" y="447">6</tspan><tspan font-size="128" x="198.959" y="607">s</tspan><tspan font-size="73" x="247.155" y="650">7</tspan><tspan font-size="128" x="397.406" y="5">s</tspan><tspan font-size="73" x="439.657" y="63">8</tspan><tspan font-size="128" x="407.68" y="211">s</tspan><tspan font-size="73" x="458.849" y="257">9</tspan><tspan font-size="128" x="593.456" y="209">s</tspan><tspan font-size="73" x="635.707" y="267">13</tspan><tspan font-size="128" x="598.353" y="2">s</tspan><tspan font-size="128" x="397.406" y="399">s</tspan><tspan font-size="73" x="439.657" y="457">10</tspan><tspan font-size="128" x="406.982" y="604">s</tspan><tspan font-size="73" x="440.313" y="650">11</tspan><tspan font-size="128" x="583.023" y="397">s</tspan><tspan font-size="73" x="627.3" y="452">14</tspan><tspan font-size="128" x="590.419" y="600">s</tspan><tspan font-size="73" x="629.697" y="655">15</tspan><tspan font-size="73" x="635.96" y="69">12</tspan></text><path d="M2065.5 1114.19 2349.88 1114.19 2349.88 1134.81 2065.5 1134.81ZM2339.57 1093.56 2401.45 1124.5 2339.57 1155.44Z" fill="#00B0F0"/><rect x="2594.5" y="732.5" width="200" height="200" stroke="#000000" stroke-width="4.58333" stroke-miterlimit="8" fill="#FFFFFF"/><rect x="2794.5" y="732.5" width="200" height="200" stroke="#000000" stroke-width="4.58333" stroke-miterlimit="8" fill="#FFFFFF"/><rect x="2994.5" y="732.5" width="200" height="200" stroke="#000000" stroke-width="4.58333" stroke-miterlimit="8" fill="#FFFFFF"/><rect x="3194.5" y="732.5" width="199" height="200" stroke="#000000" stroke-width="4.58333" stroke-miterlimit="8" fill="#FFFFFF"/><rect x="2594.5" y="932.5" width="200" height="200" stroke="#000000" stroke-width="4.58333" stroke-miterlimit="8" fill="#FFFFFF"/><rect x="2794.5" y="932.5" width="200" height="200" stroke="#000000" stroke-width="4.58333" stroke-miterlimit="8" fill="#FFFFFF"/><rect x="2994.5" y="932.5" width="200" height="200" stroke="#000000" stroke-width="4.58333" stroke-miterlimit="8" fill="#FFFFFF"/><rect x="3194.5" y="932.5" width="199" height="200" stroke="#000000" stroke-width="4.58333" stroke-miterlimit="8" fill="#FFFFFF"/><rect x="2594.5" y="1132.5" width="200" height="200" stroke="#000000" stroke-width="4.58333" stroke-miterlimit="8" fill="#FFFFFF"/><rect x="2794.5" y="1132.5" width="200" height="200" stroke="#000000" stroke-width="4.58333" stroke-miterlimit="8" fill="#FFFFFF"/><rect x="2994.5" y="1132.5" width="200" height="200" stroke="#000000" stroke-width="4.58333" stroke-miterlimit="8" fill="#FFFFFF"/><rect x="3194.5" y="1132.5" width="199" height="200" stroke="#000000" stroke-width="4.58333" stroke-miterlimit="8" fill="#FFFFFF"/><rect x="2594.5" y="1332.5" width="200" height="199" stroke="#000000" stroke-width="4.58333" stroke-miterlimit="8" fill="#FFFFFF"/><rect x="2794.5" y="1332.5" width="200" height="199" stroke="#000000" stroke-width="4.58333" stroke-miterlimit="8" fill="#FFFFFF"/><rect x="2994.5" y="1332.5" width="200" height="199" stroke="#000000" stroke-width="4.58333" stroke-miterlimit="8" fill="#FFFFFF"/><rect x="3194.5" y="1332.5" width="199" height="199" stroke="#000000" stroke-width="4.58333" stroke-miterlimit="8" fill="#FFFFFF"/><text font-family="Calibri,Calibri_MSFontService,sans-serif" font-weight="700" font-size="128" transform="matrix(1 0 0 1 2653.88 850)">s<tspan font-size="73" x="42.2507" y="58">0</tspan><tspan font-size="128" x="10.2732" y="206">s</tspan><tspan font-size="73" x="58.47" y="261">5</tspan><tspan font-size="128" x="201.996" y="210">s</tspan><tspan font-size="73" x="256.139" y="259">9</tspan><tspan font-size="128" x="200.947" y="-3">s</tspan><tspan font-size="73" x="243.198" y="55">4</tspan><tspan font-size="128" x="0" y="394">s</tspan><tspan font-size="73" x="42.2507" y="452">10</tspan><tspan font-size="128" x="3.62915" y="599">s</tspan><tspan font-size="73" x="39.9338" y="648">15</tspan><tspan font-size="128" x="197.509" y="398">s</tspan><tspan font-size="73" x="241.786" y="447">14</tspan><tspan font-size="128" x="198.959" y="607">s</tspan><tspan font-size="73" x="247.155" y="650">3</tspan><tspan font-size="128" x="397.406" y="5">s</tspan><tspan font-size="73" x="439.657" y="63">8</tspan><tspan font-size="128" x="407.68" y="211">s</tspan><tspan font-size="73" x="452.903" y="257">13</tspan><tspan font-size="128" x="593.456" y="209">s</tspan><tspan font-size="73" x="643.886" y="261">1</tspan><tspan font-size="128" x="598.353" y="2">s</tspan><tspan font-size="128" x="397.406" y="399">s</tspan><tspan font-size="73" x="445.603" y="454">2</tspan><tspan font-size="128" x="406.982" y="604">s</tspan><tspan font-size="73" x="449.232" y="650">7</tspan><tspan font-size="128" x="597.888" y="406">s</tspan><tspan font-size="73" x="645.138" y="452">6</tspan><tspan font-size="128" x="590.419" y="600">s</tspan><tspan font-size="73" x="629.697" y="655">11</tspan><tspan font-size="73" x="635.96" y="69">12</tspan><tspan fill="#00B0F0" font-size="83" x="-1966.34" y="-377">OPÉRATION DE DÉCALAGE DES LIGNES (DÉCALAGE CIRCULAIRE À GAUCHE)</tspan></text></g></svg>