<svg width="3014" height="1828" xmlns="http://www.w3.org/2000/svg" xmlns:xlink="http://www.w3.org/1999/xlink" overflow="hidden"><defs><clipPath id="clip0"><rect x="514" y="371" width="3014" height="1828"/></clipPath></defs><g clip-path="url(#clip0)" transform="translate(-514 -371)"><rect x="1017.5" y="611.5" width="200" height="200" stroke="#000000" stroke-width="4.58333" stroke-miterlimit="8" fill="#FFFFFF"/><rect x="1217.5" y="611.5" width="200" height="200" stroke="#000000" stroke-width="4.58333" stroke-miterlimit="8" fill="#FFFFFF"/><rect x="1417.5" y="611.5" width="200" height="200" stroke="#000000" stroke-width="4.58333" stroke-miterlimit="8" fill="#FFFFFF"/><rect x="1617.5" y="611.5" width="199" height="200" stroke="#000000" stroke-width="4.58333" stroke-miterlimit="8" fill="#FFFFFF"/><rect x="1017.5" y="811.5" width="200" height="200" stroke="#000000" stroke-width="4.58333" stroke-miterlimit="8" fill="#FFFFFF"/><rect x="1217.5" y="811.5" width="200" height="200" stroke="#000000" stroke-width="4.58333" stroke-miterlimit="8" fill="#FFFFFF"/><rect x="1417.5" y="811.5" width="200" height="200" stroke="#000000" stroke-width="4.58333" stroke-miterlimit="8" fill="#FFFFFF"/><rect x="1617.5" y="811.5" width="199" height="200" stroke="#000000" stroke-width="4.58333" stroke-miterlimit="8" fill="#FFFFFF"/><rect x="1017.5" y="1011.5" width="200" height="200" stroke="#000000" stroke-width="4.58333" stroke-miterlimit="8" fill="#FFFFFF"/><rect x="1217.5" y="1011.5" width="200" height="200" stroke="#000000" stroke-width="4.58333" stroke-miterlimit="8" fill="#FFFFFF"/><rect x="1417.5" y="1011.5" width="200" height="200" stroke="#000000" stroke-width="4.58333" stroke-miterlimit="8" fill="#FFFFFF"/><rect x="1617.5" y="1011.5" width="199" height="200" stroke="#000000" stroke-width="4.58333" stroke-miterlimit="8" fill="#FFFFFF"/><rect x="1017.5" y="1211.5" width="200" height="199" stroke="#000000" stroke-width="4.58333" stroke-miterlimit="8" fill="#FFFFFF"/><rect x="1217.5" y="1211.5" width="200" height="199" stroke="#000000" stroke-width="4.58333" stroke-miterlimit="8" fill="#FFFFFF"/><rect x="1417.5" y="1211.5" width="200" height="199" stroke="#000000" stroke-width="4.58333" stroke-miterlimit="8" fill="#FFFFFF"/><rect x="1617.5" y="1211.5" width="199" height="199" stroke="#000000" stroke-width="4.58333" stroke-miterlimit="8" fill="#FFFFFF"/><text font-family="Calibri,Calibri_MSFontService,sans-serif" font-weight="700" font-size="128" transform="matrix(1 0 0 1 1076.72 729)">s<tspan font-size="73" x="42.2507" y="58">0</tspan><tspan font-size="128" x="10.2732" y="206">s</tspan><tspan font-size="73" x="58.47" y="261">1</tspan><tspan font-size="128" x="201.996" y="210">s</tspan><tspan font-size="73" x="256.139" y="259">5</tspan><tspan font-size="128" x="200.947" y="-3">s</tspan><tspan font-size="73" x="243.197" y="55">4</tspan><tspan font-size="128" x="0" y="394">s</tspan><tspan font-size="73" x="42.2507" y="452">2</tspan><tspan font-size="128" x="3.62915" y="599">s</tspan><tspan font-size="73" x="48.8529" y="648">3</tspan><tspan font-size="128" x="197.509" y="398">s</tspan><tspan font-size="73" x="241.786" y="447">6</tspan><tspan font-size="128" x="198.959" y="607">s</tspan><tspan font-size="73" x="247.155" y="650">7</tspan><tspan font-size="128" x="397.406" y="5">s</tspan><tspan font-size="73" x="439.657" y="63">8</tspan><tspan font-size="128" x="407.68" y="211">s</tspan><tspan font-size="73" x="458.849" y="257">9</tspan><tspan font-size="128" x="593.456" y="209">s</tspan><tspan font-size="73" x="635.707" y="267">13</tspan><tspan font-size="128" x="598.353" y="2">s</tspan><tspan font-size="128" x="397.406" y="399">s</tspan><tspan font-size="73" x="439.657" y="457">10</tspan><tspan font-size="128" x="406.982" y="604">s</tspan><tspan font-size="73" x="440.313" y="650">11</tspan><tspan font-size="128" x="583.023" y="397">s</tspan><tspan font-size="73" x="627.3" y="452">14</tspan><tspan font-size="128" x="590.419" y="600">s</tspan><tspan font-size="73" x="629.697" y="655">15</tspan><tspan font-size="73" x="635.96" y="69">12</tspan></text><rect x="2138.5" y="613.5" width="200" height="200" stroke="#000000" stroke-width="4.58333" stroke-miterlimit="8" fill="#FFFFFF"/><text font-family="Calibri,Calibri_MSFontService,sans-serif" font-weight="700" font-size="83" transform="matrix(1 0 0 1 2216.84 740)">2</text><rect x="2338.5" y="613.5" width="199" height="200" stroke="#000000" stroke-width="4.58333" stroke-miterlimit="8" fill="#FFFFFF"/><text font-family="Calibri,Calibri_MSFontService,sans-serif" font-weight="700" font-size="83" transform="matrix(1 0 0 1 2416.66 740)">3</text><rect x="2537.5" y="613.5" width="200" height="200" stroke="#000000" stroke-width="4.58333" stroke-miterlimit="8" fill="#FFFFFF"/><text font-family="Calibri,Calibri_MSFontService,sans-serif" font-weight="700" font-size="83" transform="matrix(1 0 0 1 2616.48 740)">1</text><rect x="2737.5" y="613.5" width="200" height="200" stroke="#000000" stroke-width="4.58333" stroke-miterlimit="8" fill="#FFFFFF"/><text font-family="Calibri,Calibri_MSFontService,sans-serif" font-weight="700" font-size="83" transform="matrix(1 0 0 1 2816.29 740)">1</text><rect x="2138.5" y="813.5" width="200" height="200" stroke="#000000" stroke-width="4.58333" stroke-miterlimit="8" fill="#FFFFFF"/><text font-family="Calibri,Calibri_MSFontService,sans-serif" font-weight="700" font-size="83" transform="matrix(1 0 0 1 2216.84 940)">1</text><rect x="2338.5" y="813.5" width="199" height="200" stroke="#000000" stroke-width="4.58333" stroke-miterlimit="8" fill="#FFFFFF"/><text font-family="Calibri,Calibri_MSFontService,sans-serif" font-weight="700" font-size="83" transform="matrix(1 0 0 1 2416.66 940)">2</text><rect x="2537.5" y="813.5" width="200" height="200" stroke="#000000" stroke-width="4.58333" stroke-miterlimit="8" fill="#FFFFFF"/><text font-family="Calibri,Calibri_MSFontService,sans-serif" font-weight="700" font-size="83" transform="matrix(1 0 0 1 2616.48 940)">3</text><rect x="2737.5" y="813.5" width="200" height="200" stroke="#000000" stroke-width="4.58333" stroke-miterlimit="8" fill="#FFFFFF"/><text font-family="Calibri,Calibri_MSFontService,sans-serif" font-weight="700" font-size="83" transform="matrix(1 0 0 1 2816.29 940)">1</text><rect x="2138.5" y="1013.5" width="200" height="199" stroke="#000000" stroke-width="4.58333" stroke-miterlimit="8" fill="#FFFFFF"/><text font-family="Calibri,Calibri_MSFontService,sans-serif" font-weight="700" font-size="83" transform="matrix(1 0 0 1 2216.84 1140)">1</text><rect x="2338.5" y="1013.5" width="199" height="199" stroke="#000000" stroke-width="4.58333" stroke-miterlimit="8" fill="#FFFFFF"/><text font-family="Calibri,Calibri_MSFontService,sans-serif" font-weight="700" font-size="83" transform="matrix(1 0 0 1 2416.66 1140)">1</text><rect x="2537.5" y="1013.5" width="200" height="199" stroke="#000000" stroke-width="4.58333" stroke-miterlimit="8" fill="#FFFFFF"/><text font-family="Calibri,Calibri_MSFontService,sans-serif" font-weight="700" font-size="83" transform="matrix(1 0 0 1 2616.48 1140)">2</text><rect x="2737.5" y="1013.5" width="200" height="199" stroke="#000000" stroke-width="4.58333" stroke-miterlimit="8" fill="#FFFFFF"/><text font-family="Calibri,Calibri_MSFontService,sans-serif" font-weight="700" font-size="83" transform="matrix(1 0 0 1 2816.29 1140)">3</text><rect x="2138.5" y="1212.5" width="200" height="200" stroke="#000000" stroke-width="4.58333" stroke-miterlimit="8" fill="#FFFFFF"/><text font-family="Calibri,Calibri_MSFontService,sans-serif" font-weight="700" font-size="83" transform="matrix(1 0 0 1 2216.84 1340)">3</text><rect x="2338.5" y="1212.5" width="199" height="200" stroke="#000000" stroke-width="4.58333" stroke-miterlimit="8" fill="#FFFFFF"/><text font-family="Calibri,Calibri_MSFontService,sans-serif" font-weight="700" font-size="83" transform="matrix(1 0 0 1 2416.66 1340)">1</text><rect x="2537.5" y="1212.5" width="200" height="200" stroke="#000000" stroke-width="4.58333" stroke-miterlimit="8" fill="#FFFFFF"/><text font-family="Calibri,Calibri_MSFontService,sans-serif" font-weight="700" font-size="83" transform="matrix(1 0 0 1 2616.48 1340)">1</text><rect x="2737.5" y="1212.5" width="200" height="200" stroke="#000000" stroke-width="4.58333" stroke-miterlimit="8" fill="#FFFFFF"/><text font-family="Calibri,Calibri_MSFontService,sans-serif" font-weight="700" font-size="83" transform="matrix(1 0 0 1 2816.29 1340)">2<tspan fill="#00B0F0" font-size="83" x="-2128.75" y="-867">FONCTIONNEMENT </tspan><tspan fill="#00B0F0" font-size="83" x="-1444.29" y="-867">DES MÉLANGES DE COLONNES</tspan><tspan font-family="Wingdings,Wingdings_MSFontService,sans-serif" font-weight="400" font-size="83" x="-2256.22" y="319"></tspan><tspan font-weight="400" font-size="83" x="-2153.1" y="319">C</tspan><tspan font-weight="400" font-size="83" x="-2108.98" y="319">ette </tspan><tspan font-weight="400" font-size="83" x="-1955.07" y="319">étape dans </tspan><tspan font-size="83" x="-1566.93" y="319">AES </tspan><tspan font-weight="400" font-size="83" x="-1419.92" y="319">est une multiplication matrice</tspan><tspan font-weight="400" font-size="83" x="-416.426" y="319">-</tspan><tspan font-weight="400" font-size="83" x="-391.218" y="319">vecteur</tspan><tspan font-family="Wingdings,Wingdings_MSFontService,sans-serif" font-weight="400" font-size="83" x="-2256.22" y="517"></tspan><tspan font-weight="400" font-size="83" x="-2153.1" y="517">N</tspan><tspan font-weight="400" font-size="83" x="-2099.82" y="517">ous </tspan><tspan font-weight="400" font-size="83" x="-1961.74" y="517">prenons les colonnes de la matrice d'état et multiplions les valeurs prédéfinies</tspan><tspan font-weight="400" font-size="83" x="-1266.22" y="616">matrice </tspan><tspan font-weight="400" font-size="83" x="-991.405" y="616">avec ces vecteurs</tspan></text></g></svg>