<svg width="4093" height="1647" xmlns="http://www.w3.org/2000/svg" xmlns:xlink="http://www.w3.org/1999/xlink" overflow="hidden"><defs><clipPath id="clip0"><rect x="123" y="526" width="4093" height="1647"/></clipPath></defs><g clip-path="url(#clip0)" transform="translate(-123 -526)"><path d="M1348.46 1931.18 1323 1081" stroke="#5B9BD5" stroke-width="2.29167" stroke-miterlimit="8" stroke-dasharray="9.16667 6.875" fill="none" fill-rule="evenodd"/><path d="M123 1484.12 1939.13 1484.13 1939.13 1497.88 123 1497.87ZM1932.26 1470.38 1973.51 1491 1932.26 1511.63Z" fill="#7F7F7F"/><path d="M6.875-1.72665e-06 6.87535 1402.59-6.87465 1402.59-6.875 1.72665e-06ZM20.6254 1395.71 0.000360892 1436.96-20.6246 1395.71Z" fill="#7F7F7F" transform="matrix(1 0 0 -1 773 2165.96)"/><path d="M1516.26 802.5C1400.69 997.693 1285.13 1192.89 1164.95 1244.62 1044.77 1296.36 910.714 1070.6 795.153 1112.93 679.591 1155.26 476.203 1368.48 471.581 1498.61 466.959 1628.74 661.101 1854.5 767.418 1893.7 873.734 1932.9 983.132 1688.32 1109.48 1733.78 1235.83 1779.25 1380.66 1972.87 1525.5 2166.5" stroke="#FFC000" stroke-width="20.625" stroke-miterlimit="8" fill="none" fill-rule="evenodd"/><text fill="#7F7F7F" font-family="Calibri,Calibri_MSFontService,sans-serif" font-weight="700" font-size="110" transform="matrix(1 0 0 1 2018.81 1520)">x<tspan font-size="110" x="-1272.67" y="-858">y</tspan></text><path d="M2484.5 1762.67C2484.5 1729.44 2511.44 1702.5 2544.67 1702.5L3924.33 1702.5C3957.56 1702.5 3984.5 1729.44 3984.5 1762.67L3984.5 2003.33C3984.5 2036.56 3957.56 2063.5 3924.33 2063.5L2544.67 2063.5C2511.44 2063.5 2484.5 2036.56 2484.5 2003.33Z" stroke="#7F7F7F" stroke-width="4.58333" stroke-miterlimit="8" fill="#FFF2CC" fill-rule="evenodd"/><text fill="#7F7F7F" font-family="Calibri,Calibri_MSFontService,sans-serif" font-style="italic" font-weight="700" font-size="110" transform="matrix(1 0 0 1 2559.96 1913)">P(<tspan font-size="110" x="92.8125" y="0">x</tspan><tspan font-size="73" x="143.229" y="27">1</tspan><tspan font-size="110" x="197.083" y="0">,</tspan><tspan font-size="110" x="250.365" y="0">y</tspan><tspan font-size="73" x="301.927" y="27">1</tspan><tspan font-size="110" x="339.167" y="0">) + Q(</tspan><tspan font-size="110" x="586.667" y="0">x</tspan><tspan font-size="73" x="637.083" y="27">2</tspan><tspan font-size="110" x="690.938" y="0">,</tspan><tspan font-size="110" x="744.219" y="0">y</tspan><tspan font-size="73" x="795.781" y="27">2</tspan><tspan font-size="110" x="833.021" y="0">) = R(</tspan><tspan font-size="110" x="1067.92" y="0">x</tspan><tspan font-size="73" x="1118.33" y="27">3</tspan><tspan font-size="110" x="1172.19" y="0">,</tspan><tspan font-size="110" x="1225.47" y="0">y</tspan><tspan font-size="73" x="1277.03" y="27">3</tspan><tspan font-size="110" x="1314.27" y="0">)</tspan></text><path d="M259 1567 1737.73 2063.01" stroke="#A9D18E" stroke-width="2.29167" stroke-miterlimit="8" fill="none" fill-rule="evenodd"/><path d="M496.5 1657C496.5 1640.16 509.931 1626.5 526.5 1626.5 543.069 1626.5 556.5 1640.16 556.5 1657 556.5 1673.84 543.069 1687.5 526.5 1687.5 509.931 1687.5 496.5 1673.84 496.5 1657Z" stroke="#7F7F7F" stroke-width="4.58333" stroke-miterlimit="8" fill="#9DC3E6" fill-rule="evenodd"/><path d="M914.5 1792.5C914.5 1775.93 927.931 1762.5 944.5 1762.5 961.069 1762.5 974.5 1775.93 974.5 1792.5 974.5 1809.07 961.069 1822.5 944.5 1822.5 927.931 1822.5 914.5 1809.07 914.5 1792.5Z" stroke="#7F7F7F" stroke-width="4.58333" stroke-miterlimit="8" fill="#9DC3E6" fill-rule="evenodd"/><text fill="#7F7F7F" font-family="Calibri,Calibri_MSFontService,sans-serif" font-style="italic" font-weight="700" font-size="83" transform="matrix(1 0 0 1 224.757 1806)">P(x<tspan font-size="55" x="107.708" y="20">1</tspan><tspan font-size="83" x="135.781" y="0">,y</tspan><tspan font-size="55" x="195.938" y="20">1</tspan><tspan font-size="83" x="224.01" y="0">)</tspan><tspan font-size="83" x="683.74" y="-153">Q(x</tspan><tspan font-size="55" x="803.479" y="-133">2</tspan><tspan font-size="83" x="831.552" y="-153">,y</tspan><tspan font-size="55" x="891.708" y="-133">2</tspan><tspan font-size="83" x="919.781" y="-153">)</tspan></text><path d="M1316.5 1928.5C1316.5 1911.93 1329.93 1898.5 1346.5 1898.5 1363.07 1898.5 1376.5 1911.93 1376.5 1928.5 1376.5 1945.07 1363.07 1958.5 1346.5 1958.5 1329.93 1958.5 1316.5 1945.07 1316.5 1928.5Z" stroke="#7F7F7F" stroke-width="4.58333" stroke-miterlimit="8" fill="#9DC3E6" fill-rule="evenodd"/><text fill="#7F7F7F" font-family="Calibri,Calibri_MSFontService,sans-serif" font-style="italic" font-weight="700" font-size="83" transform="matrix(1 0 0 1 1407.86 1887)">-<tspan font-size="83" x="25.2084" y="0">R(x</tspan><tspan font-size="55" x="135.208" y="20">3</tspan><tspan font-size="83" x="163.281" y="0">,</tspan><tspan font-size="83" x="184.479" y="0">-</tspan><tspan font-size="83" x="209.688" y="0">y</tspan><tspan font-size="55" x="248.646" y="20">3</tspan><tspan font-size="83" x="276.719" y="0">)</tspan></text><path d="M1300.5 1103C1300.5 1086.16 1313.93 1072.5 1330.5 1072.5 1347.07 1072.5 1360.5 1086.16 1360.5 1103 1360.5 1119.84 1347.07 1133.5 1330.5 1133.5 1313.93 1133.5 1300.5 1119.84 1300.5 1103Z" stroke="#7F7F7F" stroke-width="4.58333" stroke-miterlimit="8" fill="#9DC3E6" fill-rule="evenodd"/><text fill="#7F7F7F" font-family="Calibri,Calibri_MSFontService,sans-serif" font-style="italic" font-weight="700" font-size="83" transform="matrix(1 0 0 1 1067.93 1017)">R(x<tspan font-size="55" x="110" y="20">3</tspan><tspan font-size="83" x="138.073" y="0">,y</tspan><tspan font-size="55" x="198.229" y="20">3</tspan><tspan font-size="83" x="226.302" y="0">)</tspan><tspan fill="#8FAADC" font-style="normal" font-size="110" x="1757.35" y="-137">AJOUT DE POINTS</tspan></text><path d="M2824.82 891.554 3097.49 891.554 3370.15 891.554 3642.82 891.554 3642.82 898.554 3370.15 898.554 3097.49 898.554 2824.82 898.554Z" fill="#8FAADC" fill-rule="evenodd"/><text fill="#595959" font-family="Calibri,Calibri_MSFontService,sans-serif" font-style="italic" font-weight="400" font-size="110" transform="matrix(1 0 0 1 2639.27 1117)">On peut définir<tspan font-weight="700" font-size="110" x="693.688" y="0">l’opération             </tspan><tspan font-weight="700" font-size="110" x="-7.53955" y="119">d’ addition</tspan><tspan font-size="110" x="509.804" y="119">sur des courbes </tspan><tspan font-size="110" x="367.217" y="238">elliptiques</tspan><tspan font-size="110" x="-117.952" y="357">(ce n’est pas la même chose que </tspan><tspan font-size="110" x="128.723" y="476">l’addition vectorielle)</tspan></text></g></svg>