<svg width="2064" height="1130" xmlns="http://www.w3.org/2000/svg" xmlns:xlink="http://www.w3.org/1999/xlink" overflow="hidden"><defs><clipPath id="clip0"><rect x="638" y="374" width="2064" height="1130"/></clipPath></defs><g clip-path="url(#clip0)" transform="translate(-638 -374)"><rect x="2079.5" y="675.5" width="199" height="200" stroke="#000000" stroke-width="4.58333" stroke-miterlimit="8" fill="#FFFFFF"/><rect x="2079.5" y="875.5" width="199" height="199" stroke="#000000" stroke-width="4.58333" stroke-miterlimit="8" fill="#FFFFFF"/><rect x="2079.5" y="1074.5" width="199" height="200" stroke="#000000" stroke-width="4.58333" stroke-miterlimit="8" fill="#FFFFFF"/><rect x="2079.5" y="1274.5" width="199" height="200" stroke="#000000" stroke-width="4.58333" stroke-miterlimit="8" fill="#FFFFFF"/><text font-family="Calibri,Calibri_MSFontService,sans-serif" font-weight="700" font-size="128" transform="matrix(1 0 0 1 2138.21 793)">s<tspan font-size="73" x="42.251" y="58">12</tspan><tspan font-size="128" x="10.2732" y="206">s</tspan><tspan font-size="73" x="50.9707" y="252">13</tspan><tspan font-size="128" x="0" y="394">s</tspan><tspan font-size="73" x="42.251" y="452">14</tspan><tspan font-size="128" x="3.62915" y="598">s</tspan><tspan font-size="73" x="48.853" y="647">15</tspan></text><rect x="1103.5" y="675.5" width="200" height="200" stroke="#000000" stroke-width="4.58333" stroke-miterlimit="8" fill="#FFFFFF"/><text font-family="Calibri,Calibri_MSFontService,sans-serif" font-weight="700" font-size="83" transform="matrix(1 0 0 1 1182.25 802)">2</text><rect x="1303.5" y="675.5" width="200" height="200" stroke="#000000" stroke-width="4.58333" stroke-miterlimit="8" fill="#FFFFFF"/><text font-family="Calibri,Calibri_MSFontService,sans-serif" font-weight="700" font-size="83" transform="matrix(1 0 0 1 1382.06 802)">3</text><rect x="1503.5" y="675.5" width="200" height="200" stroke="#000000" stroke-width="4.58333" stroke-miterlimit="8" fill="#FFFFFF"/><text font-family="Calibri,Calibri_MSFontService,sans-serif" font-weight="700" font-size="83" transform="matrix(1 0 0 1 1581.88 802)">1</text><rect x="1703.5" y="675.5" width="200" height="200" stroke="#000000" stroke-width="4.58333" stroke-miterlimit="8" fill="#FFFFFF"/><text font-family="Calibri,Calibri_MSFontService,sans-serif" font-weight="700" font-size="83" transform="matrix(1 0 0 1 1781.7 802)">1</text><rect x="1103.5" y="875.5" width="200" height="199" stroke="#000000" stroke-width="4.58333" stroke-miterlimit="8" fill="#FFFFFF"/><text font-family="Calibri,Calibri_MSFontService,sans-serif" font-weight="700" font-size="83" transform="matrix(1 0 0 1 1182.25 1002)">1</text><rect x="1303.5" y="875.5" width="200" height="199" stroke="#000000" stroke-width="4.58333" stroke-miterlimit="8" fill="#FFFFFF"/><text font-family="Calibri,Calibri_MSFontService,sans-serif" font-weight="700" font-size="83" transform="matrix(1 0 0 1 1382.06 1002)">2</text><rect x="1503.5" y="875.5" width="200" height="199" stroke="#000000" stroke-width="4.58333" stroke-miterlimit="8" fill="#FFFFFF"/><text font-family="Calibri,Calibri_MSFontService,sans-serif" font-weight="700" font-size="83" transform="matrix(1 0 0 1 1581.88 1002)">3</text><rect x="1703.5" y="875.5" width="200" height="199" stroke="#000000" stroke-width="4.58333" stroke-miterlimit="8" fill="#FFFFFF"/><text font-family="Calibri,Calibri_MSFontService,sans-serif" font-weight="700" font-size="83" transform="matrix(1 0 0 1 1781.7 1002)">1</text><rect x="1103.5" y="1074.5" width="200" height="200" stroke="#000000" stroke-width="4.58333" stroke-miterlimit="8" fill="#FFFFFF"/><text font-family="Calibri,Calibri_MSFontService,sans-serif" font-weight="700" font-size="83" transform="matrix(1 0 0 1 1182.25 1202)">1</text><rect x="1303.5" y="1074.5" width="200" height="200" stroke="#000000" stroke-width="4.58333" stroke-miterlimit="8" fill="#FFFFFF"/><text font-family="Calibri,Calibri_MSFontService,sans-serif" font-weight="700" font-size="83" transform="matrix(1 0 0 1 1382.06 1202)">1</text><rect x="1503.5" y="1074.5" width="200" height="200" stroke="#000000" stroke-width="4.58333" stroke-miterlimit="8" fill="#FFFFFF"/><text font-family="Calibri,Calibri_MSFontService,sans-serif" font-weight="700" font-size="83" transform="matrix(1 0 0 1 1581.88 1202)">2</text><rect x="1703.5" y="1074.5" width="200" height="200" stroke="#000000" stroke-width="4.58333" stroke-miterlimit="8" fill="#FFFFFF"/><text font-family="Calibri,Calibri_MSFontService,sans-serif" font-weight="700" font-size="83" transform="matrix(1 0 0 1 1781.7 1202)">3</text><rect x="1103.5" y="1274.5" width="200" height="200" stroke="#000000" stroke-width="4.58333" stroke-miterlimit="8" fill="#FFFFFF"/><text font-family="Calibri,Calibri_MSFontService,sans-serif" font-weight="700" font-size="83" transform="matrix(1 0 0 1 1182.25 1402)">3</text><rect x="1303.5" y="1274.5" width="200" height="200" stroke="#000000" stroke-width="4.58333" stroke-miterlimit="8" fill="#FFFFFF"/><text font-family="Calibri,Calibri_MSFontService,sans-serif" font-weight="700" font-size="83" transform="matrix(1 0 0 1 1382.06 1402)">1</text><rect x="1503.5" y="1274.5" width="200" height="200" stroke="#000000" stroke-width="4.58333" stroke-miterlimit="8" fill="#FFFFFF"/><text font-family="Calibri,Calibri_MSFontService,sans-serif" font-weight="700" font-size="83" transform="matrix(1 0 0 1 1581.88 1402)">1</text><rect x="1703.5" y="1274.5" width="200" height="200" stroke="#000000" stroke-width="4.58333" stroke-miterlimit="8" fill="#FFFFFF"/><text font-family="Calibri,Calibri_MSFontService,sans-serif" font-weight="700" font-size="83" transform="matrix(1 0 0 1 1781.7 1402)">2<tspan font-size="110" x="181.869" y="-295">X</tspan></text><rect x="2470.5" y="675.5" width="200" height="200" stroke="#000000" stroke-width="4.58333" stroke-miterlimit="8" fill="#FFFFFF"/><rect x="2470.5" y="875.5" width="200" height="199" stroke="#000000" stroke-width="4.58333" stroke-miterlimit="8" fill="#FFFFFF"/><rect x="2470.5" y="1074.5" width="200" height="200" stroke="#000000" stroke-width="4.58333" stroke-miterlimit="8" fill="#FFFFFF"/><rect x="2470.5" y="1274.5" width="200" height="200" stroke="#000000" stroke-width="4.58333" stroke-miterlimit="8" fill="#FFFFFF"/><text font-family="Calibri,Calibri_MSFontService,sans-serif" font-weight="700" font-size="128" transform="matrix(1 0 0 1 2530.11 793)">s’<tspan font-size="73" x="42.2507" y="58">12</tspan><tspan font-size="128" x="10.2732" y="206">s’</tspan><tspan font-size="73" x="52.5239" y="261">13</tspan><tspan font-size="128" x="0" y="394">s’</tspan><tspan font-size="73" x="42.2507" y="452">14</tspan><tspan font-size="128" x="3.62915" y="598">s’</tspan><tspan font-size="73" x="48.8528" y="647">15</tspan><tspan font-size="110" x="-178.795" y="323">=</tspan><tspan font-size="110" x="-181.831" y="325">=</tspan><tspan fill="#00B0F0" font-size="83" x="-1842.56" y="-317">FONCTIONNEMENT </tspan><tspan fill="#00B0F0" font-size="83" x="-1158.11" y="-317">DES MÉLANGES DE COLONNES</tspan></text></g></svg>