<svg width="3192" height="2009" xmlns="http://www.w3.org/2000/svg" xmlns:xlink="http://www.w3.org/1999/xlink" overflow="hidden"><defs><clipPath id="clip0"><rect x="622" y="354" width="3192" height="2009"/></clipPath></defs><g clip-path="url(#clip0)" transform="translate(-622 -354)"><rect x="2898.5" y="638.5" width="200" height="200" stroke="#000000" stroke-width="4.58333" stroke-miterlimit="8" fill="#FFFFFF"/><rect x="2898.5" y="838.5" width="200" height="200" stroke="#000000" stroke-width="4.58333" stroke-miterlimit="8" fill="#FFFFFF"/><rect x="2898.5" y="1038.5" width="200" height="200" stroke="#000000" stroke-width="4.58333" stroke-miterlimit="8" fill="#FFFFFF"/><rect x="2898.5" y="1238.5" width="200" height="199" stroke="#000000" stroke-width="4.58333" stroke-miterlimit="8" fill="#FFFFFF"/><text font-family="Calibri,Calibri_MSFontService,sans-serif" font-weight="700" font-size="128" transform="matrix(1 0 0 1 2957.69 756)">s’<tspan font-size="73" x="42.2507" y="58">12</tspan><tspan font-size="128" x="10.2732" y="206">s’</tspan><tspan font-size="73" x="52.5239" y="261">13</tspan><tspan font-size="128" x="0" y="394">s’</tspan><tspan font-size="73" x="42.2507" y="452">14</tspan><tspan font-size="128" x="3.62915" y="599">s’</tspan><tspan font-size="73" x="48.8528" y="648">15</tspan></text><rect x="1026.5" y="633.5" width="200" height="200" stroke="#000000" stroke-width="4.58333" stroke-miterlimit="8" fill="#FFFFFF"/><rect x="1226.5" y="633.5" width="200" height="200" stroke="#000000" stroke-width="4.58333" stroke-miterlimit="8" fill="#FFFFFF"/><rect x="1426.5" y="633.5" width="199" height="200" stroke="#000000" stroke-width="4.58333" stroke-miterlimit="8" fill="#FFFFFF"/><rect x="1625.5" y="633.5" width="200" height="200" stroke="#000000" stroke-width="4.58333" stroke-miterlimit="8" fill="#FFFFFF"/><rect x="1026.5" y="833.5" width="200" height="200" stroke="#000000" stroke-width="4.58333" stroke-miterlimit="8" fill="#FFFFFF"/><rect x="1226.5" y="833.5" width="200" height="200" stroke="#000000" stroke-width="4.58333" stroke-miterlimit="8" fill="#FFFFFF"/><rect x="1426.5" y="833.5" width="199" height="200" stroke="#000000" stroke-width="4.58333" stroke-miterlimit="8" fill="#FFFFFF"/><rect x="1625.5" y="833.5" width="200" height="200" stroke="#000000" stroke-width="4.58333" stroke-miterlimit="8" fill="#FFFFFF"/><rect x="1026.5" y="1033.5" width="200" height="200" stroke="#000000" stroke-width="4.58333" stroke-miterlimit="8" fill="#FFFFFF"/><rect x="1226.5" y="1033.5" width="200" height="200" stroke="#000000" stroke-width="4.58333" stroke-miterlimit="8" fill="#FFFFFF"/><rect x="1426.5" y="1033.5" width="199" height="200" stroke="#000000" stroke-width="4.58333" stroke-miterlimit="8" fill="#FFFFFF"/><rect x="1625.5" y="1033.5" width="200" height="200" stroke="#000000" stroke-width="4.58333" stroke-miterlimit="8" fill="#FFFFFF"/><rect x="1026.5" y="1233.5" width="200" height="200" stroke="#000000" stroke-width="4.58333" stroke-miterlimit="8" fill="#FFFFFF"/><rect x="1226.5" y="1233.5" width="200" height="200" stroke="#000000" stroke-width="4.58333" stroke-miterlimit="8" fill="#FFFFFF"/><rect x="1426.5" y="1233.5" width="199" height="200" stroke="#000000" stroke-width="4.58333" stroke-miterlimit="8" fill="#FFFFFF"/><rect x="1625.5" y="1233.5" width="200" height="200" stroke="#000000" stroke-width="4.58333" stroke-miterlimit="8" fill="#FFFFFF"/><text font-family="Calibri,Calibri_MSFontService,sans-serif" font-weight="700" font-size="128" transform="matrix(1 0 0 1 1085.64 751)">s<tspan font-size="73" x="42.2507" y="58">0</tspan><tspan font-size="128" x="10.2732" y="206">s</tspan><tspan font-size="73" x="58.47" y="261">1</tspan><tspan font-size="128" x="201.996" y="210">s</tspan><tspan font-size="73" x="256.139" y="259">5</tspan><tspan font-size="128" x="200.947" y="-3">s</tspan><tspan font-size="73" x="243.197" y="55">4</tspan><tspan font-size="128" x="0" y="394">s</tspan><tspan font-size="73" x="42.2507" y="452">2</tspan><tspan font-size="128" x="3.62915" y="599">s</tspan><tspan font-size="73" x="48.8529" y="648">3</tspan><tspan font-size="128" x="197.509" y="398">s</tspan><tspan font-size="73" x="241.786" y="447">6</tspan><tspan font-size="128" x="198.959" y="607">s</tspan><tspan font-size="73" x="247.155" y="650">7</tspan><tspan font-size="128" x="397.406" y="5">s</tspan><tspan font-size="73" x="439.657" y="63">8</tspan><tspan font-size="128" x="407.68" y="211">s</tspan><tspan font-size="73" x="458.849" y="257">9</tspan><tspan font-size="128" x="593.456" y="209">s</tspan><tspan font-size="73" x="635.707" y="267">13</tspan><tspan font-size="128" x="598.353" y="2">s</tspan><tspan font-size="128" x="397.406" y="399">s</tspan><tspan font-size="73" x="439.657" y="457">10</tspan><tspan font-size="128" x="406.982" y="604">s</tspan><tspan font-size="73" x="440.313" y="650">11</tspan><tspan font-size="128" x="583.023" y="397">s</tspan><tspan font-size="73" x="627.3" y="452">14</tspan><tspan font-size="128" x="590.419" y="600">s</tspan><tspan font-size="73" x="629.697" y="655">15</tspan><tspan font-size="73" x="635.96" y="69">12</tspan></text><path d="M1895.5 1020.19 2179.88 1020.19 2179.88 1040.81 1895.5 1040.81ZM2169.57 999.563 2231.45 1030.5 2169.57 1061.44Z" fill="#00B0F0"/><rect x="2699.5" y="638.5" width="200" height="200" stroke="#000000" stroke-width="4.58333" stroke-miterlimit="8" fill="#FFFFFF"/><rect x="2699.5" y="838.5" width="200" height="200" stroke="#000000" stroke-width="4.58333" stroke-miterlimit="8" fill="#FFFFFF"/><rect x="2699.5" y="1038.5" width="200" height="200" stroke="#000000" stroke-width="4.58333" stroke-miterlimit="8" fill="#FFFFFF"/><rect x="2699.5" y="1238.5" width="200" height="199" stroke="#000000" stroke-width="4.58333" stroke-miterlimit="8" fill="#FFFFFF"/><text font-family="Calibri,Calibri_MSFontService,sans-serif" font-weight="700" font-size="128" transform="matrix(1 0 0 1 2758.62 756)">s’<tspan font-size="73" x="42.2507" y="58">8</tspan><tspan font-size="128" x="10.2732" y="206">s’</tspan><tspan font-size="73" x="58.47" y="261">9</tspan><tspan font-size="128" x="0" y="394">s’</tspan><tspan font-size="73" x="42.2507" y="452">10</tspan><tspan font-size="128" x="3.62915" y="599">s’</tspan><tspan font-size="73" x="48.853" y="648">11</tspan></text><rect x="2500.5" y="638.5" width="200" height="200" stroke="#000000" stroke-width="4.58333" stroke-miterlimit="8" fill="#FFFFFF"/><rect x="2500.5" y="838.5" width="200" height="200" stroke="#000000" stroke-width="4.58333" stroke-miterlimit="8" fill="#FFFFFF"/><rect x="2500.5" y="1038.5" width="200" height="200" stroke="#000000" stroke-width="4.58333" stroke-miterlimit="8" fill="#FFFFFF"/><rect x="2500.5" y="1238.5" width="200" height="199" stroke="#000000" stroke-width="4.58333" stroke-miterlimit="8" fill="#FFFFFF"/><text font-family="Calibri,Calibri_MSFontService,sans-serif" font-weight="700" font-size="128" transform="matrix(1 0 0 1 2559.54 756)">s’<tspan font-size="73" x="42.2507" y="58">4</tspan><tspan font-size="128" x="10.2732" y="206">s’</tspan><tspan font-size="73" x="58.47" y="261">5</tspan><tspan font-size="128" x="0" y="394">s’</tspan><tspan font-size="73" x="42.2507" y="452">6</tspan><tspan font-size="128" x="3.62915" y="599">s’</tspan><tspan font-size="73" x="48.853" y="648">7</tspan></text><rect x="2301.5" y="638.5" width="200" height="200" stroke="#000000" stroke-width="4.58333" stroke-miterlimit="8" fill="#FFFFFF"/><rect x="2301.5" y="838.5" width="200" height="200" stroke="#000000" stroke-width="4.58333" stroke-miterlimit="8" fill="#FFFFFF"/><rect x="2301.5" y="1038.5" width="200" height="200" stroke="#000000" stroke-width="4.58333" stroke-miterlimit="8" fill="#FFFFFF"/><rect x="2301.5" y="1238.5" width="200" height="199" stroke="#000000" stroke-width="4.58333" stroke-miterlimit="8" fill="#FFFFFF"/><text font-family="Calibri,Calibri_MSFontService,sans-serif" font-weight="700" font-size="128" transform="matrix(1 0 0 1 2360.44 756)">s’<tspan font-size="73" x="42.2507" y="58">0</tspan><tspan font-size="128" x="10.2732" y="206">s’</tspan><tspan font-size="73" x="58.47" y="261">1</tspan><tspan font-size="128" x="0" y="394">s’</tspan><tspan font-size="73" x="42.2507" y="452">2</tspan><tspan font-size="128" x="3.62915" y="599">s’</tspan><tspan font-size="73" x="48.853" y="648">3</tspan><tspan font-weight="400" font-size="83" x="-1526.26" y="868">Problème </tspan><tspan font-weight="400" font-size="83" x="-1183.26" y="868">: </tspan><tspan font-weight="400" font-size="83" x="-1142.01" y="868">On </tspan><tspan font-weight="400" font-size="83" x="-1025.14" y="868">a affaire ici à un champ dit </tspan><tspan font-size="83" x="-122.177" y="868">de Galois</tspan></text><path d="M834.184 1632.77 1177.18 1632.77 1177.18 1637.77 834.184 1637.77Z" fill-rule="evenodd"/><text font-family="Calibri,Calibri_MSFontService,sans-serif" font-weight="400" font-size="83" transform="matrix(1 0 0 1 871.996 1822)">Alors comment multiplier une suite binaire par <tspan font-weight="700" font-size="83" x="1584.44" y="0">3 </tspan><tspan font-size="83" x="1645.16" y="0">?</tspan><tspan font-family="Wingdings,Wingdings_MSFontService,sans-serif" font-size="83" x="18.9063" y="199"></tspan><tspan font-size="83" x="118.594" y="199">La </tspan><tspan font-size="83" x="211.979" y="199">multiplication est (approximativement) l'opération binaire de décalage à gauche</tspan><tspan font-family="Wingdings,Wingdings_MSFontService,sans-serif" font-size="83" x="18.9063" y="397"></tspan><tspan font-size="83" x="118.594" y="397">L</tspan><tspan font-size="83" x="153.542" y="397">'addition </tspan><tspan font-size="83" x="469.792" y="397">est l' opération </tspan><tspan fill="#00B0F0" font-weight="700" font-size="83" x="-200.431" y="-1366">FONCTIONNEMENT </tspan><tspan fill="#00B0F0" font-weight="700" font-size="83" x="484.021" y="-1366">DES MÉLANGES DE COLONNES</tspan></text></g></svg>