<svg width="3289" height="1633" xmlns="http://www.w3.org/2000/svg" xmlns:xlink="http://www.w3.org/1999/xlink" overflow="hidden"><defs><clipPath id="clip0"><rect x="638" y="371" width="3289" height="1633"/></clipPath></defs><g clip-path="url(#clip0)" transform="translate(-638 -371)"><rect x="806.5" y="598.5" width="148" height="148" stroke="#000000" stroke-width="4.58333" stroke-miterlimit="8" fill="#FFFFFF"/><text font-family="Calibri,Calibri_MSFontService,sans-serif" font-weight="700" font-size="73" transform="matrix(1 0 0 1 841.615 697)">1b</text><rect x="949.5" y="598.5" width="149" height="148" stroke="#000000" stroke-width="4.58333" stroke-miterlimit="8" fill="#FFFFFF"/><text font-family="Calibri,Calibri_MSFontService,sans-serif" font-weight="700" font-size="73" transform="matrix(1 0 0 1 986.576 697)">22</text><rect x="1098.5" y="598.5" width="149" height="148" stroke="#000000" stroke-width="4.58333" stroke-miterlimit="8" fill="#FFFFFF"/><text font-family="Calibri,Calibri_MSFontService,sans-serif" font-weight="700" font-size="73" transform="matrix(1 0 0 1 1137.23 697)">cb</text><rect x="1242.5" y="598.5" width="149" height="148" stroke="#000000" stroke-width="4.58333" stroke-miterlimit="8" fill="#00B0F0"/><text font-family="Calibri,Calibri_MSFontService,sans-serif" font-weight="700" font-size="73" transform="matrix(1 0 0 1 1279.04 697)">03</text><rect x="806.5" y="748.5" width="148" height="148" stroke="#000000" stroke-width="4.58333" stroke-miterlimit="8" fill="#FFFFFF"/><text font-family="Calibri,Calibri_MSFontService,sans-serif" font-weight="700" font-size="73" transform="matrix(1 0 0 1 845.912 847)">7c</text><rect x="949.5" y="748.5" width="149" height="148" stroke="#000000" stroke-width="4.58333" stroke-miterlimit="8" fill="#FFFFFF"/><text font-family="Calibri,Calibri_MSFontService,sans-serif" font-weight="700" font-size="73" transform="matrix(1 0 0 1 987.436 847)">ae</text><rect x="1098.5" y="748.5" width="149" height="148" stroke="#000000" stroke-width="4.58333" stroke-miterlimit="8" fill="#FFFFFF"/><text font-family="Calibri,Calibri_MSFontService,sans-serif" font-weight="700" font-size="73" transform="matrix(1 0 0 1 1142.1 847)">f4</text><rect x="1242.5" y="748.5" width="149" height="148" stroke="#000000" stroke-width="4.58333" stroke-miterlimit="8" fill="#00B0F0"/><text font-family="Calibri,Calibri_MSFontService,sans-serif" font-weight="700" font-size="73" transform="matrix(1 0 0 1 1278.47 847)">ba</text><rect x="806.5" y="896.5" width="148" height="149" stroke="#000000" stroke-width="4.58333" stroke-miterlimit="8" fill="#FFFFFF"/><text font-family="Calibri,Calibri_MSFontService,sans-serif" font-weight="700" font-size="73" transform="matrix(1 0 0 1 842.761 996)">14</text><rect x="949.5" y="896.5" width="149" height="149" stroke="#000000" stroke-width="4.58333" stroke-miterlimit="8" fill="#FFFFFF"/><text font-family="Calibri,Calibri_MSFontService,sans-serif" font-weight="700" font-size="73" transform="matrix(1 0 0 1 986.576 996)">01</text><rect x="1098.5" y="896.5" width="149" height="149" stroke="#000000" stroke-width="4.58333" stroke-miterlimit="8" fill="#FFFFFF"/><text font-family="Calibri,Calibri_MSFontService,sans-serif" font-weight="700" font-size="73" transform="matrix(1 0 0 1 1134.08 996)">1b</text><rect x="1242.5" y="896.5" width="149" height="149" stroke="#000000" stroke-width="4.58333" stroke-miterlimit="8" fill="#00B0F0"/><text font-family="Calibri,Calibri_MSFontService,sans-serif" font-weight="700" font-size="73" transform="matrix(1 0 0 1 1285.92 996)">4f</text><rect x="806.5" y="1043.5" width="148" height="149" stroke="#000000" stroke-width="4.58333" stroke-miterlimit="8" fill="#FFFFFF"/><text font-family="Calibri,Calibri_MSFontService,sans-serif" font-weight="700" font-size="73" transform="matrix(1 0 0 1 842.761 1143)">09</text><rect x="949.5" y="1043.5" width="149" height="149" stroke="#000000" stroke-width="4.58333" stroke-miterlimit="8" fill="#FFFFFF"/><text font-family="Calibri,Calibri_MSFontService,sans-serif" font-weight="700" font-size="73" transform="matrix(1 0 0 1 987.149 1143)">a6</text><rect x="1098.5" y="1043.5" width="149" height="149" stroke="#000000" stroke-width="4.58333" stroke-miterlimit="8" fill="#FFFFFF"/><text font-family="Calibri,Calibri_MSFontService,sans-serif" font-weight="700" font-size="73" transform="matrix(1 0 0 1 1135.22 1143)">88</text><rect x="1242.5" y="1043.5" width="149" height="149" stroke="#000000" stroke-width="4.58333" stroke-miterlimit="8" fill="#00B0F0"/><text font-family="Calibri,Calibri_MSFontService,sans-serif" font-weight="700" font-size="73" transform="matrix(1 0 0 1 1279.61 1143)">4a</text><rect x="1392.5" y="598.5" width="149" height="148" stroke="#000000" stroke-width="4.58333" stroke-miterlimit="8" fill="#FFFF00"/><rect x="1536.5" y="598.5" width="149" height="148" stroke="#000000" stroke-width="4.58333" stroke-miterlimit="8" fill="#FFFFFF"/><rect x="1685.5" y="598.5" width="149" height="148" stroke="#000000" stroke-width="4.58333" stroke-miterlimit="8" fill="#FFFFFF"/><rect x="1829.5" y="598.5" width="148" height="148" stroke="#000000" stroke-width="4.58333" stroke-miterlimit="8" fill="#FFFFFF"/><rect x="1392.5" y="748.5" width="149" height="148" stroke="#000000" stroke-width="4.58333" stroke-miterlimit="8" fill="#FFFF00"/><rect x="1536.5" y="748.5" width="149" height="148" stroke="#000000" stroke-width="4.58333" stroke-miterlimit="8" fill="#FFFFFF"/><rect x="1685.5" y="748.5" width="149" height="148" stroke="#000000" stroke-width="4.58333" stroke-miterlimit="8" fill="#FFFFFF"/><rect x="1829.5" y="748.5" width="148" height="148" stroke="#000000" stroke-width="4.58333" stroke-miterlimit="8" fill="#FFFFFF"/><rect x="1392.5" y="896.5" width="149" height="149" stroke="#000000" stroke-width="4.58333" stroke-miterlimit="8" fill="#FFFF00"/><rect x="1536.5" y="896.5" width="149" height="149" stroke="#000000" stroke-width="4.58333" stroke-miterlimit="8" fill="#FFFFFF"/><rect x="1685.5" y="896.5" width="149" height="149" stroke="#000000" stroke-width="4.58333" stroke-miterlimit="8" fill="#FFFFFF"/><rect x="1829.5" y="896.5" width="148" height="149" stroke="#000000" stroke-width="4.58333" stroke-miterlimit="8" fill="#FFFFFF"/><rect x="1392.5" y="1043.5" width="149" height="149" stroke="#000000" stroke-width="4.58333" stroke-miterlimit="8" fill="#FFFF00"/><rect x="1536.5" y="1043.5" width="149" height="149" stroke="#000000" stroke-width="4.58333" stroke-miterlimit="8" fill="#FFFFFF"/><rect x="1685.5" y="1043.5" width="149" height="149" stroke="#000000" stroke-width="4.58333" stroke-miterlimit="8" fill="#FFFFFF"/><rect x="1829.5" y="1043.5" width="148" height="149" stroke="#000000" stroke-width="4.58333" stroke-miterlimit="8" fill="#FFFFFF"/><rect x="1976.5" y="598.5" width="149" height="148" stroke="#000000" stroke-width="4.58333" stroke-miterlimit="8" fill="#FFFFFF"/><rect x="2120.5" y="598.5" width="149" height="148" stroke="#000000" stroke-width="4.58333" stroke-miterlimit="8" fill="#FFFFFF"/><rect x="2269.5" y="598.5" width="148" height="148" stroke="#000000" stroke-width="4.58333" stroke-miterlimit="8" fill="#FFFFFF"/><rect x="2413.5" y="598.5" width="148" height="148" stroke="#000000" stroke-width="4.58333" stroke-miterlimit="8" fill="#FFFFFF"/><rect x="1976.5" y="748.5" width="149" height="148" stroke="#000000" stroke-width="4.58333" stroke-miterlimit="8" fill="#FFFFFF"/><rect x="2120.5" y="748.5" width="149" height="148" stroke="#000000" stroke-width="4.58333" stroke-miterlimit="8" fill="#FFFFFF"/><rect x="2269.5" y="748.5" width="148" height="148" stroke="#000000" stroke-width="4.58333" stroke-miterlimit="8" fill="#FFFFFF"/><rect x="2413.5" y="748.5" width="148" height="148" stroke="#000000" stroke-width="4.58333" stroke-miterlimit="8" fill="#FFFFFF"/><rect x="1976.5" y="896.5" width="149" height="149" stroke="#000000" stroke-width="4.58333" stroke-miterlimit="8" fill="#FFFFFF"/><rect x="2120.5" y="896.5" width="149" height="149" stroke="#000000" stroke-width="4.58333" stroke-miterlimit="8" fill="#FFFFFF"/><rect x="2269.5" y="896.5" width="148" height="149" stroke="#000000" stroke-width="4.58333" stroke-miterlimit="8" fill="#FFFFFF"/><rect x="2413.5" y="896.5" width="148" height="149" stroke="#000000" stroke-width="4.58333" stroke-miterlimit="8" fill="#FFFFFF"/><rect x="1976.5" y="1043.5" width="149" height="149" stroke="#000000" stroke-width="4.58333" stroke-miterlimit="8" fill="#FFFFFF"/><rect x="2120.5" y="1043.5" width="149" height="149" stroke="#000000" stroke-width="4.58333" stroke-miterlimit="8" fill="#FFFFFF"/><rect x="2269.5" y="1043.5" width="148" height="149" stroke="#000000" stroke-width="4.58333" stroke-miterlimit="8" fill="#FFFFFF"/><rect x="2413.5" y="1043.5" width="148" height="149" stroke="#000000" stroke-width="4.58333" stroke-miterlimit="8" fill="#FFFFFF"/><rect x="3216.5" y="598.5" width="149" height="148" stroke="#000000" stroke-width="4.58333" stroke-miterlimit="8" fill="#FFFFFF"/><rect x="3360.5" y="598.5" width="149" height="148" stroke="#000000" stroke-width="4.58333" stroke-miterlimit="8" fill="#FFFFFF"/><rect x="3509.5" y="598.5" width="148" height="148" stroke="#000000" stroke-width="4.58333" stroke-miterlimit="8" fill="#FFFFFF"/><rect x="3653.5" y="598.5" width="148" height="148" stroke="#000000" stroke-width="4.58333" stroke-miterlimit="8" fill="#FFFFFF"/><rect x="3216.5" y="748.5" width="149" height="148" stroke="#000000" stroke-width="4.58333" stroke-miterlimit="8" fill="#FFFFFF"/><rect x="3360.5" y="748.5" width="149" height="148" stroke="#000000" stroke-width="4.58333" stroke-miterlimit="8" fill="#FFFFFF"/><rect x="3509.5" y="748.5" width="148" height="148" stroke="#000000" stroke-width="4.58333" stroke-miterlimit="8" fill="#FFFFFF"/><rect x="3653.5" y="748.5" width="148" height="148" stroke="#000000" stroke-width="4.58333" stroke-miterlimit="8" fill="#FFFFFF"/><rect x="3216.5" y="896.5" width="149" height="149" stroke="#000000" stroke-width="4.58333" stroke-miterlimit="8" fill="#FFFFFF"/><rect x="3360.5" y="896.5" width="149" height="149" stroke="#000000" stroke-width="4.58333" stroke-miterlimit="8" fill="#FFFFFF"/><rect x="3509.5" y="896.5" width="148" height="149" stroke="#000000" stroke-width="4.58333" stroke-miterlimit="8" fill="#FFFFFF"/><rect x="3653.5" y="896.5" width="148" height="149" stroke="#000000" stroke-width="4.58333" stroke-miterlimit="8" fill="#FFFFFF"/><rect x="3216.5" y="1043.5" width="149" height="149" stroke="#000000" stroke-width="4.58333" stroke-miterlimit="8" fill="#FFFFFF"/><rect x="3360.5" y="1043.5" width="149" height="149" stroke="#000000" stroke-width="4.58333" stroke-miterlimit="8" fill="#FFFFFF"/><rect x="3509.5" y="1043.5" width="148" height="149" stroke="#000000" stroke-width="4.58333" stroke-miterlimit="8" fill="#FFFFFF"/><rect x="3653.5" y="1043.5" width="148" height="149" stroke="#000000" stroke-width="4.58333" stroke-miterlimit="8" fill="#FFFFFF"/><text font-family="Calibri,Calibri_MSFontService,sans-serif" font-weight="700" font-size="92" transform="matrix(1 0 0 1 2829.76 902)">...</text><rect x="1242.5" y="1342.5" width="149" height="149" stroke="#000000" stroke-width="4.58333" stroke-miterlimit="8" fill="#00B0F0"/><text font-family="Calibri,Calibri_MSFontService,sans-serif" font-weight="700" font-size="73" transform="matrix(1 0 0 1 1285.92 1441)">f4</text><rect x="1242.5" y="1489.5" width="149" height="149" stroke="#000000" stroke-width="4.58333" stroke-miterlimit="8" fill="#00B0F0"/><text font-family="Calibri,Calibri_MSFontService,sans-serif" font-weight="700" font-size="73" transform="matrix(1 0 0 1 1279.04 1589)">84</text><rect x="1242.5" y="1638.5" width="149" height="149" stroke="#000000" stroke-width="4.58333" stroke-miterlimit="8" fill="#00B0F0"/><text font-family="Calibri,Calibri_MSFontService,sans-serif" font-weight="700" font-size="73" transform="matrix(1 0 0 1 1277.89 1737)">d6</text><rect x="1242.5" y="1785.5" width="149" height="149" stroke="#000000" stroke-width="4.58333" stroke-miterlimit="8" fill="#00B0F0"/><text font-family="Calibri,Calibri_MSFontService,sans-serif" font-weight="700" font-size="73" transform="matrix(1 0 0 1 1277.89 1884)">7b<tspan fill="#00B0F0" font-size="83" x="-590.35" y="-1411">GÉNÉRATION DE SOUS</tspan><tspan fill="#00B0F0" font-size="83" x="176.648" y="-1411">-</tspan><tspan fill="#00B0F0" font-size="83" x="201.857" y="-1411">CLÉ</tspan><tspan font-weight="400" font-size="83" x="296.219" y="-448">Ensuite, nous devons utiliser la même </tspan><tspan font-size="83" x="1581.5" y="-448">S</tspan><tspan font-size="83" x="1620.46" y="-448">-</tspan><tspan font-size="83" x="1645.67" y="-448">BOX </tspan><tspan font-weight="400" font-size="83" x="1808.99" y="-448">que nous avons utilisée</tspan><tspan font-weight="400" font-size="83" x="296.219" y="-349">dans la fonction ronde</tspan><tspan font-family="Wingdings,Wingdings_MSFontService,sans-serif" font-weight="400" font-size="83" x="334.031" y="-150"></tspan><tspan font-size="83" x="433.719" y="-150">4 premiers </tspan><tspan font-weight="400" font-size="83" x="816.221" y="-150">bits : index de ligne dans la table de correspondance</tspan><tspan font-family="Wingdings,Wingdings_MSFontService,sans-serif" font-weight="400" font-size="83" x="334.031" y="48"></tspan><tspan font-size="83" x="433.719" y="48">4 derniers </tspan><tspan font-weight="400" font-size="83" x="794.221" y="48">bits : index de colonne dans la table</tspan></text></g></svg>