<svg width="3908" height="1647" xmlns="http://www.w3.org/2000/svg" xmlns:xlink="http://www.w3.org/1999/xlink" overflow="hidden"><defs><clipPath id="clip0"><rect x="123" y="530" width="3908" height="1647"/></clipPath></defs><g clip-path="url(#clip0)" transform="translate(-123 -530)"><path d="M1420.34 2007.47 1398 1023" stroke="#5B9BD5" stroke-width="2.29167" stroke-miterlimit="8" stroke-dasharray="9.16667 6.875" fill="none" fill-rule="evenodd"/><path d="M123 1488.12 1939.13 1488.13 1939.13 1501.88 123 1501.88ZM1932.26 1474.38 1973.51 1495 1932.26 1515.63Z" fill="#7F7F7F"/><path d="M6.875-1.72665e-06 6.87535 1402.59-6.87465 1402.59-6.875 1.72665e-06ZM20.6254 1395.71 0.000360892 1436.96-20.6246 1395.71Z" fill="#7F7F7F" transform="matrix(1 0 0 -1 773 2169.96)"/><path d="M1516.26 806.5C1400.69 1001.69 1285.13 1196.89 1164.95 1248.62 1044.77 1300.36 910.714 1074.6 795.153 1116.93 679.591 1159.26 476.203 1372.48 471.581 1502.61 466.959 1632.74 661.101 1858.5 767.418 1897.7 873.734 1936.9 983.132 1692.32 1109.48 1737.78 1235.83 1783.25 1380.66 1976.87 1525.5 2170.5" stroke="#FFC000" stroke-width="20.625" stroke-miterlimit="8" fill="none" fill-rule="evenodd"/><text fill="#8FAADC" font-family="Calibri,Calibri_MSFontService,sans-serif" font-weight="700" font-size="110" transform="matrix(1 0 0 1 2650.74 839)">DOUBLEMENT DE POINTS</text><path d="M2650.87 851.352 2942.62 851.352 3234.37 851.352 3526.12 851.352 3817.87 851.352 3817.87 858.352 3526.12 858.352 3234.37 858.352 2942.62 858.352 2650.87 858.352Z" fill="#8FAADC" fill-rule="evenodd"/><text fill="#595959" font-family="Calibri,Calibri_MSFontService,sans-serif" font-style="italic" font-weight="400" font-size="110" transform="matrix(1 0 0 1 2571.11 1076)">On peut définir <tspan font-weight="700" font-size="110" x="693.688" y="0">l’opération de </tspan><tspan font-weight="700" font-size="110" x="32.2207" y="119">doublement</tspan><tspan font-size="110" x="606.398" y="119">sur des courbes </tspan><tspan font-size="110" x="435.394" y="238">elliptiques</tspan><tspan font-size="110" x="8.96021" y="357">(nous devons tracer une ligne </tspan><tspan font-size="110" x="445.638" y="476">tangente)</tspan><tspan fill="#7F7F7F" font-style="normal" font-weight="700" font-size="110" x="-552.297" y="448">x</tspan><tspan fill="#7F7F7F" font-style="normal" font-weight="700" font-size="110" x="-1824.97" y="-410">y</tspan></text><path d="M2484.5 1766.67C2484.5 1733.44 2511.44 1706.5 2544.67 1706.5L3924.33 1706.5C3957.56 1706.5 3984.5 1733.44 3984.5 1766.67L3984.5 2007.33C3984.5 2040.56 3957.56 2067.5 3924.33 2067.5L2544.67 2067.5C2511.44 2067.5 2484.5 2040.56 2484.5 2007.33Z" stroke="#7F7F7F" stroke-width="4.58333" stroke-miterlimit="8" fill="#FFF2CC" fill-rule="evenodd"/><text fill="#7F7F7F" font-family="Calibri,Calibri_MSFontService,sans-serif" font-style="italic" font-weight="700" font-size="110" transform="matrix(1 0 0 1 2541.91 1917)">P(<tspan font-size="110" x="92.8125" y="0">x</tspan><tspan font-size="73" x="143.229" y="27">1</tspan><tspan font-size="110" x="197.084" y="0">,</tspan><tspan font-size="110" x="250.365" y="0">y</tspan><tspan font-size="73" x="301.927" y="27">1</tspan><tspan font-size="110" x="339.167" y="0">) + P(</tspan><tspan font-size="110" x="570.625" y="0">x</tspan><tspan font-size="73" x="621.042" y="27">1</tspan><tspan font-size="110" x="674.896" y="0">,</tspan><tspan font-size="110" x="728.177" y="0">y</tspan><tspan font-size="73" x="779.74" y="27">1</tspan><tspan font-size="110" x="816.979" y="0">) = 2P(</tspan>x<tspan font-size="73" x="1154.43" y="27">3</tspan><tspan font-size="110" x="1208.28" y="0">,</tspan><tspan font-size="110" x="1261.56" y="0">y</tspan><tspan font-size="73" x="1313.13" y="27">3</tspan><tspan font-size="110" x="1350.36" y="0">)</tspan></text><path d="M0 0 1053.51 213.126" stroke="#A9D18E" stroke-width="2.29167" stroke-miterlimit="8" fill="none" fill-rule="evenodd" transform="matrix(1 0 0 -1 471 1181.13)"/><path d="M790.5 1111.5C790.5 1094.93 803.932 1081.5 820.5 1081.5 837.068 1081.5 850.5 1094.93 850.5 1111.5 850.5 1128.07 837.068 1141.5 820.5 1141.5 803.932 1141.5 790.5 1128.07 790.5 1111.5Z" stroke="#7F7F7F" stroke-width="4.58333" stroke-miterlimit="8" fill="#9DC3E6" fill-rule="evenodd"/><path d="M1388.5 2024.5C1388.5 2007.93 1401.93 1994.5 1418.5 1994.5 1435.07 1994.5 1448.5 2007.93 1448.5 2024.5 1448.5 2041.07 1435.07 2054.5 1418.5 2054.5 1401.93 2054.5 1388.5 2041.07 1388.5 2024.5Z" stroke="#7F7F7F" stroke-width="4.58333" stroke-miterlimit="8" fill="#9DC3E6" fill-rule="evenodd"/><text fill="#7F7F7F" font-family="Calibri,Calibri_MSFontService,sans-serif" font-style="italic" font-weight="700" font-size="83" transform="matrix(1 0 0 1 1481.5 1968)">2P(x<tspan font-size="55" x="149.531" y="20">3</tspan><tspan font-size="83" x="177.604" y="0">,y</tspan><tspan font-size="55" x="237.76" y="20">3</tspan><tspan font-size="83" x="265.833" y="0">)</tspan></text><path d="M1365.5 995C1365.5 978.155 1379.16 964.5 1396 964.5 1412.84 964.5 1426.5 978.155 1426.5 995 1426.5 1011.84 1412.84 1025.5 1396 1025.5 1379.16 1025.5 1365.5 1011.84 1365.5 995Z" stroke="#7F7F7F" stroke-width="4.58333" stroke-miterlimit="8" fill="#9DC3E6" fill-rule="evenodd"/><text fill="#7F7F7F" font-family="Calibri,Calibri_MSFontService,sans-serif" font-style="italic" font-weight="700" font-size="83" transform="matrix(1 0 0 1 820.886 999)">P(x<tspan font-size="55" x="107.708" y="20">1</tspan><tspan font-size="83" x="135.781" y="0">,y</tspan><tspan font-size="55" x="195.938" y="20">1</tspan><tspan font-size="83" x="224.01" y="0">)</tspan></text></g></svg>