<svg width="3166" height="1580" xmlns="http://www.w3.org/2000/svg" xmlns:xlink="http://www.w3.org/1999/xlink" overflow="hidden"><defs><clipPath id="clip0"><rect x="638" y="371" width="3166" height="1580"/></clipPath></defs><g clip-path="url(#clip0)" transform="translate(-638 -371)"><rect x="806.5" y="598.5" width="148" height="148" stroke="#000000" stroke-width="4.58333" stroke-miterlimit="8" fill="#FFFFFF"/><text font-family="Calibri,Calibri_MSFontService,sans-serif" font-weight="700" font-size="73" transform="matrix(1 0 0 1 841.615 697)">1b</text><rect x="949.5" y="598.5" width="149" height="148" stroke="#000000" stroke-width="4.58333" stroke-miterlimit="8" fill="#FFFFFF"/><text font-family="Calibri,Calibri_MSFontService,sans-serif" font-weight="700" font-size="73" transform="matrix(1 0 0 1 986.576 697)">22</text><rect x="1098.5" y="598.5" width="149" height="148" stroke="#000000" stroke-width="4.58333" stroke-miterlimit="8" fill="#FFFFFF"/><text font-family="Calibri,Calibri_MSFontService,sans-serif" font-weight="700" font-size="73" transform="matrix(1 0 0 1 1137.23 697)">cb</text><rect x="1242.5" y="598.5" width="149" height="148" stroke="#000000" stroke-width="4.58333" stroke-miterlimit="8" fill="#00B0F0"/><text font-family="Calibri,Calibri_MSFontService,sans-serif" font-weight="700" font-size="73" transform="matrix(1 0 0 1 1279.04 697)">03</text><rect x="806.5" y="748.5" width="148" height="148" stroke="#000000" stroke-width="4.58333" stroke-miterlimit="8" fill="#FFFFFF"/><text font-family="Calibri,Calibri_MSFontService,sans-serif" font-weight="700" font-size="73" transform="matrix(1 0 0 1 845.912 847)">7c</text><rect x="949.5" y="748.5" width="149" height="148" stroke="#000000" stroke-width="4.58333" stroke-miterlimit="8" fill="#FFFFFF"/><text font-family="Calibri,Calibri_MSFontService,sans-serif" font-weight="700" font-size="73" transform="matrix(1 0 0 1 987.436 847)">ae</text><rect x="1098.5" y="748.5" width="149" height="148" stroke="#000000" stroke-width="4.58333" stroke-miterlimit="8" fill="#FFFFFF"/><text font-family="Calibri,Calibri_MSFontService,sans-serif" font-weight="700" font-size="73" transform="matrix(1 0 0 1 1142.1 847)">f4</text><rect x="1242.5" y="748.5" width="149" height="148" stroke="#000000" stroke-width="4.58333" stroke-miterlimit="8" fill="#00B0F0"/><text font-family="Calibri,Calibri_MSFontService,sans-serif" font-weight="700" font-size="73" transform="matrix(1 0 0 1 1278.47 847)">ba</text><rect x="806.5" y="896.5" width="148" height="149" stroke="#000000" stroke-width="4.58333" stroke-miterlimit="8" fill="#FFFFFF"/><text font-family="Calibri,Calibri_MSFontService,sans-serif" font-weight="700" font-size="73" transform="matrix(1 0 0 1 842.761 996)">14</text><rect x="949.5" y="896.5" width="149" height="149" stroke="#000000" stroke-width="4.58333" stroke-miterlimit="8" fill="#FFFFFF"/><text font-family="Calibri,Calibri_MSFontService,sans-serif" font-weight="700" font-size="73" transform="matrix(1 0 0 1 986.576 996)">01</text><rect x="1098.5" y="896.5" width="149" height="149" stroke="#000000" stroke-width="4.58333" stroke-miterlimit="8" fill="#FFFFFF"/><text font-family="Calibri,Calibri_MSFontService,sans-serif" font-weight="700" font-size="73" transform="matrix(1 0 0 1 1134.08 996)">1b</text><rect x="1242.5" y="896.5" width="149" height="149" stroke="#000000" stroke-width="4.58333" stroke-miterlimit="8" fill="#00B0F0"/><text font-family="Calibri,Calibri_MSFontService,sans-serif" font-weight="700" font-size="73" transform="matrix(1 0 0 1 1285.92 996)">4f</text><rect x="806.5" y="1043.5" width="148" height="149" stroke="#000000" stroke-width="4.58333" stroke-miterlimit="8" fill="#FFFFFF"/><text font-family="Calibri,Calibri_MSFontService,sans-serif" font-weight="700" font-size="73" transform="matrix(1 0 0 1 842.761 1143)">09</text><rect x="949.5" y="1043.5" width="149" height="149" stroke="#000000" stroke-width="4.58333" stroke-miterlimit="8" fill="#FFFFFF"/><text font-family="Calibri,Calibri_MSFontService,sans-serif" font-weight="700" font-size="73" transform="matrix(1 0 0 1 987.149 1143)">a6</text><rect x="1098.5" y="1043.5" width="149" height="149" stroke="#000000" stroke-width="4.58333" stroke-miterlimit="8" fill="#FFFFFF"/><text font-family="Calibri,Calibri_MSFontService,sans-serif" font-weight="700" font-size="73" transform="matrix(1 0 0 1 1135.22 1143)">88</text><rect x="1242.5" y="1043.5" width="149" height="149" stroke="#000000" stroke-width="4.58333" stroke-miterlimit="8" fill="#00B0F0"/><text font-family="Calibri,Calibri_MSFontService,sans-serif" font-weight="700" font-size="73" transform="matrix(1 0 0 1 1279.61 1143)">4a</text><rect x="1392.5" y="598.5" width="149" height="148" stroke="#000000" stroke-width="4.58333" stroke-miterlimit="8" fill="#00B050"/><text font-family="Calibri,Calibri_MSFontService,sans-serif" font-weight="700" font-size="73" transform="matrix(1 0 0 1 1429.55 697)">03</text><rect x="1536.5" y="598.5" width="149" height="148" stroke="#000000" stroke-width="4.58333" stroke-miterlimit="8" fill="#FFFFFF"/><rect x="1685.5" y="598.5" width="149" height="148" stroke="#000000" stroke-width="4.58333" stroke-miterlimit="8" fill="#FFFFFF"/><rect x="1829.5" y="598.5" width="148" height="148" stroke="#000000" stroke-width="4.58333" stroke-miterlimit="8" fill="#FFFFFF"/><rect x="1392.5" y="748.5" width="149" height="148" stroke="#000000" stroke-width="4.58333" stroke-miterlimit="8" fill="#00B050"/><text font-family="Calibri,Calibri_MSFontService,sans-serif" font-weight="700" font-size="73" transform="matrix(1 0 0 1 1428.98 847)">ab</text><rect x="1536.5" y="748.5" width="149" height="148" stroke="#000000" stroke-width="4.58333" stroke-miterlimit="8" fill="#FFFFFF"/><rect x="1685.5" y="748.5" width="149" height="148" stroke="#000000" stroke-width="4.58333" stroke-miterlimit="8" fill="#FFFFFF"/><rect x="1829.5" y="748.5" width="148" height="148" stroke="#000000" stroke-width="4.58333" stroke-miterlimit="8" fill="#FFFFFF"/><rect x="1392.5" y="896.5" width="149" height="149" stroke="#000000" stroke-width="4.58333" stroke-miterlimit="8" fill="#00B050"/><text font-family="Calibri,Calibri_MSFontService,sans-serif" font-weight="700" font-size="73" transform="matrix(1 0 0 1 1432.7 996)">4c</text><rect x="1536.5" y="896.5" width="149" height="149" stroke="#000000" stroke-width="4.58333" stroke-miterlimit="8" fill="#FFFFFF"/><rect x="1685.5" y="896.5" width="149" height="149" stroke="#000000" stroke-width="4.58333" stroke-miterlimit="8" fill="#FFFFFF"/><rect x="1829.5" y="896.5" width="148" height="149" stroke="#000000" stroke-width="4.58333" stroke-miterlimit="8" fill="#FFFFFF"/><rect x="1392.5" y="1043.5" width="149" height="149" stroke="#000000" stroke-width="4.58333" stroke-miterlimit="8" fill="#00B050"/><text font-family="Calibri,Calibri_MSFontService,sans-serif" font-weight="700" font-size="73" transform="matrix(1 0 0 1 1430.12 1143)">a5</text><rect x="1536.5" y="1043.5" width="149" height="149" stroke="#000000" stroke-width="4.58333" stroke-miterlimit="8" fill="#FFFFFF"/><rect x="1685.5" y="1043.5" width="149" height="149" stroke="#000000" stroke-width="4.58333" stroke-miterlimit="8" fill="#FFFFFF"/><rect x="1829.5" y="1043.5" width="148" height="149" stroke="#000000" stroke-width="4.58333" stroke-miterlimit="8" fill="#FFFFFF"/><rect x="1976.5" y="598.5" width="149" height="148" stroke="#000000" stroke-width="4.58333" stroke-miterlimit="8" fill="#FFFFFF"/><rect x="2120.5" y="598.5" width="149" height="148" stroke="#000000" stroke-width="4.58333" stroke-miterlimit="8" fill="#FFFFFF"/><rect x="2269.5" y="598.5" width="148" height="148" stroke="#000000" stroke-width="4.58333" stroke-miterlimit="8" fill="#FFFFFF"/><rect x="2413.5" y="598.5" width="148" height="148" stroke="#000000" stroke-width="4.58333" stroke-miterlimit="8" fill="#FFFFFF"/><rect x="1976.5" y="748.5" width="149" height="148" stroke="#000000" stroke-width="4.58333" stroke-miterlimit="8" fill="#FFFFFF"/><rect x="2120.5" y="748.5" width="149" height="148" stroke="#000000" stroke-width="4.58333" stroke-miterlimit="8" fill="#FFFFFF"/><rect x="2269.5" y="748.5" width="148" height="148" stroke="#000000" stroke-width="4.58333" stroke-miterlimit="8" fill="#FFFFFF"/><rect x="2413.5" y="748.5" width="148" height="148" stroke="#000000" stroke-width="4.58333" stroke-miterlimit="8" fill="#FFFFFF"/><rect x="1976.5" y="896.5" width="149" height="149" stroke="#000000" stroke-width="4.58333" stroke-miterlimit="8" fill="#FFFFFF"/><rect x="2120.5" y="896.5" width="149" height="149" stroke="#000000" stroke-width="4.58333" stroke-miterlimit="8" fill="#FFFFFF"/><rect x="2269.5" y="896.5" width="148" height="149" stroke="#000000" stroke-width="4.58333" stroke-miterlimit="8" fill="#FFFFFF"/><rect x="2413.5" y="896.5" width="148" height="149" stroke="#000000" stroke-width="4.58333" stroke-miterlimit="8" fill="#FFFFFF"/><rect x="1976.5" y="1043.5" width="149" height="149" stroke="#000000" stroke-width="4.58333" stroke-miterlimit="8" fill="#FFFFFF"/><rect x="2120.5" y="1043.5" width="149" height="149" stroke="#000000" stroke-width="4.58333" stroke-miterlimit="8" fill="#FFFFFF"/><rect x="2269.5" y="1043.5" width="148" height="149" stroke="#000000" stroke-width="4.58333" stroke-miterlimit="8" fill="#FFFFFF"/><rect x="2413.5" y="1043.5" width="148" height="149" stroke="#000000" stroke-width="4.58333" stroke-miterlimit="8" fill="#FFFFFF"/><rect x="3216.5" y="598.5" width="149" height="148" stroke="#000000" stroke-width="4.58333" stroke-miterlimit="8" fill="#FFFFFF"/><rect x="3360.5" y="598.5" width="149" height="148" stroke="#000000" stroke-width="4.58333" stroke-miterlimit="8" fill="#FFFFFF"/><rect x="3509.5" y="598.5" width="148" height="148" stroke="#000000" stroke-width="4.58333" stroke-miterlimit="8" fill="#FFFFFF"/><rect x="3653.5" y="598.5" width="148" height="148" stroke="#000000" stroke-width="4.58333" stroke-miterlimit="8" fill="#FFFFFF"/><rect x="3216.5" y="748.5" width="149" height="148" stroke="#000000" stroke-width="4.58333" stroke-miterlimit="8" fill="#FFFFFF"/><rect x="3360.5" y="748.5" width="149" height="148" stroke="#000000" stroke-width="4.58333" stroke-miterlimit="8" fill="#FFFFFF"/><rect x="3509.5" y="748.5" width="148" height="148" stroke="#000000" stroke-width="4.58333" stroke-miterlimit="8" fill="#FFFFFF"/><rect x="3653.5" y="748.5" width="148" height="148" stroke="#000000" stroke-width="4.58333" stroke-miterlimit="8" fill="#FFFFFF"/><rect x="3216.5" y="896.5" width="149" height="149" stroke="#000000" stroke-width="4.58333" stroke-miterlimit="8" fill="#FFFFFF"/><rect x="3360.5" y="896.5" width="149" height="149" stroke="#000000" stroke-width="4.58333" stroke-miterlimit="8" fill="#FFFFFF"/><rect x="3509.5" y="896.5" width="148" height="149" stroke="#000000" stroke-width="4.58333" stroke-miterlimit="8" fill="#FFFFFF"/><rect x="3653.5" y="896.5" width="148" height="149" stroke="#000000" stroke-width="4.58333" stroke-miterlimit="8" fill="#FFFFFF"/><rect x="3216.5" y="1043.5" width="149" height="149" stroke="#000000" stroke-width="4.58333" stroke-miterlimit="8" fill="#FFFFFF"/><rect x="3360.5" y="1043.5" width="149" height="149" stroke="#000000" stroke-width="4.58333" stroke-miterlimit="8" fill="#FFFFFF"/><rect x="3509.5" y="1043.5" width="148" height="149" stroke="#000000" stroke-width="4.58333" stroke-miterlimit="8" fill="#FFFFFF"/><rect x="3653.5" y="1043.5" width="148" height="149" stroke="#000000" stroke-width="4.58333" stroke-miterlimit="8" fill="#FFFFFF"/><text font-family="Calibri,Calibri_MSFontService,sans-serif" font-weight="700" font-size="92" transform="matrix(1 0 0 1 2829.76 902)">...</text><rect x="1242.5" y="1342.5" width="149" height="149" stroke="#000000" stroke-width="4.58333" stroke-miterlimit="8" fill="#00B0F0"/><text font-family="Calibri,Calibri_MSFontService,sans-serif" font-weight="700" font-size="73" transform="matrix(1 0 0 1 1285.92 1441)">f4</text><rect x="1242.5" y="1489.5" width="149" height="149" stroke="#000000" stroke-width="4.58333" stroke-miterlimit="8" fill="#00B0F0"/><text font-family="Calibri,Calibri_MSFontService,sans-serif" font-weight="700" font-size="73" transform="matrix(1 0 0 1 1279.04 1589)">84</text><rect x="1242.5" y="1638.5" width="149" height="149" stroke="#000000" stroke-width="4.58333" stroke-miterlimit="8" fill="#00B0F0"/><text font-family="Calibri,Calibri_MSFontService,sans-serif" font-weight="700" font-size="73" transform="matrix(1 0 0 1 1277.89 1737)">d6</text><rect x="1242.5" y="1785.5" width="149" height="149" stroke="#000000" stroke-width="4.58333" stroke-miterlimit="8" fill="#00B0F0"/><text font-family="Calibri,Calibri_MSFontService,sans-serif" font-weight="700" font-size="73" transform="matrix(1 0 0 1 1277.89 1884)">7b<tspan font-size="83" x="160.697" y="-1324">K</tspan><tspan font-size="64" x="207.681" y="-1299">i</tspan><tspan font-size="83" x="-13.9756" y="-1325">K</tspan><tspan font-size="64" x="33.0083" y="-1301">i</tspan><tspan font-size="64" x="49.0499" y="-1301">-</tspan><tspan font-size="64" x="68.5291" y="-1301">1</tspan><tspan font-size="83" x="-451.956" y="-1325">K</tspan><tspan font-size="64" x="-404.972" y="-1301">i</tspan><tspan font-size="64" x="-388.931" y="-1301">-</tspan><tspan font-size="64" x="-369.451" y="-1301">4</tspan></text><rect x="799.5" y="1342.5" width="149" height="149" stroke="#000000" stroke-width="4.58333" stroke-miterlimit="8" fill="#FFFFFF"/><text font-family="Calibri,Calibri_MSFontService,sans-serif" font-weight="700" font-size="73" transform="matrix(1 0 0 1 834.823 1441)">1b</text><rect x="799.5" y="1489.5" width="149" height="149" stroke="#000000" stroke-width="4.58333" stroke-miterlimit="8" fill="#FFFFFF"/><text font-family="Calibri,Calibri_MSFontService,sans-serif" font-weight="700" font-size="73" transform="matrix(1 0 0 1 839.12 1589)">7c</text><rect x="799.5" y="1638.5" width="149" height="149" stroke="#000000" stroke-width="4.58333" stroke-miterlimit="8" fill="#FFFFFF"/><text font-family="Calibri,Calibri_MSFontService,sans-serif" font-weight="700" font-size="73" transform="matrix(1 0 0 1 835.969 1737)">14</text><rect x="799.5" y="1785.5" width="149" height="149" stroke="#000000" stroke-width="4.58333" stroke-miterlimit="8" fill="#FFFFFF"/><text font-family="Calibri,Calibri_MSFontService,sans-serif" font-weight="700" font-size="73" transform="matrix(1 0 0 1 835.969 1884)">09<tspan font-size="73" x="191.691" y="-217">XOR</tspan><tspan font-size="73" x="649.607" y="-217">XOR</tspan></text><rect x="1713.5" y="1342.5" width="149" height="149" stroke="#000000" stroke-width="4.58333" stroke-miterlimit="8" fill="#FFFFFF"/><text font-family="Calibri,Calibri_MSFontService,sans-serif" font-weight="700" font-size="73" transform="matrix(1 0 0 1 1750.5 1441)">01</text><rect x="1713.5" y="1489.5" width="149" height="149" stroke="#000000" stroke-width="4.58333" stroke-miterlimit="8" fill="#FFFFFF"/><text font-family="Calibri,Calibri_MSFontService,sans-serif" font-weight="700" font-size="73" transform="matrix(1 0 0 1 1750.5 1589)">00</text><rect x="1713.5" y="1638.5" width="149" height="149" stroke="#000000" stroke-width="4.58333" stroke-miterlimit="8" fill="#FFFFFF"/><text font-family="Calibri,Calibri_MSFontService,sans-serif" font-weight="700" font-size="73" transform="matrix(1 0 0 1 1750.5 1737)">00</text><rect x="1712.5" y="1788.5" width="149" height="149" stroke="#000000" stroke-width="4.58333" stroke-miterlimit="8" fill="#FFFFFF"/><text font-family="Calibri,Calibri_MSFontService,sans-serif" font-weight="700" font-size="73" transform="matrix(1 0 0 1 1749.14 1887)">00<tspan font-size="73" x="189.905" y="-220">=</tspan></text><rect x="2046.5" y="1344.5" width="148" height="148" stroke="#000000" stroke-width="4.58333" stroke-miterlimit="8" fill="#00B050"/><text font-family="Calibri,Calibri_MSFontService,sans-serif" font-weight="700" font-size="73" transform="matrix(1 0 0 1 2082.86 1443)">03</text><rect x="2046.5" y="1491.5" width="148" height="148" stroke="#000000" stroke-width="4.58333" stroke-miterlimit="8" fill="#00B050"/><text font-family="Calibri,Calibri_MSFontService,sans-serif" font-weight="700" font-size="73" transform="matrix(1 0 0 1 2082.28 1590)">ab</text><rect x="2046.5" y="1639.5" width="148" height="149" stroke="#000000" stroke-width="4.58333" stroke-miterlimit="8" fill="#00B050"/><text font-family="Calibri,Calibri_MSFontService,sans-serif" font-weight="700" font-size="73" transform="matrix(1 0 0 1 2086.01 1739)">4c</text><rect x="2044.5" y="1786.5" width="149" height="149" stroke="#000000" stroke-width="4.58333" stroke-miterlimit="8" fill="#00B050"/><text font-family="Calibri,Calibri_MSFontService,sans-serif" font-weight="700" font-size="73" transform="matrix(1 0 0 1 2082.07 1886)">a5<tspan fill="#00B0F0" font-size="83" x="-1394.52" y="-1413">GÉNÉRATION DE SOUS</tspan><tspan fill="#00B0F0" font-size="83" x="-627.523" y="-1413">-</tspan><tspan fill="#00B0F0" font-size="83" x="-602.315" y="-1413">CLÉ</tspan></text></g></svg>