<svg width="3166" height="1535" xmlns="http://www.w3.org/2000/svg" xmlns:xlink="http://www.w3.org/1999/xlink" overflow="hidden"><defs><clipPath id="clip0"><rect x="638" y="371" width="3166" height="1535"/></clipPath></defs><g clip-path="url(#clip0)" transform="translate(-638 -371)"><rect x="806.5" y="598.5" width="148" height="148" stroke="#000000" stroke-width="4.58333" stroke-miterlimit="8" fill="#FFFFFF"/><text font-family="Calibri,Calibri_MSFontService,sans-serif" font-weight="700" font-size="73" transform="matrix(1 0 0 1 841.615 697)">1b</text><rect x="949.5" y="598.5" width="149" height="148" stroke="#000000" stroke-width="4.58333" stroke-miterlimit="8" fill="#FFFFFF"/><text font-family="Calibri,Calibri_MSFontService,sans-serif" font-weight="700" font-size="73" transform="matrix(1 0 0 1 986.576 697)">22</text><rect x="1098.5" y="598.5" width="149" height="148" stroke="#000000" stroke-width="4.58333" stroke-miterlimit="8" fill="#FFFFFF"/><text font-family="Calibri,Calibri_MSFontService,sans-serif" font-weight="700" font-size="73" transform="matrix(1 0 0 1 1137.23 697)">cb</text><rect x="1242.5" y="598.5" width="149" height="148" stroke="#000000" stroke-width="4.58333" stroke-miterlimit="8" fill="#00B0F0"/><text font-family="Calibri,Calibri_MSFontService,sans-serif" font-weight="700" font-size="73" transform="matrix(1 0 0 1 1279.04 697)">03</text><rect x="806.5" y="748.5" width="148" height="148" stroke="#000000" stroke-width="4.58333" stroke-miterlimit="8" fill="#FFFFFF"/><text font-family="Calibri,Calibri_MSFontService,sans-serif" font-weight="700" font-size="73" transform="matrix(1 0 0 1 845.912 847)">7c</text><rect x="949.5" y="748.5" width="149" height="148" stroke="#000000" stroke-width="4.58333" stroke-miterlimit="8" fill="#FFFFFF"/><text font-family="Calibri,Calibri_MSFontService,sans-serif" font-weight="700" font-size="73" transform="matrix(1 0 0 1 987.436 847)">ae</text><rect x="1098.5" y="748.5" width="149" height="148" stroke="#000000" stroke-width="4.58333" stroke-miterlimit="8" fill="#FFFFFF"/><text font-family="Calibri,Calibri_MSFontService,sans-serif" font-weight="700" font-size="73" transform="matrix(1 0 0 1 1142.1 847)">f4</text><rect x="1242.5" y="748.5" width="149" height="148" stroke="#000000" stroke-width="4.58333" stroke-miterlimit="8" fill="#00B0F0"/><text font-family="Calibri,Calibri_MSFontService,sans-serif" font-weight="700" font-size="73" transform="matrix(1 0 0 1 1278.47 847)">ba</text><rect x="806.5" y="896.5" width="148" height="149" stroke="#000000" stroke-width="4.58333" stroke-miterlimit="8" fill="#FFFFFF"/><text font-family="Calibri,Calibri_MSFontService,sans-serif" font-weight="700" font-size="73" transform="matrix(1 0 0 1 842.761 996)">14</text><rect x="949.5" y="896.5" width="149" height="149" stroke="#000000" stroke-width="4.58333" stroke-miterlimit="8" fill="#FFFFFF"/><text font-family="Calibri,Calibri_MSFontService,sans-serif" font-weight="700" font-size="73" transform="matrix(1 0 0 1 986.576 996)">01</text><rect x="1098.5" y="896.5" width="149" height="149" stroke="#000000" stroke-width="4.58333" stroke-miterlimit="8" fill="#FFFFFF"/><text font-family="Calibri,Calibri_MSFontService,sans-serif" font-weight="700" font-size="73" transform="matrix(1 0 0 1 1134.08 996)">1b</text><rect x="1242.5" y="896.5" width="149" height="149" stroke="#000000" stroke-width="4.58333" stroke-miterlimit="8" fill="#00B0F0"/><text font-family="Calibri,Calibri_MSFontService,sans-serif" font-weight="700" font-size="73" transform="matrix(1 0 0 1 1285.92 996)">4f</text><rect x="806.5" y="1043.5" width="148" height="149" stroke="#000000" stroke-width="4.58333" stroke-miterlimit="8" fill="#FFFFFF"/><text font-family="Calibri,Calibri_MSFontService,sans-serif" font-weight="700" font-size="73" transform="matrix(1 0 0 1 842.761 1143)">09</text><rect x="949.5" y="1043.5" width="149" height="149" stroke="#000000" stroke-width="4.58333" stroke-miterlimit="8" fill="#FFFFFF"/><text font-family="Calibri,Calibri_MSFontService,sans-serif" font-weight="700" font-size="73" transform="matrix(1 0 0 1 987.149 1143)">a6</text><rect x="1098.5" y="1043.5" width="149" height="149" stroke="#000000" stroke-width="4.58333" stroke-miterlimit="8" fill="#FFFFFF"/><text font-family="Calibri,Calibri_MSFontService,sans-serif" font-weight="700" font-size="73" transform="matrix(1 0 0 1 1135.22 1143)">88</text><rect x="1242.5" y="1043.5" width="149" height="149" stroke="#000000" stroke-width="4.58333" stroke-miterlimit="8" fill="#00B0F0"/><text font-family="Calibri,Calibri_MSFontService,sans-serif" font-weight="700" font-size="73" transform="matrix(1 0 0 1 1279.61 1143)">4a</text><rect x="1392.5" y="598.5" width="149" height="148" stroke="#000000" stroke-width="4.58333" stroke-miterlimit="8" fill="#FFFFFF"/><text font-family="Calibri,Calibri_MSFontService,sans-serif" font-weight="700" font-size="73" transform="matrix(1 0 0 1 1429.55 697)">03</text><rect x="1536.5" y="598.5" width="149" height="148" stroke="#000000" stroke-width="4.58333" stroke-miterlimit="8" fill="#FFFFFF"/><text font-family="Calibri,Calibri_MSFontService,sans-serif" font-weight="700" font-size="73" transform="matrix(1 0 0 1 1573.36 697)">01</text><rect x="1685.5" y="598.5" width="149" height="148" stroke="#000000" stroke-width="4.58333" stroke-miterlimit="8" fill="#00B0F0"/><text font-family="Calibri,Calibri_MSFontService,sans-serif" font-weight="700" font-size="73" transform="matrix(1 0 0 1 1728.89 697)">f1</text><rect x="1829.5" y="598.5" width="148" height="148" stroke="#000000" stroke-width="4.58333" stroke-miterlimit="8" fill="#FFFF00"/><rect x="1392.5" y="748.5" width="149" height="148" stroke="#000000" stroke-width="4.58333" stroke-miterlimit="8" fill="#FFFFFF"/><text font-family="Calibri,Calibri_MSFontService,sans-serif" font-weight="700" font-size="73" transform="matrix(1 0 0 1 1428.98 847)">ab</text><rect x="1536.5" y="748.5" width="149" height="148" stroke="#000000" stroke-width="4.58333" stroke-miterlimit="8" fill="#FFFFFF"/><text font-family="Calibri,Calibri_MSFontService,sans-serif" font-weight="700" font-size="73" transform="matrix(1 0 0 1 1573.36 847)">22</text><rect x="1685.5" y="748.5" width="149" height="148" stroke="#000000" stroke-width="4.58333" stroke-miterlimit="8" fill="#00B0F0"/><text font-family="Calibri,Calibri_MSFontService,sans-serif" font-weight="700" font-size="73" transform="matrix(1 0 0 1 1725.74 847)">ac</text><rect x="1829.5" y="748.5" width="148" height="148" stroke="#000000" stroke-width="4.58333" stroke-miterlimit="8" fill="#FFFF00"/><rect x="1392.5" y="896.5" width="149" height="149" stroke="#000000" stroke-width="4.58333" stroke-miterlimit="8" fill="#FFFFFF"/><text font-family="Calibri,Calibri_MSFontService,sans-serif" font-weight="700" font-size="73" transform="matrix(1 0 0 1 1432.7 996)">4c</text><rect x="1536.5" y="896.5" width="149" height="149" stroke="#000000" stroke-width="4.58333" stroke-miterlimit="8" fill="#FFFFFF"/><text font-family="Calibri,Calibri_MSFontService,sans-serif" font-weight="700" font-size="73" transform="matrix(1 0 0 1 1573.36 996)">03</text><rect x="1685.5" y="896.5" width="149" height="149" stroke="#000000" stroke-width="4.58333" stroke-miterlimit="8" fill="#00B0F0"/><text font-family="Calibri,Calibri_MSFontService,sans-serif" font-weight="700" font-size="73" transform="matrix(1 0 0 1 1722.01 996)">02</text><rect x="1829.5" y="896.5" width="148" height="149" stroke="#000000" stroke-width="4.58333" stroke-miterlimit="8" fill="#FFFF00"/><rect x="1392.5" y="1043.5" width="149" height="149" stroke="#000000" stroke-width="4.58333" stroke-miterlimit="8" fill="#FFFFFF"/><text font-family="Calibri,Calibri_MSFontService,sans-serif" font-weight="700" font-size="73" transform="matrix(1 0 0 1 1430.12 1143)">a5</text><rect x="1536.5" y="1043.5" width="149" height="149" stroke="#000000" stroke-width="4.58333" stroke-miterlimit="8" fill="#FFFFFF"/><text font-family="Calibri,Calibri_MSFontService,sans-serif" font-weight="700" font-size="73" transform="matrix(1 0 0 1 1573.36 1143)">88</text><rect x="1685.5" y="1043.5" width="149" height="149" stroke="#000000" stroke-width="4.58333" stroke-miterlimit="8" fill="#00B0F0"/><text font-family="Calibri,Calibri_MSFontService,sans-serif" font-weight="700" font-size="73" transform="matrix(1 0 0 1 1722.01 1143)">22</text><rect x="1829.5" y="1043.5" width="148" height="149" stroke="#000000" stroke-width="4.58333" stroke-miterlimit="8" fill="#FFFF00"/><rect x="1976.5" y="598.5" width="149" height="148" stroke="#000000" stroke-width="4.58333" stroke-miterlimit="8" fill="#FFFFFF"/><rect x="2120.5" y="598.5" width="149" height="148" stroke="#000000" stroke-width="4.58333" stroke-miterlimit="8" fill="#FFFFFF"/><rect x="2269.5" y="598.5" width="148" height="148" stroke="#000000" stroke-width="4.58333" stroke-miterlimit="8" fill="#FFFFFF"/><rect x="2413.5" y="598.5" width="148" height="148" stroke="#000000" stroke-width="4.58333" stroke-miterlimit="8" fill="#FFFFFF"/><rect x="1976.5" y="748.5" width="149" height="148" stroke="#000000" stroke-width="4.58333" stroke-miterlimit="8" fill="#FFFFFF"/><rect x="2120.5" y="748.5" width="149" height="148" stroke="#000000" stroke-width="4.58333" stroke-miterlimit="8" fill="#FFFFFF"/><rect x="2269.5" y="748.5" width="148" height="148" stroke="#000000" stroke-width="4.58333" stroke-miterlimit="8" fill="#FFFFFF"/><rect x="2413.5" y="748.5" width="148" height="148" stroke="#000000" stroke-width="4.58333" stroke-miterlimit="8" fill="#FFFFFF"/><rect x="1976.5" y="896.5" width="149" height="149" stroke="#000000" stroke-width="4.58333" stroke-miterlimit="8" fill="#FFFFFF"/><rect x="2120.5" y="896.5" width="149" height="149" stroke="#000000" stroke-width="4.58333" stroke-miterlimit="8" fill="#FFFFFF"/><rect x="2269.5" y="896.5" width="148" height="149" stroke="#000000" stroke-width="4.58333" stroke-miterlimit="8" fill="#FFFFFF"/><rect x="2413.5" y="896.5" width="148" height="149" stroke="#000000" stroke-width="4.58333" stroke-miterlimit="8" fill="#FFFFFF"/><rect x="1976.5" y="1043.5" width="149" height="149" stroke="#000000" stroke-width="4.58333" stroke-miterlimit="8" fill="#FFFFFF"/><rect x="2120.5" y="1043.5" width="149" height="149" stroke="#000000" stroke-width="4.58333" stroke-miterlimit="8" fill="#FFFFFF"/><rect x="2269.5" y="1043.5" width="148" height="149" stroke="#000000" stroke-width="4.58333" stroke-miterlimit="8" fill="#FFFFFF"/><rect x="2413.5" y="1043.5" width="148" height="149" stroke="#000000" stroke-width="4.58333" stroke-miterlimit="8" fill="#FFFFFF"/><rect x="3216.5" y="598.5" width="149" height="148" stroke="#000000" stroke-width="4.58333" stroke-miterlimit="8" fill="#FFFFFF"/><rect x="3360.5" y="598.5" width="149" height="148" stroke="#000000" stroke-width="4.58333" stroke-miterlimit="8" fill="#FFFFFF"/><rect x="3509.5" y="598.5" width="148" height="148" stroke="#000000" stroke-width="4.58333" stroke-miterlimit="8" fill="#FFFFFF"/><rect x="3653.5" y="598.5" width="148" height="148" stroke="#000000" stroke-width="4.58333" stroke-miterlimit="8" fill="#FFFFFF"/><rect x="3216.5" y="748.5" width="149" height="148" stroke="#000000" stroke-width="4.58333" stroke-miterlimit="8" fill="#FFFFFF"/><rect x="3360.5" y="748.5" width="149" height="148" stroke="#000000" stroke-width="4.58333" stroke-miterlimit="8" fill="#FFFFFF"/><rect x="3509.5" y="748.5" width="148" height="148" stroke="#000000" stroke-width="4.58333" stroke-miterlimit="8" fill="#FFFFFF"/><rect x="3653.5" y="748.5" width="148" height="148" stroke="#000000" stroke-width="4.58333" stroke-miterlimit="8" fill="#FFFFFF"/><rect x="3216.5" y="896.5" width="149" height="149" stroke="#000000" stroke-width="4.58333" stroke-miterlimit="8" fill="#FFFFFF"/><rect x="3360.5" y="896.5" width="149" height="149" stroke="#000000" stroke-width="4.58333" stroke-miterlimit="8" fill="#FFFFFF"/><rect x="3509.5" y="896.5" width="148" height="149" stroke="#000000" stroke-width="4.58333" stroke-miterlimit="8" fill="#FFFFFF"/><rect x="3653.5" y="896.5" width="148" height="149" stroke="#000000" stroke-width="4.58333" stroke-miterlimit="8" fill="#FFFFFF"/><rect x="3216.5" y="1043.5" width="149" height="149" stroke="#000000" stroke-width="4.58333" stroke-miterlimit="8" fill="#FFFFFF"/><rect x="3360.5" y="1043.5" width="149" height="149" stroke="#000000" stroke-width="4.58333" stroke-miterlimit="8" fill="#FFFFFF"/><rect x="3509.5" y="1043.5" width="148" height="149" stroke="#000000" stroke-width="4.58333" stroke-miterlimit="8" fill="#FFFFFF"/><rect x="3653.5" y="1043.5" width="148" height="149" stroke="#000000" stroke-width="4.58333" stroke-miterlimit="8" fill="#FFFFFF"/><text font-family="Calibri,Calibri_MSFontService,sans-serif" font-weight="700" font-size="92" transform="matrix(1 0 0 1 2829.76 902)">...<tspan font-size="83" x="-963.055" y="-342">K</tspan><tspan font-size="83" x="-1137.73" y="-343">K</tspan><tspan font-size="83" x="-1575.71" y="-343">K</tspan><tspan font-size="64" x="-916.071" y="-317">i</tspan><tspan font-size="64" x="-1090.74" y="-319">i</tspan><tspan font-size="64" x="-1074.7" y="-319">-</tspan><tspan font-size="64" x="-1055.22" y="-319">1</tspan><tspan font-size="64" x="-1528.72" y="-319">i</tspan><tspan font-size="64" x="-1512.68" y="-319">-</tspan><tspan font-size="64" x="-1493.2" y="-319">4</tspan></text><rect x="1244.5" y="1298.5" width="148" height="148" stroke="#000000" stroke-width="4.58333" stroke-miterlimit="8" fill="#00B0F0"/><text font-family="Calibri,Calibri_MSFontService,sans-serif" font-weight="700" font-size="73" transform="matrix(1 0 0 1 1280.9 1397)">03</text><rect x="1244.5" y="1445.5" width="148" height="148" stroke="#000000" stroke-width="4.58333" stroke-miterlimit="8" fill="#00B0F0"/><text font-family="Calibri,Calibri_MSFontService,sans-serif" font-weight="700" font-size="73" transform="matrix(1 0 0 1 1280.33 1544)">ba</text><rect x="1244.5" y="1593.5" width="148" height="149" stroke="#000000" stroke-width="4.58333" stroke-miterlimit="8" fill="#00B0F0"/><text font-family="Calibri,Calibri_MSFontService,sans-serif" font-weight="700" font-size="73" transform="matrix(1 0 0 1 1287.78 1693)">4f</text><rect x="1244.5" y="1740.5" width="148" height="149" stroke="#000000" stroke-width="4.58333" stroke-miterlimit="8" fill="#00B0F0"/><text font-family="Calibri,Calibri_MSFontService,sans-serif" font-weight="700" font-size="73" transform="matrix(1 0 0 1 1281.47 1840)">4a</text><rect x="1682.5" y="1298.5" width="149" height="148" stroke="#000000" stroke-width="4.58333" stroke-miterlimit="8" fill="#00B0F0"/><text font-family="Calibri,Calibri_MSFontService,sans-serif" font-weight="700" font-size="73" transform="matrix(1 0 0 1 1725.92 1397)">f1</text><rect x="1682.5" y="1445.5" width="149" height="148" stroke="#000000" stroke-width="4.58333" stroke-miterlimit="8" fill="#00B0F0"/><text font-family="Calibri,Calibri_MSFontService,sans-serif" font-weight="700" font-size="73" transform="matrix(1 0 0 1 1722.76 1544)">ac</text><rect x="1682.5" y="1593.5" width="149" height="149" stroke="#000000" stroke-width="4.58333" stroke-miterlimit="8" fill="#00B0F0"/><text font-family="Calibri,Calibri_MSFontService,sans-serif" font-weight="700" font-size="73" transform="matrix(1 0 0 1 1719.04 1693)">02</text><rect x="1682.5" y="1740.5" width="149" height="149" stroke="#000000" stroke-width="4.58333" stroke-miterlimit="8" fill="#00B0F0"/><text font-family="Calibri,Calibri_MSFontService,sans-serif" font-weight="700" font-size="73" transform="matrix(1 0 0 1 1719.04 1840)">22<tspan font-size="73" x="-245.377" y="-219">XOR</tspan><tspan font-size="73" x="181.483" y="-219">=</tspan></text><rect x="2007.5" y="1300.5" width="149" height="149" stroke="#000000" stroke-width="4.58333" stroke-miterlimit="8" fill="#00B050"/><text font-family="Calibri,Calibri_MSFontService,sans-serif" font-weight="700" font-size="73" transform="matrix(1 0 0 1 2043.96 1400)">23</text><rect x="2007.5" y="1447.5" width="149" height="149" stroke="#000000" stroke-width="4.58333" stroke-miterlimit="8" fill="#00B050"/><text font-family="Calibri,Calibri_MSFontService,sans-serif" font-weight="700" font-size="73" transform="matrix(1 0 0 1 2044.53 1547)">a3</text><rect x="2007.5" y="1596.5" width="149" height="149" stroke="#000000" stroke-width="4.58333" stroke-miterlimit="8" fill="#00B050"/><text font-family="Calibri,Calibri_MSFontService,sans-serif" font-weight="700" font-size="73" transform="matrix(1 0 0 1 2043.96 1695)">39</text><rect x="2007.5" y="1743.5" width="149" height="149" stroke="#000000" stroke-width="4.58333" stroke-miterlimit="8" fill="#00B050"/><text font-family="Calibri,Calibri_MSFontService,sans-serif" font-weight="700" font-size="73" transform="matrix(1 0 0 1 2043.96 1843)">39<tspan fill="#00B0F0" font-size="83" x="-1356.42" y="-1370">GÉNÉRATION DE SOUS</tspan><tspan fill="#00B0F0" font-size="83" x="-589.418" y="-1370">-</tspan><tspan fill="#00B0F0" font-size="83" x="-564.21" y="-1370">CLÉ</tspan></text></g></svg>