<svg width="3835" height="1925" xmlns="http://www.w3.org/2000/svg" xmlns:xlink="http://www.w3.org/1999/xlink" overflow="hidden"><defs><clipPath id="clip0"><rect x="123" y="523" width="3835" height="1925"/></clipPath></defs><g clip-path="url(#clip0)" transform="translate(-123 -523)"><path d="M1406.34 2003.47 1384 1019" stroke="#5B9BD5" stroke-width="2.29167" stroke-miterlimit="8" stroke-dasharray="9.16667 6.875" fill="none" fill-rule="evenodd"/><path d="M123 1481.13 1939.13 1481.13 1939.13 1494.88 123 1494.88ZM1932.26 1467.38 1973.51 1488 1932.26 1508.63Z" fill="#7F7F7F"/><path d="M6.875-1.72665e-06 6.87535 1402.59-6.87465 1402.59-6.875 1.72665e-06ZM20.6254 1395.71 0.000360892 1436.96-20.6246 1395.71Z" fill="#7F7F7F" transform="matrix(1 0 0 -1 773 2162.96)"/><path d="M1516.26 799.5C1400.69 994.693 1285.13 1189.89 1164.95 1241.62 1044.77 1293.36 910.714 1067.6 795.153 1109.93 679.591 1152.26 476.203 1365.48 471.581 1495.61 466.959 1625.74 661.101 1851.5 767.418 1890.7 873.734 1929.9 983.132 1685.32 1109.48 1730.78 1235.83 1776.25 1380.66 1969.87 1525.5 2163.5" stroke="#FFC000" stroke-width="20.625" stroke-miterlimit="8" fill="none" fill-rule="evenodd"/><text fill="#7F7F7F" font-family="Calibri,Calibri_MSFontService,sans-serif" font-weight="700" font-size="110" transform="matrix(1 0 0 1 2018.81 1517)">x<tspan font-size="110" x="-1272.67" y="-858">y</tspan></text><path d="M0 0 1265.69 614.306" stroke="#A9D18E" stroke-width="2.29167" stroke-miterlimit="8" fill="none" fill-rule="evenodd" transform="matrix(1 0 0 -1 259 1564.31)"/><path d="M437.5 1466.5C437.5 1449.93 450.932 1436.5 467.5 1436.5 484.068 1436.5 497.5 1449.93 497.5 1466.5 497.5 1483.07 484.068 1496.5 467.5 1496.5 450.932 1496.5 437.5 1483.07 437.5 1466.5Z" stroke="#7F7F7F" stroke-width="4.58333" stroke-miterlimit="8" fill="#9DC3E6" fill-rule="evenodd"/><path d="M981.5 1205C981.5 1188.16 994.931 1174.5 1011.5 1174.5 1028.07 1174.5 1041.5 1188.16 1041.5 1205 1041.5 1221.84 1028.07 1235.5 1011.5 1235.5 994.931 1235.5 981.5 1221.84 981.5 1205Z" stroke="#7F7F7F" stroke-width="4.58333" stroke-miterlimit="8" fill="#9DC3E6" fill-rule="evenodd"/><text fill="#7F7F7F" font-family="Calibri,Calibri_MSFontService,sans-serif" font-style="italic" font-weight="700" font-size="83" transform="matrix(1 0 0 1 188.383 1377)">P(x<tspan font-size="55" x="107.708" y="20">1</tspan><tspan font-size="83" x="135.781" y="0">,y</tspan><tspan font-size="55" x="195.938" y="20">1</tspan><tspan font-size="83" x="224.01" y="0">)</tspan><tspan font-size="83" x="727.128" y="-5">Q(x</tspan><tspan font-size="55" x="846.868" y="15">2</tspan><tspan font-size="83" x="874.941" y="-5">,y</tspan><tspan font-size="55" x="935.097" y="15">2</tspan><tspan font-size="83" x="963.17" y="-5">)</tspan></text><path d="M1378.5 2014.5C1378.5 1997.93 1391.93 1984.5 1408.5 1984.5 1425.07 1984.5 1438.5 1997.93 1438.5 2014.5 1438.5 2031.07 1425.07 2044.5 1408.5 2044.5 1391.93 2044.5 1378.5 2031.07 1378.5 2014.5Z" stroke="#7F7F7F" stroke-width="4.58333" stroke-miterlimit="8" fill="#9DC3E6" fill-rule="evenodd"/><text fill="#7F7F7F" font-family="Calibri,Calibri_MSFontService,sans-serif" font-style="italic" font-weight="700" font-size="83" transform="matrix(1 0 0 1 1447.17 1966)">R(x<tspan font-size="55" x="110" y="20">3</tspan><tspan font-size="83" x="138.073" y="0">,y</tspan><tspan font-size="55" x="198.229" y="20">3</tspan><tspan font-size="83" x="226.302" y="0">)</tspan></text><path d="M1353.5 1018.5C1353.5 1001.93 1366.93 988.5 1383.5 988.5 1400.07 988.5 1413.5 1001.93 1413.5 1018.5 1413.5 1035.07 1400.07 1048.5 1383.5 1048.5 1366.93 1048.5 1353.5 1035.07 1353.5 1018.5Z" stroke="#7F7F7F" stroke-width="4.58333" stroke-miterlimit="8" fill="#9DC3E6" fill-rule="evenodd"/><text fill="#7F7F7F" font-family="Calibri,Calibri_MSFontService,sans-serif" font-style="italic" font-weight="700" font-size="83" transform="matrix(1 0 0 1 1107.4 917)">-<tspan font-size="83" x="25.2083" y="0">R(x</tspan><tspan font-size="55" x="135.208" y="20">3</tspan><tspan font-size="83" x="163.281" y="0">,</tspan><tspan font-size="83" x="184.479" y="0">-</tspan><tspan font-size="83" x="209.688" y="0">y</tspan><tspan font-size="55" x="248.646" y="20">3</tspan><tspan font-size="83" x="276.719" y="0">)</tspan><tspan fill="#8FAADC" font-style="normal" font-size="110" x="1473.46" y="45">TROUVER x</tspan><tspan fill="#8FAADC" font-style="normal" font-size="73" x="1990.88" y="72">3 </tspan><tspan fill="#8FAADC" font-style="normal" font-size="110" x="2044.73" y="45">ET y</tspan><tspan fill="#8FAADC" font-style="normal" font-size="73" x="2229.78" y="72">3 </tspan><tspan fill="#8FAADC" font-style="normal" font-size="110" x="2283.64" y="45">VARIABLES</tspan></text><path d="M2581.28 973.774 2839.78 973.774 3098.28 973.774 3098.28 980.774 2839.78 980.774 2581.28 980.774Z" fill="#8FAADC" fill-rule="evenodd"/><path d="M3152.28 973.774 3337.28 973.774 3337.28 980.774 3152.28 980.774Z" fill="#8FAADC" fill-rule="evenodd"/><path d="M3391.28 973.774 3639.28 973.774 3887.28 973.774 3887.28 980.774 3639.28 980.774 3391.28 980.774Z" fill="#8FAADC" fill-rule="evenodd"/><text fill="#595959" font-family="Calibri,Calibri_MSFontService,sans-serif" font-style="italic" font-weight="700" font-size="110" transform="matrix(1 0 0 1 2916.59 1199)">y<tspan font-size="73" x="51.5625" y="27">1</tspan><tspan font-size="110" x="113.438" y="0">= m</tspan><tspan font-size="110" x="305.938" y="0">*</tspan><tspan font-size="110" x="385.573" y="0">x</tspan><tspan font-size="73" x="435.99" y="27">1</tspan><tspan font-size="110" x="497.865" y="0">+ b</tspan><tspan font-size="110" x="-16.8894" y="238">-</tspan><tspan font-size="110" x="16.9126" y="238">y</tspan><tspan font-size="73" x="68.4751" y="265">3</tspan><tspan font-size="110" x="130.35" y="238">= m </tspan><tspan font-size="110" x="322.85" y="238">*</tspan><tspan font-size="110" x="402.486" y="238">x</tspan><tspan font-size="73" x="452.902" y="265">3</tspan><tspan font-size="110" x="514.777" y="238">+ b</tspan><tspan font-size="110" x="-258.958" y="476">-</tspan><tspan font-size="110" x="-225.156" y="476">y</tspan><tspan font-size="73" x="-173.594" y="503">3</tspan><tspan font-size="110" x="-111.719" y="476">= m </tspan><tspan font-size="110" x="80.7813" y="476">*</tspan><tspan font-size="110" x="160.417" y="476">x</tspan><tspan font-size="73" x="210.834" y="503">3</tspan><tspan font-size="110" x="272.709" y="476">+ (y</tspan><tspan font-size="73" x="438.281" y="503">1</tspan><tspan font-size="110" x="500.156" y="476">–</tspan><tspan font-size="110" x="579.792" y="476">m </tspan><tspan font-size="110" x="692.656" y="476">*</tspan><tspan font-size="110" x="772.292" y="476">x</tspan><tspan font-size="73" x="822.709" y="503">1</tspan><tspan font-size="110" x="859.948" y="476">)</tspan></text><path d="M2455.5 1923.83C2455.5 1890.51 2482.51 1863.5 2515.83 1863.5L3895.17 1863.5C3928.49 1863.5 3955.5 1890.51 3955.5 1923.83L3955.5 2165.17C3955.5 2198.49 3928.49 2225.5 3895.17 2225.5L2515.83 2225.5C2482.51 2225.5 2455.5 2198.49 2455.5 2165.17Z" stroke="#7F7F7F" stroke-width="4.58333" stroke-miterlimit="8" fill="#FFF2CC" fill-rule="evenodd"/><text fill="#7F7F7F" font-family="Calibri,Calibri_MSFontService,sans-serif" font-style="italic" font-weight="700" font-size="110" transform="matrix(1 0 0 1 2720.68 2075)">y<tspan font-size="73" x="51.5625" y="27">3</tspan><tspan font-size="110" x="113.438" y="0">= m </tspan><tspan font-size="110" x="305.938" y="0">*</tspan><tspan font-size="110" x="385.573" y="0">( </tspan><tspan font-size="110" x="444.584" y="0">x</tspan><tspan font-size="73" x="495" y="27">1</tspan><tspan font-size="110" x="556.875" y="0">–</tspan><tspan font-size="110" x="636.511" y="0">x</tspan><tspan font-size="73" x="686.927" y="27">3 </tspan><tspan font-size="110" x="740.781" y="0">) </tspan><tspan font-size="110" x="799.792" y="0">–</tspan><tspan font-size="110" x="879.427" y="0">y</tspan><tspan font-size="73" x="930.99" y="27">1</tspan></text></g></svg>