<svg width="3268" height="1686" xmlns="http://www.w3.org/2000/svg" xmlns:xlink="http://www.w3.org/1999/xlink" overflow="hidden"><defs><clipPath id="clip0"><rect x="946" y="298" width="3268" height="1686"/></clipPath></defs><g clip-path="url(#clip0)" transform="translate(-946 -298)"><text fill="#7F7F7F" font-family="Calibri,Calibri_MSFontService,sans-serif" font-style="italic" font-weight="400" font-size="92" transform="matrix(1 0 0 1 1075.91 1720)">données de <tspan font-weight="700" font-size="92" x="442.292" y="0">taille arbitraire </tspan><tspan font-size="92" x="-49.7979" y="110">(chaîne de longueur arbitraire)</tspan><tspan fill="#A9D18E" font-weight="700" font-size="92" x="1993.45" y="-516">TABLEAUX ASSOCIATIFS </tspan><tspan fill="#A9D18E" font-weight="700" font-size="92" x="1792.1" y="-406">BESOIN O(1) TEMPS D’EXÉCUTION</tspan><tspan fill="#A9D18E" font-weight="700" font-size="92" x="1886.93" y="-296">MAIS ICI CE N’EST PAS LE CAS</tspan><tspan font-weight="700" font-size="92" x="1061.15" y="-1308">Taille fixe</tspan><tspan font-size="92" x="993.436" y="-1198">string (</tspan><tspan font-weight="700" font-size="92" x="1254.23" y="-1198">d</tspan><tspan font-size="92" x="1322.98" y="-1198">bits)</tspan><tspan font-weight="700" font-size="92" x="857.379" y="-978">MD5</tspan><tspan font-size="92" x="1062.48" y="-978">–</tspan><tspan font-weight="700" font-size="92" x="1128.94" y="-978">d</tspan><tspan font-size="92" x="1197.69" y="-978">est</tspan><tspan font-weight="700" font-size="92" x="1327.29" y="-978">128</tspan><tspan font-size="92" x="1487.13" y="-978">bits</tspan><tspan font-weight="700" font-size="92" x="848.488" y="-868">SHA1</tspan><tspan font-size="92" x="1071.35" y="-868">–</tspan><tspan font-weight="700" font-size="92" x="1137.81" y="-868">d</tspan><tspan font-size="92" x="1206.56" y="-868">est</tspan><tspan font-weight="700" font-size="92" x="1336.15" y="-868">160</tspan><tspan font-size="92" x="1496" y="-868">bits</tspan><tspan font-weight="700" font-size="92" x="848.488" y="-758">SHA2</tspan><tspan font-size="92" x="1071.35" y="-758">–</tspan><tspan font-weight="700" font-size="92" x="1137.81" y="-758">d </tspan>est<tspan font-weight="700" font-size="92" x="1336.15" y="-758">256</tspan><tspan font-size="92" x="1496" y="-758">bits</tspan></text><path d="M948.5 1149.34C948.5 1108.56 981.557 1075.5 1022.34 1075.5L2688.66 1075.5C2729.44 1075.5 2762.5 1108.56 2762.5 1149.34L2762.5 1444.66C2762.5 1485.44 2729.44 1518.5 2688.66 1518.5L1022.34 1518.5C981.557 1518.5 948.5 1485.44 948.5 1444.66Z" stroke="#000000" stroke-width="4.58333" stroke-miterlimit="8" fill="#EDE0B1" fill-rule="evenodd"/><text fill="#595959" font-family="Calibri,Calibri_MSFontService,sans-serif" font-weight="700" font-size="156" transform="matrix(1 0 0 1 1249.76 1349)">H : {0, 1}<tspan font-size="104" x="552.292" y="-62">*</tspan><tspan font-size="156" x="638.802" y="0">→ {0, 1}</tspan><tspan font-size="104" x="1155.57" y="-62">d</tspan></text></g></svg>