<svg width="3800" height="1702" xmlns="http://www.w3.org/2000/svg" xmlns:xlink="http://www.w3.org/1999/xlink" overflow="hidden"><defs><clipPath id="clip0"><rect x="301" y="608" width="3800" height="1702"/></clipPath></defs><g clip-path="url(#clip0)" transform="translate(-301 -608)"><path d="M303.5 695.834C303.5 648.705 341.705 610.5 388.834 610.5L2922.17 610.5C2969.29 610.5 3007.5 648.705 3007.5 695.834L3007.5 1037.17C3007.5 1084.29 2969.29 1122.5 2922.17 1122.5L388.834 1122.5C341.705 1122.5 303.5 1084.29 303.5 1037.17Z" stroke="#7F7F7F" stroke-width="4.58333" stroke-miterlimit="8" fill="#9DC3E6" fill-rule="evenodd"/><text fill="#595959" font-family="Calibri,Calibri_MSFontService,sans-serif" font-weight="700" font-size="92" transform="matrix(1 0 0 1 1133.37 787)">–<tspan font-size="92" x="66.4583" y="0">RÉSISTANCE PRÉ</tspan><tspan font-size="92" x="685.392" y="0">-</tspan><tspan font-size="92" x="713.465" y="0">IMAGE </tspan><tspan font-size="92" x="996.508" y="0">–</tspan><tspan font-weight="400" font-size="92" x="-748.825" y="110">il est exponentiellement difficile (infaisable sur le plan informatique) </tspan><tspan font-weight="400" font-size="92" x="-538.06" y="220">à </tspan><tspan font-weight="400" font-size="92" x="-473.321" y="220">déterminer le </tspan><tspan font-weight="400" font-size="92" x="56.8792" y="220">message </tspan>m<tspan font-weight="400" font-size="92" x="496.123" y="220">du résumé du message </tspan><tspan font-size="92" x="1374.72" y="220">h(m</tspan><tspan font-size="92" x="1527.12" y="220">).</tspan></text><path d="M848.5 1279.83C848.5 1232.71 886.705 1194.5 933.834 1194.5L3467.17 1194.5C3514.29 1194.5 3552.5 1232.71 3552.5 1279.83L3552.5 1621.17C3552.5 1668.29 3514.29 1706.5 3467.17 1706.5L933.834 1706.5C886.705 1706.5 848.5 1668.29 848.5 1621.17Z" stroke="#7F7F7F" stroke-width="4.58333" stroke-miterlimit="8" fill="#FFE699" fill-rule="evenodd"/><text fill="#595959" font-family="Calibri,Calibri_MSFontService,sans-serif" font-weight="700" font-size="92" transform="matrix(1 0 0 1 1465.12 1316)">–<tspan font-size="92" x="66.4583" y="0">DEUXIÈME RÉSISTANCE PRÉ</tspan><tspan font-size="92" x="1112.79" y="0">-</tspan><tspan font-size="92" x="1140.86" y="0">IMAGE </tspan><tspan font-size="92" x="1423.9" y="0">–</tspan><tspan font-weight="400" font-size="92" x="-365.933" y="110">si </tspan><tspan font-size="92" x="-288.017" y="110">m</tspan><tspan font-size="61" x="-213.538" y="132">1</tspan><tspan font-weight="400" font-size="92" x="-161.975" y="110">est donné alors il est impossible de trouver </tspan><tspan font-size="92" x="1456.84" y="110">m</tspan><tspan font-size="61" x="1531.31" y="132">2 </tspan><tspan font-weight="400" font-size="92" x="1576" y="110">tel </tspan><tspan font-weight="400" font-size="92" x="1693.61" y="110">que</tspan><tspan font-size="92" x="-170.683" y="220">h(m</tspan><tspan font-size="61" x="-18.2876" y="242">1</tspan><tspan font-size="92" x="12.6499" y="220">) = h(m</tspan><tspan font-size="61" x="280.775" y="242">2</tspan><tspan font-size="92" x="311.712" y="220">)</tspan><tspan font-weight="400" font-size="92" x="360.983" y="220">donc </tspan><tspan font-weight="400" font-size="92" x="564.942" y="220">les hachages sont les </tspan><tspan font-weight="400" font-size="92" x="1363.7" y="220">mêmes.</tspan></text><path d="M1393.5 1864.84C1393.5 1817.71 1431.71 1779.5 1478.84 1779.5L4013.16 1779.5C4060.29 1779.5 4098.5 1817.71 4098.5 1864.84L4098.5 2206.16C4098.5 2253.29 4060.29 2291.5 4013.16 2291.5L1478.84 2291.5C1431.71 2291.5 1393.5 2253.29 1393.5 2206.16Z" stroke="#7F7F7F" stroke-width="4.58333" stroke-miterlimit="8" fill="#C5E0B4" fill-rule="evenodd"/><text fill="#595959" font-family="Calibri,Calibri_MSFontService,sans-serif" font-weight="700" font-size="92" transform="matrix(1 0 0 1 2126.6 1901)">–<tspan font-size="92" x="66.4583" y="0">RÉSISTANCE AUX COLLISIONS </tspan><tspan font-size="92" x="1191.92" y="0">–</tspan><tspan font-weight="400" font-size="92" x="-339.602" y="110">il est impossible de trouver des messages </tspan>m1<tspan font-weight="400" font-size="92" x="1359.53" y="110">et </tspan>m2<tspan font-weight="400" font-size="92" x="-575.804" y="220">tel que </tspan><tspan font-size="92" x="-295.488" y="220">h(m</tspan><tspan font-size="61" x="-143.092" y="242">1</tspan><tspan font-size="92" x="-112.154" y="220">) = h(m</tspan><tspan font-size="61" x="155.971" y="242">2</tspan><tspan font-size="92" x="186.908" y="220">)</tspan><tspan font-weight="400" font-size="92" x="215.554" y="220">. </tspan><tspan font-weight="400" font-size="92" x="259.096" y="220">Il </tspan><tspan font-weight="400" font-size="92" x="323.835" y="220">est plus facile de briser la résistance aux </tspan><tspan font-weight="400" font-size="92" x="-279.286" y="330">collisions que </tspan><tspan font-weight="400" font-size="92" x="243.604" y="330">la deuxième résistance pré</tspan><tspan font-weight="400" font-size="92" x="1239.33" y="330">-</tspan><tspan font-weight="400" font-size="92" x="1267.41" y="330">image.</tspan></text></g></svg>